<?xml version="1.0" encoding="utf-8"?>
<!-- Generator: Adobe Illustrator 18.0.0, SVG Export Plug-In . SVG Version: 6.00 Build 0)  -->
<!DOCTYPE svg PUBLIC "-//W3C//DTD SVG 1.0//EN" "http://www.w3.org/TR/2001/REC-SVG-20010904/DTD/svg10.dtd">
<svg version="1.0" id="Objects" xmlns="http://www.w3.org/2000/svg" xmlns:xlink="http://www.w3.org/1999/xlink" x="0px" y="0px"
	 viewBox="0 0 100 100" enable-background="new 0 0 100 100" xml:space="preserve">
<path id="XMLID_600_" fill="#333333" d="M78.7,21.6c-1.3-2.2-2.9-5.1-5.8-4.8c-0.2,0-0.4,0.1-0.6,0.1c-0.1,0-0.1,0-0.2,0
	c0,0,0,0,0,0c0,0-0.1,0-0.1,0c0,0-0.1,0-0.1,0l-0.1,0c0,0,0,0,0,0c-1.4,0.2-2.8,1-4.2,1.8c-0.2-0.2-0.4-0.5-0.5-0.7
	c-0.7-1-1.4-1.3-2.5-0.6c-1.1,0.7-2.8,0.6-3.2,2.2c-0.3,0.9,0.6,1.9,1.4,2.6c-0.2,0.2-0.5,0.3-0.7,0.5c-2.3,1.1-4.3,2.6-6.4,4.1
	c-0.6,0.4-1.6,0.8-2.2,1.2c-1.2-0.3-2.4-0.5-3.5-0.6c-2.3-0.1-4.8,0.5-7.2,1.5c-0.3-0.6-0.8-1.1-1.2-1.6c-0.2-0.3-0.3-0.7-0.5-1
	c0.6-0.3,1.1-0.6,1.8-0.9c0.4-0.2,0.5-0.7,0.3-1.1c-0.9-1.6-2-5.9-3.8-6.7c-1.5-0.6-3.5,1.4-4.6,2c-0.6,0.3-1.1,0.7-1.7,1
	c-0.1,0-0.1,0-0.2,0.1c-0.1,0.1-0.1,0.1-0.2,0.2c-2,1.1-3.9,2.3-5.8,3.6c-1.7,1.1-4.4,2.3-5.6,3.9c-0.2,0.2-0.1,0.5,0,0.7
	c0.6,1.5,1.7,2.8,2.9,4c0.3,0.5,0.7,0.9,1,1.4c0.2,0.3,0.5,0.4,0.8,0.2c0.4-0.3,0.7-0.5,1.1-0.8c0.9-0.6,1.7-1.2,2.6-1.8
	c0.8,1,1.7,2,2.6,3c-3,2.5-6,5.8-6.8,9.5c0,0,0,0.1,0,0.1c-0.3,0.1-1.2,0.5-2.4,1.2c-0.4-0.8-0.9-1.4-1.3-2.2
	c-0.4-0.6-0.5-1.7-1.1-2.1c-1-0.7-1.5,0-2.4,0.6c-1.7,1.1-3.3,2-5,3.3c-1.5,1.1-2.9,2.9-4.8,3.2c-0.3,0.1-0.5,0.4-0.6,0.7
	c-0.1,0.9,1,2.8,2.1,3.7c-1.4,0.8-2.6,1.7-3.3,3c-1.6,2.9,1.2,5.7,2.7,7.9c3.1,4.6,5.8,9.4,8.7,14.2c1.4,2.2,2.7,4.6,3.9,6.9
	c0.8,1.5,1.7,4.4,3,5.4c1.9,1.5,4.1-0.3,5.9-1.3c4.5-2.6,8.8-5.6,13.2-8.4c1.6-1,4.3-1.9,5.9-3.3c2.7-0.2,5.3-0.9,7.8-2
	c5.5-1.9,10.7-5.8,13.7-10.5c4-0.6,8.4-4.8,11.7-6.6c2.4-1.3,4.7-2.9,7.1-4.4c1.2-0.7,1.9-1.3,2.7-2.6C93,51,93,50.8,93,50.7
	c1-1.1,0.8-1.8-0.2-3.4c-2.5-4.1-4.5-8.4-6.9-12.5C83.4,30.4,81.2,25.9,78.7,21.6z M62.6,20c0-0.9,1.5-0.8,2.1-1.1
	c0.7-0.4,0.9-0.8,1.4,0c0.1,0.2,0.3,0.4,0.4,0.6c-1,0.7-1.9,1.4-2.8,2c-0.1-0.2-0.3-0.4-0.3-0.4C63.2,20.9,62.6,20.3,62.6,20z
	 M29.8,30.7c-0.3,0.2-0.4,0.4-0.4,0.7c-0.5,0.1-1.1,0.2-1.6,0.4c-0.2,0-0.4,0.1-0.6,0.1c-0.5,0.1-0.5,0.3-0.4,0.4
	c-0.1,0.1-0.2,0.1-0.3,0.2c-0.2-0.1-0.6-0.2-1.2-0.5c-0.3-0.1-0.6-0.7-0.8-0.9c-0.3-0.3-1.9-1.7-2-2.4c0.2,0.2,1.5-0.5,1.5-0.5
	c1.5-0.7,2.8-2.1,4.2-2.9c2.9-1.8,5.7-4,8.9-5.2c1.7-0.7,1.2-0.5,2.4,0.7c0.6,0.6,1.5,2.3,1.6,3.1c0,0.7-0.1,1-1,1.3
	c-0.5-0.4-1.1-0.3-1.8-0.1c-1.7,0.5-3.1,1.6-4.6,2.5C32.1,28.4,31.2,29.6,29.8,30.7z M31.3,31.6c0.5-0.4,0.8-0.8,1.3-1.3
	c1.1-1.2,2.9-2,4.3-2.8c0.4-0.2,1.3-0.9,1.8-0.9c0.1,0.1,0.2,0.1,0.3,0.1c0,0,0,0.1,0.1,0.2c0.4,0.3,0.6,1.2,0.9,1.6
	c0.3,0.4,0.6,0.8,0.8,1.1c-2.6,1.2-5,2.6-6.9,4c-0.3,0.2-0.7,0.5-1,0.7C32.6,33.2,32,32.5,31.3,31.6z M10.8,49.1
	c1.1-0.7,2.1-1.6,3.1-2.4c1.5-1.1,3.4-3,5.2-3.4c0,0,0.6-0.4,0.4-0.4c0.2,0.1,0.5,1.3,0.6,1.5c0.4,0.8,0.9,1.5,1.5,2.1
	c-1.5,0.9-3.3,2-5.1,3.2c-0.5,0.2-0.9,0.4-1.4,0.6c-1.2,0.6-2.7,1.2-4.2,1.9c-0.6-1-1.7-2.7-1.8-2.4C9.3,49.8,10.8,49.1,10.8,49.1z
	 M10.6,62.2c-1.1-1.7-3.1-3.5-2-5.7c0,0,0-0.1,0.1-0.1c0.2,0.1,0.5,0.1,0.7-0.1c2.2-2.1,4.9-3.3,7.5-4.8c0.3-0.1,0.6-0.3,0.8-0.4
	c2.4-1.2,4.8-3.5,7.3-4.5c0,0.6-0.1,1.2-0.1,1.9c0,1.1,0,2.1,0.2,3.2c0.1,0.8,0.2,1.5,0.3,2.3c0,0-0.1,0-0.2,0
	c-1.7,0.7-3.4,1.6-5,2.5c0,0,0,0-0.1,0c-0.9-0.1-1.1,0.2-1.9,0.7c-0.4,0.3-0.7,0.5-1.1,0.8c-0.4,0.3-0.8,0.6-1.1,0.9
	c-1.9,1-3.8,2.1-5.4,3.6C10.7,62.3,10.7,62.3,10.6,62.2z M31.3,74.7c-0.2,0.3-0.3,0.6-0.5,1c-0.1,0.1-0.1,0.3-0.1,0.4c0,0,0,0,0,0
	c-0.3,0.2-0.7,0.4-1,0.6c-0.3,0.2-0.6,0.3-0.9,0.4c0.9-1.3,2-2.5,2.4-4c0.2,0,0.4-0.1,0.4-0.3c0.1,0.2,0.3,0.4,0.4,0.6
	c-0.1,0-0.2,0.1-0.2,0.1c0,0,0,0,0,0c-0.1,0-0.1,0-0.2,0.1C31,73.8,31.1,74.3,31.3,74.7z M18.2,68.9c-0.2-1-0.4-2-0.5-2.9
	c0.3,0.5,0.6,1.1,0.9,1.6c0.1,0.7,0.2,1.4,0.3,2.1c0,0.1,0,0.2,0,0.3c-0.2-0.2-0.4-0.5-0.6-0.7C18.2,69.2,18.2,69,18.2,68.9z
	 M23.4,76.2c-0.1-0.3-0.2-0.6-0.3-0.9c0-0.2-0.1-0.4-0.1-0.6c-0.1-0.5-0.1-1.1-0.1-1.6c0.1,0.2,0.2,0.4,0.3,0.7
	c0.1,0.2,0.2,0.2,0.3,0.1c0,0.9,0,1.8,0,2.6C23.5,76.4,23.5,76.3,23.4,76.2z M43.3,78.8c-3.2,2.1-6.4,3.9-9.6,5.9
	c-1.6,1-2.9,2.3-4.6,3.2c-2.7,1.4-2.6,1-3.9-1.4c-0.6-1.1-1.2-2.2-1.8-3.2c0.4,0.5,1.1,0,0.8-0.6c0-0.1-0.1-0.1-0.1-0.2
	c0.6-0.4,1.1-0.9,1.9-1.5c1.7-1.5,3.8-2.7,5.7-3.8c1.8-1,3.5-2.1,5.3-3.1c0.3-0.2,0.7-0.3,1-0.4c2.9,1.8,5.9,3.1,8.8,3.4
	C45.5,77.8,44,78.3,43.3,78.8z M64.1,69.2c-3.2,2.4-7.1,4.2-10.9,5c-11.1,2.3-20.2-6.1-24.4-15.6c-0.3-0.7-0.6-1.5-0.9-2.2
	c-0.2-1-0.3-1.9-0.4-2.9c-0.6-4.8-1-9.3,2.2-13.2c3.3-4.1,8.1-7.2,12.9-9c1.6-0.6,3.1-1,4.5-1.2c1.6-0.1,3.2,0.1,4.8,0.5
	c0.1,0,0.2,0.1,0.3,0.1c2.2,0.5,4.4,1.4,6.7,2.6c1,0.5,2,1.1,2.9,1.7c5.7,4.8,9.7,12.6,10,19.7c0,0.6,0,1.1,0,1.7
	c0,0.2,0,0.4-0.1,0.6C71,61.3,68,65.8,64.1,69.2z M91.2,49.7c-0.5,1.1-2.5,2.2-3.3,2.8c-3.4,2.5-7.1,4.5-10.5,6.8
	c-1.4,1-2.9,1.9-4.5,2.8c0.3-0.8,0.6-1.6,0.8-2.5c0.4-2,0.5-4,0.4-6c0.1,0,0.1-0.1,0.2-0.1c0,0.1,0.1,0.2,0.1,0.2
	c0.2,0.3,0.6,0.4,0.9,0.1c0.6-0.7,1.2-1.5,1.7-2.4c1.2-0.7,2.3-1.5,3.5-2.1c2.9-1.6,5.6-3.7,8.5-5.3c0.5,0.8,1,1.7,1.4,2.5
	C91,48.1,91.8,48.3,91.2,49.7z M75.3,49.9c-0.3-0.3-0.5-0.4-0.6-0.5c-0.1-0.9-0.3-1.9-0.5-2.7c0.5,0.7,1,1.5,1.6,2.2c0,0,0,0,0,0
	c-0.2,0.3-0.1,0.5,0.1,0.8c0.2,0.2,0.4,0.4,0.6,0.5c-0.2,0.3-0.3,0.6-0.5,0.8c-0.4,0.2-0.7,0.4-1.1,0.7c0-0.2,0-0.5,0-0.7
	c0.1-0.1,0.3-0.1,0.4-0.2C75.4,50.5,75.5,50.1,75.3,49.9z M80,46.1c-1-1.8-1.9-3.7-2.9-5.4c1.1,1.6,2.3,3.1,3.3,4.8
	c0.1,0.1,0.2,0.2,0.3,0.2C80.5,45.8,80.2,46,80,46.1z M79.1,37.1c-0.1,0-0.1,0-0.2,0c-0.9-1.4-1.8-2.8-2.9-4.1c0,0-0.1-0.1-0.1-0.1
	c0.1-0.3,0.1-0.6,0.1-0.9c0.1,0.1,0.1,0.2,0.2,0.3c0.4,0.5,0.7,1.1,1,1.6C77.8,35,78.4,36.1,79.1,37.1z M82.2,43
	C82.2,43,82.2,43,82.2,43c0.1,0.1,0.2,0.2,0.3,0.2c0.4,0.5,0.9,1,1.4,1.3c-0.2,0.1-0.4,0.3-0.6,0.5c-0.2-0.3-0.6-0.6-1-0.3
	c-0.3,0.2-0.6,0.4-0.9,0.6c0-0.1,0-0.2,0-0.4c-0.5-0.9-1-1.9-1.5-2.9c0.5,0.6,0.9,1.1,1.4,1.7C81.7,44.2,82.5,43.6,82.2,43z
	 M76.2,22.7c-0.5-0.4-1.1,0.1-0.9,0.7c-0.3,0.3-0.7,0.6-1,0.8c-1.5,1-3.1,1.8-4.7,2.6c-2.7,1.3-5.7,3-8.2,5c-1.7-1.2-3.7-2.3-5.8-3
	c1.5-0.8,3.2-2,4.7-3.1c0.5-0.3,1.1-0.6,1.6-0.9c1.6-0.8,3.2-1.2,4.8-2.1c1.4-0.9,2.7-2.1,4.2-2.8c3-1.4,4.8,0.3,6.3,2.7
	C76.8,22.5,76.5,22.6,76.2,22.7z"/>
<path id="XMLID_597_" fill="#333333" d="M61.9,42.2c-2.6-4-7.2-5.6-11.8-6.4c-9.8-1.8-17.3,5.9-16.7,15.4c-0.1,2.9-0.4,5.3,1.1,8.1
	c1.3,2.4,3,4.2,5.2,5.8c4.2,2.9,8.2,4.2,13.1,2.5c4.2-1.4,10-4.8,11.7-9.1C66.6,53,64.9,46.9,61.9,42.2z M63.5,55.8
	c-2.1,8-13,12.9-20.3,9.5c-5.9-2.8-8.7-7.1-8.5-13.7c0.1-3.8,0.8-9.3,4.8-11.2c0.3-0.1,0.2-0.6-0.1-0.5c2.2-1.8,5-2.9,8.3-2.8
	C57.1,37.2,66.1,45.9,63.5,55.8z"/>
<path id="XMLID_596_" fill="#333333" d="M53.3,40.1c-0.2-0.1-0.4,0.2-0.2,0.3c1.3,1.1,2.6,2.4,2.8,4.2c0.1,0.7-0.6,3.4-1.5,3.2
	c-0.1,0-1.1-1.1-1.4-1.2c-1-0.5-1.7-1-2.6-1.7c-0.6-0.5-1.1-0.6-1.9-0.7c-0.4-0.1-0.8,0-1.2-0.1c-1.9-0.2-2.2,0-2.5-2
	c-0.3-1.9-0.1-2.9,2.8-2.4c0.3,0.1,0.7,0.3,1,0.4c1.7,0.5,3.2,0.6,4.8,1.5c0.3,0.2,0.5-0.3,0.2-0.4c-1.4-0.9-2.5-1.2-4.1-1.6
	c-1.1-0.3-2.5-1.2-3.7-0.9c-1.4,0.3-2.7,2.4-2.6,3.8c0.2,1.5,2.1,2.2,3.4,2.3c1.6,0.2,2.1-0.2,3.5,0.9c0.3,0.2,0.5,0.6,0.8,0.8
	c1.2,0.8,2.3,1.1,3.3,2.3c0.1,0.1,0.2,0.1,0.3,0.1c1.3-0.5,1.7-2.8,1.8-4C56.5,43,55,41,53.3,40.1z"/>
<path id="XMLID_595_" fill="#824737" d="M39.2,56.2c0,0-0.1,0-0.1,0c-0.1,0-0.1,0.1-0.1,0.1c0,0.9,0.1,1.9,0.1,2.8
	c0,0.7,0,1.4,0.4,1.9c0.1,0.1,0.3,0.1,0.3-0.1c0-0.8-0.1-1.6-0.2-2.4c-0.1-0.4-0.1-0.8-0.2-1.1c0-0.1-0.3-1-0.2-1.1
	C39.4,56.3,39.3,56.2,39.2,56.2z"/>
<path id="XMLID_594_" fill="#824737" d="M41.2,57.7C41.2,57.6,41.1,57.6,41.2,57.7c0,0.8-0.9,3.5,0.3,3.7c0.1,0,0.2-0.1,0.1-0.2
	C41,60.1,41.7,58.7,41.2,57.7z"/>
<path id="XMLID_593_" fill="#824737" d="M42.9,59.1c-0.2,0.8-0.1,2.2,0.2,3c0,0.1,0.2,0.1,0.2,0c-0.1-0.5,0-1-0.1-1.4
	c0-0.5-0.1-0.9,0-1.4C43.2,58.9,42.9,58.9,42.9,59.1z"/>
<path id="XMLID_592_" fill="#824737" d="M44.8,59.9c0.3,0.9,0.1,1.8,0.5,2.6c0.1,0.2,0.4,0.2,0.4-0.1c-0.1-0.9-0.2-1.8-0.6-2.6
	C45.1,59.5,44.7,59.6,44.8,59.9z"/>
</svg>
