<?xml version="1.0" encoding="utf-8"?>
<!-- Generator: Adobe Illustrator 18.0.0, SVG Export Plug-In . SVG Version: 6.00 Build 0)  -->
<!DOCTYPE svg PUBLIC "-//W3C//DTD SVG 1.0//EN" "http://www.w3.org/TR/2001/REC-SVG-20010904/DTD/svg10.dtd">
<svg version="1.0" id="Objects" xmlns="http://www.w3.org/2000/svg" xmlns:xlink="http://www.w3.org/1999/xlink" x="0px" y="0px"
	 viewBox="0 0 100 100" enable-background="new 0 0 100 100" xml:space="preserve">
<path id="XMLID_188_" fill="#333333" d="M90.5,52.2c-3.8-2.8-8.3-2.3-12.5-0.9c0.5-3.9,0.2-7.4,0.2-11.5c0-1.2-1-2-2.1-2.1
	c-12.7-1.1-25.9,1.4-38.6,1.7c-9.5,0.2-21.9-2.5-30.8,2.2c-0.5,0.3-0.8,0.9-0.8,1.4c0,4.4,0.3,10.2,1,15.8c-0.4,6.3,0,12.7,3.6,17.4
	c3,3.9,8.5,7.2,12.6,9.5c1.1,0.6,2,1,2.8,1.1c0.1,0.1,0.2,0.3,0.4,0.4c1.9,1.5,4.3,1.4,6.4,1.8c4.8,0.9,9.5,0.9,14.4,0.6
	c0.4,0,0.6-0.3,0.5-0.7c6.7,0.3,13.7-0.1,19.3-2.3c2.5-0.9,5.5-2.7,7.3-4.6c0.7-0.7,4-7.8,2.7-7.2c0.2-0.1,0.3-0.2,0.4-0.3
	c3.4,0.5,7,1.4,10.2,0.4c4.5-1.3,8.7-8.2,8.9-12.6C96.8,58,93.8,54.7,90.5,52.2z M91.5,66.3c-1.2,2.1-3.1,4.4-5.3,5.2
	c-2.2,0.8-4.9,0-7.2-0.2c-1.7-0.2-4.7-0.4-5.6,1.5c-0.2,0.5,0,1.1,0.4,1.3c-2.4,13.4-29.7,11.4-39,9.8c-5.7-1-14.5-3.6-18.6-8.3
	c-5.3-6.2-4.6-17.5-5.6-25c0-0.1,0-0.1-0.1-0.2c-0.1-3.9-4.4-4.1,5.6-7.2c6-1.9,13.6,0.3,19.8,0.2c10.2,0,21.1,0,31.3-0.8
	c7.1-0.6,8.9-0.7,6.9,7.3c-0.2,0.7,0,1.5,0.5,2c0.3,0.2,0.5,0.4,0.8,0.6c0,0,0.1,0,0.2,0.1c-0.3,0.6-0.2,1.3,0.6,1.6
	c3.7,1.3,7.4-1.3,11.1,0.4C92.1,56.6,93.9,62,91.5,66.3z"/>
<path id="XMLID_180_" fill="#333333" d="M87.2,64.1c0.3-1.3-0.2-2.6-1-3.8c0-1.1-0.5-2.5-1.4-3.1c-0.9-0.5-1.9-0.2-2.1,0.7
	c-0.3,0-0.6,0-0.9,0c-0.3,0-0.5,0-0.8,0c-0.1-0.1-0.3-0.2-0.4-0.1c-0.1,0.1-0.2,0.1-0.3,0.1c-0.2,0-0.4,0-0.6,0
	c-0.3,0-0.6,0-0.9,0.1c-0.5,0.2-1,0.6-1.5,0.9c-1.2,0.9-1.9,2.2-2.1,3.7c-0.1,0.8,0,1.6,0.4,2.3c-0.1,1.3,0.9,2,1.9,2.1
	c1.1,0.7,2.5,1.1,3.9,0.9c1.2-0.2,2.3-0.3,3.2-1.1C85.8,66.3,86.9,65.3,87.2,64.1z M83.9,60.4c0,0.1,0.1,0.2,0.1,0.3
	c0,0.8-0.2,1.5-0.2,2.3c0,1.4-0.3,2.4-1.8,2.7c-0.3,0.1-0.7,0.1-1,0.2c0,0-0.1,0-0.1,0c-0.7-0.1-1.2-0.1-1.6-0.3
	c-0.1-0.1-0.2-0.2-0.3-0.3c-0.2-0.3-0.4-0.6-0.4-1.2c-0.1-1,0.1-2.3,0.6-3.2c0.2-0.4,0.5-0.6,0.8-0.9c0.3-0.1,0.7-0.2,1.1-0.2
	C82.2,59.7,83.1,59.8,83.9,60.4z"/>
<path id="XMLID_179_" fill="#333333" d="M39.4,12.6c-0.8-0.4-1.6,0.1-1.7,1l0,0.3c0,0.4,0.4,0.8,0.8,0.8c-1.2,0,0.4,2.3,0.3,3.3
	c-0.1,1-0.8,2-1.2,2.9c-1.2,2.5-3.5,4.7-4.5,7.3c-0.6,1.6-0.7,3.6,0.1,5.1c1.2,2.3,3,2,4.8,3.3c0.3,0.2,0.7-0.1,0.6-0.4
	c-0.8-2.1-3.4-2.8-3.2-5.6c0.2-2.8,3.5-5.5,4.7-8C41.3,19.5,43.3,14.6,39.4,12.6z"/>
<path id="XMLID_178_" fill="#333333" d="M47.4,21.5c-0.2-0.8-1.2-1.1-1.8-0.5c-0.3,0.3-0.6,0.6-0.9,0.9c-0.4,0.5-0.1,1.2,0.6,1.2
	c-0.5,3.3-5.6,4.9-4.3,8.9c0.4,1.4,2.9,4.2,4.1,2.1c0.2-0.3-0.1-0.6-0.4-0.5c-0.6,0.1-1.5-2.5-1.5-2.9c0.1-1.5,1.9-2.8,2.8-3.9
	C47.3,25.3,48,23.6,47.4,21.5z"/>
<path id="XMLID_176_" fill="#333333" d="M52.8,26.6c0-0.3-0.3-0.6-0.6-0.6c-1.8,0-2.4,2.4-2.9,3.7c-0.6,1.6-0.9,3,0.6,4.2
	c0.3,0.3,0.8-0.1,0.5-0.5C48.3,31.1,52.8,28.7,52.8,26.6z"/>
<path id="XMLID_175_" fill="#333333" d="M17.7,51.7c-0.9,0.9-1.4,2.1-2.1,3.3c-0.5,0.9-0.9,1.6-0.8,2.7c0,0.2,0.2,0.1,0.3,0
	c0.1-1.1,0.9-2,1.4-3c0.5-1,0.8-1.9,1.5-2.7C18.1,51.8,17.9,51.6,17.7,51.7z"/>
<path id="XMLID_162_" fill="#333333" d="M19.8,54.6c-1.2,1.6-2.6,2.9-4,4.3c-0.4,0.4-1.5,1.3-1.1,2c0.1,0.1,0.2,0.1,0.3,0.1
	c0.2-0.1,0.4-0.2,0.5-0.3c0.2-0.1,0-0.3-0.1-0.3c-0.7,0.2,0.2-0.7,0.5-0.9c0.4-0.4,0.8-0.7,1.2-1.1c1.1-1.1,2.1-2.3,3.1-3.5
	C20.2,54.7,19.9,54.4,19.8,54.6z"/>
<path id="XMLID_161_" fill="#333333" d="M18.8,60.3c-1,1.8-2.4,3.3-3.6,5c-0.2,0.2,0.2,0.4,0.3,0.3c1.6-1.3,2.8-3.1,3.9-4.9
	C19.6,60.3,19,60,18.8,60.3z"/>
<path id="XMLID_159_" fill="#333333" d="M19.4,67.5c-0.1,0.3-0.3,0.6-0.4,0.8c0,0.1,0.1,0.1,0.1,0.1c0.1-0.3,0.3-0.6,0.4-0.8
	C19.6,67.5,19.5,67.4,19.4,67.5z"/>
<path id="XMLID_41_" fill="#333333" d="M19.7,70.8c0-0.2-0.3-0.2-0.3,0c-0.1,0.7-0.1,1.4-0.1,2.1c0,0.4,0.6,0.4,0.6,0
	C19.8,72.2,19.7,71.5,19.7,70.8z"/>
</svg>
