<?xml version="1.0" encoding="utf-8"?>
<!-- Generator: Adobe Illustrator 18.0.0, SVG Export Plug-In . SVG Version: 6.00 Build 0)  -->
<!DOCTYPE svg PUBLIC "-//W3C//DTD SVG 1.0//EN" "http://www.w3.org/TR/2001/REC-SVG-20010904/DTD/svg10.dtd">
<svg version="1.0" id="Objects" xmlns="http://www.w3.org/2000/svg" xmlns:xlink="http://www.w3.org/1999/xlink" x="0px" y="0px"
	 viewBox="0 0 100 100" enable-background="new 0 0 100 100" xml:space="preserve">
<g>
	<path fill="#1D1D1B" d="M83.2,60.4c-0.3-4-2.3-7.9-6.4-9c-3.5-1-6.8,0.5-8.6,3.3c-0.1-0.8-0.1-1.6-0.3-2.4c0-0.2-0.1-0.3-0.2-0.3
		c0-0.7-0.1-1.5-0.4-2.3c-1.5-3.6-6-5.5-10-5.4c3.7-1.7,6.3-5.1,6.5-9.5c0.2-3.9-2-8.6-5.6-9.7c3.9-2,6-7,4.2-11.5
		c-2.6-6.7-11.8-9.1-18.2-7.5C30.3,9.6,27,31.3,41.8,35.6c-1.6,1.8-1.8,4.8-0.9,6.9c0.5,1,1.1,1.8,2,2.4c-5.1-0.3-10.6,0.6-12.1,6
		c-0.8,1-0.8,2.1-0.5,3.1C30,60,31.2,67,34.1,72.7c-6.6-0.9-18,2-14.4,10.8c3.3,8.1,18.1,8.8,25.2,9.3c9,0.6,25.9,1.6,31.8-7.2
		c1.8-2.7,1.8-5.9-0.2-8.5c-0.9-1.2-2.1-2-3.4-2.6C78.9,73.4,83.7,66.9,83.2,60.4z M68.2,60.9c0.1,0,0.2-0.1,0.3-0.1
		c1.4-1,3.2-2.3,5-2.6c3.1-0.5,4.2,2.7,3.5,5.1c-1.2,4.5-6,5.4-9.6,3.2C67.8,64.7,68.1,62.8,68.2,60.9z M42.8,41.7
		c-1.2-2.3,0.1-4.3,1.3-6.2c0.3-0.5-0.2-1.2-0.8-1c-0.1,0-0.1,0.1-0.2,0.1c-9.8-4.6-12.7-17.2-3.3-24.1c3.9-2.9,9-3.5,13.5-1.9
		c3.3,1.1,6.7,3.4,7.6,7c1.2,4.9-2.4,7.9-6.4,9.4c-0.2,0.1-0.4,0.3-0.4,0.5c-0.2,0.4,0,0.9,0.5,0.9c5.2-0.5,8.2,4.8,7.4,9.4
		c-0.8,4.4-4.2,7.2-8.6,7.7c-0.7,0.1-0.9,0.7-0.8,1.2c-0.2,0.2-0.3,0.5-0.1,0.7c1,1,2.2,2.5,1,3.8c-0.7,0.8-1.8,1.2-2.8,1.3
		c-1.3,0.2-2.5-0.4-2.5-1.9c0-1.2,0.7-2.3,1.1-3.5c0.1-0.2,0-0.4-0.2-0.5c0-0.2-0.2-0.4-0.5-0.4C46.4,44.5,43.9,43.8,42.8,41.7z
		 M36,53c-0.3-0.5-0.4-1.1-0.4-1.8c0,0,0.1-0.1,0.1-0.1c3.9,0.1,7.7,0.3,11.6,0.4c0.9,1,2.4,1.4,3.8,1.1c1.7-0.3,3.7-1.3,4.3-3.1
		c0.1-0.3,0.2-0.6,0.2-0.9c2.4,0.4,7.1,0.2,8.2,2.7c0,0-0.1,0.1-0.1,0.2c-0.2,1.3-0.9,2.2-1.9,2.9C53.4,54.2,44.4,54.5,36,53z
		 M61,55c-3.4,1.7-9,1.4-11.6,1.4c-2.6,0-10.8,0.2-13.1-3C44,55.3,52.9,54.8,61,55z M36,50.8c2.6-2.9,6.9-1.8,10.5-1.9
		c0,0.5,0,1.1,0.3,1.6c0,0.1,0.1,0.2,0.2,0.3C43.3,50.7,39.6,50.7,36,50.8z M31.8,51.6c0.1-0.1,0.1-0.2,0.2-0.3
		c2.2-6.9,10-5,15.6-5.2c-0.3,0.5-0.6,1-0.8,1.5c-2.9-0.8-6.5-0.8-9.4,0.1c-1.5,0.5-3.6,1.7-3.2,3.6c-2,4.8,8.4,6.5,11.5,6.7
		c4.1,0.3,21.1,1.4,19.2-6.5c0-0.1-0.1-0.2-0.2-0.3c-0.1-0.9-0.6-1.8-1.6-2.4c-1.9-1.2-5.3-2.1-7.6-1.5c-0.2-0.5-0.4-0.9-0.8-1.3
		c3.4,0.5,6.8-0.6,9.7,2c4.2,3.6,0.9,8.6-3.4,10.1c-4.9,1-9.7,1.4-14.8,0.9C41.7,58.5,31.5,57.9,31.8,51.6z M33.1,63.2
		c2.4,0.2,4.9,0.6,7.3,1c0.2,0,0.4-0.3,0.1-0.4c-2.5-0.5-5-0.8-7.5-1c-0.2-0.9-0.4-1.8-0.5-2.7c1.8,0.3,3.7,0.6,5.5,0.9
		c0.2,0,0.3-0.3,0.1-0.3c-1.9-0.3-3.8-0.6-5.6-0.9c-0.2-1.2-0.4-2.4-0.6-3.6c1.3,1.3,3.2,2.3,4.7,2.8c8.1,2.2,17.8,2.9,25.8,0.2
		c0.4-0.1,0.5-0.5,0.5-0.8c1.6-0.7,3-1.9,3.9-3.3C66.6,66.9,63.5,82.6,48.6,81c-5-0.5-8.3-2.7-10.6-5.7c0.6,0.2,1.3,0.1,1.8,0.2
		c1.5,0.2,3,0.3,4.5,0.4c0.3,0,0.3-0.5,0-0.5c-2.1-0.2-4.5-0.1-6.5-0.6c0.2,0,0.2-0.2,0.1-0.2c-0.2-0.1-0.3,0-0.4,0.1
		c-0.6-0.9-1.1-1.8-1.6-2.8c1.7,0.2,3.5,0.5,5.2,0.6c0.2,0,0.3-0.4,0.1-0.4c-1.8-0.3-3.6-0.5-5.5-0.7c-0.5-1.1-0.9-2.3-1.3-3.6
		c3.4,0.7,6.9,1.1,10.4,1.2c0.2,0,0.2-0.4,0-0.4c-3.5-0.2-7-0.6-10.6-1.2C33.8,66,33.4,64.6,33.1,63.2z M37.7,77.7
		c3.1,3.4,7.4,5.5,12.8,5.3c5-0.1,8.8-2.1,11.6-5.2c0.1,0.2,0.2,0.3,0.5,0.4c1,0.2,2.1,0.2,2.7,1.2c0.6,0.9,0.4,2.1-0.2,3
		c-4.6,3-10.4,3.2-15.9,3.1c-4.6-0.1-12.5,0-16-3.8c0-0.3,0-0.7,0.1-1c0.2-0.7,0.6-1.3,1.2-1.7C35.3,78.3,36.5,78,37.7,77.7z
		 M76.2,80.1c2.4,5.5-7,8.7-10.3,9.5c-6.5,1.5-13.5,1.6-20.1,1.2c-5.9-0.4-12.1-1.2-17.7-3.3c-4.5-1.7-9.6-6.6-4.2-11.1
		C27,74,31.1,74.3,34.9,74c0.5,0.8,1,1.6,1.6,2.3c-1.3,0-2.6,0.4-3.7,1.3c-1.3,1.1-2.5,3.4-1.4,5c0.1,0.1,0.2,0.2,0.4,0.3
		c2.3,4.3,10.9,4.3,14.9,4.5c5.9,0.3,17.1,0.6,20.8-5.1c0.2-0.3,0.1-0.6-0.1-0.7c0.3-0.8,0.2-1.8-0.2-2.7c-0.6-1.4-2.3-2.6-3.9-2.4
		c0.4-0.6,0.8-1.2,1.2-1.9c0.1,0,0.2,0.1,0.3,0.1C69.1,74.9,74.2,75.4,76.2,80.1z M66.3,70.6c0.3-0.9,0.6-1.7,0.8-2.6
		c4.4,3.4,11.1,0.7,11.9-4.9c0.3-2.2-0.5-5-2.6-6c-2.5-1.2-5.7,0.1-8.1,1.6c0-0.6,0-1.1,0-1.7c0.1,0,0.2-0.1,0.3-0.2
		c2.5-3.6,6.8-5,10.3-1.9c2.5,2.2,2.9,6.2,2.1,9.3C79.1,70.8,72.3,74.5,66.3,70.6z"/>
	<path fill="#1D1D1B" d="M63.1,50.8c-2.8-0.2-5.7,0.2-8.5,0.3c-0.4,0-0.4,0.6,0,0.6c2.8-0.1,5.8,0.1,8.6-0.3
		C63.5,51.3,63.4,50.8,63.1,50.8z"/>
</g>
</svg>
