<?xml version="1.0" encoding="utf-8"?>
<!-- Generator: Adobe Illustrator 18.0.0, SVG Export Plug-In . SVG Version: 6.00 Build 0)  -->
<!DOCTYPE svg PUBLIC "-//W3C//DTD SVG 1.0//EN" "http://www.w3.org/TR/2001/REC-SVG-20010904/DTD/svg10.dtd">
<svg version="1.0" id="Objects" xmlns="http://www.w3.org/2000/svg" xmlns:xlink="http://www.w3.org/1999/xlink" x="0px" y="0px"
	 viewBox="0 0 100 100" enable-background="new 0 0 100 100" xml:space="preserve">
<g>
	<path fill="#1D1D1B" d="M91.3,62.5c0-0.5-0.4-1-0.9-1c0.3-0.2,0.4-0.5,0.2-0.9c-4-8.6-8.5-16.9-12.3-25.7
		c-3.9-9-7.1-18.4-10.9-27.5c-0.2-0.5-1-0.3-0.9,0.2c0,0.1,0,0.1,0.1,0.2c-0.1,0-0.1,0-0.2,0c-9.3,3.3-18.5,7.2-27.6,11
		c-4.1,1.7-8.2,3.5-12.3,5.3c-3.9,1.7-9.3,3.1-12.2,6.3c0,0,0,0,0,0c-0.1-0.3-0.5-0.4-0.8-0.2c-0.4-0.1-0.7,0.5-0.7,0.7
		c-0.3,0.9-0.4,1.9-0.6,2.9c-0.1,1.1-0.4,2.2-0.1,3.2c0,0.1,0.1,0.2,0.2,0.3c0.6,2.5,1.3,5,2.1,7.5c-0.1,0.1-0.2,0.3-0.1,0.4
		c0.9,2.9-0.4,6.5-0.9,9.4c-0.6,3.3-1.1,6.5-1.6,9.8c-1,6.3-2,12.6-3.1,18.9c-0.1,0.7,0.4,1.2,1.1,1.1c2.6-0.5,5.1-1,7.7-1.5
		c2.4-0.5,6-0.6,8.1-1.7c1.5-0.8,1.8-2.6,1.8-4.5c2.6,6,5.4,11.9,8.4,17.7c0.3,0.5,0.8,0.5,1.1,0.2c0.1,0,0.1,0,0.2,0
		c0.2,0,0.4-0.1,0.5-0.2c0,0.2,0.2,0.3,0.4,0.2c8.6-3.2,16.8-7.4,25.2-11.2c8.7-4,17.4-8,25.9-12.5c0.7-0.4,0.4-1.2-0.2-1.4
		c0.4-0.8,0.8-1.6,1.1-2.4c0.5-1.3,1-2.5,1.4-3.8C91.7,63,91.5,62.7,91.3,62.5z M25.6,72.9c-0.2,1.6,0,3.4-0.4,4.9
		c-0.4,1.4-0.2,1.5-1.8,2c-1,0.3-2.2,0.5-3.2,0.7c-3.2,0.7-6.4,1.3-9.6,2c0.1-0.8,0.2-1.5,0.4-2.3c2,0.1,4.1,0,5.9-0.9
		c0.5-0.2,0.1-0.9-0.3-0.8c-1.8,0.3-3.6,0.7-5.4,0.9c0.1-0.7,0.2-1.4,0.4-2.1c0,0,0.1,0,0.1,0c2.3,0.1,4.7-0.1,6.9-0.9
		c0.5-0.2,0.3-0.9-0.2-0.8c-2.2,0.5-4.4,1-6.7,1.1c0,0,0,0,0,0c0.1-0.8,0.3-1.5,0.4-2.3c0,0.2,0.1,0.3,0.3,0.3c2-0.2,4.3-0.3,6.2-1
		c0.4-0.1,0.3-0.7-0.1-0.7c-2-0.1-4.2,0.6-6.2,1.1c-0.1,0-0.2,0.1-0.2,0.2c0.2-1,0.3-2,0.5-3c0,0,0.1,0,0.1,0
		c1.8,0.2,3.7,0.1,5.3-0.7c0.5-0.2,0.1-1-0.4-0.9c-1.7,0.3-3.2,0.8-5,0.7c0.2-1,0.3-1.9,0.5-2.9c0.1,0,0.1,0.1,0.2,0.1
		c2-0.1,4.2,0,6.2-0.4c0.5-0.1,0.4-0.9-0.1-0.9c-2-0.1-4.1,0.4-6.1,0.6c0,0-0.1,0-0.1,0c0.1-0.6,0.2-1.1,0.3-1.7
		c1.4-0.1,2.8,0,4.2-0.1c0.4,0,0.5-0.6,0.1-0.7c-1.3-0.4-2.8-0.2-4.2,0.1c0.1-0.5,0.2-1,0.3-1.6c1.6-0.5,3.3-0.7,5-1.2
		c0.5-0.1,0.4-0.8-0.1-0.8c-1.6,0-3.2,0.5-4.7,1.1c0-0.1,0-0.2,0.1-0.3c0.1-0.7,0.2-1.3,0.3-2c1.3,0,2.8,0,4.1-0.3
		c0.4-0.1,0.3-0.7-0.1-0.7c-1.2-0.1-2.6,0.2-3.9,0.5c0.2-0.9,0.3-1.9,0.4-2.8c1.2,0.1,2.4,0.2,3.5,0c0.1,0,0.2-0.1,0.2-0.2
		c1.4,3.5,2.9,7,4.4,10.5c0.9,2,1.7,4.1,2.6,6.1C25.7,72.8,25.6,72.9,25.6,72.9z M17.7,53.6c0.3,0.7,0.5,1.3,0.8,2c0,0,0,0,0,0
		c-1.1-0.2-2.3-0.1-3.4,0c0.1-0.7,0.2-1.4,0.3-2.1C16.1,53.6,16.9,53.7,17.7,53.6z M15.5,53c0.1-0.6,0.2-1.1,0.3-1.7
		c0.1-0.7,0.2-1.5,0.3-2.2c0.5,1.3,0.9,2.5,1.4,3.8C16.8,52.9,16.1,52.9,15.5,53z M38,91c-0.1,0.5-0.3,1.1-0.5,1.6
		c-0.1,0.3-0.2,0.5-0.3,0.8c-0.1,0.1-0.1,0.1-0.2,0.1c-4.6-9.6-9.1-19.2-13.1-29.1c-3.7-9.1-6.7-18.5-10.8-27.5
		c0.5-0.9,0.5-2.1,0.6-3.1c0-0.1,0.1-1.1,0.1-1.9c3.2,9.3,6.7,18.5,10.6,27.5c2,4.8,4.1,9.6,6.3,14.3c2.2,4.9,4.1,10.2,7,14.7
		c0.2,0.2,0.4,0.3,0.6,0.3C38.3,89.5,38.2,90.2,38,91z M88.6,66.5c-0.2,0.5-0.3,1.1-0.4,1.6c-0.1,0.5,0,1,0,1.6
		c-8.5,3.9-16.8,8-25.2,12.1c-8.2,4-16.7,7.7-24.8,12.1c0.1-0.1,0.2-0.3,0.2-0.4c0.8-1.4,1.4-3.2,1.3-4.9c8.8-3.5,17.4-7.9,26-11.9
		c8.1-3.7,16.2-7.5,23.6-12.5C89.1,64.9,88.9,65.7,88.6,66.5z M89.9,61.6C74,72.1,55.9,78.2,39.2,87.1c-0.1,0-0.1,0.1-0.2,0.1
		c-0.1,0-0.2,0-0.3,0.1c-0.7-1.9-1.5-3.8-2.4-5.6c1.3-0.4,2.5-1,3.6-1.7c0.4-0.3,0.1-0.9-0.4-0.6C38.4,80,37.2,80.5,36,81
		c-0.4-0.8-0.7-1.5-1.1-2.3c0.8-0.7,1.7-1.4,2.4-2.2c0.3-0.3-0.1-0.7-0.4-0.4c-0.8,0.6-1.6,1.3-2.3,2c-0.6-1.2-1.1-2.3-1.7-3.5
		c-0.1-0.1-0.1-0.2-0.2-0.4c1.4-0.4,2.6-1.1,3.6-2.1c0.3-0.3-0.1-1-0.5-0.7c-1.1,0.8-2.2,1.5-3.5,1.9c-0.4-0.8-0.8-1.7-1.1-2.5
		c1.1,0.1,2.2-0.5,2.8-1.5c0.2-0.4-0.4-0.8-0.6-0.4c-0.5,0.8-1.4,1.2-2.4,1.3c0,0,0,0,0,0c-0.5-1-0.9-2.1-1.4-3.1
		c1.2-0.3,2.2-0.9,3-1.8c0.3-0.4-0.2-0.9-0.5-0.5c-0.8,0.7-1.8,1.3-2.8,1.6c-0.3-0.7-0.6-1.4-0.9-2.1c0.7-0.4,1.5-0.8,2.2-1.2
		c0.5-0.3,0-1-0.4-0.7c-0.7,0.4-1.4,0.9-2,1.3c-0.4-0.8-0.7-1.6-1.1-2.5c1.6-0.7,3.1-1.5,4.5-2.6c0.4-0.3,0-1-0.4-0.7
		c-1.4,0.9-2.9,1.8-4.4,2.5c0,0,0-0.1,0-0.1c-0.4-1-0.9-2.1-1.3-3.2c0.8-0.1,1.5-0.5,1.9-1.1c0.2-0.4-0.3-0.6-0.6-0.3
		c-0.4,0.5-1,0.8-1.6,0.9c-0.4-0.9-0.8-1.9-1.2-2.8c0.9-0.3,1.7-0.6,2.5-1.1c0.3-0.2,0.1-0.7-0.2-0.6c-0.9,0.3-1.7,0.7-2.5,1.1
		c-0.3-0.8-0.6-1.6-1-2.3c0.7-0.4,1.4-0.7,2-1.2c0.4-0.3,0.1-0.8-0.3-0.6c-0.7,0.3-1.3,0.7-2,1.1c-0.3-0.8-0.6-1.5-0.9-2.3
		c0.6-0.3,1.1-0.6,1.6-1c0.3-0.3-0.1-0.7-0.4-0.5c-0.5,0.2-1,0.6-1.5,0.9c-0.3-0.8-0.7-1.6-1-2.4c0.9-0.4,1.7-0.8,2.5-1.3
		c0.3-0.2,0.1-0.8-0.3-0.6c-0.9,0.3-1.7,0.7-2.5,1.2c-0.3-0.7-0.6-1.5-0.9-2.2c1-0.4,2-0.9,3-1.4c0.4-0.3,0.1-0.9-0.4-0.7
		c-1,0.4-1.9,0.9-2.8,1.5c-0.6-1.5-1.2-3-1.8-4.5c1.1,0,2.2-0.4,3.1-1.1c0.3-0.3-0.1-0.8-0.4-0.6c-0.9,0.6-1.9,0.9-2.9,1
		c-0.3-0.7-0.6-1.4-0.8-2.1c0.2,0,0.3-0.1,0.3-0.4c0.4-0.2,1.1-0.3,1.3-0.4c0.6-0.2,1.2-0.5,1.8-0.7c0.6-0.2,0.4-1.2-0.3-1
		c-0.9,0.3-1.8,0.6-2.7,0.9c-0.3,0.1-0.6,0.2-0.9,0.4c-0.3-0.8-0.7-1.7-1-2.5c3.8-0.1,7.8-2.7,11.2-4.2c4.4-1.9,8.9-3.8,13.3-5.7
		c9.2-3.9,18.7-7.4,27.9-11.3c0.1,0,0.1-0.1,0.2-0.1c2.3,8.7,5.8,17,9.3,25.3c3.9,9,7.9,18.3,13.1,26.7
		C89.5,61.5,89.8,61.6,89.9,61.6C90,61.6,90,61.6,89.9,61.6z"/>
	<path fill="#1D1D1B" d="M20.6,37.7c-0.7,0.4-1.4,0.7-2.2,0.7c-0.4,0-0.4,0.6,0,0.6c0.9,0,1.8-0.2,2.5-0.7
		C21.2,38,21,37.5,20.6,37.7z"/>
	<path fill="#1D1D1B" d="M42,80.8c-1.5,1-2.8,2.3-4.1,3.5c-0.3,0.3,0.1,0.8,0.4,0.6c1.4-1.1,2.9-2.2,4.2-3.4
		C42.8,81.1,42.4,80.5,42,80.8z"/>
	<path fill="#1D1D1B" d="M82.1,59c-0.2-0.7-0.6-1.4-1-2c0,0,0,0,0-0.1c-3.1-6.4-6.3-12.7-9.3-19.1c-2.9-6.3-5.3-12.8-8.4-19
		c0-0.1,0-0.2,0-0.4c0-0.1-0.1-0.2-0.2-0.3c-0.1-0.3-0.3-0.6-0.7-0.5c-6.4,0.4-12.7,4.5-18.5,7c-3.4,1.5-6.8,3-10.1,4.5
		c-3.1,1.4-6.9,2.4-9.3,4.8c-0.2,0.2-0.1,0.6,0.2,0.5c2.7-0.2,5.2-1.7,7.6-2.8c3.4-1.5,6.8-3,10.1-4.5c6.2-2.8,12.8-6.7,19.5-7.9
		c-0.1,0.2-0.1,0.4-0.2,0.6c-0.3,0.5-0.6,1-1,1.4c0,0-0.1,0.1-0.1,0.1c-0.2-0.1-0.4-0.1-0.6,0.1c-5.8,1.9-11.5,4.8-17.1,7.2
		c-5.7,2.5-11.6,5-17.1,8c-0.5-0.8-0.9-1.6-1.4-2.4c-0.3-0.5-1.2-0.2-0.9,0.4c2.6,7.2,6.3,14,9.6,20.9c3.4,7.3,6.7,14.6,10.3,21.8
		c0.1,0.2,0.3,0.3,0.5,0.3c0.1,0.1,0.2,0.2,0.3,0.2c2.9-0.3,5.5-1.8,8.2-3c3.3-1.5,6.7-3.1,10-4.7c3.1-1.5,6.2-3,9.3-4.6
		c3.4-1.7,7.2-3.3,10.2-5.6C82.2,59.8,82.3,59.3,82.1,59z M72.4,63.1c-3.3,1.7-6.6,3.3-9.9,4.9c-3.1,1.5-6.2,3-9.4,4.4
		c-2.8,1.3-6,2.4-8.6,4.2c-0.6-1.4-1.2-2.8-1.8-4.2c0,0.1,0.1,0.2,0.3,0.1c1.6-0.2,3.1-0.8,4.5-1.6c0.4-0.2,0-0.8-0.3-0.6
		c-1.4,0.6-2.8,1.1-4.2,1.5c-0.2,0.1-0.3,0.3-0.2,0.5c-0.5-1.1-1-2.2-1.5-3.3c1.2-0.5,2.5-1.1,3.6-1.7c0.3-0.2,0.1-0.8-0.3-0.6
		c-1.3,0.5-2.5,1-3.7,1.6c-0.5-1-0.9-2-1.4-3c1.4-0.2,2.7-0.7,4-1.4c0.4-0.2,0-0.8-0.4-0.6c-1.2,0.6-2.5,1.1-3.9,1.5
		c-0.5-1.1-1-2.1-1.5-3.2c0,0,0,0,0.1,0c0.7,0.1,1.4,0,2-0.3c0.4-0.3,0-0.9-0.4-0.6c-0.4,0.3-0.9,0.4-1.4,0.3
		c-0.2,0-0.4,0.1-0.4,0.3c-0.3-0.6-0.6-1.3-0.9-1.9c1.1-0.4,2.1-0.9,3.1-1.4c0.4-0.2,0.1-0.9-0.3-0.7c-1.1,0.4-2.1,0.9-3.2,1.4
		c0,0,0,0,0,0c-0.4-0.9-0.9-1.8-1.3-2.7c0-0.1-0.1-0.2-0.1-0.2c0.1-0.1,0.1-0.1,0.2-0.2c0,0,0,0,0.1,0c0.1,0,0.2,0,0.2-0.1
		c0.3-0.2,0.6-0.4,0.9-0.6c0.1,0,0.2-0.1,0.3-0.1c0.1,0,0.1-0.1,0.1-0.2c0.9-0.6,1.8-1.3,2.8-2c0.6-0.4,0-1.3-0.6-0.8
		c-1.2,1-2.5,1.9-3.6,2.9c-0.2,0.1-0.4,0.2-0.6,0.3c-0.4-0.8-0.7-1.6-1.1-2.4c0,0,0.1,0,0.1,0c0.2-0.1,0.5-0.2,0.7-0.2
		c0.4-0.1,0.4-0.5,0.3-0.8c0.9-0.3,1.7-0.7,2.5-1.1c0.4-0.2,0.1-0.8-0.3-0.7c-1.1,0.4-2.1,0.9-3.1,1.4c-0.1,0.1-0.2,0.2-0.1,0.3
		c-0.1,0.1-0.2,0.1-0.3,0.2c0,0-0.1,0.1-0.1,0.1c-0.5-1-0.9-2-1.4-3c0.1,0.1,0.3,0.2,0.5,0.1c0.6-0.3,1.1-0.6,1.7-1
		c0.4-0.3,0.1-0.9-0.4-0.7c-0.6,0.3-1.1,0.7-1.7,1c-0.2,0.1-0.2,0.3-0.2,0.4c-0.4-0.9-0.8-1.8-1.3-2.8c0.8-0.1,1.6-0.5,2.2-1.1
		c0.3-0.3-0.2-0.8-0.5-0.5c-0.6,0.5-1.3,0.8-2.1,0.9c-0.4-0.8-0.7-1.6-1.1-2.3c0,0,0.1,0,0.2,0c1.2-0.4,2.5-0.8,3.7-1.3
		c0.4-0.2,0.2-0.8-0.2-0.7c-1.3,0.4-2.5,0.9-3.7,1.4c-0.1,0-0.2,0.1-0.2,0.2c-0.3-0.6-0.6-1.2-0.8-1.7c1.1-0.5,2.2-1.1,3.3-1.6
		c0.4-0.2,0.1-0.8-0.4-0.6c-1.1,0.5-2.2,1.1-3.3,1.7c-0.2-0.4-0.4-0.8-0.6-1.1c0,0,0,0,0.1,0c1-0.7,1.9-1.4,2.8-2.1
		c0.3-0.2-0.1-0.8-0.4-0.6c-0.9,0.7-1.9,1.3-2.8,2.1c-0.2-0.4-0.4-0.7-0.6-1.1c5.7-2.1,11.2-4.8,16.7-7.3c5.7-2.7,11.7-5,17.2-8
		c2.2,6.4,5.4,12.6,8.3,18.7c3.1,6.5,6.2,12.9,9.4,19.3C76.1,61.1,74.3,62.2,72.4,63.1z M79.1,59.6C76,53.4,73,47.1,70,40.8
		c-2.9-6.2-5.5-12.6-8.9-18.6c0.1,0,0.3,0,0.4-0.1c0.5-0.4,1-1,1.3-1.5c1.9,6,4.6,11.8,7.3,17.5c3,6.6,6.2,13.3,9.7,19.7
		c0.1,0.2,0.3,0.3,0.5,0.4c0,0.1,0.1,0.3,0.1,0.4c0.1,0.2,0.1,0.3,0.2,0.5C80.1,59.2,79.6,59.4,79.1,59.6z"/>
</g>
</svg>
