<?xml version="1.0" encoding="utf-8"?>
<!-- Generator: Adobe Illustrator 18.0.0, SVG Export Plug-In . SVG Version: 6.00 Build 0)  -->
<!DOCTYPE svg PUBLIC "-//W3C//DTD SVG 1.0//EN" "http://www.w3.org/TR/2001/REC-SVG-20010904/DTD/svg10.dtd">
<svg version="1.0" id="Objects" xmlns="http://www.w3.org/2000/svg" xmlns:xlink="http://www.w3.org/1999/xlink" x="0px" y="0px"
	 viewBox="0 0 156 257" enable-background="new 0 0 156 257" xml:space="preserve">
<g>
	<path fill="#1D1D1B" d="M110.1,164.3c-4.8-11.4-11-22.8-19.2-32.1c-0.1-0.1-0.2-0.2-0.3-0.2c0-0.7-0.4-1.5-1.3-1.8
		c-5.5-2.3-11.4-3.3-17.3-3c-0.9-16.1-2.4-32.2-3-48.3c-0.7-20.2-0.1-40.4-0.2-60.6c0-1.5-2.2-1.4-2.2,0
		c-1.4,20.5-0.9,41.3-0.3,61.8c0.5,15.7,0.8,31.6,2.5,47.3c-6.6,0.8-13,3.3-18.3,7.7c0,0,0,0,0,0c-0.1,0.1-0.2,0.1-0.3,0.2
		c-0.3,0-0.6,0.1-0.9,0.3c-10,6.7-14.6,22.8-18.3,33.7c-4.5,13.3-7.8,28.8-3.8,42.5c0.1,0.5,0.5,0.8,0.9,0.8
		c3.6,5.2,13.8,7.8,18.9,9.1c4.3,1,8.6,1.6,12.9,1.8c-0.2,5.9,4.7,11.5,10.9,11.3c6.5-0.2,11.3-6.4,10.6-12.6
		c13.8-1.8,31-5.1,37.5-18.1c0.2-0.4,0.2-0.7,0.2-1c0.3-0.3,0.5-0.6,0.5-1.1C119.6,189.2,115,175.9,110.1,164.3z M86.3,133.1
		c-2.5,3.5-7.9,5.7-13.8,6.6c0-0.1,0.1-0.2,0.1-0.3c-0.1-2.8-0.2-5.5-0.3-8.3C76.9,130.7,81.6,131.4,86.3,133.1z M69.3,131.2
		c0.3,2.8,0.7,5.6,1.2,8.3c0,0.1,0.1,0.2,0.1,0.3c-6.4,0.6-13-0.4-17-3.1C58.6,133.8,63.9,132,69.3,131.2z M70.9,232
		c-4.6-0.2-7.7-4.2-8.3-8.4c4.6,0.1,9.2-0.2,13.8-0.7c1-0.1,2-0.2,3-0.3C79.4,227.2,76,232.2,70.9,232z M116.1,202.5
		c-8.8,13.6-28.4,15.8-43.2,17.1c-8.6,0.8-17.4,0.5-25.8-1.6c-4.2-1-8.2-2.5-12-4.4c-1.9-1-3.5-2.2-5.4-2.8c0-3.1,0-6.1,0.1-9.2
		c2.8,2.3,6.2,4,9.8,4.8c0.9,0.2,1.3-1.2,0.4-1.4c-3.8-1-7.1-2.6-10.1-5c0.1-2.3,0.3-4.5,0.5-6.8c2.3,1.5,4.7,2.8,7.4,3.8
		c0.7,0.2,1.2-0.9,0.5-1.2c-2.7-1.1-5.3-2.5-7.7-4c0.2-1.8,0.4-3.6,0.7-5.3c2,1.3,4.2,2.2,6.6,2.8c0.6,0.2,0.9-0.8,0.3-0.9
		c-2.4-0.7-4.6-1.6-6.7-2.9c0.3-1.6,0.6-3.2,0.9-4.8c2.7,1.8,5.5,3.4,8.5,4.5c0.7,0.3,1.2-0.9,0.5-1.2c-3-1.4-5.9-2.9-8.7-4.6
		c0.5-2,1-3.9,1.6-5.9c2.4,3.1,6.2,4.5,10.2,3.9c0.7-0.1,0.5-1.2-0.2-1.2c-3.6,0.1-7-1.2-9.8-3.5c0-0.1,0-0.1,0.1-0.2
		c0.6-1.7,1.1-3.5,1.7-5.2c2.4,2.1,5.3,3.4,8.6,3.4c1,0,0.9-1.4,0-1.5c-3.1-0.3-5.9-1.4-8.1-3.5c0.7-1.9,1.4-3.7,2.1-5.5
		c1.9,2.3,4.9,3.6,8.1,2.9c1-0.2,0.8-1.8-0.2-1.7c-2.8,0.2-5.5-0.9-7-3.2c0.7-1.7,1.5-3.4,2.3-5.1c2.6,2.6,6,4.2,9.8,4.5
		c1,0.1,1.2-1.6,0.2-1.8c-3.5-0.6-6.6-2-9.2-4.4c0.8-1.6,1.7-3.1,2.7-4.7c2.8,2.9,6.5,4.8,10.6,4.7c0.9,0,1.2-1.5,0.2-1.7
		c-3.8-0.6-7.2-2-9.9-4.6c0.5-0.7,1-1.4,1.5-2.2c1.9,2.7,5.8,4.3,8.8,4.6c1,0.1,1.2-1.5,0.2-1.7c-1.8-0.4-3.5-1-5.1-1.9
		c-1.1-0.6-2-1.5-3-2.3c0.8-1.1,1.7-2.1,2.6-3.1c4.6,4.6,13.6,4.6,19.5,4.2c6.1-0.5,14.5-1.8,18.1-7.5c6.7,10.4,13.2,20.5,17.8,32
		c4.6,11.3,6.6,22.9,9.7,34.6C116.3,202.1,116.2,202.3,116.1,202.5z"/>
	<path fill="#1D1D1B" d="M56.7,226.8c-2.4,0.1-4.8,0.6-6.8,2c-1.1,0.8-0.2,2.3,1,1.8c2-0.9,3.8-1.6,6-2
		C57.9,228.4,57.7,226.8,56.7,226.8z"/>
	<path fill="#1D1D1B" d="M58.4,230.8c-1.6,1.4-3.9,2.8-4.6,4.9c-0.2,0.7,0.5,1.4,1.2,1.2c2.1-0.7,3.5-2.9,4.9-4.6
		C60.8,231.2,59.4,229.9,58.4,230.8z"/>
	<path fill="#1D1D1B" d="M67,235.4c-0.8,1.7-1.8,3.4-2.1,5.2c-0.2,1.2,1.4,2,2.1,0.9c1-1.6,1.4-3.5,1.9-5.3
		C69.2,235.1,67.5,234.3,67,235.4z"/>
	<path fill="#1D1D1B" d="M81.2,239c-1.1-1.1-2.1-2.1-2.3-3.7c-0.1-1.2-2-1.3-1.9,0c0.1,2.2,1.2,4.4,3.3,5.2
		C81.1,240.9,81.8,239.6,81.2,239z"/>
	<path fill="#1D1D1B" d="M89.1,232c-2-1.1-4.3-1.8-6.5-2.6c-0.8-0.3-1.3,1-0.6,1.4c2.1,1,4.2,2.1,6.4,2.8
		C89.4,233.8,90,232.4,89.1,232z"/>
	<path fill="#1D1D1B" d="M90.8,225.4c-1.9-0.4-4-0.4-5.9-0.5c-1-0.1-1.2,1.6-0.2,1.7c1.9,0.3,3.9,0.8,5.9,0.9
		C91.7,227.5,92,225.7,90.8,225.4z"/>
</g>
</svg>
