<?xml version="1.0" encoding="utf-8"?>
<!-- Generator: Adobe Illustrator 18.0.0, SVG Export Plug-In . SVG Version: 6.00 Build 0)  -->
<!DOCTYPE svg PUBLIC "-//W3C//DTD SVG 1.0//EN" "http://www.w3.org/TR/2001/REC-SVG-20010904/DTD/svg10.dtd">
<svg version="1.0" id="Objects" xmlns="http://www.w3.org/2000/svg" xmlns:xlink="http://www.w3.org/1999/xlink" x="0px" y="0px"
	 viewBox="0 0 100 100" enable-background="new 0 0 100 100" xml:space="preserve">
<g>
	<path fill="#1D1D1B" d="M77.7,50.2c1.8-7.8,2.7-15.9,0.8-23.7C76.4,17.8,70.7,11.1,62.3,8c-4.8-1.8-10.1-2.5-15.2-1.9
		c-2,0.2-6.8,0.6-8.4,2.5c-2.1,0.7-4.1,1.7-5.8,3C21.8,20,21.7,35.5,25.3,47.7c2.4,8.1,5.9,16,9.6,23.5c3.9,8.1,8.1,16.5,13.5,23.7
		c0.2,0.2,0.4,0.3,0.6,0.2c-0.1,0.1-0.1,0.4,0,0.5l0.2,0.3c0.2,0.2,0.5,0.3,0.7,0.2c3.8-1.2,7.7-3.8,11.2-5.8c0.4-0.2,0.5-0.6,0.4-1
		c6.2-8.8,10.4-19.2,13.6-29.5c0,0,0.1-0.1,0.1-0.1c0.2-0.1,0.2-0.3,0-0.5c0.1-0.4,0.2-0.7,0.3-1.1c0.2-0.8,0.5-1.6,0.7-2.4
		c0,0,0,0,0,0c0.1-0.1,0.1-0.1,0.1-0.2c0.4-1.6,0.9-3.2,1.3-4.8c0.1,0,0.1-0.1,0.2-0.1C77.9,50.5,77.9,50.3,77.7,50.2z M77.9,35.7
		c0,0.6,0,1.2-0.1,1.8c-2.2,1.2-4.7,2.6-6.5,4.3c0.1-1,0.2-1.9,0.2-2.9c1.5-0.6,2.8-1.5,4.2-2.2C76.5,36.4,77.2,36,77.9,35.7
		C77.9,35.7,77.9,35.7,77.9,35.7z M77.9,34.9c-1,0.7-2.2,1.2-3.2,1.8c-1,0.6-2.1,1.2-3.1,1.9c0-0.7,0.1-1.5,0.1-2.2
		c2-1.2,4.3-2.3,6.1-3.8C77.8,33.3,77.9,34.1,77.9,34.9z M77.7,32.1c-2.1,1-4.1,2.6-6,4c0-1,0-1.9,0-2.9c1.9-1.1,3.9-2.1,5.8-3.3
		C77.6,30.6,77.7,31.3,77.7,32.1z M77.4,29.3c-1.9,1.1-3.8,2.4-5.7,3.6c-0.1-1.2-0.2-2.4-0.3-3.6c0,0,0.1,0,0.1,0
		c1.8-0.7,3.7-1.5,5.4-2.6C77,27.5,77.2,28.4,77.4,29.3z M76.7,26c-1.8,1-3.5,2-5.3,3c0,0,0,0,0,0c-0.1-1-0.3-2-0.5-2.9
		c0.4-0.2,0.8-0.4,1.1-0.6c1.2-0.6,2.6-1.2,3.9-2C76.1,24.3,76.4,25.2,76.7,26z M75.6,23c-0.7,0.3-1.4,0.8-2,1.1
		c-0.6,0.3-1.8,1.3-2.8,1.6c-0.2-1.1-0.5-2.2-0.9-3.3c0.8-0.5,1.6-1,2.5-1.5c0.6-0.4,1.3-0.7,1.8-1.1C74.7,20.8,75.2,21.9,75.6,23z
		 M73.9,19.4c-0.6,0.3-1.2,0.8-1.8,1.2c-0.8,0.5-1.6,1-2.3,1.6c-0.4-1.1-0.8-2.2-1.3-3.2c1.2-0.7,2.6-1.3,3.8-2.1
		C72.8,17.7,73.4,18.5,73.9,19.4z M71.8,16.4c-1.2,0.7-2.4,1.5-3.5,2.2c-0.4-0.8-0.8-1.5-1.3-2.2c0,0,0.1,0,0.1,0
		c1-0.6,2.1-1.1,3.1-1.7C70.8,15.2,71.3,15.8,71.8,16.4z M69.8,14.3c-1,0.5-2,1.2-2.9,1.8c0,0-0.1,0.1-0.1,0.1c-0.3-0.5-0.7-1-1-1.4
		c-0.2-0.3-0.5-0.5-0.7-0.8c0,0,0,0,0,0c0.8-0.4,1.8-0.9,2.5-1.4C68.5,13.1,69.2,13.7,69.8,14.3z M67,12.1c0.1,0.1,0.2,0.2,0.3,0.2
		c-0.8,0.4-1.6,0.9-2.3,1.4c0,0,0,0-0.1,0.1c-0.7-0.8-1.5-1.5-2.4-2.1c0.3-0.2,0.6-0.5,0.9-0.7c0.2-0.2,0.5-0.3,0.7-0.4
		C65.1,11,66.1,11.5,67,12.1z M63.7,10.3c-0.5,0.3-1,0.7-1.5,1.2c-0.9-0.6-1.8-1.1-2.8-1.6c0.2-0.3,0.5-0.6,0.9-0.8
		C61.5,9.4,62.6,9.8,63.7,10.3z M53.5,7.7c2.2,0.2,4.3,0.6,6.5,1.2c-0.3,0.2-0.5,0.5-0.7,0.8c-2.1-1-4.3-1.7-6.6-2.1
		C52.9,7.7,53.2,7.7,53.5,7.7z M49,93.6c-0.7-1.4-1.4-2.7-2.2-4.1c1.1-0.1,2.2-0.2,3.3-0.4c0.1,0,0.1-0.2,0-0.2
		c-1.1,0.1-2.2,0.2-3.3,0.4c-0.6-1.1-1.2-2.1-1.7-3.2c1.7,0,3.4,0.1,5.1,0c0.2,0,0.2-0.2,0-0.2c-1.7-0.1-3.5-0.1-5.2,0
		c-0.5-1-1.1-2-1.6-2.9c2.2-0.3,4.4-0.3,6.6-0.4c0.2,0,0.2-0.3,0-0.3c-2.3-0.1-4.5,0.1-6.8,0.4c-0.6-1.1-1.2-2.2-1.8-3.3
		c2,0.1,4,0,6-0.2c0.1,0,0.1-0.2,0-0.2c-2.1,0.1-4.1,0.2-6.2,0.2c-0.5-0.9-1-1.8-1.4-2.6c3.1-0.1,6.2-0.2,9.3-0.5
		c0.2,0,0.2-0.3,0-0.3c-3.1,0.1-6.3,0.3-9.4,0.5c-0.4-0.8-0.9-1.6-1.3-2.4c2.1-0.1,4.2-0.3,6.3-0.5c0.2,0,0.2-0.3,0-0.3
		c-2.1,0.1-4.3,0.3-6.4,0.5c-0.5-1-1.1-2-1.6-3c3.4,0,6.7-0.1,10.1-0.4c0.2,0,0.2-0.3,0-0.3c-3.4,0.2-6.8,0.4-10.2,0.4
		c-0.5-1-1-2-1.5-3.1c1.7,0,3.5,0,5.2,0c0.2,0,0.2-0.3,0-0.3c-1.8,0-3.6,0-5.4,0c-0.5-1.1-1-2.2-1.5-3.3c3.7,0.1,7.4,0,11.1-0.2
		c0.2,0,0.2-0.3,0-0.3c-3.8,0.1-7.5,0.2-11.3,0.2c-0.4-1-0.9-1.9-1.3-2.9c1.6,0,3.2,0,4.8-0.2c0.2,0,0.2-0.3,0-0.3
		c-1.6,0.2-3.2,0.3-4.9,0.3c-0.3-0.6-0.5-1.2-0.8-1.8c-0.2-0.5-0.4-0.9-0.6-1.4c3.6,0.2,7.2,0.1,10.8,0c0.2,0,0.2-0.3,0-0.3
		c-3.6-0.1-7.3-0.2-10.9,0c-0.4-1-0.8-2-1.2-2.9c0,0,0,0,0.1,0c1.8-0.2,3.7-0.2,5.5-0.2c0.2,0,0.2-0.3,0-0.3c-1.8-0.1-3.7,0-5.5,0.2
		c-0.1,0-0.1,0.1-0.1,0.1c-0.4-1.1-0.8-2.3-1.2-3.4c2.8,0.1,5.7,0,8.5,0c0.2,0,0.2-0.3,0-0.3c-2.9,0-5.7-0.1-8.6,0
		c-0.3-0.9-0.6-1.9-0.9-2.9c1.4,0,2.9-0.1,4.3-0.5c0.1,0,0.1-0.2-0.1-0.2c-1.4,0.3-2.9,0.4-4.3,0.4c-0.3-1.1-0.6-2.2-0.9-3.4
		c1.7,0,3.3,0.1,5,0.3c0.2,0,0.2-0.3,0-0.3c-1.7-0.2-3.4-0.3-5.1-0.2c-0.2-1-0.4-1.9-0.6-2.9c1.5,0,2.9,0,4.4,0c0.2,0,0.2-0.3,0-0.3
		c-1.5,0-3,0-4.4,0c-0.2-1.3-0.4-2.6-0.5-3.9c1.1,0,2.1,0,3.2,0c0.2,0,0.2-0.3,0-0.3c-1.1,0-2.2,0-3.2,0c-0.1-1.4-0.1-2.7,0-4.1
		c1.2,0,2.5,0,3.7,0c0.2,0,0.2-0.3,0-0.3c-1.2,0-2.5,0-3.7,0c0.1-1.4,0.3-2.8,0.6-4.2c1,0,2.1,0,3.1,0c0.2,0,0.2-0.3,0-0.3
		c-1,0-2.1,0-3.1,0c0.2-1.1,0.6-2.2,1-3.3c1.2,0,2.4,0.1,3.6,0c0.2,0,0.2-0.3,0-0.3c-1.2,0-2.3,0-3.5,0c0.4-1.2,1-2.3,1.6-3.4
		c1.4,0.1,2.8,0.2,4.2,0.2c0.2,0,0.2-0.3,0-0.3c-1.3-0.1-2.7-0.1-4-0.2c0.7-1.3,1.6-2.5,2.6-3.5c2,0.2,3.9,0.4,5.9,0.7
		c0.2,0,0.3-0.3,0.1-0.4c-1.9-0.4-3.8-0.6-5.7-0.6c0.8-0.8,1.6-1.6,2.5-2.3c2.4-0.2,4.8-0.2,7.2,0.1c0.2,0,0.2-0.3,0-0.3
		c-2.3-0.3-4.5-0.3-6.8-0.1c1.4-1,2.9-1.9,4.5-2.5c0,0.1,0,0.2,0.1,0.2c1.6,0.1,3.2,0.3,4.9,0.4c0.2,0,0.2-0.3,0-0.3
		c-1.2-0.1-2.4-0.2-3.6-0.3c0.1-0.1,0.2-0.2,0.2-0.4c0,0,0-0.1,0.1-0.1c1.3-0.4,2.8-0.7,4.2-0.8c6.4-0.5,14.5,0.7,19.1,5.6
		c9.4,10.1,7.3,26.8,4.1,38.8C63.6,68,57.2,81.5,49,93.6z M60.5,88.7c-0.1,0-0.2,0-0.4,0.1c-2.9,1.5-6.2,3-9.1,4.8
		c0.5-0.8,1-1.5,1.5-2.3c3.3-1.8,6.6-3.8,9.7-6C61.7,86.4,61.1,87.6,60.5,88.7z M62.9,84c-3.3,1.9-6.5,4.1-9.6,6.2
		c0.7-1.1,1.4-2.3,2.1-3.4c3-1.7,6-3.4,8.8-5.3C63.8,82.4,63.3,83.2,62.9,84z M64.7,80.4c-3.1,1.7-6,3.7-8.9,5.7
		c0.8-1.4,1.7-2.9,2.5-4.4c2.9-1.8,5.8-3.7,8.6-5.7C66.1,77.5,65.4,79,64.7,80.4z M67.4,74.9c-2.9,1.9-5.8,3.9-8.7,6
		c0.7-1.3,1.3-2.5,1.9-3.8c2.6-1.4,5.3-2.9,7.8-4.5C68.1,73.4,67.7,74.1,67.4,74.9z M69,71.4c-2.7,1.5-5.4,3.3-8,5c0.5-1,1-2,1.4-3
		c2.5-1.3,5.1-2.7,7.6-4.2C69.6,69.9,69.3,70.7,69,71.4z M70.3,68.2c-2.6,1.4-5.2,3-7.7,4.6c0.4-1,0.9-2,1.3-3
		c2.6-1.6,5.2-3.1,7.7-4.7C71.2,66.1,70.8,67.2,70.3,68.2z M71.9,64.2c-2.6,1.6-5.2,3.3-7.8,5c0.5-1.1,0.9-2.2,1.3-3.3
		c2.5-1.6,5.1-3.2,7.6-4.7C72.7,62.2,72.3,63.2,71.9,64.2z M73.4,60.1c-2.7,1.5-5.3,3.4-7.8,5.3c0.5-1.3,0.9-2.6,1.3-3.9
		c2.5-1.2,5-2.5,7.3-4.1C74,58.3,73.7,59.2,73.4,60.1z M74.6,56.3c-2.5,1.5-4.9,3.2-7.5,4.7c0.3-0.9,0.6-1.9,0.9-2.8
		c2.5-1.2,4.8-2.6,7.2-4.1C75,54.9,74.8,55.6,74.6,56.3z M75.4,53.3c-2.5,1.4-5,2.9-7.3,4.5c0.2-0.7,0.4-1.4,0.6-2.2
		c2.3-1.3,4.7-2.5,7.1-3.8C75.7,52.3,75.6,52.8,75.4,53.3z M76,50.8c-2.5,1.2-4.9,2.8-7.2,4.3c0.1-0.5,0.3-1,0.4-1.5
		c0.1-0.3,0.2-0.6,0.2-0.9c2.4-1.5,5-3.2,7.2-5C76.5,48.7,76.3,49.8,76,50.8z M76.9,46.7c-2.5,1.7-4.8,3.6-7.2,5.4
		c0.3-1.2,0.5-2.4,0.8-3.6c1.2-0.7,2.4-1.5,3.6-2.2c1.1-0.6,2.2-1.2,3.3-1.8C77.1,45.3,77,46,76.9,46.7z M77.3,43.7
		c-2.3,1.2-4.8,2.6-6.9,4.4c0.2-0.9,0.3-1.8,0.4-2.7c1.4-0.7,2.7-1.6,4.1-2.5c0.9-0.5,1.7-1,2.6-1.6C77.5,42.2,77.4,43,77.3,43.7z
		 M74.2,42.9c-1.1,0.7-2.2,1.4-3.2,2.2c0.1-0.9,0.2-1.8,0.3-2.7c1.3-0.7,2.4-1.6,3.6-2.3c0.9-0.6,1.9-1.1,2.9-1.7
		c0,0.8-0.1,1.5-0.2,2.3C76.5,41.2,75.3,42.1,74.2,42.9z"/>
	<path fill="#1D1D1B" d="M60.9,27.5c-0.5-2.9-1.7-5.5-3.5-7.5c0-0.3-0.2-0.6-0.6-0.7c0,0,0,0,0,0c-2.3-2.3-5.4-3.6-8.7-3.2
		c-0.9-0.5-2.1-0.3-3.1-0.2c-1,0.1-1.9,0.4-2.8,0.8c-6.7,0.6-10.6,9.9-9.9,15.9c1.1,8.8,8.5,14.2,17.3,12.7
		C58,43.9,62.2,35.5,60.9,27.5z M53.8,19.1c-0.6,0-1.2,0-1.8,0.1c-0.7-0.4-1.4-0.6-2.1-0.9c-0.4-0.2-0.8-0.3-1.2-0.5
		C50.6,17.6,52.3,18.1,53.8,19.1z M47.7,17.9c0.7,0.3,1.4,0.7,2,1c0.3,0.2,0.7,0.3,1,0.5c-0.6,0.1-1.2,0.3-1.7,0.4
		c-0.5-0.3-1-0.6-1.5-0.9c-0.4-0.2-0.9-0.5-1.3-0.7C46.7,18.1,47.2,18,47.7,17.9z M44.4,18.2c0.2,0.3,0.4,0.4,0.7,0.4
		c0.6,0.4,1.2,0.8,1.8,1.2c0.3,0.2,0.5,0.4,0.8,0.5c-0.3,0.2-0.6,0.3-0.9,0.5c-1.2-0.8-2.6-1.6-3.9-2.3
		C43.5,18.4,43.9,18.3,44.4,18.2z M42.1,18.8c1.3,0.9,2.6,1.8,4,2.5c-0.4,0.3-0.9,0.7-1.2,1.1c-1.7-1-3.7-1.7-5.5-2.4
		C40.2,19.5,41.2,19.1,42.1,18.8z M39,20.2c1.8,0.9,3.6,1.9,5.5,2.7c-0.5,0.5-0.9,1.1-1.2,1.8c-2-1.1-4.1-2-6.1-2.9
		C37.7,21.1,38.3,20.6,39,20.2z M36.9,22c2,1,4.1,2.2,6.2,3.1c-0.3,0.6-0.5,1.2-0.7,1.9c-2.3-1-4.6-1.8-6.9-2.8
		C35.8,23.4,36.3,22.7,36.9,22z M35.3,24.5c2.2,1.1,4.5,2.3,6.9,3c-0.1,0.6-0.3,1.2-0.3,1.9c-2.4-0.9-4.8-1.9-7.2-2.7
		c-0.1,0-0.2,0.2-0.1,0.2c2.3,1.2,4.8,2.2,7.3,3c-0.1,0.8-0.1,1.7,0,2.6c-2.5-1.1-5.2-1.9-7.8-2.7C34.1,27.9,34.5,26.1,35.3,24.5z
		 M34,30.2c2.5,1.1,5.2,2.2,7.9,2.9c0.1,0.8,0.2,1.6,0.3,2.3c-2.6-1-5.4-1.9-8-2.8C34,31.8,34,31,34,30.2z M34.3,33.6
		c0-0.2-0.1-0.4-0.1-0.5c1,0.6,2.5,1,3.4,1.3c0.9,0.4,1.8,0.7,2.7,1c0.5,0.2,0.9,0.3,1.4,0.5c0.2,0.1,0.4,0.2,0.6,0.2
		c0.2,0.9,0.5,1.8,0.9,2.7c-2.7-1-5.5-1.8-8.2-2.8C34.7,35.2,34.5,34.4,34.3,33.6z M43.5,39.6c0.2,0.5,0.5,0.9,0.8,1.4
		c-2.3-0.5-4.7-0.8-7-1.3c-0.8-0.9-1.5-1.9-2-3C37.9,37.8,40.7,39,43.5,39.6z M37.9,40.2c2.3,0.6,4.6,1.2,6.9,1.5
		c0.5,0.7,1.2,1.3,1.9,1.8C43.3,43.6,40.2,42.4,37.9,40.2z M49.2,43.4c-0.4,0.1-0.7,0.1-1.1,0.1c-2.3-4.2-4.9-7.5-4.6-12.7
		c0-0.1,0-0.3,0-0.4c0.1-0.1,0.2-0.3,0-0.4c0.3-3,1.4-5.8,3.9-7.6c2.6-1.8,5.4-1.6,8.4-1.3C61,27.5,60,41.5,49.2,43.4z"/>
</g>
</svg>
