<?xml version="1.0" encoding="utf-8"?>
<!-- Generator: Adobe Illustrator 18.0.0, SVG Export Plug-In . SVG Version: 6.00 Build 0)  -->
<!DOCTYPE svg PUBLIC "-//W3C//DTD SVG 1.0//EN" "http://www.w3.org/TR/2001/REC-SVG-20010904/DTD/svg10.dtd">
<svg version="1.0" id="Objects" xmlns="http://www.w3.org/2000/svg" xmlns:xlink="http://www.w3.org/1999/xlink" x="0px" y="0px"
	 viewBox="0 0 100 100" enable-background="new 0 0 100 100" xml:space="preserve">
<g>
	<path fill="#1D1D1B" d="M92.5,38c-0.1-4.6,1-11.6-1.7-15.7c-2.4-3.7-7.7-2.9-11.5-3c-7.5-0.2-14.9-0.2-22.4-0.2
		c-7.1,0-14.3,0.2-21.4,0.5c-4.5,0.2-10.3-0.4-15.2,0.5c-2.5,0.1-5.5-0.6-7.6,0.8c-2.8,1.9-2.6,6.3-2.9,9.2
		C8.4,41.5,8.3,53,9.5,64.3c0.2,2.4,0.3,5.1,2.5,6.5c2.9,1.8,7.9,1.2,11.1,1.5c11.7,0.8,23.4,0.9,35.1,0.6c0,2.2,2.7,5.1,4,6.2
		c3.6,2.9,8.4,3.5,12.9,3.1c0.8-0.1,1.3-0.8,0.9-1.6c-1.3-2.4-2-5-3-7.4c3.4-0.1,6.9-0.1,10.3-0.2c1.9-0.1,4.3,0.1,6-0.9
		c3.6-2.2,2.6-8.8,2.7-12.4C92.5,52.5,92.6,45.3,92.5,38z M90.3,50.8c-0.1,3-0.2,5.9-0.3,8.9c-0.1,2.4,0.2,5.6-0.5,7.9
		c-1.3,4.1-5.4,3.3-8.8,3.4l-8.1,0.2c-0.6,0-0.9,0.5-1,0.9c-0.2,0.1-0.3,0.3-0.3,0.5c-0.1,2.6,1.1,5.2,2.3,7.6
		c-3.5,0.1-7-0.5-9.8-2.7c-1.3-1-2.4-2.3-3.2-3.9c-0.3-0.6-0.4-1.4-0.7-1.9c0,0,0-0.1-0.1-0.1c-0.1-0.4-0.4-0.8-1-0.8
		C50.9,71,42.9,71,35,70.7c-4-0.1-7.9-0.3-11.9-0.6c-1.9-0.1-4.1,0-5.9-0.4c-4.3-0.9-5.2-2.1-5.7-6.4c-0.8-7.8-0.9-15.6-0.5-23.4
		c0.2-4.1,0.1-9.4,1.4-13.3c1.2-3.7,1.9-4.1,5.3-4.5c0.1,0,0.3,0,0.4-0.1c4,0.7,8.5-0.2,12.5-0.4c5.5-0.2,11-0.4,16.5-0.4
		c11-0.2,22-0.1,33.1,0.1c3.8,0.1,9.1,1,9.7,5.5c0.3,2.4,0.2,4.8,0.3,7.1C90.4,39.7,90.4,45.3,90.3,50.8z"/>
	<path fill="#1D1D1B" d="M30.7,46c-0.7-2.2-4.1-4.5-6.3-2.9c-0.1,0.1-0.2,0.2-0.2,0.2c-0.7,0.2-1.3,0.6-1.9,1.2
		c-0.9,1-1.3,2.4-1.1,3.7c0.4,2.7,3.4,4.7,6.1,4C29.9,51.6,31.5,48.6,30.7,46z M28.7,46.2c0.2,0.4,0.2,0.8,0.2,1.1c0,0,0,0,0,0
		c-0.4-0.7-1.2-1.1-1.8-1.6c-0.5-0.4-1-0.8-1.5-1.2C26.8,44.7,28,44.9,28.7,46.2z M23.2,48.5c-0.1-0.4-0.2-0.9-0.1-1.3
		c0.5,0.7,1.2,1.3,1.8,1.9c0.4,0.4,0.8,0.9,1.2,1.4C24.8,50.5,23.6,49.6,23.2,48.5z M27.2,50.2c-0.5-0.6-1.1-1.1-1.6-1.6
		c-0.7-0.7-1.4-1.6-2.3-2.2c0.2-0.4,0.4-0.7,0.6-1.1c0.7,0.7,1.4,1.4,2,2.1c0.6,0.7,1.2,1.6,1.9,2.3C27.7,49.9,27.5,50.1,27.2,50.2z
		 M28.5,48.9c-0.5-0.7-1.3-1.3-1.9-1.9c-0.7-0.7-1.5-1.4-2.3-2c0.2-0.1,0.3-0.3,0.5-0.4c0.6,0.5,1.2,1,1.8,1.6
		c0.6,0.6,1.2,1.3,2,1.6c0.2,0.1,0.3-0.1,0.4-0.2C28.9,48.1,28.8,48.5,28.5,48.9z"/>
	<path fill="#1D1D1B" d="M53.6,45c-1-1.8-4-3-5.5-1.3c-2.3,0.2-3.3,3.2-2.5,5.3c1,2.5,3.8,3.6,6.2,2.4C54.1,50.2,54.9,47.3,53.6,45z
		 M52.2,46.6c-0.3-0.2-0.6-0.4-0.8-0.6c-0.5-0.4-1-0.9-1.5-1.3C51,44.6,51.9,45.5,52.2,46.6z M47.2,47.6c0.2,0.1,0.4,0.3,0.5,0.4
		c0.7,0.6,1.4,1.3,2.1,1.9C48.4,50,47.5,48.8,47.2,47.6z M51,49.5c-0.1,0.1-0.2,0.1-0.3,0.1c-0.6-0.6-1.3-1.1-1.9-1.7
		c-0.4-0.3-0.8-0.7-1.2-1c0,0-0.2-0.2-0.5-0.4c0.1-0.5,0.2-0.9,0.6-1.2c0.7,0.7,1.5,1.5,2.2,2.2c0.5,0.5,1,1.1,1.5,1.6
		C51.3,49.4,51.2,49.5,51,49.5z M50.4,47.1c-0.7-0.6-1.4-1.2-2.1-1.9c0.1,0,0.2,0,0.3-0.1c0.2-0.1,0.3-0.2,0.5-0.3
		c0.6,0.5,1.2,1.1,1.8,1.6c0.4,0.4,0.9,0.9,1.4,1.3c0,0.2-0.1,0.5-0.2,0.7C51.5,48,50.9,47.6,50.4,47.1z"/>
	<path fill="#1D1D1B" d="M74.4,43c-0.4-0.1-0.7,0.1-0.9,0.4c-0.7,0.1-1.3,0.3-1.9,0.7c0,0-0.1-0.1-0.1-0.1c-0.2-0.2-0.5,0.1-0.3,0.3
		c0,0,0,0,0.1,0.1c-0.8,0.7-1.4,1.6-1.6,2.7c-0.3,2.4,1.6,4.5,3.9,4.9c1.4,0.2,2.8-0.4,3.6-1.4c0.1-0.1,0.2-0.2,0.2-0.3
		c0.4-0.5,0.7-1.2,0.8-1.9C78.8,45.5,76.9,43.8,74.4,43z M73.7,44.5C73.7,44.5,73.7,44.6,73.7,44.5c1.2,0.5,2.3,1.1,2.7,2.2
		c-0.3-0.2-0.6-0.4-0.9-0.6C74.9,45.6,74.3,45.1,73.7,44.5C73.6,44.6,73.7,44.5,73.7,44.5z M74.2,50c-1.3,0-2.6-1-2.8-2.3
		c0-0.2,0-0.5,0-0.7c0.6,0.5,1.1,0.9,1.6,1.4c0.5,0.5,1,1.1,1.6,1.6C74.6,50,74.4,50,74.2,50z M75.5,49.6c-0.6-0.7-1.4-1.2-2.1-1.7
		c-0.6-0.5-1.2-0.9-1.8-1.4c0.1-0.4,0.4-0.7,0.6-1c1.1,1.3,2.2,2.7,3.4,3.9C75.6,49.4,75.6,49.5,75.5,49.6z M72.8,45.1
		c0.1-0.1,0.2-0.1,0.3-0.2c0.7,0.6,1.4,1.2,2.1,1.9c0.4,0.4,0.8,0.8,1.3,1.2c0,0.2-0.1,0.4-0.2,0.6C75.2,47.3,74,46.2,72.8,45.1z"/>
</g>
</svg>
