<?xml version="1.0" encoding="utf-8"?>
<!-- Generator: Adobe Illustrator 18.0.0, SVG Export Plug-In . SVG Version: 6.00 Build 0)  -->
<!DOCTYPE svg PUBLIC "-//W3C//DTD SVG 1.0//EN" "http://www.w3.org/TR/2001/REC-SVG-20010904/DTD/svg10.dtd">
<svg version="1.0" id="Objects" xmlns="http://www.w3.org/2000/svg" xmlns:xlink="http://www.w3.org/1999/xlink" x="0px" y="0px"
	 viewBox="0 0 79 219" enable-background="new 0 0 79 219" xml:space="preserve">
<g>
	<path fill="#1D1D1B" d="M60.2,118.7c-0.2-0.1-0.3-0.2-0.5-0.3c-0.2-0.1-0.4-0.1-0.5,0c-0.5,0.3-0.8,0.7-1.1,1.2
		c0-1.4-1.6-2.7-2.7-3.4c-0.6-0.4-1.4-0.7-2.1-0.8c-0.7-0.1-1.3,0-1.9,0.2c0.4-7.7,0.1-15.6,0.1-23.2c0.1-11.9,0.4-23.9,0-35.8
		c0.1-0.2,0.2-0.4,0.2-0.6c0.1-0.5-0.1-0.8-0.4-1c-0.1-1.6-2-3.3-3.4-3.6c-2.2-0.6-4.3,0.7-5.3,2.6c-0.8-1.5-2.6-2.2-4.4-2.2
		c-0.5-6.9-0.9-13.8-1-20.7c0-1.8-0.4-4.5,0.2-6.2c1.6-3.9,6.7-2.2,8.2,1.3c1.7,4.2,1.6,8.6,2.3,12.9c0.4,2.4,4,2.1,4.5,0
		c1.5-6.1-0.2-14.3-4.2-19.3c-2.9-3.6-8.2-5.5-12.2-2.4c-4.4,3.4-3.7,9.9-3.4,14.8c0.4,6.8,1.2,13.5,2.4,20.1
		c-1.2,0.5-2.1,1.3-2.8,2.4c-1.6-1.5-4.2-1.8-6.1-0.6c-0.4,0.2-0.8,0.6-1.2,1.1c-0.5,0.1-1,0.5-0.9,1.1c1.3,11.2,3.1,22.3,4.9,33.4
		c1.3,7.8,2.4,15.7,3.9,23.6c-3.3-2.3-9.3-0.4-12.3,1.6c-0.2,0.1-0.4,0.3-0.4,0.6c-0.4-0.5-1.4-0.4-1.4,0.5
		c-0.9,27.9,1.3,56.2,2.2,84.1c0,1.2,1.3,1.5,2.1,1c1,4.6,11,6.3,14.5,6.6c6.8,0.7,15.9-0.4,18.5-7.8c0.1-0.3,0.1-0.7-0.1-0.9
		c0.3-13,0.6-26.1,1.3-39.1c0.2-3.4,2.9-40.2,2.6-40.3C60.3,119.6,60.6,119,60.2,118.7z M41.4,55.3c0.4,0.2,1,0.1,1.2-0.3
		c0.4,0.3,1,0.3,1.3-0.1c0.8-1.2,2.3-1.9,3.7-1.1c0.8,0.5,1,1.2,1.4,1.9c-0.7,0.5-1.3,0.9-2.2,1c-1.5,0.2-2.7-0.3-3.9-1.1
		c-0.7-0.4-1.6,0.4-1.2,1.1c-0.3,0-0.6,0-0.8,0.4c-0.6,1-1.2,2.1-2.2,2.7c0-0.1,0.1-0.2,0-0.4c-0.1-1.8-0.3-3.7-0.4-5.5
		C39.5,54.2,40.3,54.8,41.4,55.3z M43,90.9c-0.1-10.8,0.5-21.6,0.8-32.4c1,0.4,2.1,0.6,3.2,0.6c0.6,0,1.3-0.2,1.9-0.4
		c-0.4,11.3-0.3,22.6-0.4,33.8c-0.1,10.7-0.8,21.8,0.5,32.5c-1.4,0.2-2.9,0.2-4.3,0.1c0-0.1,0-0.1,0-0.2
		C44.1,113.5,43.2,102.2,43,90.9z M42.2,59.4c-2.7,21.4-2.1,44.3,1,65.5c-1-0.1-1.9-0.1-2.8-0.2c-0.4-21-1.8-42.5-6-63.1
		c0.6,0.4,1.3,0.7,2.1,0.9C38.5,62.8,41.3,61.4,42.2,59.4z M35.5,54.5c0.3,1.8,0.7,3.6,1.1,5.4c0.1,0.3,0.2,0.4,0.4,0.6
		c-1.9,0-3.5-1.9-3.7-3.8C33.7,55.6,34.5,54.9,35.5,54.5z M26.5,57C26.5,57,26.5,57,26.5,57c0.1-0.2,0-0.3-0.1-0.4c0,0,0-0.1,0-0.1
		c0,0,0-0.1,0.1-0.1c0.2-0.1,0.5-0.3,0.7-0.5c0.5-0.2,1.1-0.4,1.7-0.3c1,0,2,0.4,2.8,1.1c0.1,0.1,0.1,0.2,0.2,0.2c0,0-0.1,0-0.1,0
		c-1,0.4-1.9,1-3.1,0.9C27.9,57.8,27.1,57.5,26.5,57C26.5,57,26.5,57,26.5,57z M32.2,91.5c-1.7-10.8-3.4-21.6-5.3-32.4
		c1.8,0.9,3.9,1,5.3-0.3c2.6,22,5.6,43.7,6.6,65.8c-0.2,0-0.4,0-0.6-0.1c-0.4,0-0.8-0.1-1.2-0.1C36.1,113.3,33.9,102.3,32.2,91.5z
		 M21.5,116.9c1.9-0.7,3.8-1.3,5.8-1.5c1.8-0.2,3.7,0.3,5.5-0.3c0.2-0.1,0.4-0.2,0.5-0.3c0.6,3.1,1.3,6.2,2.1,9.3
		c-5.6-0.8-12.1-2.3-14.8-7.2c0-0.1-0.1-0.1-0.1-0.1C20.7,116.9,21.1,117,21.5,116.9z M56.6,128.8c-1,7.8-1.5,15.6-1.9,23.5
		c-1,15.7-1.7,31.4-1.8,47.1c0,0.2,0,0.4,0.1,0.6c-2.9,4.2-8.6,5-13.5,4.8c-4.1-0.1-13.3-1.4-15.2-5.9c-0.1-0.3-0.5-0.4-0.8-0.2
		c0-1-0.1-2.1-0.1-3.1c1.1,1.1,2.4,1.9,3.8,2.6c1,0.5,1.7-1,0.6-1.5c-1.7-0.7-3.1-1.8-4.4-3.1c0-1.6-0.1-3.2-0.1-4.8
		c1.5,1.4,3.4,2.4,5.4,2.9c0.6,0.1,0.9-0.8,0.3-1c-2.2-0.6-4.1-1.7-5.7-3.3c0-1.8-0.1-3.7-0.1-5.5c2.2,1.7,4.7,2.9,7.4,3.5
		c0.7,0.1,0.9-0.8,0.3-1c-2.8-0.9-5.4-2.1-7.7-3.9c0-2.4-0.1-4.8-0.1-7.2c1.5,1.5,3.6,2.3,5.9,2c0.8-0.1,0.8-1.3,0-1.3
		c-2.3,0.2-4.4-0.8-5.9-2.5c0-1.7-0.1-3.4-0.1-5.1c1.7,1.4,3.8,2,6.1,1.7c0.4-0.1,0.3-0.6-0.1-0.6c-2.2,0.1-4.4-0.7-6-2.1
		c-0.1-2.6-0.1-5.2-0.2-7.7c2,2,4.7,3.1,7.6,2.7c0.7-0.1,0.5-1.2-0.2-1.2c-2.9,0-5.7-1-7.5-3.3c-0.1-2.4-0.1-4.8-0.2-7.1
		c1.6,1.3,3.6,2,5.8,2.1c0.7,0,0.7-1,0-1c-2.2-0.2-4.2-1.1-5.9-2.5c-0.1-2-0.1-4-0.2-6c1.7,1.4,3.8,2.2,6.1,2.1c0.8,0,0.8-1.2,0-1.3
		c-2.3-0.3-4.5-1.2-6.2-2.7c-0.1-2.5-0.3-5-0.4-7.6c1.5,2.3,3.8,3.8,6.6,4c0.7,0,0.8-1.1,0.2-1.2c-2.5-0.4-4.8-1.7-6.2-3.8
		c-0.2-0.3-0.4-0.3-0.6-0.2c-0.1-1.8-0.3-3.7-0.4-5.5c1.9,2.2,4.6,3.4,7.7,3.3c0.9,0,0.9-1.3,0-1.3c-3-0.1-5.9-1.5-7.8-3.8
		c-0.1-0.8-0.1-1.6-0.2-2.4c4.1,4.7,12.6,5.7,18.3,6.3c5.3,0.6,13.3,1.2,17.8-2.4C56.7,126.3,56.7,127.8,56.6,128.8z M50.6,124.6
		c0.4-2.6,0.6-5.2,0.7-7.9c1,0.3,2.2,0.9,3,1.5c0.9,0.7,1.4,1.8,2.3,2.3c0.2,0.1,0.4,0.1,0.6,0.1C55.7,122.9,53.3,124.1,50.6,124.6z
		"/>
</g>
</svg>
