<?xml version="1.0" encoding="utf-8"?>
<!-- Generator: Adobe Illustrator 18.0.0, SVG Export Plug-In . SVG Version: 6.00 Build 0)  -->
<!DOCTYPE svg PUBLIC "-//W3C//DTD SVG 1.0//EN" "http://www.w3.org/TR/2001/REC-SVG-20010904/DTD/svg10.dtd">
<svg version="1.0" id="Objects" xmlns="http://www.w3.org/2000/svg" xmlns:xlink="http://www.w3.org/1999/xlink" x="0px" y="0px"
	 viewBox="0 0 100 100" enable-background="new 0 0 100 100" xml:space="preserve">
<g>
	<path fill="#1D1D1B" d="M28.9,72.5c-1.2-7-8.4-9.1-14.7-7.9c-0.4,0.1-0.6,0.4-0.7,0.7c-4.9,1.2-8.2,6.3-7.6,11.5
		c0.7,6.5,6.9,11.5,13.5,10.6C26.2,86.4,30,79,28.9,72.5z M13.4,67.5c-1.1,1.5-2.1,3-3.1,4.5c-0.4,0.6-1.2,1.5-1.9,2.4
		C8.8,71.4,10.8,69,13.4,67.5z M8.5,77.4c-0.1-0.4-0.1-0.7-0.2-1.1c0.4-0.6,1-1.1,1.3-1.5c0.7-1,1.4-2,2.2-3
		c1.3-1.7,2.7-3.4,3.8-5.3c0.6,0,1.1,0,1.7,0c-2.8,3.9-5.6,7.9-8.3,11.9C8.7,78.1,8.6,77.8,8.5,77.4z M9.2,79.4
		c3.2-4.2,6.3-8.5,9.4-12.7c0.9,0.1,1.8,0.2,2.7,0.5c-1.7,2-3.2,4.2-4.8,6.3c-2,2.6-4.4,5.1-6,7.9C10,80.7,9.6,80.1,9.2,79.4z
		 M10.9,81.9c2.5-2.2,4.5-5.2,6.5-7.7c1.7-2.1,3.6-4.3,5.2-6.5c0.5,0.2,1,0.5,1.5,0.9c-3.8,4.9-7.3,10.1-11.2,15
		C12.2,83.1,11.5,82.5,10.9,81.9z M24.9,69.3c0.5,0.6,0.9,1.4,1.2,2.3c-0.1,0-0.1,0.1-0.2,0.2c-3.1,4.5-6.5,8.8-10,13.1
		c-0.8-0.2-1.6-0.5-2.3-0.8C17.9,79.6,21.5,74.3,24.9,69.3z M19.8,84.8c-1,0.2-1.9,0.3-2.8,0.2c3.4-3.7,6.6-7.8,9.5-12
		C27.3,77.8,24.8,83.6,19.8,84.8z"/>
	<path fill="#1D1D1B" d="M37.9,58.4C32.4,53,24.8,50.6,17.2,51c0,0,0,0,0,0c-1.9-1.7-5,0.7-5.6,2.6c-0.7,2.4,0.7,5,3.2,5.2
		c0.2,0,0.4-0.1,0.5-0.3c5.7,0.7,11.3,3.1,15.1,7.5c4.4,5.1,4.9,10.9,4.9,17.3c0,0.4,0.3,0.7,0.6,0.8c0.2,0.5,0.6,1,1,1.3
		c-0.1,0.1-0.1,0.1-0.2,0.2c-0.3,0.3,0.2,0.8,0.5,0.5c0.1-0.1,0.2-0.2,0.3-0.3c1.2,0.7,2.9,0.9,4.2,0.3c2.2-0.9,3.5-3.7,2.8-5.9
		c0.1-0.2,0.2-0.4,0.2-0.6C45,71.7,43.9,64.3,37.9,58.4z M42.4,75.2c-0.9,0.7-1.6,1.6-2.3,2.4c-0.9,1.1-2.1,2.5-2.6,3.9
		c0.2-1.4,0.2-2.9,0.1-4.2c1.4-1.5,3-3,4.4-4.6C42.2,73.5,42.3,74.3,42.4,75.2z M14.1,56.7c-0.5-0.8-0.7-1.7-0.4-2.5
		c0.5-1.2,1.5-1.4,2.5-1.7c0.1,0.1,0.3,0.2,0.5,0.2c0.1,0,0.3,0,0.4,0c-0.4,0.5-0.9,1.1-1.3,1.7C15.3,55.1,14.6,55.8,14.1,56.7z
		 M15,57.3c0.7-0.6,1.3-1.5,1.9-2.2c0.6-0.7,1.3-1.4,1.8-2.2c0.8,0.1,1.6,0.2,2.4,0.3c-0.5,0.5-0.9,0.9-1.3,1.4
		c-0.8,0.9-1.6,1.8-2.2,2.8C16.7,57.3,15.8,57.2,15,57.3z M24.5,59.3c-1.9-0.9-4-1.5-6.1-1.8c0.7-0.8,1.4-1.6,2.1-2.4
		c0.5-0.6,1.1-1.1,1.7-1.7c0.8,0.1,1.6,0.3,2.4,0.5c-0.5,0.5-0.9,1-1.3,1.5c-0.5,0.6-1.7,1.4-1.5,2.3c0,0.1,0.2,0.2,0.3,0.2
		c0.5,0,0.6-0.2,0.9-0.5c0.4-0.4,0.8-0.9,1.2-1.3c0.5-0.5,1.3-1.2,1.7-1.9c0.7,0.2,1.5,0.5,2.2,0.7c-0.8,0.8-1.6,1.7-2.3,2.6
		c-0.4,0.5-0.8,1-1.1,1.5C24.6,59.1,24.6,59.2,24.5,59.3z M25.6,59.8c0.3-0.4,0.6-0.9,0.9-1.3c0.9-1,1.9-2,2.6-3.2
		c0.6,0.2,1.2,0.5,1.8,0.8c-0.6,0.6-1.2,1.4-1.7,2.1c-0.7,0.8-1.4,1.6-2.1,2.5C26.6,60.4,26.1,60.1,25.6,59.8z M29.9,62.8
		c-0.7-0.6-1.4-1.1-2.1-1.6c0.7-0.8,1.5-1.6,2.2-2.4c0.6-0.7,1.3-1.3,1.8-2.1c0.8,0.5,1.6,1,2.3,1.5c-1,0.9-1.9,1.9-2.8,2.9
		C30.9,61.7,30.4,62.2,29.9,62.8z M32.3,65.1c-0.5-0.6-1.1-1.2-1.7-1.7c0.6-0.6,1.1-1.2,1.6-1.7c0.9-0.9,1.7-1.9,2.5-2.9
		c0.5,0.4,1,0.8,1.4,1.3c0.2,0.2,0.4,0.4,0.6,0.6c-0.7,0.7-1.3,1.5-2,2.2C34,63.6,33.1,64.4,32.3,65.1
		C32.3,65.1,32.3,65.1,32.3,65.1z M32.8,65.7c1.7-1,3.5-2.6,4.5-4.4c0.7,0.8,1.3,1.6,1.8,2.5c-0.9,0.7-1.6,1.6-2.4,2.4
		c-0.7,0.7-1.4,1.4-2,2.1C34.1,67.4,33.5,66.6,32.8,65.7z M35.1,69.1c0.8-0.7,1.5-1.5,2.3-2.2c0.7-0.7,1.6-1.4,2.2-2.2
		c0.4,0.8,0.8,1.7,1.1,2.5c-1.7,1.3-3.1,3.2-4.2,5C36.1,71.1,35.7,70,35.1,69.1z M36.9,73.1c0.7-1,1.5-2,2.3-2.9
		c0.6-0.7,1.3-1.3,1.9-1.9c0.3,1,0.6,2,0.7,3.1c-1.6,1.4-3,3.3-4.3,5.1C37.4,75.3,37.2,74.2,36.9,73.1z M37.2,83.4
		c0.1-0.4,0.2-0.8,0.3-1.3c0.1,0.1,0.3,0.2,0.4,0.1c1.2-1.2,2-2.8,3.1-4.1c0.4-0.5,0.9-0.9,1.5-1.4c0,0.9,0.1,1.8,0.1,2.8
		c0,0,0,0.1,0,0.1c-0.7,0.7-1.4,1.5-2.1,2.1c-0.8,0.8-1.5,1.6-2.3,2.4C37.8,84,37.5,83.7,37.2,83.4z M41.1,84.5
		c-0.6,0.3-1.3,0.3-2,0.1c0.7-0.7,1.4-1.4,2.1-2c0.5-0.4,1-0.9,1.5-1.3C42.9,82.6,42.5,83.9,41.1,84.5z"/>
	<path fill="#1D1D1B" d="M29.8,31.1c-0.1-0.3-0.6-0.5-0.9-0.1c0,0,0,0,0,0.1c-2.2-0.1-4.5-0.1-6.8,0.1c-0.1,0-0.1,0-0.2,0.1
		c-3.6-0.3-7.4,4-7.7,7.3c-0.2,2,0.5,4.2,2.4,5.2c1,0.5,2.1,0.5,3,0.2C42,41.9,56.6,61.5,52.1,82.9c-0.1,0.6,0.2,1,0.7,1.2
		c-0.6,2.9,3.7,5.3,6.4,5.8c3.9,0.6,8.3-2.4,7.7-6.5C72.9,58.2,54.9,33.3,29.8,31.1z M65.6,70.4c-1.8,1.5-3.6,3.1-5.4,4.7
		c-1.9,1.7-4.2,3.3-5.5,5.4c0,0,0,0.1,0,0.1c0.3-2.3,0.5-4.6,0.4-6.9c3.4-2.4,6.8-4.8,9.9-7.6C65.3,67.6,65.5,69,65.6,70.4z
		 M64.8,65.1c-0.2-0.1-0.3-0.1-0.5,0.1c-3.2,2.2-6.3,4.8-9.2,7.4c-0.1-1.6-0.2-3.1-0.5-4.6c1.6-0.9,2.9-2.2,4.3-3.4
		c1.6-1.3,3.2-2.5,4.6-4C64,62,64.5,63.5,64.8,65.1z M17.4,41.6c-0.3-0.2-0.6-0.5-0.8-0.9c-0.7-1.3-0.3-3.1,0.4-4.3
		c0.7-1.1,1.7-2,2.9-2.6c1-0.5,2.2-0.5,3.2-0.9c0.2,0,0.4,0,0.6,0C21.6,35.7,19.3,38.6,17.4,41.6z M20.9,41.9
		C20.9,41.9,20.8,41.9,20.9,41.9c-0.2,0-0.3,0-0.4,0.1c0,0,0,0,0,0c-0.4,0.1-0.9,0.2-1.3,0.3c-0.3,0-0.6-0.1-0.9-0.2
		c2.5-2.9,4.7-6.1,7.1-9.1c0.7,0,1.4,0.1,2.1,0.1C25.2,36,23.1,39,20.9,41.9z M22.1,41.7c2.4-2.6,4.7-5.5,6.6-8.5
		c1.4,0.2,2.7,0.4,4,0.7c-1.1,1-2.1,2.2-3,3.3c-1.3,1.4-2.5,2.9-3.7,4.4C24.7,41.5,23.4,41.6,22.1,41.7z M26.9,41.6
		c1.2-1.3,2.4-2.7,3.7-4c1.1-1.1,2.3-2.2,3.4-3.4c1.1,0.3,2.1,0.6,3.2,0.9c-1,0.9-1.9,2-2.8,3c-1.2,1.3-2.5,2.7-3.7,4.1
		C29.4,41.8,28.2,41.7,26.9,41.6z M31.7,42.3c1.2-1.1,2.3-2.3,3.5-3.5c1-1.1,2.3-2.1,3.2-3.4c0.5,0.2,1,0.4,1.5,0.6
		c-2.1,2.1-3.9,4.8-5.5,7.1C33.5,42.8,32.6,42.6,31.7,42.3z M35.3,43.5c1.2-1.6,2.4-3.1,3.6-4.6c0.7-0.8,1.4-1.6,2.1-2.4
		c1.2,0.5,2.3,1.1,3.4,1.7c-2.3,1.8-4.3,4.4-5.9,6.8C37.5,44.4,36.4,43.9,35.3,43.5z M39.3,45.4c0.9-1.1,1.7-2.2,2.7-3.2
		c1.1-1.2,2.3-2.3,3.4-3.6c0.7,0.4,1.4,0.9,2.2,1.4c-1.2,1-2.2,2.3-3.1,3.4c-0.9,1.1-1.9,2.3-2.8,3.4C40.9,46.4,40.1,45.9,39.3,45.4
		z M42.3,47.4c1-1.1,2-2.3,3-3.4c1-1.1,2.2-2.2,3-3.4c0.7,0.5,1.4,1,2,1.5C49,43,48,44.4,47,45.6c-0.9,1.1-1.8,2.3-2.6,3.5
		C43.7,48.5,43,47.9,42.3,47.4z M47.6,52.4c1-1,1.9-2.1,2.8-3.1c1.1-1.2,2.4-2.3,3.2-3.8c0.2-0.4-0.2-0.8-0.6-0.6
		c-1.4,1-2.5,2.5-3.6,3.8c-0.8,1-1.7,2-2.4,3c-0.6-0.7-1.2-1.3-1.9-2c0.9-1.2,1.9-2.4,2.9-3.5c1-1.2,2.2-2.2,3.1-3.5
		c1.7,1.4,3.2,2.9,4.6,4.5c-1.3,0.8-2.3,2.2-3.4,3.3c-1.1,1.2-2.3,2.4-3.4,3.6C48.5,53.5,48.1,52.9,47.6,52.4z M49.3,54.6
		c1.3-1.1,2.5-2.3,3.7-3.4c1.1-1,2.4-2,3.3-3.3c0.7,0.8,1.3,1.6,1.9,2.4c-1.7,1-3.1,2.6-4.5,4c-1,1-1.9,2-2.7,3
		C50.5,56.4,49.9,55.5,49.3,54.6z M51.4,58.1c1-1,2-2.1,3.1-3c1.4-1.3,3.1-2.4,4.4-3.8c0.7,1.1,1.4,2.2,2.1,3.4
		c-1.6,0.9-2.9,2.6-4.2,3.8c-1.2,1.2-2.4,2.5-3.6,3.8C52.6,60.9,52.1,59.5,51.4,58.1z M53.5,63.4c1.4-1.3,2.7-2.7,4.1-4
		c1.2-1.2,2.8-2.3,3.9-3.6c0.6,1.2,1.1,2.4,1.6,3.6c0,0-0.1,0-0.1,0.1c-1.7,1.1-3.2,2.6-4.7,3.9c-1.3,1.1-2.7,2.2-3.9,3.5
		C54.2,65.7,53.9,64.5,53.5,63.4z M54.6,82.9c0.1-0.2,0-0.5-0.1-0.7c0.1-0.5,0.2-1,0.2-1.5c0,0.2,0.3,0.3,0.4,0.2
		c2.3-1.1,4.2-3.2,6.1-4.8c1.5-1.3,3-2.7,4.5-4c0.1,2,0,4-0.2,6c-1.9,1.4-3.8,2.8-5.7,4.2c-1.6,1.2-3.5,2.3-4.8,3.7
		C54.2,85.2,53.8,84.2,54.6,82.9z M60.9,83.1c1.5-1,3-2.1,4.5-3.2c-0.1,0.7-0.2,1.4-0.4,2.2c-0.2,0.1-0.4,0.4-0.3,0.6
		c0.1,0.2-3.2,2.5-3.4,2.7c-1,0.8-2,1.5-2.9,2.3c-1-0.2-2-0.6-2.7-1.2C57.5,85.7,59.3,84.3,60.9,83.1z M61.5,87.9
		c-0.5,0.1-1.1,0.1-1.9,0c1.1-0.8,2.2-1.5,3.3-2.3c0.5-0.4,1.3-0.8,2-1.2C64.4,86,63.4,87.5,61.5,87.9z"/>
	<path fill="#1D1D1B" d="M79.1,29.9c-6.4-8-14.9-14.2-24.4-18.1C47.1,8.7,36.5,6,28.2,8.5c0,0,0,0,0,0c-4.1-1.2-8.4,3.8-8.9,7.4
		c-0.3,1.9-0.1,4.2,1.6,5.4c0.6,0.4,1.3,0.6,1.9,0.6c1.3,0.2,2.7,0.3,4,0.5c0.1,0.2,0.3,0.2,0.5,0.1c0,0,0,0,0,0
		c14.8,1.7,28.9,3.1,39.2,16c11.2,14,12.3,32,9.2,49c-0.1,0.4,0,0.7,0.2,0.9c0,3.2,3.1,5.1,6.2,5.4c2.7,0.3,7.1,0.1,8.4-2.5
		c0.3,0,0.5-0.2,0.5-0.5C95.5,69.8,92.5,46.8,79.1,29.9z M91,68.8c-4,3.1-8.1,6.1-12.1,9.2c0.1-1.7,0.2-3.3,0.3-5
		c1.9-1.5,3.6-3.3,5.5-4.9c1.9-1.6,3.9-3,5.8-4.6C90.7,65.3,90.9,67.1,91,68.8z M90.3,62.2c-2.2,1.4-4.2,3.1-6.1,4.8
		c-1.7,1.5-3.5,3.1-5,4.8c0-2.3-0.1-4.6-0.3-6.8c0,0,0,0,0,0c2.1-1.4,4.2-2.9,6.2-4.4c1.4-1.1,3-2.1,4.2-3.4
		C89.8,58.8,90.1,60.5,90.3,62.2z M89.1,55.9c-1.8,1-3.4,2.7-5,4c-1.8,1.4-3.6,2.8-5.3,4.2c-0.2-2.2-0.6-4.4-1.1-6.6
		c3.3-2.4,6.7-4.9,9.6-7.7C88,51.8,88.6,53.8,89.1,55.9z M22.5,13.5c1.1-1.6,2.5-2.2,4-2.8c-1,1.2-1.8,2.5-2.8,3.7
		c-0.8,1-1.6,2-2.4,3C21.3,16,21.8,14.5,22.5,13.5z M21.5,18.4c2.5-2.4,5-5.4,6.6-8.3c0.1,0,0.1-0.1,0.2-0.1
		c1.1,0.1,2.2,0.1,3.2,0.2c-3,2.8-6.1,6.5-7.9,10.1C22.4,20,21.7,19.3,21.5,18.4z M24.4,20.3c1.4-1.6,2.6-3.4,4-5
		c1.4-1.7,2.9-3.3,4.4-5c1.7,0.1,3.3,0.2,5,0.3c-3.5,3-6.8,6.2-9.8,9.8C26.8,20.3,25.6,20.3,24.4,20.3z M29,20.4
		c3.3-3.4,6.7-6.6,10.3-9.7c1.4,0.1,2.8,0.3,4.1,0.4c-1.8,1.2-3.4,2.9-4.9,4.3c-1.7,1.7-3.5,3.4-5.1,5.2C32,20.5,30.5,20.4,29,20.4z
		 M34.6,20.7c1.5-1.4,3-2.8,4.5-4.2c1.8-1.7,4.1-3.2,5.7-5.1c0,0,0.1-0.1,0.1-0.1c1.4,0.2,2.8,0.5,4.2,0.9c-3.6,2.5-6.9,5.8-9.7,9.2
		C37.8,21.1,36.2,20.9,34.6,20.7z M40.4,21.6c3.3-3,6.8-6,10.1-9c1.1,0.3,2.2,0.7,3.3,1.1c-1.6,1.1-3.1,2.5-4.5,3.7
		c-1.9,1.6-4,3.1-5.6,4.9C42.6,22.1,41.5,21.8,40.4,21.6z M44.6,22.6c1.7-1.1,3.3-2.5,4.9-3.7c1.9-1.5,3.9-2.9,5.6-4.6
		c1.3,0.6,2.6,1.2,3.9,1.8c-1.5,1.1-2.8,2.6-4,3.8c-1.5,1.5-2.9,3-4.2,4.7C48.7,23.8,46.7,23.1,44.6,22.6z M51.5,24.9
		c1.4-1.4,2.8-2.8,4.2-4.2c1.4-1.3,3.2-2.5,4.5-3.9c1.2,0.7,2.5,1.4,3.6,2.2c-1.7,1.1-3,2.8-4.5,4.2c-1.2,1.2-2.6,2.4-3.7,3.7
		C54.4,26.2,53,25.5,51.5,24.9z M56.6,27.4c1.3-1,2.5-2.2,3.6-3.4c1.5-1.4,3.3-2.7,4.5-4.4c1,0.7,2,1.4,2.9,2.2
		c-1.4,1.3-2.6,2.8-4,4.1c-1.3,1.2-2.7,2.3-4,3.5C58.7,28.7,57.7,28,56.6,27.4z M60.5,29.9c3-2,6.1-4.5,8.2-7.3c0,0,0,0,0,0
		c1.2,1,2.4,2.1,3.5,3.2c-0.2-0.1-0.4-0.1-0.7,0.1c-2.7,2.2-5.3,4.4-7.9,6.7C62.7,31.6,61.6,30.7,60.5,29.9z M64.4,33.1
		c2.7-2.1,5.4-4.2,8.1-6.4c0.2-0.2,0.2-0.4,0.1-0.6c0.9,0.9,1.7,1.8,2.6,2.7c-2.9,2.1-5.6,4.7-8.1,7.1C66.2,34.9,65.3,34,64.4,33.1z
		 M68.6,37.6c-0.3-0.4-0.7-0.8-1-1.2c2.8-2.1,5.9-4.3,8.4-6.8c0.5,0.6,1,1.1,1.5,1.7c0.3,0.4,0.6,0.9,0.9,1.3
		c-1.2,1.1-2.3,2.4-3.5,3.5c-1.4,1.4-2.9,2.9-4.2,4.3C70,39.5,69.3,38.6,68.6,37.6z M71,41.1c1.6-1.4,3.1-2.8,4.6-4.2
		c1.1-1.1,2.4-2.1,3.5-3.2c0.8,1.1,1.6,2.3,2.3,3.4c-2.7,2.7-5.3,5.4-8,8.1C72.6,43.8,71.9,42.4,71,41.1z M73.7,45.9
		c3-2.2,5.9-4.9,8.3-7.7c0.8,1.4,1.6,2.9,2.3,4.4c-1.6,1.1-2.9,2.7-4.3,4c-1.4,1.3-2.9,2.5-4.4,3.7C75,48.8,74.4,47.3,73.7,45.9z
		 M75.9,51c1.6-1,3.2-2.2,4.7-3.4c1.4-1.2,3.2-2.4,4.4-3.9c0.7,1.6,1.4,3.2,2,4.9c0,0,0,0-0.1,0c-3.3,2.3-6.4,5.2-9.3,8
		C77.1,54.7,76.5,52.8,75.9,51z M77.5,87.8c0.6-2.9,1-5.8,1.3-8.8c4.3-2.4,8.4-5.4,12.3-8.5c0.1,2.1,0,4.1,0,6.2
		c-0.1,0-0.2,0-0.3,0.1c-3.1,1.8-6,3.9-9,6c-1.1,0.7-3.9,1.8-3.7,3.4c0,0.1,0.2,0.3,0.3,0.3c0.3,0.1,0.4,0,0.6-0.1
		c0.1-0.1,0.2-0.2,0.1-0.4l0-0.1c0.9-0.4,2.4-1.4,2.5-1.4c1.1-0.7,2.2-1.4,3.3-2.1c2-1.3,4.1-2.7,6.1-4.1c-0.1,2-0.3,3.9-0.6,5.9
		c-2,0.8-3.8,2.1-5.7,3.2c-1.9,1-3.8,2-5.7,2.9c-0.8-0.5-1.4-1.2-1.8-2.1C77.4,88.1,77.5,88,77.5,87.8z M88.5,89.7
		c-0.2,1.7-4.5,1.6-5.6,1.6c-0.9,0-1.9-0.2-2.8-0.5c3.5-1.4,7.2-3,10.1-5.3c-0.2,1.1-0.3,2.1-0.5,3.2C89.2,88.7,88.5,89,88.5,89.7z"
		/>
</g>
</svg>
