<?xml version="1.0" encoding="utf-8"?>
<!-- Generator: Adobe Illustrator 18.0.0, SVG Export Plug-In . SVG Version: 6.00 Build 0)  -->
<!DOCTYPE svg PUBLIC "-//W3C//DTD SVG 1.0//EN" "http://www.w3.org/TR/2001/REC-SVG-20010904/DTD/svg10.dtd">
<svg version="1.0" id="Objects" xmlns="http://www.w3.org/2000/svg" xmlns:xlink="http://www.w3.org/1999/xlink" x="0px" y="0px"
	 viewBox="0 0 100 100" enable-background="new 0 0 100 100" xml:space="preserve">
<path fill="#1D1D1B" d="M93.2,33.8c-7.5-21-34.5-12.7-43.8,2.1C46.8,21.1,30.3,11.8,16.7,20C10.3,23.8,5.9,30.5,5.4,37.9
	c-0.6,10,5.3,18.9,11.3,26.3c7.2,8.9,15.7,17.7,25.1,24.3c2.2,1.6,3.7,2.1,6.1,1.2c5.6-2.1,11.4-7.6,16.3-11
	C78.5,69,100.5,54.4,93.2,33.8z M8.3,37.2c0.7-6.3,4.7-12,10.1-15.1c-3.7,5.8-7.1,12-10.2,18.2C8.2,39.3,8.2,38.3,8.3,37.2z M8.3,42
	c4.1-6.7,8.2-13.6,11.8-20.6c0,0,0-0.1,0-0.1c1.8-0.8,3.7-1.3,5.7-1.6C19.9,28,14.2,37,9.2,45.9C8.8,44.6,8.5,43.3,8.3,42z
	 M9.4,46.8c6.4-8.6,12.5-17.9,17.9-27.2c0.2,0,0.3,0,0.5,0c1.2,0,2.4,0.1,3.5,0.4c-7.3,9.3-15.2,20-20,30.7
	c-0.1,0.2,0.2,0.4,0.3,0.3c3.8-4.4,6.8-9.7,10.1-14.6c3.6-5.4,7.4-10.6,10.8-16.1c1.4,0.4,2.8,1,4.1,1.7c-8,11-15.9,22.4-22.5,34.3
	C12.2,53.2,10.5,50.1,9.4,46.8z M14.4,56.6c8-11.2,15.6-22.7,23.5-33.9c1.1,0.7,2,1.5,3,2.4c-0.2,0-0.4,0-0.6,0.2
	c-8.4,10.9-16.7,22.7-23.5,34.6C16,58.8,15.2,57.7,14.4,56.6z M17.2,60.4c8.7-10.7,16.9-22.8,24.1-34.5c0.1-0.1,0.1-0.3,0.1-0.4
	c1,1,1.9,2.1,2.6,3.2c-9,10.8-17,23.1-23.9,35.2C19.1,62.8,18.1,61.6,17.2,60.4z M21.5,65.6c-0.3-0.3-0.6-0.7-0.9-1
	c8-11.5,16.4-23,24.2-34.7c0.8,1.4,1.5,2.8,2,4.3c0,0,0,0-0.1,0.1c-8,10.9-16.1,21.9-23.7,33.1C22.5,66.7,22,66.2,21.5,65.6z
	 M23.5,67.9c8.2-10.4,16-21.2,23.8-32c0.1,0.5,0.2,1,0.3,1.5c0.1,0.7,0.9,0.9,1.5,0.6c-4.2,5.7-8.4,11.4-12.6,17.1
	c-3.6,5-8.2,9.9-10.3,15.8C25.3,69.9,24.4,68.9,23.5,67.9z M26.7,71.5C26.7,71.4,26.8,71.4,26.7,71.5c3.1-6.1,7.6-11.3,11.6-16.7
	c4.1-5.5,8.2-10.9,12.2-16.4c0.4,0,0.8-0.2,1.1-0.7c2.4-3.9,5.8-7.3,9.7-9.8C50.4,43.2,39.4,58.4,29.2,74.1
	C28.3,73.2,27.5,72.4,26.7,71.5z M29.7,74.7C41.5,59.2,52.6,43,63.7,27c0.1-0.2,0.2-0.4,0.1-0.5c2.2-1.1,4.4-1.9,6.8-2.3
	c-12,18.1-25.1,35.4-38,52.9c-0.3,0.4,0.3,0.8,0.6,0.5c14.5-16.8,27.3-35.2,39.5-53.7c1.5-0.1,2.9-0.1,4.4,0.1
	C64,43.3,50.4,62.2,36.8,81.3C34.3,79.3,32,77,29.7,74.7z M41.6,84.8c-0.2-0.1-0.3-0.2-0.5-0.3c-1.2-0.8-2.4-1.7-3.6-2.6
	c0,0,0,0,0,0c14.6-18.5,28.2-38,41.2-57.7c0,0,0,0,0.1,0c1.7,0.3,3.1,0.9,4.5,1.7C69,45.1,54.9,64.8,41.6,84.8z M47.1,86.5
	c-1.3,0.3-2.6,0-4.5-1.1C57,66.2,71,46.4,84.4,26.5c1.7,1.2,3.2,2.7,4.3,4.4c-6.8,8.8-13.1,18.1-19.8,27
	C61.7,67.5,54.1,76.8,47.1,86.5z M57,80.3c-1.9,1.3-3.9,2.6-5.8,3.9c-1.1,0.7-1.9,1.3-2.7,1.7c7.2-8.1,13.7-16.8,20.2-25.4
	c7-9.3,14.4-18.6,20.7-28.4c0.8,1.5,1.4,3.2,1.7,4.9C79.9,48.9,70.6,63.4,61.7,77.1C60.1,78.2,58.6,79.2,57,80.3z M63.8,75.7
	C73,63.3,83,51.3,91.4,38.4c0.3,2.3,0.3,4.7-0.1,7.1c-6.6,7.3-12.8,15.6-18.3,23.8c-1.5,1.1-2.9,2.1-4.4,3.1
	C66.9,73.6,65.3,74.6,63.8,75.7z M76.6,66.5c4.7-5.8,9.3-11.6,13.7-17.6c-0.1,0.2-0.1,0.3-0.2,0.5C87.6,56.5,82.4,61.9,76.6,66.5z"
	/>
</svg>
