<?xml version="1.0" encoding="utf-8"?>
<!-- Generator: Adobe Illustrator 18.0.0, SVG Export Plug-In . SVG Version: 6.00 Build 0)  -->
<!DOCTYPE svg PUBLIC "-//W3C//DTD SVG 1.1//EN" "http://www.w3.org/Graphics/SVG/1.1/DTD/svg11.dtd">
<svg version="1.1" id="Layer_2" xmlns="http://www.w3.org/2000/svg" xmlns:xlink="http://www.w3.org/1999/xlink" x="0px" y="0px"
	 viewBox="0 0 600 486" enable-background="new 0 0 600 486" xml:space="preserve">
<g>
	<path fill="#D9E2E4" d="M366,242.9H234c-5.5,0-10-4.5-10-10v-84c0-5.5,4.5-10,10-10h132c5.5,0,10,4.5,10,10v84
		C376,238.5,371.5,242.9,366,242.9z"/>
	<g>
		<path fill="#42454C" d="M232.7,148v112.7h54v-30.3c0-7.4,6-13.3,13.3-13.3c7.4,0,13.3,6,13.3,13.3v30.3h54V148H232.7z"/>
		<path fill="#373A40" d="M232.7,148v112.7h54v-30.3c0-7.4,6-13.3,13.3-13.3v-69H232.7z"/>
	</g>
	<g>
		<rect x="83.7" y="254" fill="#76D5EB" width="432.7" height="196"/>
		<rect x="88.7" y="259" fill="#6AC0D3" width="422.7" height="186"/>
	</g>
	<g>
		<path fill="#F1F2F2" d="M451.5,354.6l-11.3,8.9c-1.3,1.3-3.5,1.3-4.8,0c-1.3-1.3-1.3-3.5,0-4.8l8.9-11.3c1.3-1.3,4.7-0.1,6,1.2
			C451.7,350,452.9,353.3,451.5,354.6z"/>
		<circle fill="#FFFFFF" cx="429.2" cy="369.8" r="20.9"/>
		<path fill="#946B4A" d="M429.2,387.5c-9.8,0-17.7-8-17.7-17.7c0-9.8,8-17.7,17.7-17.7c9.8,0,17.7,8,17.7,17.7
			C446.9,379.5,439,387.5,429.2,387.5z"/>
		<path fill="#946B4A" d="M441.6,401.2c-5.8,0-11.2-2.6-14.9-7.2c-0.5-0.6-0.4-1.4,0.2-1.8c0.6-0.5,1.4-0.4,1.8,0.2
			c3.1,3.9,7.8,6.2,12.8,6.2c3.8,0,7.6-1.4,10.5-3.8c0.6-0.5,1.4-0.4,1.8,0.2c0.5,0.6,0.4,1.4-0.2,1.8
			C450.4,399.6,446.1,401.2,441.6,401.2z"/>
		<path fill="#946B4A" d="M458.3,389.6c-0.1,0-0.3,0-0.4-0.1c-0.7-0.2-1-1-0.8-1.7c0.7-1.8,1-3.7,1-5.6c0-5.1-2.3-9.8-6.3-12.9
			c-0.6-0.4-0.7-1.3-0.2-1.8c0.4-0.6,1.3-0.7,1.8-0.2c4.7,3.6,7.3,9.1,7.3,15c0,2.2-0.4,4.4-1.1,6.5
			C459.3,389.2,458.8,389.6,458.3,389.6z"/>
		<path fill="#825E41" d="M429.2,382.2c-6.8,0-12.4-5.6-12.4-12.4c0-6.8,5.6-12.4,12.4-12.4s12.4,5.6,12.4,12.4
			C441.6,376.6,436,382.2,429.2,382.2z"/>
		<circle fill="#946B4A" cx="423.8" cy="361" r="3.8"/>
		<circle fill="#946B4A" cx="463.8" cy="393.7" r="2.9"/>
		<circle fill="#946B4A" cx="467.2" cy="400.1" r="2.2"/>
	</g>
	<g>
		<g>
			<path fill="#42454C" d="M198.6,286.9l-18.3-18.3c-1.5-1.5-4-1.5-5.5,0L141,302.4c-1.5,1.5-1.5,4,0,5.5l18.3,18.3
				c1.5,1.5,4,1.5,5.5,0l33.8-33.8C200.1,290.9,200.1,288.4,198.6,286.9z"/>
			<path fill="#5D616B" d="M164.8,326.2l33.8-33.8c1.5-1.5,1.5-4,0-5.5l-18.3-18.3c-1.5-1.5-4-1.5-5.5,0L141,302.4
				c-1.5,1.5-1.5,4,0,5.5l18.3,18.3C160.8,327.7,163.3,327.7,164.8,326.2z M164,325.4c-1.1,1.1-2.8,1.1-3.9,0l-18.3-18.3
				c-1.1-1.1-1.1-2.8,0-3.9l33.8-33.8c1.1-1.1,2.8-1.1,3.9,0l18.3,18.3c1.1,1.1,1.1,2.8,0,3.9L164,325.4z"/>
			<path fill="#373A40" d="M159.3,326.2l-9.1-9.1l39.3-39.3l9.1,9.1c1.5,1.5,1.5,4,0,5.5l-33.8,33.8
				C163.3,327.7,160.8,327.7,159.3,326.2z"/>
			<path fill="#2C2E33" d="M189,283.5l-5.4-5.4c-0.6-0.6-1.6-0.6-2.2,0c-0.6,0.6-0.6,1.6,0,2.2l5.4,5.4c0.6,0.6,1.6,0.6,2.2,0
				C189.6,285.1,189.6,284.1,189,283.5z"/>
			<path fill="#2C2E33" d="M154.6,315.1c0.7-0.7,0.7-1.8,0-2.5c-0.7-0.7-1.8-0.7-2.5,0c-0.7,0.7-0.7,1.8,0,2.5
				C152.8,315.8,153.9,315.8,154.6,315.1z"/>
		</g>
		<g>
			
				<rect x="155.4" y="279.4" transform="matrix(0.7071 0.7071 -0.7071 0.7071 260.3087 -32.305)" fill="#FFFFFF" width="27.4" height="37.3"/>
			<g>
				
					<rect x="153.7" y="296.9" transform="matrix(0.7071 0.7071 -0.7071 0.7071 258.855 -23.3337)" fill="#A7A9AC" width="7.7" height="7.7"/>
				
					<rect x="160.9" y="289.8" transform="matrix(0.7071 0.7071 -0.7071 0.7071 255.8956 -30.477)" fill="#A7A9AC" width="7.7" height="7.7"/>
				
					<rect x="168" y="282.6" transform="matrix(0.707 0.7072 -0.7072 0.707 252.9667 -37.6134)" fill="#A7A9AC" width="7.7" height="7.7"/>
				<g>
					
						<rect x="158.3" y="311" transform="matrix(0.7072 0.7071 -0.7071 0.7072 267.9561 -24.2361)" fill="#A7A9AC" width="9.8" height="0.8"/>
					
						<rect x="159.8" y="309.5" transform="matrix(0.7071 0.7071 -0.7071 0.7071 267.3827 -25.6655)" fill="#A7A9AC" width="9.8" height="0.8"/>
					
						<rect x="161.2" y="308.1" transform="matrix(0.7071 0.7071 -0.7071 0.7071 266.7873 -27.103)" fill="#A7A9AC" width="9.8" height="0.8"/>
				</g>
				<g>
					
						<rect x="165.5" y="303.8" transform="matrix(0.7071 0.7072 -0.7072 0.7071 265.0403 -31.3653)" fill="#A7A9AC" width="9.8" height="0.8"/>
					
						<rect x="166.9" y="302.4" transform="matrix(0.7071 0.7072 -0.7072 0.7071 264.4448 -32.803)" fill="#A7A9AC" width="9.8" height="0.8"/>
					
						<rect x="168.4" y="301" transform="matrix(0.7071 0.7072 -0.7072 0.7071 263.8494 -34.2406)" fill="#A7A9AC" width="9.8" height="0.8"/>
				</g>
				<g>
					
						<rect x="172.6" y="296.7" transform="matrix(0.7072 0.7071 -0.7071 0.7072 262.0372 -38.5215)" fill="#A7A9AC" width="9.8" height="0.8"/>
					
						<rect x="174.1" y="295.3" transform="matrix(0.7072 0.707 -0.707 0.7072 261.4175 -39.9648)" fill="#A7A9AC" width="9.8" height="0.8"/>
					
						<rect x="175.5" y="293.8" transform="matrix(0.7072 0.707 -0.707 0.7072 260.8221 -41.4021)" fill="#A7A9AC" width="9.8" height="0.8"/>
				</g>
			</g>
		</g>
	</g>
	<g>
		<rect x="198.3" y="354.6" fill="#2C2E33" width="6.1" height="2.5"/>
		<rect x="197.8" y="313.1" fill="#42454C" width="7.2" height="42.7"/>
		<polygon fill="#FFFFFF" points="201.4,306.2 197.8,313.1 205,313.1 		"/>
		<polygon fill="#2C2E33" points="202.5,308.4 201.4,306.2 200.3,308.4 		"/>
		<rect x="201.4" y="313.1" fill="#373A40" width="3.6" height="42.7"/>
	</g>
	<g>
		<g>
			<circle fill="#42454C" cx="457.3" cy="303.2" r="31.5"/>
			<path fill="#5D616B" d="M428.8,303.2c0-15.7,12.8-28.5,28.5-28.5v-3c-17.4,0-31.5,14.1-31.5,31.5c0,17.4,14.1,31.5,31.5,31.5v-3
				C441.6,331.7,428.8,318.9,428.8,303.2z"/>
		</g>
		<g>
			<circle fill="#42454C" cx="559.4" cy="303.2" r="23"/>
			<path fill="#5D616B" d="M559.4,280.2c-12.7,0-23,10.3-23,23c0,12.7,10.3,23,23,23c12.7,0,23-10.3,23-23
				C582.4,290.5,572.1,280.2,559.4,280.2z M559.4,323.2c-11,0-20-9-20-20s9-20,20-20c11,0,20,9,20,20S570.4,323.2,559.4,323.2z"/>
			<path fill="#373A40" d="M559.4,280.2v46c12.7,0,23-10.3,23-23C582.4,290.5,572.1,280.2,559.4,280.2z"/>
			<circle fill="#373A40" cx="559.4" cy="303.2" r="5.8"/>
		</g>
		<path fill="#5D616B" d="M470.6,290.5c-7,0-12.7,5.7-12.7,12.7c0,7,5.7,12.7,12.7,12.7H499v-25.3H470.6z"/>
		<circle fill="#42454C" cx="499" cy="303.2" r="12.7"/>
		<path fill="#2C2E33" d="M559.4,306.2H499c-1.7,0-3-1.3-3-3c0-1.7,1.3-3,3-3h60.4c1.7,0,3,1.3,3,3
			C562.4,304.8,561,306.2,559.4,306.2z"/>
	</g>
	<g>
		<circle fill="#42454C" cx="117.7" cy="387.5" r="23.4"/>
		<path fill="#2C2E33" d="M117.7,405.9c-10.1,0-18.4-8.2-18.4-18.4c0-10.1,8.2-18.4,18.4-18.4s18.4,8.2,18.4,18.4
			C136.1,397.6,127.9,405.9,117.7,405.9z"/>
		<path fill="#68D2B7" d="M112.7,385.5c0,0-21.7-38,2.7-76.5L112.7,385.5z"/>
		<path fill="#5FBFA7" d="M75.7,427.7c-1.1-25.3,37-42.2,37-42.2S101,425.5,75.7,427.7z"/>
		<path fill="#5FBFA7" d="M161.8,382.2c-15,16.3-49,3.2-49,3.2S144.8,368,161.8,382.2z"/>
		<path fill="#68D2B7" d="M112.7,385.5c0,0,24.7,21,24.7,58.7L112.7,385.5z"/>
		<path fill="#5FBFA7" d="M112.7,385.5c0,0,16,28.2,3.1,63.6L112.7,385.5z"/>
		<path fill="#68D2B7" d="M112.7,385.5c0,0-44.7-19.2-72.7,17.6L112.7,385.5z"/>
		<path fill="#72E6C8" d="M112.7,385.5c0,0-30.3-1.6-34.7-32.1L112.7,385.5z"/>
		<g>
			<path fill="#68D2B7" d="M163.4,336.9c-1.4,31.6-50.7,48.6-50.7,48.6S131.8,336.9,163.4,336.9z"/>
			<path fill="#72E6C8" d="M112.7,385.5c0,0,49.3-17,50.7-48.6C131.8,336.9,112.7,385.5,112.7,385.5z M118.6,379.9
				c6.1-12.3,20.9-37.3,41.5-39.8C156.7,360.6,131.1,374.3,118.6,379.9z"/>
			<path fill="#52A691" d="M112.7,385.5c0,0,49.3-17,50.7-48.6L112.7,385.5z"/>
		</g>
		<path fill="#52A691" d="M75.7,427.7l37-42.2C112.7,385.5,74.6,402.4,75.7,427.7z"/>
	</g>
	<g>
		<path fill="#42454C" d="M194.1,195.3l-77,28c-4.4,1.6-9.3-0.7-10.9-5.1L84,157.5l93-33.9l22.1,60.8
			C200.8,188.8,198.5,193.7,194.1,195.3z"/>
		<path fill="#5D616B" d="M177,123.6l-93,33.9l22.1,60.8c1.6,4.4,6.5,6.7,10.9,5.1l77-28c4.4-1.6,6.7-6.5,5.1-10.9L177,123.6z
			 M193,192.5l-77,28c-1.4,0.5-2.9,0.4-4.2-0.2c-1.3-0.6-2.3-1.7-2.9-3.1l-21.1-58l87.4-31.8l21.1,58
			C197.4,188.3,195.9,191.5,193,192.5z"/>
		<path fill="#373A40" d="M177,123.6l-46.5,16.9l25,68.8l38.5-14c4.4-1.6,6.7-6.5,5.1-10.9L177,123.6z"/>
		<polygon fill="#2C2E33" points="152.9,135.2 148.1,137 143.8,125 135.6,121.2 114.2,128.9 110.3,137.1 114.7,149.1 109.9,150.9 
			104.8,136.9 110.4,124.9 135.8,115.6 147.8,121.2 		"/>
		<path fill="#946B4A" d="M188.5,153.1l-94.4,34.3c-2.7,1-5.6-0.4-6.5-3.1l-9-24.8c-1-2.7,0.4-5.6,3.1-6.6l94.4-34.3
			c2.7-1,5.6,0.4,6.5,3.1l9,24.8C192.5,149.2,191.2,152.1,188.5,153.1z"/>
		<path fill="#AB7C55" d="M191.6,146.5l-9-24.8c-1-2.7-3.9-4-6.5-3.1L81.6,153c-2.7,1-4,3.9-3.1,6.6l9,24.8c1,2.7,3.9,4,6.5,3.1
			l94.4-34.3C191.2,152.1,192.5,149.2,191.6,146.5z M188.7,149.2c-0.2,0.5-0.7,0.9-1.2,1.1l-94.4,34.3c-0.2,0.1-0.5,0.1-0.7,0.1
			c-0.9,0-1.7-0.6-2-1.4l-9-24.8c-0.4-1.1,0.2-2.3,1.3-2.7l94.4-34.3c0.2-0.1,0.5-0.1,0.7-0.1c0.9,0,1.7,0.6,2,1.4l9,24.8
			C188.9,148.1,188.9,148.7,188.7,149.2z"/>
		<path fill="#825E41" d="M176,118.7l-47.2,17.2l12.5,34.4l47.2-17.2c2.7-1,4-3.9,3.1-6.5l-9-24.8
			C181.6,119.1,178.6,117.7,176,118.7z"/>
		<g>
			<polygon fill="#2C2E33" points="152.9,182.8 148.5,189.9 140.5,187.3 132,163.9 121.7,135.7 127.9,133.5 134.1,131.2 
				144.4,159.4 			"/>
			<path fill="#5D616B" d="M152.7,174.7l-17.2,6.3c-2.2,0.8-4.7-0.3-5.5-2.5c-0.8-2.2,0.3-4.7,2.5-5.5l17.2-6.3
				c2.2-0.8,4.7,0.3,5.5,2.5C156,171.5,154.9,173.9,152.7,174.7z"/>
			<path fill="#42454C" d="M134.5,178.2c-0.7,0.2-1.4-0.1-1.6-0.8c-0.2-0.7,0.1-1.4,0.8-1.6l17.2-6.3c0.4-0.2,0.8,0,1,0
				c0.2,0.1,0.5,0.3,0.7,0.7c0.2,0.4,0,0.8,0,1c-0.1,0.2-0.3,0.5-0.7,0.7L134.5,178.2L134.5,178.2z"/>
		</g>
	</g>
	<g>
		<g>
			<path fill="#42454C" d="M425.6,153.1c-1.1,0.8-2.2,1.6-3.2,2.6c-7.8,7.8-7.8,20.5,0,28.3c7.8,7.8,20.5,7.8,28.3,0
				c1-1,1.8-2.1,2.6-3.2c14.6-20,26-28.9,26-28.9c6.8-6.8,6.8-17.9,0-24.8c-6.8-6.8-17.9-6.8-24.8,0c0,0,0,0,0,0
				C453.9,127.8,445,139,425.6,153.1z"/>
			<path fill="#373A40" d="M424.5,181.9c6.6,6.6,17.4,6.6,24,0c0.8-0.8,1.5-1.7,2.2-2.7l0.1-0.2l0,0c-0.8-1.2-1.8-3.5-1.9-6.5
				c-0.1-4.6,7.9-13.2,12.3-15.6c1.9-1.1,10.9-2.1,16.1-7.3c5.6-5.6,5.5-14.8-0.1-20.4c-5.6-5.6-14.8-5.7-20.4-0.1
				c-5.2,5.2-6.3,14.2-7.3,16.1c-2.4,4.3-11,12.4-15.6,12.3c-3-0.1-5.2-1.2-6.5-1.9l0,0l-0.2,0.1c-1,0.7-1.9,1.4-2.7,2.2
				C417.9,164.5,417.9,175.3,424.5,181.9z"/>
			<path fill="#68D2B7" d="M424.5,181.9c6.6,6.6,17.4,6.6,24,0c0.8-0.8,1.5-1.7,2.2-2.7l0.1-0.2l0,0c-0.8-1.2-1.8-3.5-1.9-6.5
				c-0.1-2.8,2.9-7,6.1-10.5c2.1-2.2,4.4-4.1,6.1-5.1c0.6-0.3,1.9-0.7,3.6-1.1c-0.9-2.8-2.8-5.9-5.6-8.6c-2.8-2.8-5.9-4.7-8.6-5.6
				c-0.5,1.7-0.8,3-1.1,3.6c-0.9,1.7-2.9,4-5.1,6.1c-3.5,3.3-7.7,6.2-10.5,6.1c-3-0.1-5.2-1.2-6.5-1.9l0,0l-0.2,0.1
				c-1,0.7-1.9,1.4-2.7,2.2C417.9,164.5,417.9,175.3,424.5,181.9z"/>
			<path fill="#5FBFA7" d="M424.5,181.9l34.7-34.7c2.8,2.8,4.7,5.9,5.6,8.6c-1.7,0.5-3,0.8-3.6,1.1c-1.7,0.9-4,2.9-6.1,5.1
				c-3.3,3.5-6.2,7.7-6.1,10.5c0.1,3,1.2,5.2,1.9,6.5l0,0l-0.1,0.2c-0.7,1-1.4,1.9-2.2,2.7C441.9,188.5,431.1,188.5,424.5,181.9z"/>
			<g>
				<path fill="#FFFFFF" d="M436.3,152.4l17.7,17.7c0.4,0.4,0.4,1,0,1.4c-0.4,0.4-1,0.4-1.4,0l-17.7-17.7c-0.4-0.4-0.4-1,0-1.4
					C435.3,152,435.9,152,436.3,152.4z"/>
			</g>
			<g>
				<path fill="#FFFFFF" d="M441.9,146.8l17.7,17.7c0.4,0.4,0.4,1,0,1.4c-0.4,0.4-1,0.4-1.4,0l-17.7-17.7c-0.4-0.4-0.4-1,0-1.4
					C440.8,146.5,441.5,146.5,441.9,146.8z"/>
			</g>
			<g>
				<path fill="#FFFFFF" d="M444.1,119.4c-0.3-0.3-0.8-0.4-1.2-0.2c-1.8,1-3.1,3.2-3.1,5.5c-0.1,2.7,1.9,5.3,3.8,7.9
					c3,4,4.6,6.6,2.6,9c-0.4,0.4-0.3,1,0.1,1.4c0.4,0.4,1,0.3,1.4-0.1c3.3-3.8,0.2-7.9-2.5-11.5c-1.7-2.3-3.5-4.7-3.4-6.7
					c0-1.5,0.9-3.1,2.1-3.8c0.5-0.3,0.6-0.9,0.4-1.4C444.2,119.5,444.2,119.5,444.1,119.4z"/>
			</g>
			<g>
				<path fill="#FFFFFF" d="M491.5,148.2C491.5,148.1,491.5,148.1,491.5,148.2c-0.5-0.4-1.1-0.4-1.5,0c-1.9,2.2-3.8,3.9-5.9,5.3
					c-3.4,2.3-6.7,3.7-10,4.1c-1.2,0.2-2.5,0.2-3.7,0.2c-2.1,0-4.3,0-6.6,0.8c-0.5,0.2-0.8,0.8-0.6,1.3c0.2,0.5,0.8,0.8,1.3,0.6
					c1.9-0.7,3.8-0.7,5.8-0.7c1.3,0,2.6,0,3.9-0.2c3.7-0.5,7.2-1.9,10.9-4.5c2.2-1.5,4.2-3.4,6.2-5.6
					C491.9,149.1,491.9,148.5,491.5,148.2z"/>
			</g>
		</g>
		<g>
			<path fill="#42454C" d="M458.8,186.3c-1.1,0.8-2.2,1.6-3.2,2.6c-7.8,7.8-7.8,20.5,0,28.3c7.8,7.8,20.5,7.8,28.3,0
				c1-1,1.8-2.1,2.6-3.2c14.6-20,26-28.9,26-28.9c6.8-6.8,6.8-17.9,0-24.8c-6.8-6.8-17.9-6.8-24.8,0c0,0,0,0,0,0
				C487,161,478.2,172.1,458.8,186.3z"/>
			<path fill="#373A40" d="M457.7,215.1c6.6,6.6,17.4,6.6,24,0c0.8-0.8,1.5-1.7,2.2-2.7l0.1-0.2l0,0c-0.8-1.2-1.8-3.5-1.9-6.5
				c-0.1-4.6,7.9-13.2,12.3-15.6c1.9-1.1,10.9-2.1,16.1-7.3c5.6-5.6,5.5-14.8-0.1-20.4c-5.6-5.6-14.8-5.7-20.4-0.1
				c-5.2,5.2-6.3,14.2-7.3,16.1c-2.4,4.3-11,12.4-15.6,12.3c-3-0.1-5.2-1.2-6.5-1.9l0,0l-0.2,0.1c-1,0.7-1.9,1.4-2.7,2.2
				C451,197.6,451,208.4,457.7,215.1z"/>
			<path fill="#68D2B7" d="M457.7,215.1c6.6,6.6,17.4,6.6,24,0c0.8-0.8,1.5-1.7,2.2-2.7l0.1-0.2l0,0c-0.8-1.2-1.8-3.5-1.9-6.5
				c-0.1-2.8,2.9-7,6.1-10.5c2.1-2.2,4.4-4.1,6.1-5.1c0.6-0.3,1.9-0.7,3.6-1.1c-0.9-2.8-2.8-5.9-5.6-8.6c-2.8-2.8-5.9-4.7-8.6-5.6
				c-0.5,1.7-0.8,3-1.1,3.6c-0.9,1.7-2.8,4-5.1,6.1c-3.5,3.3-7.7,6.2-10.5,6.1c-3-0.1-5.2-1.2-6.5-1.9l0,0l-0.2,0.1
				c-1,0.7-1.9,1.4-2.7,2.2C451,197.6,451,208.4,457.7,215.1z"/>
			<path fill="#5FBFA7" d="M457.7,215.1l34.7-34.7c2.8,2.8,4.7,5.9,5.6,8.6c-1.7,0.5-3,0.8-3.6,1.1c-1.7,0.9-4,2.8-6.1,5.1
				c-3.3,3.5-6.2,7.7-6.1,10.5c0.1,3,1.2,5.2,1.9,6.5l0,0l-0.1,0.2c-0.7,1-1.4,1.9-2.2,2.7C475.1,221.7,464.3,221.7,457.7,215.1z"/>
			<g>
				<path fill="#FFFFFF" d="M469.5,185.5l17.7,17.7c0.4,0.4,0.4,1,0,1.4c-0.4,0.4-1,0.4-1.4,0L468.1,187c-0.4-0.4-0.4-1,0-1.4
					C468.5,185.2,469.1,185.2,469.5,185.5z"/>
			</g>
			<g>
				<path fill="#FFFFFF" d="M475,180l17.7,17.7c0.4,0.4,0.4,1,0,1.4c-0.4,0.4-1,0.4-1.4,0l-17.7-17.7c-0.4-0.4-0.4-1,0-1.4
					C474,179.6,474.6,179.6,475,180z"/>
			</g>
			<g>
				<path fill="#FFFFFF" d="M517.8,203.1c0.2,0.4,0.1,0.9-0.3,1.2c-1.6,1.3-4.1,1.8-6.2,1.1c-2.5-0.8-4.4-3.6-6.1-6.3
					c-2.7-4.2-4.6-6.6-7.5-5.5c-0.5,0.2-1.1,0-1.3-0.6c-0.2-0.5,0.1-1.1,0.6-1.3c4.7-1.8,7.5,2.5,9.9,6.2c1.6,2.4,3.2,4.9,5.1,5.5
					c1.5,0.5,3.2,0.2,4.3-0.7c0.4-0.4,1.1-0.3,1.4,0.1C517.7,202.9,517.8,203,517.8,203.1z"/>
			</g>
			<g>
				<path fill="#FFFFFF" d="M509.2,171.6C509.2,171.6,509.2,171.6,509.2,171.6c-0.2,0.6-0.8,0.9-1.3,0.7c-2.7-0.9-5.2-1.5-7.7-1.7
					c-4.1-0.3-7.6,0.1-10.8,1.4c-1.1,0.5-2.2,1.1-3.3,1.7c-1.8,1.1-3.8,2.2-6.1,2.6c-0.5,0.1-1.1-0.3-1.1-0.8
					c-0.1-0.5,0.3-1.1,0.8-1.1c2-0.3,3.7-1.3,5.4-2.3c1.1-0.6,2.2-1.3,3.5-1.8c3.4-1.4,7.2-1.9,11.7-1.6c2.7,0.2,5.3,0.8,8.2,1.8
					C509.1,170.5,509.3,171.1,509.2,171.6z"/>
			</g>
		</g>
	</g>
	<rect x="242" y="280.2" fill="#FFFFFF" width="112" height="140.1"/>
	<g>
		<rect x="219" y="117.8" fill="#FDD7B2" width="27.1" height="55.8"/>
		<rect x="353.9" y="117.8" fill="#FDD7B2" width="27.1" height="55.8"/>
		<g>
			<g>
				<path fill="#FDD7B2" d="M289.6,317.6l-8.3-22.7c-0.5-1.2,0.2-2.6,1.4-3.1c1.2-0.5,2.6,0.2,3.1,1.4l8.3,22.7
					c0.5,1.2-0.2,2.6-1.4,3.1C291.5,319.5,290.1,318.8,289.6,317.6z"/>
				<path fill="#FDD7B2" d="M291.9,302.8l-7-19.2c-0.5-1.2,0.2-2.6,1.4-3.1c1.2-0.5,2.6,0.2,3.1,1.4l7,19.2c0.5,1.2-0.2,2.6-1.4,3.1
					C293.7,304.7,292.4,304,291.9,302.8z"/>
				<path fill="#FDD7B2" d="M284.5,322.3l-8.3-22.7c-0.5-1.2,0.2-2.6,1.4-3.1c1.2-0.5,2.6,0.2,3.1,1.4l8.3,22.7
					c0.5,1.2-0.2,2.6-1.4,3.1C286.3,324.2,285,323.5,284.5,322.3z"/>
				<path fill="#FDD7B2" d="M276.8,320l-8.3-22.7c-0.5-1.2,0.2-2.6,1.4-3.1c1.2-0.5,2.6,0.2,3.1,1.4l8.3,22.7
					c0.5,1.2-0.2,2.6-1.4,3.1C278.7,321.9,277.3,321.2,276.8,320z"/>
				<path fill="#FDD7B2" d="M269.5,318.7l-8.3-22.7c-0.5-1.2,0.2-2.6,1.4-3.1c1.2-0.5,2.6,0.2,3.1,1.4l8.3,22.7
					c0.5,1.2-0.2,2.6-1.4,3.1C271.4,320.5,270,319.9,269.5,318.7z"/>
				<path fill="#FDD7B2" d="M290.4,298.7l4.5-1.6l-6.3-17.2c-0.7-1.9-2.9-3.9-4.9-4.4l-3-0.8c-1.4-0.4-3-1.8-3.5-3.2l-3.6-9.8
					l-14.7,5.3l3.6,9.8c0.5,1.4,0.2,3.5-0.6,4.7l-1.8,2.5c-1.2,1.7-1.6,4.6-0.9,6.6l6.3,17.2l22.6-8.2l-3.8-10.5l2.3-0.8
					L290.4,298.7z"/>
			</g>
			<polygon fill="#FDD7B2" points="277.3,271.5 262.6,276.8 219,173.7 244.4,164.4 			"/>
		</g>
		<g>
			<g>
				<path fill="#FDD7B2" d="M310.4,317.6l8.3-22.7c0.5-1.2-0.2-2.6-1.4-3.1c-1.2-0.5-2.6,0.2-3.1,1.4l-8.3,22.7
					c-0.5,1.2,0.2,2.6,1.4,3.1C308.5,319.5,309.9,318.8,310.4,317.6z"/>
				<path fill="#FDD7B2" d="M308.1,302.8l7-19.2c0.5-1.2-0.2-2.6-1.4-3.1c-1.2-0.5-2.6,0.2-3.1,1.4l-7,19.2
					c-0.5,1.2,0.2,2.6,1.4,3.1C306.3,304.7,307.6,304,308.1,302.8z"/>
				<path fill="#FDD7B2" d="M315.5,322.3l8.3-22.7c0.5-1.2-0.2-2.6-1.4-3.1c-1.2-0.5-2.6,0.2-3.1,1.4l-8.3,22.7
					c-0.5,1.2,0.2,2.6,1.4,3.1C313.7,324.2,315,323.5,315.5,322.3z"/>
				<path fill="#FDD7B2" d="M323.2,320l8.3-22.7c0.5-1.2-0.2-2.6-1.4-3.1c-1.2-0.5-2.6,0.2-3.1,1.4l-8.3,22.7
					c-0.5,1.2,0.2,2.6,1.4,3.1C321.3,321.9,322.7,321.2,323.2,320z"/>
				<path fill="#FDD7B2" d="M330.5,318.7l8.3-22.7c0.5-1.2-0.2-2.6-1.4-3.1c-1.2-0.5-2.6,0.2-3.1,1.4l-8.3,22.7
					c-0.5,1.2,0.2,2.6,1.4,3.1C328.6,320.5,330,319.9,330.5,318.7z"/>
				<path fill="#FDD7B2" d="M309.6,298.7l-4.5-1.6l6.3-17.2c0.7-1.9,2.9-3.9,4.9-4.4l3-0.8c1.4-0.4,3-1.8,3.5-3.2l3.6-9.8l14.7,5.3
					l-3.6,9.8c-0.5,1.4-0.2,3.5,0.6,4.7l1.8,2.5c1.2,1.7,1.6,4.6,0.9,6.6l-6.3,17.2l-22.6-8.2l3.8-10.5l-2.3-0.8L309.6,298.7z"/>
			</g>
			<polygon fill="#FDD7B2" points="322.7,271.5 337.4,276.8 381,173.7 355.6,164.4 			"/>
		</g>
		<polygon fill="#68D2B7" points="354,155.3 354,155.3 354,155.3 		"/>
		<polygon fill="#68D2B7" points="246,155.3 246,155.3 246,155.3 		"/>
		<g>
			<path fill="#68D2B7" d="M300,58c0,0,45.3,1.7,64,8c18.7,6.3,17,17.7,17,25c0,2.6,0,13.6,0,26.9c-2.5,2.5-7.6,4.1-13.5,4.1
				c-6,0-11.1-1.7-13.5-4.2v0v0l0.1,37.5v0c0,0-18.7,23.7-54,23.7s-54-23.7-54-23.7v0l0.1-37.5v0v0c-2.5,2.5-7.6,4.2-13.5,4.2
				c-5.9,0-11.1-1.7-13.5-4.1c0-13.2,0-24.3,0-26.9c0-7.3-1.7-18.7,17-25C254.7,59.7,300,58,300,58z"/>
			<path fill="#72E6C8" d="M364,66c-18.7-6.3-64-8-64-8s-45.3,1.7-64,8c-18.7,6.3-17,17.7-17,25c0,2.6,0,13.6,0,26.9
				c2.5,2.5,7.6,4.1,13.5,4.1c6,0,11.1-1.7,13.5-4.2l-0.1,37.5c0,0,18.7,23.7,54,23.7s54-23.7,54-23.7l-0.1-37.5
				c2.5,2.5,7.6,4.2,13.5,4.2c5.9,0,11.1-1.7,13.5-4.1c0-13.2,0-24.3,0-26.9C381,83.7,382.7,72.3,364,66z M378,91v25.4
				c-2,1.4-5.7,2.6-10.5,2.6c-5.6,0-9.8-1.6-11.4-3.3l-5.1-5.2l0.1,43.7c-3.5,3.9-21.1,21.8-51,21.8c-29.8,0-47.5-17.9-51-21.8
				l0.1-38.7c0-2.8-1.1-3.8-2.6-2.4l-2.6,2.6c-1.6,1.6-5.8,3.3-11.4,3.3c-4.8,0-8.5-1.2-10.5-2.6V91c0-0.6,0-1.1,0-1.7
				c-0.1-7.2-0.2-15.3,15-20.4c17.6-6,60.5-7.7,63-7.8c2.5,0.1,45.4,1.9,63,7.8c15.2,5.2,15.1,13.3,15,20.4
				C378,89.9,378,90.4,378,91z"/>
			<path fill="#5FBFA7" d="M364,66c-18.7-6.3-64-8-64-8v121c35.3,0,54-23.7,54-23.7l-0.1-37.5v0v0c2.5,2.5,7.6,4.2,13.5,4.2
				c5.9,0,11.1-1.7,13.5-4.1c0-13.2,0-24.3,0-26.9C381,83.7,382.7,72.3,364,66z"/>
		</g>
		<g>
			<ellipse fill="#42454C" cx="300" cy="81.1" rx="38.7" ry="45.7"/>
			<path fill="#42454C" d="M297.6,126.7c0,0-12.5,1.2-15.6,11.7c0,0-6.1-4.2-1.7-18c0,0-7.2-0.5-8.7,6.4c0,0-3.4-5.1,0.5-14.1
				c0,0-3.9-0.1-5.5,3.2c0,0-3.6-8,0-20L297.6,126.7z"/>
			<path fill="#5D616B" d="M300,35.3c-21.4,0-38.7,20.5-38.7,45.7h3c0-23.6,16-42.7,35.7-42.7c19.7,0,35.7,19.2,35.7,42.7h3
				C338.7,55.8,321.4,35.3,300,35.3z"/>
			<path fill="#373A40" d="M300,35.3v91.5c21.4,0,38.7-20.5,38.7-45.7C338.7,55.8,321.4,35.3,300,35.3z"/>
		</g>
	</g>
</g>
<text transform="matrix(-0.9998 1.745241e-02 -1.745241e-02 -0.9998 341.5194 353.3295)" font-family="'PanameFY'" font-size="25.0536">Documents</text>
</svg>
