<!DOCTYPE svg PUBLIC "-//W3C//DTD SVG 1.0//EN" "http://www.w3.org/TR/2001/REC-SVG-20010904/DTD/svg10.dtd">
<svg version="1.0" id="Layer_1" xmlns="http://www.w3.org/2000/svg" xmlns:xlink="http://www.w3.org/1999/xlink" x="0px" y="0px"
	 viewBox="0 0 100 100" enable-background="new 0 0 100 100" xml:space="preserve">
<g>
	<g>
		<path fill="#F1F1F1" d="M43.4,84.6C23.3,84.6,7,68.5,7,48.6c0-5.2,1.1-10.1,3.2-14.8c0.3-0.7,1-1.1,1.7-1.1l0,0l63,0
			c0.7,0,1.4,0.4,1.7,1.1c2.1,4.7,3.2,9.7,3.2,14.8C79.9,68.5,63.5,84.6,43.4,84.6z M13.2,36.4c-1.6,3.9-2.4,8-2.4,12.2
			c0,17.8,14.7,32.3,32.7,32.3s32.7-14.5,32.7-32.3c0-4.2-0.8-8.3-2.4-12.2H13.2z"/>
		<path fill="#F1F1F1" d="M43.4,94c-6.3,0-12.3-1.1-16.8-3.1c-5-2.2-7.8-5.3-7.8-8.7c0-1.7,0.7-4.3,4.2-6.8c0.6-0.4,1.5-0.5,2.1,0
			c5.4,3.6,11.7,5.5,18.2,5.5c6.5,0,12.8-1.9,18.2-5.5c0.6-0.4,1.5-0.4,2.1,0c3.5,2.5,4.2,5,4.2,6.8C68,88.9,57.4,94,43.4,94z
			 M24.3,79.3c-0.9,0.8-1.7,1.8-1.7,2.9c0,1.8,2.1,3.8,5.5,5.3c4.1,1.8,9.5,2.8,15.3,2.8c12.3,0,20.8-4.2,20.8-8.1
			c0-1.1-0.8-2.1-1.7-2.9c-5.8,3.5-12.3,5.4-19.2,5.4C36.6,84.6,30,82.8,24.3,79.3z"/>
		<path fill="#F1F1F1" d="M68.3,74.1c-0.8,0-1.5-0.5-1.8-1.2c-0.4-1,0.1-2.1,1.1-2.4c17.5-6.7,26.6-15.3,25.5-24.3
			c-0.2-2-1-3.4-2.3-4.1c-3.4-1.9-9.9,0.2-12.1,1.2c-1,0.4-2.1,0-2.5-0.9c-0.4-0.9,0-2.1,0.9-2.5c1-0.4,9.8-4.2,15.5-1
			c1.6,0.9,3.7,2.9,4.2,6.9C98.2,56.6,88.3,66.7,69,74C68.8,74.1,68.6,74.1,68.3,74.1z"/>
		<g>
			<path fill="#F1F1F1" d="M55.2,27.7c-1,0-1.9-0.8-1.9-1.9V13.4c0-1,0.8-1.9,1.9-1.9s1.9,0.8,1.9,1.9v12.4
				C57.1,26.9,56.2,27.7,55.2,27.7z"/>
			<path fill="#F1F1F1" d="M43.4,27.7c-1,0-1.9-0.8-1.9-1.9V5.9c0-1,0.8-1.9,1.9-1.9c1,0,1.9,0.8,1.9,1.9v19.9
				C45.3,26.9,44.5,27.7,43.4,27.7z"/>
			<path fill="#F1F1F1" d="M31.7,27.7c-1,0-1.9-0.8-1.9-1.9V13.4c0-1,0.8-1.9,1.9-1.9s1.9,0.8,1.9,1.9v12.4
				C33.5,26.9,32.7,27.7,31.7,27.7z"/>
		</g>
	</g>
	<path fill="#F1F1F1" d="M47.2,72.8c-4.8,0-10-2.9-13.6-7.7c-2.6-3.4-4.1-7.4-4.2-11.2c-0.1-4,1.3-7.4,4.1-9.4c1.7-1.3,3.9-2,6.2-2
		c4.8,0,10,2.9,13.6,7.7c5.5,7.2,5.6,16.5,0.1,20.6C51.7,72.1,49.5,72.8,47.2,72.8z M39.6,46.3c-1.5,0-2.8,0.4-3.9,1.2
		c-1.7,1.3-2.7,3.6-2.6,6.3c0.1,3,1.3,6.2,3.4,9c2.9,3.8,7,6.2,10.6,6.2c1.5,0,2.8-0.4,3.9-1.2c3.8-2.9,3.4-9.8-0.8-15.4
		C47.4,48.6,43.3,46.3,39.6,46.3z"/>
	<path fill="#F1F1F1" d="M54.8,65.9c-4.4,0-9.4-0.6-13.2-5.1c-0.8-0.9-1.4-1.9-2.2-3c-2.4-3.6-4.2-6-7.1-5.4c-1,0.2-2-0.5-2.2-1.5
		s0.5-2,1.5-2.2c5.6-1.1,8.7,3.6,11,7c0.7,1,1.3,1.9,1.9,2.7c2.3,2.7,5.3,3.8,10.4,3.8c1,0,1.9,0.8,1.9,1.9S55.8,65.9,54.8,65.9z"/>
</g>
</svg>