<!DOCTYPE svg PUBLIC "-//W3C//DTD SVG 1.0//EN" "http://www.w3.org/TR/2001/REC-SVG-20010904/DTD/svg10.dtd">
<svg version="1.0" id="Layer_1" xmlns="http://www.w3.org/2000/svg" xmlns:xlink="http://www.w3.org/1999/xlink" x="0px" y="0px"
	 viewBox="0 0 100 100" enable-background="new 0 0 100 100" xml:space="preserve">
<path fill="#F1F1F1" d="M90.3,15.8c-5-5-11.6-7.7-18.6-7.7c-7,0-13.7,2.7-18.7,7.7l-2.8,2.8l-2.8-2.8c-5-5-11.6-7.7-18.7-7.7
	c-7,0-13.6,2.7-18.6,7.7c-5,5-7.7,11.6-7.7,18.6c0,7,2.8,13.7,7.7,18.6l38.3,38.3c0.5,0.5,1.1,0.7,1.8,0.7s1.3-0.2,1.8-0.7
	l38.2-38.2C100.6,42.8,100.6,26.1,90.3,15.8z M86.7,49.5L50.3,86L13.8,49.5c-4-4-6.2-9.4-6.3-15.1c0-5.7,2.2-11,6.2-15.1
	c4-4,9.4-6.2,15-6.2c5.7,0,11,2.2,15.1,6.3l4.6,4.6c0.5,0.5,1.1,0.7,1.8,0.7c0.7,0,1.3-0.3,1.8-0.7l4.6-4.6c4-4,9.4-6.2,15.1-6.2
	c5.7,0,11,2.2,15,6.2C95,27.7,95,41.2,86.7,49.5z"/>
</svg>