<!DOCTYPE svg PUBLIC "-//W3C//DTD SVG 1.0//EN" "http://www.w3.org/TR/2001/REC-SVG-20010904/DTD/svg10.dtd">
<svg version="1.0" id="Layer_1" xmlns="http://www.w3.org/2000/svg" xmlns:xlink="http://www.w3.org/1999/xlink" x="0px" y="0px"
	 viewBox="0 0 100 100" enable-background="new 0 0 100 100" xml:space="preserve">
<g>
	<path fill="#FFFFFF" d="M64.8,62l1.8-1.8l2.8-2.9c0,0,3.5-4,5.5-8c0,0,4-7.8-0.8-14.3c0,0-6-7.7-15.7-1.5c0,0-2.9,1.9-5.8,5.3
		c0,0-1.1,1.4-2.3,1.5c0,0-1.5,0.2-3.2-1.7c0,0-3.6-5.3-10.6-7.4c0,0-7.8-2.3-12,6.1c0,0-3.5,8.1,2.2,14.8c0,0,4.1,5.5,11,12.1
		l5.9,5.5l-3.8,3.7c0,0-13.4-12.5-16.9-16.8c-3.8-4.9-5.9-11.2-4.7-18.3c1.1-8.5,9.4-14.4,19.2-12.4c0,0,5.2,0.2,11.6,6.5
		c0,0,1,1.1,2.2-0.1c0,0,8.3-9.1,19.2-6c0,0,10.6,2.2,11.4,13.7c0,0,1.6,7-3.9,15.1c0,0-3.4,5.3-7,8L64.8,62z"/>
</g>
</svg>