<!DOCTYPE svg PUBLIC "-//W3C//DTD SVG 1.0//EN" "http://www.w3.org/TR/2001/REC-SVG-20010904/DTD/svg10.dtd">
<svg version="1.0" id="Layer_1" xmlns="http://www.w3.org/2000/svg" xmlns:xlink="http://www.w3.org/1999/xlink" x="0px" y="0px"
	 viewBox="0 0 100 100" enable-background="new 0 0 100 100" xml:space="preserve">
<g>
	<path fill="#FFFFFF" d="M46.7,35.2l-3.3-2.9v57.9c0,0.4,0.3,0.6,0.6,0.6h4.9c0.3,0,0.6-0.3,0.6-0.6V32.6L46.7,35.2z"/>
	<path fill="#FFFFFF" d="M52.8,85.4h-3.1c-0.5,0-0.8-0.4-0.8-0.8v-0.5c0-0.5,0.4-0.8,0.8-0.8h3.1c0.5,0,0.8,0.4,0.8,0.8v0.5
		C53.6,85.1,53.3,85.4,52.8,85.4z"/>
	<path fill="#FFFFFF" d="M54,88.7h0.5c0.5,0,0.9-0.4,0.9-0.9v-6.9c0-0.5-0.4-0.9-0.9-0.9H54c-0.5,0-0.9,0.4-0.9,0.9v6.9
		C53.1,88.3,53.5,88.7,54,88.7z"/>
	<path fill="#FFFFFF" d="M47.2,93.5h-1.4c-1.3,0-2.3-1.1-2.3-2.3V79.8c0-1.3,1.1-2.3,2.3-2.3h1.4c1.3,0,2.3,1.1,2.3,2.3v11.4
		C49.5,92.4,48.5,93.5,47.2,93.5z"/>
	<circle fill="none" stroke="#FFFFFF" stroke-width="4" stroke-miterlimit="10" cx="46.4" cy="22" r="13.2"/>
</g>
</svg>