<!DOCTYPE svg PUBLIC "-//W3C//DTD SVG 1.0//EN" "http://www.w3.org/TR/2001/REC-SVG-20010904/DTD/svg10.dtd">
<svg version="1.0" id="Layer_1" xmlns="http://www.w3.org/2000/svg" xmlns:xlink="http://www.w3.org/1999/xlink" x="0px" y="0px"
	 viewBox="0 0 100 100" enable-background="new 0 0 100 100" xml:space="preserve">
<g>
	<path fill="#F1F1F1" d="M57.1,43.9c-0.6,0-1.2-0.2-1.6-0.6c-0.6-0.6-0.6-1.4-0.4-2L70.5,3.9c0.2-0.4,0.6-0.8,1-1
		c0.4-0.2,1-0.2,1.6,0C85.4,7.7,94.5,18.3,98,30.9c0.2,1-0.4,2.2-1.4,2.4L57.7,43.7C57.5,43.9,57.3,43.9,57.1,43.9z M73.4,7.3
		l-13,31.5l32.9-8.9C90.2,20.1,82.9,11.8,73.4,7.3z"/>
	<path fill="#F1F1F1" d="M44.7,96.2c-23.4,0-42.3-18.9-42.3-42.3s18.9-42.3,42.3-42.3c5.5,0,11,1.2,16.1,3.3c1,0.4,1.6,1.6,1,2.6
		L48.1,50.8l35-9.4c0.6-0.2,1,0,1.6,0.2c0.4,0.2,0.8,0.8,1,1.2c1,3.7,1.4,7.3,1.4,11C87,77.3,68.1,96.2,44.7,96.2z M44.7,15.7
		c-21.1,0-38.2,17.1-38.2,38.2s17.1,38.2,38.2,38.2S82.9,75,82.9,53.9c0-2.6-0.2-5.3-0.8-7.9l-36.8,10c-0.8,0.2-1.6,0-2-0.6
		c-0.6-0.6-0.6-1.4-0.4-2l14.4-35.4C53.2,16.5,49,15.7,44.7,15.7z"/>
	<path fill="#F1F1F1" d="M27.6,46.4c-3.3,0-5.9-2.6-5.9-5.9s2.6-5.9,5.9-5.9s5.9,2.6,5.9,5.9S30.9,46.4,27.6,46.4z M27.6,38.9
		c-1,0-1.8,0.8-1.8,1.8s0.8,1.8,1.8,1.8c1,0,1.8-0.8,1.8-1.8C29.4,39.7,28.6,38.9,27.6,38.9z"/>
	<path fill="#F1F1F1" d="M77.8,29.1c-3.3,0-5.9-2.6-5.9-5.9s2.6-5.9,5.9-5.9c3.3,0,5.9,2.6,5.9,5.9S81.1,29.1,77.8,29.1z M77.8,21.6
		c-1,0-1.8,0.8-1.8,1.8c0,1,0.8,1.8,1.8,1.8s1.8-0.8,1.8-1.8C79.5,22.4,78.6,21.6,77.8,21.6z"/>
	<path fill="#F1F1F1" d="M25.8,72.2c-3.7,0-6.5-3-6.5-6.5c0-3.7,3-6.5,6.5-6.5c3.7,0,6.5,3,6.5,6.5C32.3,69.1,29.4,72.2,25.8,72.2z
		 M25.8,63c-1.4,0-2.4,1.2-2.4,2.4c0,1.4,1.2,2.4,2.4,2.4c1.4,0,2.4-1.2,2.4-2.4C28.2,64.1,27.2,63,25.8,63z"/>
	<path fill="#F1F1F1" d="M68.3,76.7c-3.7,0-6.5-3-6.5-6.5c0-3.7,3-6.5,6.5-6.5c3.5,0,6.5,3,6.5,6.5C75,73.8,71.9,76.7,68.3,76.7z
		 M68.3,67.5c-1.4,0-2.4,1.2-2.4,2.4c0,1.4,1.2,2.4,2.4,2.4c1.4,0,2.4-1.2,2.4-2.4C70.9,68.7,69.7,67.5,68.3,67.5z"/>
	<path fill="#F1F1F1" d="M46.5,85.6c-3.5,0-6.3-2.8-6.3-6.3s2.8-6.3,6.3-6.3c3.5,0,6.3,2.8,6.3,6.3C53,82.8,50.2,85.6,46.5,85.6z
		 M46.5,76.9c-1.2,0-2.2,1-2.2,2.2c0,1.2,1,2.2,2.2,2.2c1.2,0,2.2-1,2.2-2.2C49,77.9,47.9,76.9,46.5,76.9z"/>
</g>
</svg>