<?xml version="1.0" encoding="utf-8"?>
<!-- Generator: Adobe Illustrator 18.0.0, SVG Export Plug-In . SVG Version: 6.00 Build 0)  -->
<!DOCTYPE svg PUBLIC "-//W3C//DTD SVG 1.1//EN" "http://www.w3.org/Graphics/SVG/1.1/DTD/svg11.dtd">
<svg version="1.1" id="Layer_1" xmlns="http://www.w3.org/2000/svg" xmlns:xlink="http://www.w3.org/1999/xlink" x="0px" y="0px"
	 viewBox="0 0 100 100" enable-background="new 0 0 100 100" xml:space="preserve">
<g id="Facebook">
	<g>
		<path   d="M50,2.5C23.8,2.5,2.5,23.8,2.5,50S23.8,97.5,50,97.5S97.5,76.2,97.5,50S76.2,2.5,50,2.5z M61.8,51.7h-7.7
			c0,12.3,0,27.5,0,27.5H42.6c0,0,0-15.1,0-27.5h-5.4V42h5.4v-6.3c0-4.5,2.1-11.6,11.6-11.6h8.5v9.4c0,0-5.2,0-6.2,0
			s-2.4,0.5-2.4,2.7v5.7h8.7L61.8,51.7z"/>
	</g>
</g>
</svg>
