<?xml version="1.0" encoding="utf-8"?>
<!-- Generator: Adobe Illustrator 19.1.0, SVG Export Plug-In . SVG Version: 6.00 Build 0)  -->
<!DOCTYPE svg PUBLIC "-//W3C//DTD SVG 1.1//EN" "http://www.w3.org/Graphics/SVG/1.1/DTD/svg11.dtd">
<svg version="1.1" id="Layer_1" xmlns="http://www.w3.org/2000/svg" xmlns:xlink="http://www.w3.org/1999/xlink" x="0px" y="0px"
	 viewBox="0 0 100 100" enable-background="new 0 0 100 100" xml:space="preserve">
<path d="M100,72.7c-0.1,1.9-1.2,3.6-3.3,4.6c-2.1,1-4.2,0.7-6.1-0.8c-0.2-0.2-0.4-0.4-0.6-0.6c-5.1-5.1-10.2-10.2-15.4-15.3
	c-7-7-14-13.9-21-20.9c-2.2-2.2-5.2-2.2-7.4,0C34.1,51.8,22.1,63.8,10,75.9C8.7,77.2,7.3,78,5.5,78c-2.3-0.1-4.1-1.2-5-3.3
	c-1-2.1-0.6-4.1,0.8-5.9C1.5,68.5,1.8,68.3,2,68c14.8-14.8,29.5-29.5,44.2-44.2c2.4-2.4,5.2-2.3,7.6,0c4,4,8,7.9,12,11.9
	c8.8,8.8,17.6,17.6,26.4,26.3c2,2,4,4,6,6C99.3,69.2,100,70.6,100,72.7z"/>
</svg>
