<?xml version="1.0" encoding="utf-8"?>
<!-- Generator: Adobe Illustrator 18.0.0, SVG Export Plug-In . SVG Version: 6.00 Build 0)  -->
<!DOCTYPE svg PUBLIC "-//W3C//DTD SVG 1.1//EN" "http://www.w3.org/Graphics/SVG/1.1/DTD/svg11.dtd">
<svg version="1.1" id="Layer_1" xmlns="http://www.w3.org/2000/svg" xmlns:xlink="http://www.w3.org/1999/xlink" x="0px" y="0px"
	 viewBox="0 0 100 100" enable-background="new 0 0 100 100" xml:space="preserve">
<g id="Google">
	<g>
		<g>
			<path   d="M43.6,57.9c-0.3-0.2-0.6-0.4-1-0.7c-1-0.3-2-0.4-3-0.5h-0.1c-4.8,0-9,2.9-9,6.2c0,3.6,3.6,6.4,8.2,6.4
				c6.1,0,9.2-2.1,9.2-6.2c0-0.4,0-0.8-0.1-1.2C47.3,60.4,45.9,59.4,43.6,57.9z"/>
			<path   d="M40.2,45.3L40.2,45.3c1.2,0,2.1-0.5,2.9-1.3c1.2-1.3,1.7-3.5,1.4-5.9c-0.5-4.2-3.5-7.7-6.7-7.8h-0.1
				c-1.1,0-2.1,0.5-2.8,1.3c-1.2,1.3-1.7,3.4-1.3,5.8C34.1,41.6,37.1,45.2,40.2,45.3L40.2,45.3L40.2,45.3z"/>
			<path   d="M50,2.5C23.8,2.5,2.5,23.8,2.5,50S23.8,97.5,50,97.5S97.5,76.2,97.5,50S76.2,2.5,50,2.5z M44.5,73.1
				c-1.8,0.5-3.7,0.8-5.8,0.8c-2.3,0-4.5-0.3-6.5-0.8c-3.9-1-6.8-2.9-8.2-5.3c-0.6-1-0.9-2.2-0.9-3.3c0-1.2,0.3-2.4,0.8-3.6
				c2.2-4.6,7.8-7.7,14.1-7.7c0.1,0,0.1,0,0.2,0c-0.5-0.9-0.8-1.8-0.8-2.8c0-0.5,0.1-1,0.2-1.5c-6.6-0.1-11.5-5-11.5-11.4
				c0-4.5,3.6-8.9,8.7-10.7c1.5-0.5,3.1-0.8,4.7-0.8h14.1c0.5,0,0.9,0.3,1.1,0.8c0.1,0.5,0,1-0.4,1.2l-3.2,2.3
				c-0.2,0.1-0.4,0.2-0.7,0.2h-1.1c1.5,1.8,2.3,4.2,2.3,7.1c0,3.1-1.6,6-4.4,8.2C45,47.5,44.9,48,44.9,49c0,0.5,1.6,2.3,3.3,3.5
				c3.9,2.8,5.4,5.5,5.4,10.1C53.7,67.4,50.1,71.5,44.5,73.1z M76.4,48.9c0,0.6-0.5,1.1-1.1,1.1h-8v8c0,0.6-0.5,1.1-1.1,1.1h-2.3
				c-0.6,0-1.1-0.5-1.1-1.1v-8h-8c-0.6,0-1.1-0.5-1.1-1.1v-2.3c0-0.6,0.5-1.1,1.1-1.1h8v-8c0-0.6,0.5-1.1,1.1-1.1h2.3
				c0.6,0,1.1,0.5,1.1,1.1v8h8c0.6,0,1.1,0.5,1.1,1.1V48.9L76.4,48.9z"/>
		</g>
	</g>
</g>
</svg>
