<?xml version="1.0" encoding="utf-8"?>
<!-- Generator: Adobe Illustrator 19.1.0, SVG Export Plug-In . SVG Version: 6.00 Build 0)  -->
<!DOCTYPE svg PUBLIC "-//W3C//DTD SVG 1.1//EN" "http://www.w3.org/Graphics/SVG/1.1/DTD/svg11.dtd">
<svg version="1.1" id="Capa_1" xmlns="http://www.w3.org/2000/svg" xmlns:xlink="http://www.w3.org/1999/xlink" x="0px" y="0px"
	 viewBox="0 0 100 100" enable-background="new 0 0 100 100" xml:space="preserve">
<g>
	<g>
		<g>
			<path d="M50,59c5,0,9-4,9-9c0-1.9-0.6-3.8-1.7-5.2c-1.7-2.3-4.3-3.8-7.3-3.8c-3,0-5.7,1.5-7.3,3.8
				c-1.1,1.5-1.7,3.3-1.7,5.2C41,55,45,59,50,59z"/>
			<polygon points="69.7,39 69.7,31.4 69.7,30.3 68.6,30.3 61,30.3 61,39 			"/>
			<path d="M50,5C25.2,5,5,25.2,5,50s20.2,45,45,45s45-20.2,45-45C95,25.2,74.8,5,50,5z M75.6,44.8v20.9
				c0,5.4-4.4,9.9-9.9,9.9H34.3c-5.4,0-9.9-4.4-9.9-9.9V44.8V34.3c0-5.4,4.4-9.9,9.9-9.9h31.4c5.4,0,9.9,4.4,9.9,9.9L75.6,44.8
				L75.6,44.8z"/>
			<path d="M64.1,50c0,7.7-6.2,14-14,14c-7.7,0-14-6.2-14-14c0-1.8,0.4-3.7,1-5.2h-7.6v20.9c0,2.7,2.2,4.9,4.9,4.9h31.4
				c2.7,0,4.9-2.2,4.9-4.9V44.8H63C63.7,46.3,64.1,48.2,64.1,50z"/>
		</g>
	</g>
</g>
</svg>
