<?xml version="1.0" encoding="utf-8"?>
<!-- Generator: Adobe Illustrator 18.0.0, SVG Export Plug-In . SVG Version: 6.00 Build 0)  -->
<!DOCTYPE svg PUBLIC "-//W3C//DTD SVG 1.1//EN" "http://www.w3.org/Graphics/SVG/1.1/DTD/svg11.dtd">
<svg version="1.1" id="Layer_1" xmlns="http://www.w3.org/2000/svg" xmlns:xlink="http://www.w3.org/1999/xlink" x="0px" y="0px"
	 viewBox="0 0 100 100" enable-background="new 0 0 100 100" xml:space="preserve">
<g id="Linked_in">
	<g>
		<path   d="M50,2.5C23.8,2.5,2.5,23.8,2.5,50S23.8,97.5,50,97.5S97.5,76.2,97.5,50S76.2,2.5,50,2.5z M42.2,66.4h-8.6
			V36.3h8.6C42.2,36.3,42.2,66.4,42.2,66.4z M38.2,34.4c-2.2,0-4-1.8-4-4s1.8-4,4-4s4,1.8,4,4C42.2,32.6,40.4,34.4,38.2,34.4z
			 M72.3,66.4h-8.6V47.8c0-2.2-0.6-3.7-3.3-3.7c-4.4,0-5.3,3.7-5.3,3.7v18.6h-8.6V36.3h8.6v2.9c1.2-0.9,4.3-2.9,8.6-2.9
			c2.8,0,8.6,1.7,8.6,11.7V66.4z"/>
	</g>
</g>
</svg>
