<?xml version="1.0" encoding="utf-8"?>
<!-- Generator: Adobe Illustrator 18.0.0, SVG Export Plug-In . SVG Version: 6.00 Build 0)  -->
<!DOCTYPE svg PUBLIC "-//W3C//DTD SVG 1.1//EN" "http://www.w3.org/Graphics/SVG/1.1/DTD/svg11.dtd">
<svg version="1.1" id="Layer_1" xmlns="http://www.w3.org/2000/svg" xmlns:xlink="http://www.w3.org/1999/xlink" x="0px" y="0px"
	 viewBox="0 0 100 100" enable-background="new 0 0 100 100" xml:space="preserve">
<g id="Pinterest">
	<path   d="M50,2.5C23.8,2.5,2.5,23.8,2.5,50S23.8,97.5,50,97.5S97.5,76.2,97.5,50S76.2,2.5,50,2.5z M54.9,60.6
		c-2.9,0-5.7-1.6-6.7-3.4c0,0-1.6,6.3-1.9,7.5c-1.2,4.3-4.7,8.6-4.9,8.9c-0.2,0.2-0.6,0.2-0.7-0.2c-0.1-0.6-1-6,0.1-10.4
		c0.5-2.2,3.5-14.9,3.5-14.9s-0.9-1.7-0.9-4.3c0-4,2.3-7.1,5.3-7.1c2.5,0,3.7,1.9,3.7,4.1c0,2.5-1.6,6.2-2.4,9.7
		c-0.7,2.9,1.4,5.3,4.3,5.3c5.2,0,8.6-6.6,8.6-14.5c0-6-4-10.5-11.3-10.5c-8.3,0-13.4,6.2-13.4,13.1c0,2.4,0.7,4.1,1.8,5.3
		c0.5,0.6,0.6,0.8,0.4,1.5c-0.1,0.5-0.4,1.7-0.6,2.2c-0.2,0.7-0.7,0.9-1.4,0.7c-3.8-1.5-5.6-5.7-5.6-10.4c0-7.7,6.5-17,19.5-17
		c10.4,0,17.3,7.5,17.3,15.6C69.6,52.6,63.7,60.6,54.9,60.6z"/>
</g>
</svg>
