<?xml version="1.0" encoding="utf-8"?>
<!-- Generator: Adobe Illustrator 18.0.0, SVG Export Plug-In . SVG Version: 6.00 Build 0)  -->
<!DOCTYPE svg PUBLIC "-//W3C//DTD SVG 1.1//EN" "http://www.w3.org/Graphics/SVG/1.1/DTD/svg11.dtd">
<svg version="1.1" id="Layer_1" xmlns="http://www.w3.org/2000/svg" xmlns:xlink="http://www.w3.org/1999/xlink" x="0px" y="0px"
	 viewBox="0 0 100 100" enable-background="new 0 0 100 100" xml:space="preserve">
<g id="twitter">
	<g>
		<path   d="M50,2.5C23.8,2.5,2.5,23.8,2.5,50S23.8,97.5,50,97.5S97.5,76.2,97.5,50S76.2,2.5,50,2.5z M71.2,39.1
			c0,0.5,0,0.9,0,1.4c0,14.4-11,31.1-31.1,31.1c-6.2,0-11.9-1.8-16.8-4.9c0.9,0.1,1.7,0.2,2.6,0.2c5.1,0,9.8-1.7,13.6-4.7
			c-4.8-0.1-8.8-3.2-10.2-7.6c0.7,0.1,1.4,0.2,2.1,0.2c1,0,2-0.1,2.9-0.4c-5-1-8.8-5.4-8.8-10.7v-0.1c1.5,0.8,3.2,1.3,4.9,1.4
			c-2.9-2-4.9-5.3-4.9-9.1c0-2,0.5-3.9,1.5-5.5c5.4,6.6,13.4,11,22.5,11.4c-0.2-0.8-0.3-1.6-0.3-2.5c0-6,4.9-10.9,10.9-10.9
			c3.1,0,6,1.3,8,3.5c2.5-0.5,4.8-1.4,6.9-2.7c-0.8,2.6-2.6,4.7-4.8,6c2.2-0.3,4.3-0.8,6.3-1.7C75.2,35.7,73.3,37.6,71.2,39.1z"/>
	</g>
</g>
</svg>
