<?xml version="1.0" encoding="utf-8"?>
<!-- Generator: Adobe Illustrator 18.0.0, SVG Export Plug-In . SVG Version: 6.00 Build 0)  -->
<!DOCTYPE svg PUBLIC "-//W3C//DTD SVG 1.1//EN" "http://www.w3.org/Graphics/SVG/1.1/DTD/svg11.dtd">
<svg version="1.1" id="Layer_1" xmlns="http://www.w3.org/2000/svg" xmlns:xlink="http://www.w3.org/1999/xlink" x="0px" y="0px"
	 viewBox="0 0 100 100" enable-background="new 0 0 100 100" xml:space="preserve">
<g id="Youtube">
	<path   d="M43.6,57.7c5.3-2.7,10.5-5.4,15.7-8.2C54,46.7,48.8,44,43.6,41.3C43.6,46.8,43.6,52.2,43.6,57.7z"/>
	<path   d="M50,2.5C23.8,2.5,2.5,23.8,2.5,50S23.8,97.5,50,97.5S97.5,76.2,97.5,50S76.2,2.5,50,2.5z M73.9,61.7
		c-0.6,2.6-2.8,4.6-5.4,4.9c-6.1,0.7-12.4,0.7-18.5,0.7c-6.2,0-12.4,0-18.5-0.7c-2.6-0.3-4.7-2.2-5.4-4.9c-0.9-3.8-0.9-7.8-0.9-11.7
		s0-8,0.9-11.7c0.6-2.6,2.8-4.6,5.4-4.9c6.1-0.7,12.4-0.7,18.5-0.7c6.2,0,12.4,0,18.5,0.7c2.6,0.3,4.7,2.2,5.4,4.9
		c0.9,3.8,0.9,7.8,0.9,11.7S74.8,58,73.9,61.7z"/>
</g>
</svg>
