<?xml version="1.0" encoding="utf-8"?>
<!-- Generator: Adobe Illustrator 18.0.0, SVG Export Plug-In . SVG Version: 6.00 Build 0)  -->
<!DOCTYPE svg PUBLIC "-//W3C//DTD SVG 1.0//EN" "http://www.w3.org/TR/2001/REC-SVG-20010904/DTD/svg10.dtd">
<svg version="1.0" id="Layer_1" xmlns="http://www.w3.org/2000/svg" xmlns:xlink="http://www.w3.org/1999/xlink" x="0px" y="0px"
	 viewBox="0 0 1280 90" enable-background="new 0 0 1280 90" xml:space="preserve">
<g>
	<polygon fill="#666766" points="623.4,90 623.4,72.2 620.3,72.2 620.3,75.4 618,75.4 618,83.3 613.6,83.3 613.6,76.7 609.6,76.7 
		609.7,54.9 601.4,54.9 601.4,51.5 593.8,51.5 593.8,53.2 592.6,53.2 592.5,74.7 585.2,74.7 585.3,55.9 580.6,55.8 580.6,58.9 
		575.3,58.9 575.3,64.6 571.9,64.6 571.9,57 564.8,56.9 564.8,54.7 557.5,54.7 557.4,75.7 554.7,75.7 554.7,58.8 550.1,58.8 
		550.2,36.7 541.6,36.7 541.5,58.4 537.3,58.4 536,60.2 533.7,60.2 533.7,64.4 531.7,64.4 531.7,74.8 529.7,74.8 529.6,81.3 
		526.8,81.3 526.8,74.2 523.4,74.2 523.4,71.1 520.2,71.1 520.2,73.8 507.2,73.7 507.2,76.2 503.4,76.2 503.4,80.2 501.1,80.2 
		501.1,72.5 497.6,72.5 497.6,64.3 496.3,64.3 496.4,52 488.4,51.9 488.3,72.3 487.2,72.3 487.2,77.5 485.9,77.5 485.9,79.6 
		482.9,79.6 483,64.8 482.2,64.8 482.2,59.2 480.9,59.2 480.9,54.3 470.4,54.3 470.3,72.4 468.5,72.4 468.5,60.1 467.2,60.1 
		467.2,58 463.3,58 463.3,60.3 462.1,60.3 462.1,74.1 460.2,74.1 460.2,78.5 459.2,78.5 459.3,62.4 457.1,62.4 457.2,59.3 
		452.7,59.3 452.8,56.8 449.1,56.7 449.1,54.2 443.8,54.1 443.8,55.4 441.4,55.4 441.4,57.7 436,57.6 436,61.1 433.3,61.1 
		433.3,55.7 431.6,55.7 431.6,54.1 427.9,54.1 427.9,51.5 422.5,51.4 422.5,54 420.2,54 420.2,56.4 417.8,56.4 417.8,51.4 411,51.4 
		411,49.1 405.8,49.1 405.8,52.3 400.9,52.3 401,38.5 396.5,38.4 396.5,36.1 391.1,36.1 386.9,36.1 386.9,40.7 384.8,40.7 
		384.7,64.5 382.5,64.5 382.6,58 379,57.9 379,54.5 371.2,54.5 371.2,57.7 367.8,57.7 367.9,47.9 365,47.9 365,43.9 353.1,43.8 
		353,56.3 344.8,56.2 344.7,71.6 333.9,71.5 334.2,41.1 329.9,41.1 330,39.6 322.7,39.5 322.7,42.8 321.7,42.8 321.4,70.1 
		313.2,70.1 313.3,54.9 310.1,54.9 310.2,51.5 298.1,51.4 298.1,59.5 296.2,59.5 296.1,82.9 290.7,82.9 290.7,73.5 287.1,73.4 
		287.1,70.7 283.5,70.7 283.5,73.4 280.8,73.4 280.7,83.2 277.3,83.2 277.5,52.3 274.8,52.3 274.8,49.6 266,49.5 266,51.5 
		264.6,51.4 264.6,48.6 258.8,48.5 258.6,83.3 246.9,83.2 247.1,59.4 244.8,59.4 244.8,57.2 239.9,57.2 238.5,59 237.1,59 237,80.3 
		233.6,80.3 233.6,84.5 231.2,84.5 231.3,64.1 228.3,64.1 228.3,62.2 224.9,62.2 224.9,59.5 222.1,59.5 222,65.1 220,65.1 
		219.9,84.2 215.8,84.2 216,42.4 212,42.4 212.1,37.8 198.9,37.7 198.8,42.5 196.6,42.5 196.5,50.4 195.1,50.3 195,82.2 183,82.2 
		183.1,73.7 179.8,73.7 179.8,71 174.6,71 174.5,73.7 172.7,73.7 172.6,84.4 169.7,84.4 169.7,69.6 165.2,69.6 165.2,66.7 
		159.9,66.7 160,64 155,64 155,66.9 152.7,66.8 152.6,83.7 145.8,83.7 145.8,74.5 132.8,74.4 132.7,84.6 128.5,84.6 128.5,69.4 
		115,69.3 115,74.3 112.6,74.3 112.6,71.3 109.9,71.2 109.9,74.3 107.3,74.3 107.4,59.1 105,59.1 105,57 99.2,57 99.2,59.9 
		97.2,59.9 97.1,85.2 94.1,85.2 94.2,57 91.1,56.9 91.1,54.6 86.4,54.6 86.4,57.3 84.4,57.3 84.3,85.7 67.2,85.6 67.3,65.9 
		63.1,65.8 63.1,63.5 54.8,63.5 54.7,65.8 51.1,65.8 51,86.1 47.9,86.1 47.9,83.4 45.4,83.4 45.4,69.6 43,69.6 43,67.1 38.6,67.1 
		38.6,71.7 37.2,71.7 37.2,69.4 33.6,69.3 33.6,71.3 30.2,71.2 30.2,82.8 25.6,82.7 25.6,87.7 21.6,87.7 21.6,83.3 18.5,83.3 
		18.5,81.2 12.7,81.1 12.7,78.6 9.5,78.6 9.4,81.3 6,81.3 6,86.3 0,86.3 0,90 	"/>
	<polygon fill="#666766" points="942.6,90 942.6,85.6 928.7,85.6 928.7,68.8 921.9,68.8 921.9,85.3 913.2,85.3 913.2,87.7 909,87.7 
		909,84.8 906.9,84.8 906.9,70 902.9,70 902.9,80.4 901.7,80.4 901.7,83.7 898.8,83.7 898.8,73.8 894.8,73.8 894.8,75.6 893.9,75.6 
		893.9,67.4 883.6,67.4 883.6,69.8 880.8,69.8 880.8,68.3 876.8,68.3 876.8,70.5 873.9,70.5 873.9,75.7 869.5,75.7 869.5,71 
		866.1,71 866.1,65.8 863.1,62.9 861,65.6 861,77.1 857.9,77.1 857.9,71.2 853.7,71.2 853.7,73.5 850.2,73.5 850.2,75.4 847.8,75.4 
		847.8,72.3 844.5,72.3 844.5,77.6 838.2,77.6 838.2,74.2 830.2,74.2 830.2,71.4 826.4,71.4 826.4,75.9 824.7,75.9 824.7,49.3 
		815.8,49.3 815.8,78 812.8,78 812.8,62.9 810.4,59.4 810.4,55 809.5,55 809.5,59.2 807.4,63 807.4,72.6 804.7,72.6 804.7,70.3 
		798.1,70.3 798.1,78 794.7,78 794.7,72.4 793,72.4 793,70.5 789,70.5 789,72.6 787.3,72.6 787.3,70.9 785.7,70.9 785.7,73 
		784.1,73 784.1,74.7 776.7,74.7 776.7,81.8 773.4,81.8 773.4,77.6 772,77.6 772,71.4 765,71.4 765,74.9 762.9,74.9 762.9,71.4 
		757,71.4 757,81.8 750.9,81.8 750.9,78.3 749.5,78.3 749.5,72.6 747.4,72.6 747.4,68.1 733.3,68.1 733.3,76.6 729.2,76.6 
		729.2,66.7 726.2,66.7 726.2,64 715.4,64 715.4,70.7 713.2,70.7 713.2,64 700.5,64 700.5,70.7 698.2,70.7 698.2,73.8 695.1,73.8 
		695.1,71.6 692.1,71.6 692.1,69.1 687.3,69.1 687.3,71.4 685.4,71.4 685.4,64.3 684.3,63.2 684.3,59 679.4,59 679.4,63.4 
		677.9,63.4 677.9,75.6 675.8,75.6 675.8,73.8 670.2,73.8 670.2,77.3 667.6,77.3 667.6,62.3 666,62.3 666,59.3 664.6,59.3 
		664.6,51.3 663.6,51.3 663.6,47.1 662.4,47.1 662.4,41.9 660.8,41.9 660.8,47.3 659.8,47.3 659.8,52.3 658.7,52.3 658.7,59 
		657.3,59 657.3,61.8 655.2,61.8 655.2,75.1 652.1,75.1 652.1,67.7 650.7,67.7 650.7,59 649.2,59 649.2,56.8 645.3,56.8 645.3,59 
		643.8,59 643.8,69 640.3,69 640.3,73.5 637,73.5 637,69 631.1,69 631.1,73 621.5,73 621.5,77.6 619.9,77.6 619.9,90 	"/>
	<polygon fill="#666766" points="1280,90 1280,85.8 1275.7,85.8 1275.7,86.8 1273.8,86.8 1273.8,84.1 1271.1,84.1 1271.1,82.8 
		1269.5,82.8 1269.5,85.2 1268.2,85.2 1268.2,86.4 1265.2,86.4 1265.2,85.1 1263.9,85.1 1263.9,83.9 1259.3,83.9 1259.3,85.2 
		1257.8,85.2 1257.8,86.5 1252.5,86.5 1252.5,76.7 1250.4,76.7 1250.4,75.7 1247.4,75.7 1247.4,76.9 1246,76.9 1246,86.1 
		1244.5,86.1 1244.5,76.6 1242.9,76.6 1242.9,75.6 1240,75.6 1240,76.8 1238.2,76.8 1238.2,84.9 1235.8,84.9 1235.8,85.6 
		1233.3,85.6 1233.3,78.9 1230.1,78.9 1230.1,80.2 1227.7,80.2 1227.7,81.8 1226.8,81.8 1226.8,85.5 1223.7,85.5 1223.7,83.4 
		1221.5,83.4 1221.5,72.1 1204.7,72.1 1204.7,85.8 1202.7,85.8 1202.7,80.9 1201.8,80.9 1201.8,78.2 1199,78.2 1199,76.7 
		1197.4,76.7 1197.4,73.7 1191.7,73.7 1191.7,76.2 1190.8,76.2 1190.8,79.1 1189.9,79.1 1189.9,80 1186.8,80 1186.8,76.5 
		1185.7,76.5 1185.7,73.6 1182.4,73.6 1182.4,58.8 1175.8,58.8 1175.8,55.4 1174.1,55.4 1174.1,58.8 1170.2,58.8 1170.2,73.7 
		1168.3,73.7 1168.3,81.2 1165.7,81.2 1165.7,82.9 1162.9,82.9 1162.9,67 1161.5,67 1161.5,57.8 1159.6,57.8 1159.6,56.9 
		1157.9,56.9 1157.9,54.1 1154.2,54.1 1154.2,55.9 1151.7,55.9 1151.7,54.7 1146.1,54.7 1146.1,56.6 1145,56.6 1145,58 1143.6,58 
		1143.6,66.6 1140.9,66.6 1140.9,81.6 1139.3,81.6 1139.3,58.7 1137.3,58.7 1137.3,56.9 1129,56.9 1129,58.9 1126.7,58.9 
		1126.7,71.6 1120.9,71.6 1120.9,74.6 1119.9,74.6 1119.9,57.8 1118.5,57.8 1118.5,55.9 1111,55.9 1111,57.8 1109.7,57.8 
		1109.7,59.6 1107.8,59.6 1107.8,58.8 1098.3,58.8 1098.3,53 1096.5,53 1096.5,49.5 1094.6,49.5 1094.6,48.3 1092.6,48.3 
		1092.6,46.6 1089.9,46.6 1089.9,48.4 1088.1,48.4 1088.1,49.8 1086.8,49.8 1086.8,53.2 1084.8,53.2 1084.8,56.8 1082.2,56.8 
		1082.2,59.2 1081.2,59.2 1081.2,61.7 1079.1,61.7 1079.1,42.1 1067,42.1 1067,51.5 1061.4,51.5 1061.4,57.9 1060.6,57.9 
		1060.6,61.4 1058.7,61.4 1058.7,59.8 1057.8,59.8 1057.8,56.8 1050.1,56.8 1050.1,61 1049.2,61 1049.2,63.2 1046.6,63.2 
		1046.6,61.7 1036.7,61.7 1036.7,63.5 1034.4,63.5 1034.4,81.3 1033.4,81.3 1033.4,78.5 1031.5,78.5 1031.5,64.8 1029.1,64.8 
		1029.1,63.6 1027.6,63.6 1027.6,61.4 1021.6,61.4 1021.6,63.9 1020.1,63.9 1020.1,69 1012.1,69 1012.1,70.9 1010.8,70.9 
		1010.8,73.8 1008.6,73.8 1008.6,53.2 1006.8,53.2 1006.8,48.5 1004,48.5 1004,47.6 1001.7,47.6 1001.7,48.6 1000.7,48.6 
		1000.7,51.1 998,51.1 998,48.6 996.7,48.6 996.7,49.3 991.9,49.3 991.9,77.4 982.3,77.4 982.3,75.2 974.2,75.2 974.2,78.1 
		973,78.1 973,76.3 969.3,76.3 969.3,75.3 964.1,75.3 964.1,73.9 960.5,73.9 960.5,75.6 955.9,75.6 955.9,77.3 951.6,77.3 
		951.6,84.3 944,84.3 944,82.3 937.6,82.3 937.6,79.1 935.1,79.1 935.1,81 933.5,81 933.5,78.3 927.5,78.3 927.5,80.3 924.2,80.3 
		924.2,90 	"/>
</g>
</svg>
