<?xml version="1.0" encoding="utf-8"?>
<!-- Generator: Adobe Illustrator 18.0.0, SVG Export Plug-In . SVG Version: 6.00 Build 0)  -->
<!DOCTYPE svg PUBLIC "-//W3C//DTD SVG 1.0//EN" "http://www.w3.org/TR/2001/REC-SVG-20010904/DTD/svg10.dtd">
<svg version="1.0" id="Layer_1" xmlns="http://www.w3.org/2000/svg" xmlns:xlink="http://www.w3.org/1999/xlink" x="0px" y="0px"
	 viewBox="0 0 1280 400" enable-background="new 0 0 1280 400" xml:space="preserve">
<rect fill="#666766" width="1280" height="400"/>
<g>
	<path fill="#515251" d="M65.8,37.5l-0.1-1.3l-0.2-2.1c0,0-0.5-2.7-1.4-4.8c0,0-1.8-4.2-6-4.4c0,0-5.1-0.1-5.8,5.8
		c0,0-0.2,1.8,0.2,4.1c0,0,0.2,0.9-0.2,1.4c0,0-0.4,0.7-1.7,0.7c0,0-3.3-0.3-6.5,1.8c0,0-3.5,2.4-1.5,6.8c0,0,2.1,4.1,6.7,4
		c0,0,3.6,0.2,8.5-0.5l4.1-0.6l0.3,2.7c0,0-9.5,1.3-12.3,1.3c-3.2-0.1-6.5-1.3-8.9-4.1c-3.1-3.2-2.7-8.5,1.3-11.8c0,0,1.8-2,6.4-2.5
		c0,0,0.8-0.1,0.7-0.9c0,0-0.9-6.4,3.9-9.7c0,0,4.4-3.5,9.3-0.1c0,0,3.3,1.6,4.8,6.6c0,0,1,3.1,0.9,5.4L65.8,37.5z"/>
	<polygon fill="#515251" points="63.1,48.4 66.4,47.7 66.1,38.8 68.6,36.7 69.2,50 63.4,51.1 	"/>
	<path fill="#515251" d="M70.5,51.1l-2.3,0.4l23.8,19.4c0.1,0.1,0.4,0.1,0.5,0l1.6-2c0.1-0.1,0.1-0.3-0.1-0.5L70.4,49.1L70.5,51.1z"
		/>
	<path fill="#515251" d="M93.3,65.4l-1.1,1.4c-0.1,0.2-0.4,0.2-0.5,0.1l-0.3-0.2c-0.2-0.1-0.2-0.4-0.1-0.5l1.1-1.4
		c0.1-0.2,0.4-0.2,0.5-0.1l0.3,0.2C93.4,65,93.4,65.2,93.3,65.4z"/>
	<path fill="#515251" d="M94.9,66.1l0.3-0.4c0.1-0.2,0.1-0.4-0.1-0.5l-3-2.4c-0.2-0.1-0.4-0.1-0.5,0.1l-0.3,0.4
		c-0.1,0.2-0.1,0.4,0.1,0.5l3,2.4C94.6,66.3,94.8,66.3,94.9,66.1z"/>
	<path fill="#515251" d="M94.7,70.3l-0.6,0.7c-0.4,0.5-1.1,0.6-1.6,0.2l-4.8-3.9c-0.5-0.4-0.6-1.1-0.2-1.6l0.6-0.7
		c0.4-0.5,1.1-0.6,1.6-0.2l4.8,3.9C95.1,69.1,95.1,69.9,94.7,70.3z"/>
</g>
<g opacity="0.2">
	<path fill="#515251" d="M94.9,154.8l-1.1-0.8l-1.7-1.3c0,0-2.3-1.6-4.5-2.4c0,0-4.3-1.6-7.3,1.3c0,0-3.6,3.6,0.2,8.2
		c0,0,1.2,1.4,3.1,2.7c0,0,0.8,0.5,0.9,1.1c0,0,0.2,0.7-0.7,1.7c0,0-2.5,2.2-3.2,5.9c0,0-0.7,4.2,3.9,5.8c0,0,4.4,1.3,7.5-2
		c0,0,2.6-2.4,5.5-6.4l2.5-3.4l2.1,1.7c0,0-5.6,7.7-7.6,9.8c-2.3,2.3-5.4,3.7-9.2,3.6c-4.4,0-8-4-7.6-9.1c0,0-0.2-2.7,2.6-6.4
		c0,0,0.5-0.6-0.2-1.2c0,0-5.2-3.7-4.3-9.5c0,0,0.5-5.6,6.4-6.7c0,0,3.5-1.3,8.1,1.1c0,0,2.9,1.4,4.5,3.1L94.9,154.8z"/>
	<polygon fill="#515251" points="100.9,164.3 102.6,161.5 96,155.5 96.3,152.2 106.3,161.1 103,166 	"/>
	<path fill="#515251" d="M108,160.9l-1.3,1.9l30.5-3.6c0.2,0,0.3-0.2,0.3-0.4l-0.3-2.6c0-0.2-0.2-0.3-0.4-0.3l-30.3,3.6L108,160.9z"
		/>
	<path fill="#515251" d="M134,154.4l0.2,1.8c0,0.2-0.1,0.4-0.3,0.4l-0.4,0c-0.2,0-0.4-0.1-0.4-0.3l-0.2-1.8c0-0.2,0.1-0.4,0.3-0.4
		l0.4,0C133.8,154,134,154.2,134,154.4z"/>
	<path fill="#515251" d="M135.7,153.7l-0.1-0.5c0-0.2-0.2-0.4-0.4-0.3l-3.8,0.5c-0.2,0-0.4,0.2-0.3,0.4l0.1,0.5
		c0,0.2,0.2,0.4,0.4,0.3l3.8-0.5C135.6,154.1,135.7,153.9,135.7,153.7z"/>
	<path fill="#515251" d="M138.6,156.8l0.1,0.9c0.1,0.6-0.4,1.2-1,1.3l-6.2,0.7c-0.6,0.1-1.2-0.4-1.3-1l-0.1-0.9
		c-0.1-0.6,0.4-1.2,1-1.3l6.2-0.7C138,155.8,138.5,156.2,138.6,156.8z"/>
</g>
<g opacity="0.39">
	<path fill="#515251" d="M177.9,53.6l1.3-1.6l1.9-2.5c0,0,2.4-3.5,3.6-6.8c0,0,2.4-6.5-2-11.2c0,0-5.5-5.5-12.5,0.3
		c0,0-2.1,1.8-4.1,4.7c0,0-0.7,1.2-1.7,1.4c0,0-1.1,0.3-2.7-1c0,0-3.4-3.9-9.1-4.9c0,0-6.4-1.1-8.9,5.9c0,0-2,6.7,3.1,11.5
		c0,0,3.7,4,9.8,8.5l5.2,3.8l-2.6,3.3c0,0-11.8-8.6-14.9-11.6c-3.4-3.5-5.7-8.3-5.5-14c0.1-6.8,6.1-12.3,14-11.6c0,0,4.1-0.3,9.8,4
		c0,0,0.9,0.7,1.8-0.3c0,0,5.7-8,14.6-6.6c0,0,8.6,0.8,10.3,9.8c0,0,1.9,5.3-1.7,12.3c0,0-2.2,4.5-4.7,7L177.9,53.6z"/>
	<polygon fill="#515251" points="163.4,62.7 167.7,65.4 176.9,55.3 181.8,55.7 168.3,71 160.8,66 	"/>
	<path fill="#515251" d="M168.6,73.6l-2.9-2.1l5.6,46.7c0,0.3,0.3,0.5,0.6,0.5l3.9-0.5c0.3,0,0.5-0.3,0.4-0.6l-5.5-46.4L168.6,73.6z
		"/>
	<path fill="#515251" d="M178.5,113.5l-2.7,0.3c-0.3,0-0.6-0.2-0.6-0.5l-0.1-0.6c0-0.3,0.2-0.6,0.5-0.6l2.7-0.3
		c0.3,0,0.6,0.2,0.6,0.5l0.1,0.6C179.1,113.1,178.8,113.4,178.5,113.5z"/>
	<path fill="#515251" d="M179.5,116l0.7-0.1c0.3,0,0.5-0.3,0.5-0.6l-0.7-5.9c0-0.3-0.3-0.5-0.6-0.5l-0.7,0.1c-0.3,0-0.5,0.3-0.5,0.6
		l0.7,5.9C178.9,115.8,179.2,116,179.5,116z"/>
	<path fill="#515251" d="M174.8,120.5l-1.5,0.2c-1,0.1-1.8-0.6-1.9-1.5l-1.1-9.5c-0.1-1,0.6-1.8,1.5-1.9l1.5-0.2
		c1-0.1,1.8,0.6,1.9,1.5l1.1,9.5C176.4,119.5,175.8,120.3,174.8,120.5z"/>
</g>
<g>
	<path fill="#515251" d="M126.7,108l0.1,0.8l0.2,1.3c0,0,0.3,1.7,0.9,3c0,0,1.2,2.6,3.8,2.7c0,0,3.2,0,3.6-3.7c0,0,0.1-1.1-0.2-2.6
		c0,0-0.1-0.6,0.1-0.9c0,0,0.2-0.4,1.1-0.5c0,0,2.1,0.1,4-1.2c0,0,2.2-1.5,0.9-4.3c0,0-1.4-2.5-4.2-2.4c0,0-2.2-0.1-5.3,0.4L129,101
		l-0.2-1.7c0,0,5.9-0.9,7.7-1c2,0,4.1,0.8,5.7,2.5c2,2,1.8,5.3-0.7,7.4c0,0-1.1,1.3-4,1.7c0,0-0.5,0-0.4,0.6c0,0,0.7,4-2.3,6.1
		c0,0-2.7,2.3-5.8,0.2c0,0-2.1-1-3.1-4.1c0,0-0.7-1.9-0.6-3.4L126.7,108z"/>
	<polygon fill="#515251" points="128.3,101.1 126.2,101.6 126.5,107.1 125,108.5 124.5,100.1 128.1,99.4 	"/>
	<path fill="#515251" d="M123.6,99.5l1.4-0.2l-15.2-11.9c-0.1-0.1-0.2-0.1-0.3,0l-1,1.3c-0.1,0.1-0.1,0.2,0,0.3l15.1,11.9
		L123.6,99.5z"/>
	<path fill="#515251" d="M109.2,90.8l0.7-0.9c0.1-0.1,0.2-0.1,0.3,0l0.2,0.1c0.1,0.1,0.1,0.2,0,0.3l-0.7,0.9c-0.1,0.1-0.2,0.1-0.3,0
		l-0.2-0.1C109.1,91,109.1,90.9,109.2,90.8z"/>
	<path fill="#515251" d="M108.1,90.3l-0.2,0.2c-0.1,0.1-0.1,0.3,0,0.3l1.9,1.5c0.1,0.1,0.3,0.1,0.3,0l0.2-0.2c0.1-0.1,0.1-0.3,0-0.3
		l-1.9-1.5C108.4,90.2,108.2,90.2,108.1,90.3z"/>
	<path fill="#515251" d="M108.2,87.6l0.4-0.5c0.2-0.3,0.7-0.4,1-0.1l3.1,2.4c0.3,0.2,0.4,0.7,0.1,1l-0.4,0.5c-0.2,0.3-0.7,0.4-1,0.1
		l-3.1-2.4C108,88.4,108,88,108.2,87.6z"/>
</g>
<g>
	<path fill="#515251" d="M64.4,84.6l0.5,0l0.8,0c0,0,1.1,0,1.9-0.2c0,0,1.7-0.4,2-2c0,0,0.4-1.9-1.8-2.5c0,0-0.7-0.2-1.5-0.2
		c0,0-0.3,0-0.5-0.1c0,0-0.2-0.2-0.2-0.7c0,0,0.3-1.2-0.3-2.6c0,0-0.7-1.5-2.5-1c0,0-1.7,0.6-1.9,2.3c0,0-0.3,1.3-0.3,3.2l0,1.6
		l-1.1-0.1c0,0,0.1-3.7,0.3-4.7c0.2-1.2,0.9-2.4,2.1-3.1c1.4-1,3.4-0.5,4.4,1.2c0,0,0.7,0.8,0.6,2.6c0,0,0,0.3,0.3,0.3
		c0,0,2.5,0,3.4,2.1c0,0,1.1,1.9-0.5,3.5c0,0-0.8,1.2-2.8,1.4c0,0-1.2,0.2-2.1,0L64.4,84.6z"/>
	<polygon fill="#515251" points="60.4,82.9 60.5,84.2 63.9,84.6 64.5,85.7 59.4,85.1 59.4,82.8 	"/>
	<path fill="#515251" d="M58.9,85.5l0-0.9l-8.8,7.8c-0.1,0-0.1,0.1,0,0.2l0.7,0.7c0,0,0.1,0.1,0.2,0l8.7-7.8L58.9,85.5z"/>
	<path fill="#515251" d="M52.2,93.2l-0.5-0.5c-0.1-0.1,0-0.2,0-0.2l0.1-0.1c0.1-0.1,0.2,0,0.2,0l0.5,0.5c0.1,0.1,0,0.2,0,0.2
		l-0.1,0.1C52.3,93.3,52.2,93.3,52.2,93.2z"/>
	<path fill="#515251" d="M51.8,93.8l0.1,0.1C52,94,52,94,52.1,94l1.1-1c0.1-0.1,0.1-0.1,0-0.2l-0.1-0.1c-0.1-0.1-0.1-0.1-0.2,0
		l-1.1,1C51.7,93.7,51.7,93.7,51.8,93.8z"/>
	<path fill="#515251" d="M50.2,93.5l-0.2-0.3c-0.2-0.2-0.1-0.5,0-0.6l1.8-1.6c0.2-0.2,0.5-0.1,0.6,0l0.2,0.3c0.2,0.2,0.1,0.5,0,0.6
		l-1.8,1.6C50.6,93.7,50.3,93.6,50.2,93.5z"/>
</g>
<g opacity="0.5">
	<path fill="#515251" d="M446.4,223.3l-1.1,0.1l-1.6,0.2c0,0-2.1,0.4-3.8,1.2c0,0-3.3,1.5-3.4,4.8c0,0,0,4,4.7,4.5
		c0,0,1.4,0.1,3.2-0.2c0,0,0.7-0.2,1.1,0.1c0,0,0.5,0.3,0.6,1.3c0,0-0.2,2.6,1.5,5.1c0,0,1.9,2.7,5.4,1.1c0,0,3.2-1.7,3.1-5.3
		c0,0,0.1-2.8-0.5-6.7l-0.5-3.3l2.2-0.2c0,0,1.1,7.5,1.2,9.7c0,2.5-1,5.1-3.1,7.1c-2.5,2.5-6.7,2.3-9.4-0.9c0,0-1.6-1.4-2.1-5
		c0,0,0-0.6-0.7-0.5c0,0-5,0.8-7.7-2.9c0,0-2.8-3.4-0.2-7.3c0,0,1.2-2.7,5.1-3.9c0,0,2.4-0.8,4.3-0.8L446.4,223.3z"/>
	<polygon fill="#515251" points="455.1,225.3 454.5,222.7 447.5,223 445.8,221.1 456.3,220.5 457.3,225 	"/>
	<path fill="#515251" d="M457.1,219.4l0.3,1.8l15-19.1c0.1-0.1,0.1-0.3,0-0.4l-1.6-1.3c-0.1-0.1-0.3-0.1-0.4,0.1l-14.9,19
		L457.1,219.4z"/>
	<path fill="#515251" d="M468.1,201.2l1.1,0.9c0.1,0.1,0.2,0.3,0.1,0.4l-0.2,0.2c-0.1,0.1-0.3,0.2-0.4,0.1l-1.1-0.9
		c-0.1-0.1-0.2-0.3-0.1-0.4l0.2-0.2C467.8,201.1,468,201.1,468.1,201.2z"/>
	<path fill="#515251" d="M468.7,199.9l-0.3-0.2c-0.1-0.1-0.3-0.1-0.4,0.1l-1.9,2.4c-0.1,0.1-0.1,0.3,0.1,0.4l0.3,0.2
		c0.1,0.1,0.3,0.1,0.4-0.1l1.9-2.4C468.8,200.2,468.8,200,468.7,199.9z"/>
	<path fill="#515251" d="M472,200l0.6,0.5c0.4,0.3,0.5,0.9,0.2,1.3l-3,3.9c-0.3,0.4-0.9,0.5-1.3,0.2l-0.6-0.5
		c-0.4-0.3-0.5-0.9-0.2-1.3l3-3.9C471.1,199.8,471.6,199.7,472,200z"/>
</g>
<g>
	<path fill="#515251" d="M52.3,205l0.1,0.8l0.2,1.3c0,0,0.3,1.7,0.9,3c0,0,1.2,2.6,3.8,2.7c0,0,3.2,0,3.6-3.7c0,0,0.1-1.1-0.2-2.6
		c0,0-0.1-0.6,0.1-0.9c0,0,0.2-0.4,1.1-0.5c0,0,2.1,0.1,4-1.2c0,0,2.2-1.5,0.9-4.3c0,0-1.4-2.5-4.2-2.4c0,0-2.2-0.1-5.3,0.4
		l-2.6,0.4l-0.2-1.7c0,0,5.9-0.9,7.7-1c2,0,4.1,0.8,5.7,2.5c2,2,1.8,5.3-0.7,7.4c0,0-1.1,1.3-4,1.7c0,0-0.5,0-0.4,0.6
		c0,0,0.7,4-2.3,6.1c0,0-2.7,2.3-5.8,0.2c0,0-2.1-1-3.1-4.1c0,0-0.7-1.9-0.6-3.4L52.3,205z"/>
	<polygon fill="#515251" points="53.9,198.1 51.8,198.6 52.1,204.2 50.5,205.5 50,197.2 53.6,196.4 	"/>
	<path fill="#515251" d="M49.2,196.5l1.4-0.2l-15.2-11.9c-0.1-0.1-0.2-0.1-0.3,0l-1,1.3c-0.1,0.1-0.1,0.2,0,0.3l15.1,11.9
		L49.2,196.5z"/>
	<path fill="#515251" d="M34.7,187.8l0.7-0.9c0.1-0.1,0.2-0.1,0.3,0l0.2,0.1c0.1,0.1,0.1,0.2,0,0.3l-0.7,0.9c-0.1,0.1-0.2,0.1-0.3,0
		l-0.2-0.1C34.7,188,34.6,187.9,34.7,187.8z"/>
	<path fill="#515251" d="M33.7,187.3l-0.2,0.2c-0.1,0.1-0.1,0.3,0,0.3l1.9,1.5c0.1,0.1,0.3,0.1,0.3,0l0.2-0.2c0.1-0.1,0.1-0.3,0-0.3
		l-1.9-1.5C33.9,187.2,33.8,187.2,33.7,187.3z"/>
	<path fill="#515251" d="M33.8,184.7l0.4-0.5c0.2-0.3,0.7-0.4,1-0.1l3.1,2.4c0.3,0.2,0.4,0.7,0.1,1L38,188c-0.2,0.3-0.7,0.4-1,0.1
		l-3.1-2.4C33.6,185.4,33.5,185,33.8,184.7z"/>
</g>
<g>
	<path fill="#515251" d="M443.1,295.4l0.5,0l0.8,0c0,0,1.1,0,1.9-0.2c0,0,1.7-0.4,2-2c0,0,0.4-1.9-1.8-2.5c0,0-0.7-0.2-1.5-0.2
		c0,0-0.3,0-0.5-0.1c0,0-0.2-0.2-0.2-0.7c0,0,0.3-1.2-0.3-2.6c0,0-0.7-1.5-2.5-1c0,0-1.7,0.6-1.9,2.3c0,0-0.3,1.3-0.3,3.2l0,1.6
		l-1.1-0.1c0,0,0.1-3.7,0.3-4.7c0.2-1.2,0.9-2.4,2.1-3.1c1.4-1,3.4-0.5,4.4,1.2c0,0,0.7,0.8,0.6,2.6c0,0,0,0.3,0.3,0.3
		c0,0,2.5,0,3.4,2.1c0,0,1.1,1.9-0.5,3.5c0,0-0.8,1.2-2.8,1.4c0,0-1.2,0.2-2.1,0L443.1,295.4z"/>
	<polygon fill="#515251" points="439.2,293.7 439.2,295 442.6,295.5 443.3,296.5 438.2,295.9 438.1,293.7 	"/>
	<path fill="#515251" d="M437.7,296.4l0-0.9l-8.8,7.8c-0.1,0-0.1,0.1,0,0.2l0.7,0.7c0,0,0.1,0.1,0.2,0l8.7-7.8L437.7,296.4z"/>
	<path fill="#515251" d="M430.9,304.1l-0.5-0.5c-0.1-0.1,0-0.2,0-0.2l0.1-0.1c0.1-0.1,0.2,0,0.2,0l0.5,0.5c0.1,0.1,0,0.2,0,0.2
		l-0.1,0.1C431.1,304.2,431,304.2,430.9,304.1z"/>
	<path fill="#515251" d="M430.6,304.7l0.1,0.1c0.1,0.1,0.1,0.1,0.2,0l1.1-1c0.1-0.1,0.1-0.1,0-0.2l-0.1-0.1c-0.1-0.1-0.1-0.1-0.2,0
		l-1.1,1C430.5,304.5,430.5,304.6,430.6,304.7z"/>
	<path fill="#515251" d="M429,304.3l-0.2-0.3c-0.2-0.2-0.1-0.5,0-0.6l1.8-1.6c0.2-0.2,0.5-0.1,0.6,0l0.2,0.3c0.2,0.2,0.1,0.5,0,0.6
		l-1.8,1.6C429.4,304.5,429.1,304.5,429,304.3z"/>
</g>
<g>
	<path fill="#515251" d="M116,233.9l-0.8-0.3l-1.2-0.4c0,0-1.7-0.4-3.1-0.4c0,0-2.9,0-4,2.3c0,0-1.3,2.9,1.9,4.8c0,0,1,0.6,2.4,0.9
		c0,0,0.6,0.1,0.8,0.5c0,0,0.3,0.4,0,1.2c0,0-1,1.8-0.6,4.2c0,0,0.5,2.6,3.6,2.6c0,0,2.9-0.2,4-2.8c0,0,1-2,1.9-5l0.7-2.5l1.6,0.5
		c0,0-1.7,5.8-2.4,7.4c-0.9,1.8-2.4,3.4-4.6,4.1c-2.6,0.9-5.6-0.6-6.5-3.7c0,0-0.7-1.5,0.2-4.3c0,0,0.2-0.4-0.4-0.6
		c0,0-3.9-1.1-4.6-4.7c0,0-0.9-3.4,2.3-5.4c0,0,1.8-1.5,5-1.1c0,0,2,0.2,3.3,0.8L116,233.9z"/>
	<polygon fill="#515251" points="121.6,238.2 122.1,236.1 116.9,234 116.3,232 124.1,235.1 123.3,238.7 	"/>
	<path fill="#515251" d="M125.1,234.6l-0.4,1.4l17.2-8.8c0.1-0.1,0.1-0.2,0.1-0.3l-0.7-1.5c0-0.1-0.2-0.1-0.3-0.1l-17.1,8.7
		L125.1,234.6z"/>
	<path fill="#515251" d="M139,225.1l0.5,1c0.1,0.1,0,0.3-0.1,0.3l-0.2,0.1c-0.1,0.1-0.3,0-0.3-0.1l-0.5-1c-0.1-0.1,0-0.3,0.1-0.3
		l0.2-0.1C138.8,224.9,138.9,225,139,225.1z"/>
	<path fill="#515251" d="M139.8,224.4l-0.1-0.3c-0.1-0.1-0.2-0.2-0.3-0.1l-2.2,1.1c-0.1,0.1-0.2,0.2-0.1,0.3l0.1,0.3
		c0.1,0.1,0.2,0.2,0.3,0.1l2.2-1.1C139.9,224.6,139.9,224.5,139.8,224.4z"/>
	<path fill="#515251" d="M142.2,225.5l0.3,0.5c0.2,0.4,0,0.8-0.3,1l-3.5,1.8c-0.4,0.2-0.8,0-1-0.3l-0.3-0.5c-0.2-0.4,0-0.8,0.3-1
		l3.5-1.8C141.6,225.1,142.1,225.2,142.2,225.5z"/>
</g>
<g opacity="0.3">
	<path fill="#515251" d="M549,350.5l0.2,1.4l0.4,2.2c0,0,0.7,2.8,1.8,5c0,0,2.2,4.3,6.6,4.2c0,0,5.3-0.2,5.7-6.5
		c0,0,0.1-1.9-0.5-4.3c0,0-0.3-0.9,0.1-1.5c0,0,0.4-0.7,1.8-0.9c0,0,3.5,0.1,6.7-2.3c0,0,3.5-2.7,1.1-7.3c0,0-2.5-4.1-7.3-3.8
		c0,0-3.7,0.1-8.9,1.1l-4.3,0.9l-0.4-2.9c0,0,9.8-2,12.8-2.2c3.4-0.1,6.9,1,9.6,3.7c3.4,3.2,3.4,8.8-0.6,12.5c0,0-1.7,2.2-6.6,3.1
		c0,0-0.8,0.1-0.7,1c0,0,1.4,6.6-3.4,10.4c0,0-4.4,4-9.7,0.7c0,0-3.6-1.5-5.5-6.6c0,0-1.2-3.2-1.3-5.6L549,350.5z"/>
	<polygon fill="#515251" points="551.1,338.9 547.7,339.8 548.6,349.1 546.1,351.5 544.6,337.5 550.6,336 	"/>
	<path fill="#515251" d="M543.1,336.5l2.4-0.5l-26.3-18.8c-0.2-0.1-0.4-0.1-0.5,0.1l-1.6,2.2c-0.1,0.1-0.1,0.4,0.1,0.5l26.1,18.7
		L543.1,336.5z"/>
	<path fill="#515251" d="M518.3,323l1.1-1.5c0.1-0.2,0.4-0.2,0.6-0.1l0.3,0.2c0.2,0.1,0.2,0.4,0.1,0.6l-1.1,1.5
		c-0.1,0.2-0.4,0.2-0.6,0.1l-0.3-0.2C518.2,323.5,518.2,323.2,518.3,323z"/>
	<path fill="#515251" d="M516.5,322.4l-0.3,0.4c-0.1,0.2-0.1,0.4,0.1,0.6l3.3,2.4c0.2,0.1,0.4,0.1,0.6-0.1l0.3-0.4
		c0.1-0.2,0.1-0.4-0.1-0.6l-3.3-2.4C516.9,322.1,516.7,322.2,516.5,322.4z"/>
	<path fill="#515251" d="M516.5,317.9l0.6-0.8c0.4-0.5,1.1-0.7,1.7-0.3l5.3,3.8c0.5,0.4,0.7,1.1,0.3,1.7l-0.6,0.8
		c-0.4,0.5-1.1,0.7-1.7,0.3l-5.3-3.8C516.2,319.2,516.1,318.4,516.5,317.9z"/>
</g>
<g>
	<path fill="#515251" d="M370.6,118l-0.1-1.1l-0.2-1.6c0,0-0.4-2.1-1.1-3.8c0,0-1.4-3.3-4.7-3.4c0,0-4-0.1-4.5,4.6
		c0,0-0.1,1.4,0.2,3.2c0,0,0.2,0.7-0.1,1.1c0,0-0.3,0.5-1.3,0.6c0,0-2.6-0.2-5.1,1.4c0,0-2.7,1.9-1.2,5.4c0,0,1.7,3.2,5.3,3.1
		c0,0,2.8,0.1,6.6-0.4l3.2-0.5l0.2,2.2c0,0-7.4,1-9.6,1c-2.5-0.1-5.1-1-7-3.2c-2.4-2.5-2.1-6.7,1-9.3c0,0,1.4-1.6,5-2
		c0,0,0.6,0,0.6-0.7c0,0-0.7-5,3-7.6c0,0,3.4-2.8,7.3-0.1c0,0,2.6,1.3,3.8,5.1c0,0,0.8,2.4,0.7,4.2L370.6,118z"/>
	<polygon fill="#515251" points="368.4,126.6 371,126 370.8,119 372.8,117.4 373.2,127.9 368.7,128.7 	"/>
	<path fill="#515251" d="M374.3,128.7l-1.8,0.3l18.7,15.2c0.1,0.1,0.3,0.1,0.4,0l1.3-1.6c0.1-0.1,0.1-0.3,0-0.4l-18.6-15.1
		L374.3,128.7z"/>
	<path fill="#515251" d="M392.1,139.9l-0.9,1.1c-0.1,0.1-0.3,0.1-0.4,0l-0.2-0.2c-0.1-0.1-0.1-0.3,0-0.4l0.9-1.1
		c0.1-0.1,0.3-0.1,0.4,0l0.2,0.2C392.2,139.5,392.2,139.7,392.1,139.9z"/>
	<path fill="#515251" d="M393.4,140.4l0.2-0.3c0.1-0.1,0.1-0.3,0-0.4l-2.3-1.9c-0.1-0.1-0.3-0.1-0.4,0l-0.2,0.3
		c-0.1,0.1-0.1,0.3,0,0.4l2.3,1.9C393.1,140.6,393.3,140.6,393.4,140.4z"/>
	<path fill="#515251" d="M393.2,143.8l-0.5,0.6c-0.3,0.4-0.9,0.4-1.3,0.1l-3.8-3.1c-0.4-0.3-0.4-0.9-0.1-1.3l0.5-0.6
		c0.3-0.4,0.9-0.4,1.3-0.1l3.8,3.1C393.5,142.8,393.6,143.4,393.2,143.8z"/>
</g>
<g>
	<path fill="#515251" d="M98.6,282.5l0.5,0l0.8,0c0,0,1.1,0,1.9-0.2c0,0,1.7-0.4,2-2c0,0,0.4-1.9-1.8-2.5c0,0-0.7-0.2-1.5-0.2
		c0,0-0.3,0-0.5-0.1c0,0-0.2-0.2-0.2-0.7c0,0,0.3-1.2-0.3-2.6c0,0-0.7-1.5-2.5-1c0,0-1.7,0.6-1.9,2.3c0,0-0.3,1.3-0.3,3.2l0,1.6
		l-1.1-0.1c0,0,0.1-3.7,0.3-4.7c0.2-1.2,0.9-2.4,2.1-3.1c1.4-1,3.4-0.5,4.4,1.2c0,0,0.7,0.8,0.6,2.6c0,0,0,0.3,0.3,0.3
		c0,0,2.5,0,3.4,2.1c0,0,1.1,1.9-0.5,3.5c0,0-0.8,1.2-2.8,1.4c0,0-1.2,0.2-2.1,0L98.6,282.5z"/>
	<polygon fill="#515251" points="94.7,280.8 94.7,282.1 98.1,282.6 98.7,283.6 93.7,283 93.6,280.8 	"/>
	<path fill="#515251" d="M93.2,283.5l0-0.9l-8.8,7.8c-0.1,0-0.1,0.1,0,0.2l0.7,0.7c0,0,0.1,0.1,0.2,0l8.7-7.8L93.2,283.5z"/>
	<path fill="#515251" d="M86.4,291.2l-0.5-0.5c-0.1-0.1,0-0.2,0-0.2l0.1-0.1c0.1-0.1,0.2,0,0.2,0l0.5,0.5c0.1,0.1,0,0.2,0,0.2
		l-0.1,0.1C86.6,291.3,86.5,291.3,86.4,291.2z"/>
	<path fill="#515251" d="M86,291.8l0.1,0.1c0.1,0.1,0.1,0.1,0.2,0l1.1-1c0.1-0.1,0.1-0.1,0-0.2l-0.1-0.1c-0.1-0.1-0.1-0.1-0.2,0
		l-1.1,1C86,291.6,86,291.7,86,291.8z"/>
	<path fill="#515251" d="M84.4,291.4l-0.2-0.3c-0.2-0.2-0.1-0.5,0-0.6L86,289c0.2-0.2,0.5-0.1,0.6,0l0.2,0.3c0.2,0.2,0.1,0.5,0,0.6
		l-1.8,1.6C84.9,291.6,84.6,291.6,84.4,291.4z"/>
</g>
<g opacity="0.7">
	<path fill="#515251" d="M44.1,280.9l-1.1,0.1l-1.6,0.2c0,0-2.1,0.4-3.8,1.2c0,0-3.3,1.5-3.4,4.8c0,0,0,4,4.7,4.5
		c0,0,1.4,0.1,3.2-0.2c0,0,0.7-0.2,1.1,0.1c0,0,0.5,0.3,0.6,1.3c0,0-0.2,2.6,1.5,5.1c0,0,1.9,2.7,5.4,1.1c0,0,3.2-1.7,3.1-5.3
		c0,0,0.1-2.8-0.5-6.7l-0.5-3.3l2.2-0.2c0,0,1.1,7.5,1.2,9.7c0,2.5-1,5.1-3.1,7.1c-2.5,2.5-6.7,2.3-9.4-0.9c0,0-1.6-1.4-2.1-5
		c0,0,0-0.6-0.7-0.5c0,0-5,0.8-7.7-2.9c0,0-2.8-3.4-0.2-7.3c0,0,1.2-2.7,5.1-3.9c0,0,2.4-0.8,4.3-0.8L44.1,280.9z"/>
	<polygon fill="#515251" points="52.8,282.8 52.2,280.3 45.2,280.6 43.5,278.6 54,278 54.9,282.6 	"/>
	<path fill="#515251" d="M54.8,276.9l0.3,1.8l15-19.1c0.1-0.1,0.1-0.3,0-0.4l-1.6-1.3c-0.1-0.1-0.3-0.1-0.4,0.1l-14.9,19L54.8,276.9
		z"/>
	<path fill="#515251" d="M65.8,258.8l1.1,0.9c0.1,0.1,0.2,0.3,0.1,0.4l-0.2,0.2c-0.1,0.1-0.3,0.2-0.4,0.1l-1.1-0.9
		c-0.1-0.1-0.2-0.3-0.1-0.4l0.2-0.2C65.5,258.7,65.7,258.7,65.8,258.8z"/>
	<path fill="#515251" d="M66.4,257.5l-0.3-0.2c-0.1-0.1-0.3-0.1-0.4,0.1l-1.9,2.4c-0.1,0.1-0.1,0.3,0.1,0.4l0.3,0.2
		c0.1,0.1,0.3,0.1,0.4-0.1l1.9-2.4C66.5,257.7,66.5,257.6,66.4,257.5z"/>
	<path fill="#515251" d="M69.7,257.6l0.6,0.5c0.4,0.3,0.5,0.9,0.2,1.3l-3,3.9c-0.3,0.4-0.9,0.5-1.3,0.2l-0.6-0.5
		c-0.4-0.3-0.5-0.9-0.2-1.3l3-3.9C68.8,257.3,69.3,257.2,69.7,257.6z"/>
</g>
<g>
	<path fill="#515251" d="M148,323.6l0.6,0.4l0.9,0.6c0,0,1.3,0.7,2.4,1c0,0,2.3,0.6,3.7-1.1c0,0,1.7-2.1-0.5-4.2
		c0,0-0.7-0.7-1.7-1.2c0,0-0.4-0.2-0.5-0.5c0,0-0.1-0.4,0.3-0.9c0,0,1.2-1.3,1.3-3.2c0,0,0.1-2.2-2.3-2.8c0,0-2.4-0.4-3.8,1.5
		c0,0-1.2,1.4-2.5,3.6l-1.1,1.9l-1.2-0.8c0,0,2.5-4.3,3.4-5.5c1.1-1.3,2.6-2.2,4.5-2.4c2.3-0.2,4.4,1.6,4.4,4.3c0,0,0.3,1.4-1,3.4
		c0,0-0.2,0.3,0.2,0.6c0,0,2.9,1.7,2.7,4.7c0,0,0,2.9-2.9,3.8c0,0-1.7,0.8-4.2-0.1c0,0-1.6-0.6-2.5-1.4L148,323.6z"/>
	<polygon fill="#515251" points="144.3,319 143.6,320.6 147.3,323.3 147.4,325 141.7,321 143.1,318.2 	"/>
	<path fill="#515251" d="M140.8,321.2l0.6-1.1l-15.6,3.6c-0.1,0-0.2,0.1-0.1,0.2l0.3,1.3c0,0.1,0.1,0.1,0.2,0.1l15.5-3.6
		L140.8,321.2z"/>
	<path fill="#515251" d="M127.7,326l-0.2-0.9c0-0.1,0-0.2,0.1-0.2l0.2,0c0.1,0,0.2,0,0.2,0.1l0.2,0.9c0,0.1,0,0.2-0.1,0.2l-0.2,0
		C127.8,326.1,127.7,326.1,127.7,326z"/>
	<path fill="#515251" d="M126.9,326.4l0.1,0.2c0,0.1,0.1,0.2,0.2,0.1l2-0.4c0.1,0,0.2-0.1,0.1-0.2l-0.1-0.2c0-0.1-0.1-0.2-0.2-0.1
		l-2,0.4C126.9,326.2,126.8,326.3,126.9,326.4z"/>
	<path fill="#515251" d="M125.2,325l-0.1-0.5c-0.1-0.3,0.1-0.6,0.4-0.7l3.2-0.7c0.3-0.1,0.6,0.1,0.7,0.4l0.1,0.5
		c0.1,0.3-0.1,0.6-0.4,0.7l-3.2,0.7C125.6,325.5,125.3,325.3,125.2,325z"/>
</g>
<g>
	<path fill="#515251" d="M450.5,98.1l0.9-0.6l1.4-0.9c0,0,1.8-1.3,2.9-2.7c0,0,2.3-2.8,1-5.8c0,0-1.7-3.6-6.1-2.1
		c0,0-1.4,0.5-2.8,1.6c0,0-0.6,0.5-1.1,0.4c0,0-0.6,0-1.1-1c0,0-1-2.5-3.6-3.9c0,0-2.9-1.6-5.4,1.3c0,0-2.1,2.9-0.5,6.1
		c0,0,1.1,2.6,3.3,5.8l1.9,2.7l-1.9,1.1c0,0-4.2-6.2-5.2-8.3c-1.1-2.3-1.3-5-0.2-7.8c1.2-3.3,5.1-4.9,8.8-3.2c0,0,2.1,0.6,4,3.7
		c0,0,0.3,0.5,0.9,0.2c0,0,4.2-2.9,8.2-0.7c0,0,4,1.9,3.3,6.6c0,0,0,2.9-3,5.7c0,0-1.9,1.8-3.5,2.6L450.5,98.1z"/>
	<polygon fill="#515251" points="441.9,100 443.5,102.1 449.7,98.8 452.1,99.9 442.8,104.9 440,101.2 	"/>
	<path fill="#515251" d="M442.6,106.3l-1.1-1.5l-5.4,23.7c0,0.1,0.1,0.3,0.2,0.3l2,0.5c0.1,0,0.3-0.1,0.3-0.2l5.4-23.6L442.6,106.3z
		"/>
	<path fill="#515251" d="M440.4,127.4l-1.4-0.3c-0.2,0-0.3-0.2-0.2-0.4l0.1-0.3c0-0.2,0.2-0.3,0.4-0.2l1.4,0.3
		c0.2,0,0.3,0.2,0.2,0.4l-0.1,0.3C440.8,127.3,440.6,127.4,440.4,127.4z"/>
	<path fill="#515251" d="M440.5,128.8l0.4,0.1c0.2,0,0.3-0.1,0.4-0.2l0.7-3c0-0.2-0.1-0.3-0.2-0.4l-0.4-0.1c-0.2,0-0.3,0.1-0.4,0.2
		l-0.7,3C440.2,128.6,440.3,128.8,440.5,128.8z"/>
	<path fill="#515251" d="M437.4,130.2l-0.7-0.2c-0.5-0.1-0.8-0.6-0.7-1.1l1.1-4.8c0.1-0.5,0.6-0.8,1.1-0.7l0.7,0.2
		c0.5,0.1,0.8,0.6,0.7,1.1l-1.1,4.8C438.4,130,437.9,130.3,437.4,130.2z"/>
</g>
<g>
	<path fill="#515251" d="M105.7,361.7l-0.8-0.3l-1.2-0.4c0,0-1.7-0.4-3.1-0.4c0,0-2.9,0-4,2.3c0,0-1.3,2.9,1.9,4.8
		c0,0,1,0.6,2.4,0.9c0,0,0.6,0.1,0.8,0.5c0,0,0.3,0.4,0,1.2c0,0-1,1.8-0.6,4.2c0,0,0.5,2.6,3.6,2.6c0,0,2.9-0.2,4-2.8c0,0,1-2,1.9-5
		l0.7-2.5l1.6,0.5c0,0-1.7,5.8-2.4,7.4c-0.9,1.8-2.4,3.4-4.6,4.1c-2.6,0.9-5.6-0.6-6.5-3.7c0,0-0.7-1.5,0.2-4.3c0,0,0.2-0.4-0.4-0.6
		c0,0-3.9-1.1-4.6-4.7c0,0-0.9-3.4,2.3-5.4c0,0,1.8-1.5,5-1.1c0,0,2,0.2,3.3,0.8L105.7,361.7z"/>
	<polygon fill="#515251" points="111.2,366 111.7,364 106.5,361.9 105.9,359.9 113.7,362.9 112.9,366.5 	"/>
	<path fill="#515251" d="M114.7,362.4l-0.4,1.4l17.2-8.8c0.1-0.1,0.1-0.2,0.1-0.3l-0.7-1.5c0-0.1-0.2-0.1-0.3-0.1l-17.1,8.7
		L114.7,362.4z"/>
	<path fill="#515251" d="M128.6,353l0.5,1c0.1,0.1,0,0.3-0.1,0.3l-0.2,0.1c-0.1,0.1-0.3,0-0.3-0.1l-0.5-1c-0.1-0.1,0-0.3,0.1-0.3
		l0.2-0.1C128.4,352.8,128.6,352.8,128.6,353z"/>
	<path fill="#515251" d="M129.5,352.2l-0.1-0.3c-0.1-0.1-0.2-0.2-0.3-0.1l-2.2,1.1c-0.1,0.1-0.2,0.2-0.1,0.3l0.1,0.3
		c0.1,0.1,0.2,0.2,0.3,0.1l2.2-1.1C129.5,352.5,129.5,352.3,129.5,352.2z"/>
	<path fill="#515251" d="M131.9,353.4l0.3,0.5c0.2,0.4,0,0.8-0.3,1l-3.5,1.8c-0.4,0.2-0.8,0-1-0.3l-0.3-0.5c-0.2-0.4,0-0.8,0.3-1
		l3.5-1.8C131.2,352.9,131.7,353,131.9,353.4z"/>
</g>
<g>
	<path fill="#515251" d="M465,366l0.1,0.8l0.2,1.3c0,0,0.3,1.7,0.9,3c0,0,1.2,2.6,3.8,2.7c0,0,3.2,0,3.6-3.7c0,0,0.1-1.1-0.2-2.6
		c0,0-0.1-0.6,0.1-0.9c0,0,0.2-0.4,1.1-0.5c0,0,2.1,0.1,4-1.2c0,0,2.2-1.5,0.9-4.3c0,0-1.4-2.5-4.2-2.4c0,0-2.2-0.1-5.3,0.4
		l-2.6,0.4l-0.2-1.7c0,0,5.9-0.9,7.7-1c2,0,4.1,0.8,5.7,2.5c2,2,1.8,5.3-0.7,7.4c0,0-1.1,1.3-4,1.7c0,0-0.5,0-0.4,0.6
		c0,0,0.7,4-2.3,6.1c0,0-2.7,2.3-5.8,0.2c0,0-2.1-1-3.1-4.1c0,0-0.7-1.9-0.6-3.4L465,366z"/>
	<polygon fill="#515251" points="466.6,359.1 464.6,359.6 464.8,365.2 463.3,366.5 462.8,358.1 466.4,357.4 	"/>
	<path fill="#515251" d="M461.9,357.5l1.4-0.2l-15.2-11.9c-0.1-0.1-0.2-0.1-0.3,0l-1,1.3c-0.1,0.1-0.1,0.2,0,0.3l15.1,11.9
		L461.9,357.5z"/>
	<path fill="#515251" d="M447.5,348.8l0.7-0.9c0.1-0.1,0.2-0.1,0.3,0l0.2,0.1c0.1,0.1,0.1,0.2,0,0.3l-0.7,0.9
		c-0.1,0.1-0.2,0.1-0.3,0l-0.2-0.1C447.4,349,447.4,348.9,447.5,348.8z"/>
	<path fill="#515251" d="M446.4,348.3l-0.2,0.2c-0.1,0.1-0.1,0.3,0,0.3l1.9,1.5c0.1,0.1,0.3,0.1,0.3,0l0.2-0.2
		c0.1-0.1,0.1-0.3,0-0.3l-1.9-1.5C446.7,348.2,446.5,348.2,446.4,348.3z"/>
	<path fill="#515251" d="M446.5,345.7l0.4-0.5c0.2-0.3,0.7-0.4,1-0.1l3.1,2.4c0.3,0.2,0.4,0.7,0.1,1l-0.4,0.5
		c-0.2,0.3-0.7,0.4-1,0.1l-3.1-2.4C446.3,346.4,446.3,346,446.5,345.7z"/>
</g>
<g opacity="0.7">
	<path fill="#515251" d="M257.5,364l-1.3-0.1l-2.1-0.1c0,0-2.7,0-5,0.7c0,0-4.4,1.2-5.2,5.3c0,0-0.9,5,4.9,6.6c0,0,1.8,0.5,4.1,0.4
		c0,0,0.9-0.1,1.4,0.4c0,0,0.6,0.5,0.5,1.8c0,0-0.8,3.3,0.8,6.7c0,0,1.8,3.8,6.5,2.5c0,0,4.3-1.5,5-6c0,0,0.7-3.5,0.8-8.4l0.1-4.2
		l2.8,0.2c0,0-0.2,9.5-0.6,12.4c-0.6,3.2-2.3,6.2-5.4,8.2c-3.7,2.5-8.9,1.4-11.5-3.1c0,0-1.7-2.1-1.5-6.7c0,0,0.1-0.8-0.8-0.8
		c0,0-6.4,0-9-5.3c0,0-2.8-4.9,1.3-9.2c0,0,2.1-3,7.2-3.8c0,0,3.2-0.5,5.5-0.1L257.5,364z"/>
	<polygon fill="#515251" points="267.8,368.3 267.7,365 258.8,363.9 257.1,361.1 270.4,362.6 270.6,368.4 	"/>
	<path fill="#515251" d="M271.6,361.4l0,2.3l22.8-20.6c0.1-0.1,0.2-0.3,0-0.5l-1.7-1.9c-0.1-0.1-0.3-0.1-0.5,0l-22.7,20.5
		L271.6,361.4z"/>
	<path fill="#515251" d="M289.2,341.1l1.2,1.3c0.1,0.2,0.1,0.4,0,0.5l-0.3,0.3c-0.2,0.1-0.4,0.1-0.5,0l-1.2-1.3
		c-0.1-0.2-0.1-0.4,0-0.5l0.3-0.3C288.8,340.9,289,340.9,289.2,341.1z"/>
	<path fill="#515251" d="M290.2,339.5l-0.3-0.4c-0.1-0.2-0.4-0.2-0.5,0l-2.9,2.6c-0.2,0.1-0.2,0.4,0,0.5l0.3,0.4
		c0.1,0.2,0.4,0.2,0.5,0l2.9-2.6C290.3,339.9,290.3,339.7,290.2,339.5z"/>
	<path fill="#515251" d="M294.3,340.4l0.6,0.7c0.4,0.5,0.4,1.2-0.1,1.6l-4.6,4.2c-0.5,0.4-1.2,0.4-1.6-0.1l-0.6-0.7
		c-0.4-0.5-0.4-1.2,0.1-1.6l4.6-4.2C293.2,339.9,293.9,339.9,294.3,340.4z"/>
</g>
<g opacity="0.5">
	<path fill="#515251" d="M39,380.1l-0.5,1l-0.7,1.5c0,0-0.9,2-1.1,3.8c0,0-0.6,3.6,2.1,5.5c0,0,3.3,2.2,6.3-1.4c0,0,0.9-1.1,1.6-2.8
		c0,0,0.2-0.7,0.7-0.9c0,0,0.5-0.3,1.5,0.3c0,0,2.1,1.6,5.1,1.5c0,0,3.3-0.1,3.9-3.9c0,0,0.3-3.6-2.8-5.5c0,0-2.3-1.6-5.8-3.3
		l-3-1.4l1-1.9c0,0,6.8,3.2,8.8,4.4c2.1,1.4,3.7,3.6,4.2,6.5c0.7,3.5-1.8,6.9-5.9,7.3c0,0-2.1,0.6-5.4-1.1c0,0-0.5-0.3-0.9,0.3
		c0,0-2.1,4.6-6.7,4.8c0,0-4.4,0.5-6.2-3.9c0,0-1.5-2.5-0.4-6.4c0,0,0.7-2.5,1.7-4L39,380.1z"/>
	<polygon fill="#515251" points="45.4,374 43,373 39.3,379.1 36.8,379.4 42.1,370.3 46.4,372 	"/>
	<path fill="#515251" d="M41.7,369l1.7,0.7l-7.6-23.1c0-0.1-0.2-0.2-0.3-0.2l-2,0.6c-0.1,0-0.2,0.2-0.2,0.3l7.5,23L41.7,369z"/>
	<path fill="#515251" d="M32.6,349.8l1.3-0.4c0.2-0.1,0.3,0,0.4,0.2l0.1,0.3c0.1,0.2,0,0.3-0.2,0.4l-1.3,0.4c-0.2,0.1-0.3,0-0.4-0.2
		l-0.1-0.3C32.3,350,32.4,349.9,32.6,349.8z"/>
	<path fill="#515251" d="M31.8,348.6l-0.4,0.1c-0.2,0.1-0.2,0.2-0.2,0.4l1,2.9c0.1,0.2,0.2,0.2,0.4,0.2l0.4-0.1
		c0.2-0.1,0.2-0.2,0.2-0.4l-1-2.9C32.1,348.7,32,348.6,31.8,348.6z"/>
	<path fill="#515251" d="M33.7,345.9l0.7-0.2c0.5-0.2,1,0.1,1.1,0.6l1.5,4.7c0.2,0.5-0.1,1-0.6,1.1l-0.7,0.2c-0.5,0.2-1-0.1-1.1-0.6
		l-1.5-4.7C33,346.5,33.3,346,33.7,345.9z"/>
</g>
<g>
	<path fill="#515251" d="M213.1,146.4l1.1-0.3l1.8-0.5c0,0,2.3-0.8,4-1.9c0,0,3.4-2.1,3-5.8c0,0-0.6-4.4-5.8-4.3
		c0,0-1.6,0.1-3.5,0.7c0,0-0.7,0.3-1.3,0c0,0-0.6-0.3-0.9-1.4c0,0-0.2-2.9-2.4-5.4c0,0-2.5-2.7-6.1-0.4c0,0-3.3,2.4-2.6,6.3
		c0,0,0.3,3.1,1.5,7.3l1,3.5l-2.4,0.6c0,0-2.4-8-2.8-10.5c-0.4-2.8,0.3-5.8,2.4-8.3c2.4-3.1,7.1-3.5,10.4-0.4c0,0,2,1.3,3,5.2
		c0,0,0.1,0.6,0.9,0.5c0,0,5.4-1.6,8.9,2.1c0,0,3.6,3.3,1.3,8.1c0,0-1,3.1-5.1,5c0,0-2.6,1.3-4.6,1.5L213.1,146.4z"/>
	<polygon fill="#515251" points="203.3,145.5 204.3,148.3 212,146.9 214.2,148.8 202.7,151 201,146.1 	"/>
	<path fill="#515251" d="M201.9,152.3l-0.6-2l-13.7,23.3c-0.1,0.1,0,0.3,0.1,0.4l2,1.2c0.1,0.1,0.3,0,0.4-0.1l13.7-23.1L201.9,152.3
		z"/>
	<path fill="#515251" d="M192.5,174l-1.3-0.8c-0.2-0.1-0.2-0.3-0.1-0.5l0.2-0.3c0.1-0.2,0.3-0.2,0.5-0.1l1.3,0.8
		c0.2,0.1,0.2,0.3,0.1,0.5l-0.2,0.3C192.9,174,192.7,174.1,192.5,174z"/>
	<path fill="#515251" d="M192.1,175.5l0.4,0.2c0.2,0.1,0.4,0,0.5-0.1l1.7-2.9c0.1-0.2,0-0.4-0.1-0.5l-0.4-0.2
		c-0.2-0.1-0.4,0-0.5,0.1L192,175C191.9,175.2,191.9,175.4,192.1,175.5z"/>
	<path fill="#515251" d="M188.4,175.9l-0.7-0.4c-0.5-0.3-0.6-0.9-0.4-1.4l2.8-4.7c0.3-0.5,0.9-0.6,1.4-0.4l0.7,0.4
		c0.5,0.3,0.6,0.9,0.4,1.4l-2.8,4.7C189.5,176,188.9,176.1,188.4,175.9z"/>
</g>
<g>
	<path fill="#515251" d="M348.7,357.4l-0.7-0.7l-1.1-1c0,0-1.5-1.3-3.1-2c0,0-3-1.5-5.4,0.4c0,0-2.9,2.4-0.5,6c0,0,0.8,1.1,2.1,2.2
		c0,0,0.5,0.4,0.6,0.9c0,0,0.1,0.6-0.6,1.2c0,0-2,1.4-2.8,4.1c0,0-0.8,3,2.4,4.5c0,0,3.1,1.3,5.7-1c0,0,2.1-1.6,4.5-4.3l2-2.3
		l1.5,1.4c0,0-4.7,5.2-6.3,6.6c-1.8,1.5-4.3,2.3-7,2c-3.3-0.4-5.6-3.5-4.9-7.2c0,0,0-2,2.4-4.5c0,0,0.4-0.4,0-0.9
		c0,0-3.6-3.1-2.5-7.3c0,0,0.8-4.1,5.2-4.5c0,0,2.6-0.7,5.8,1.4c0,0,2,1.3,3.1,2.6L348.7,357.4z"/>
	<polygon fill="#515251" points="352.4,364.8 353.9,362.8 349.5,358 349.9,355.6 356.5,362.8 353.8,366.2 	"/>
	<path fill="#515251" d="M357.8,362.7l-1.1,1.3l22.6-0.5c0.1,0,0.3-0.1,0.2-0.2l0-1.9c0-0.1-0.1-0.2-0.3-0.2l-22.5,0.5L357.8,362.7z
		"/>
	<path fill="#515251" d="M377.4,359.9l0,1.3c0,0.2-0.1,0.3-0.3,0.3l-0.3,0c-0.2,0-0.3-0.1-0.3-0.3l0-1.3c0-0.2,0.1-0.3,0.3-0.3
		l0.3,0C377.2,359.6,377.4,359.7,377.4,359.9z"/>
	<path fill="#515251" d="M378.6,359.5l0-0.4c0-0.2-0.1-0.3-0.3-0.3l-2.8,0.1c-0.2,0-0.3,0.1-0.3,0.3l0,0.4c0,0.2,0.1,0.3,0.3,0.3
		l2.8-0.1C378.5,359.8,378.6,359.7,378.6,359.5z"/>
	<path fill="#515251" d="M380.5,362l0,0.7c0,0.5-0.4,0.9-0.8,0.9l-4.6,0.1c-0.5,0-0.9-0.4-0.9-0.8l0-0.7c0-0.5,0.4-0.9,0.8-0.9
		l4.6-0.1C380.1,361.2,380.5,361.5,380.5,362z"/>
</g>
<g>
	<path fill="#515251" d="M176.2,204.1l0.7-0.8l1.1-1.3c0,0,1.3-1.7,2-3.4c0,0,1.4-3.3-0.8-5.8c0,0-2.7-3-6.5-0.1
		c0,0-1.1,0.9-2.2,2.3c0,0-0.4,0.6-0.9,0.7c0,0-0.6,0.1-1.4-0.6c0,0-1.7-2.1-4.6-2.7c0,0-3.3-0.7-4.7,2.9c0,0-1.2,3.4,1.4,6
		c0,0,1.9,2.1,4.9,4.6l2.6,2.1l-1.4,1.6c0,0-5.9-4.7-7.5-6.3c-1.7-1.9-2.8-4.4-2.5-7.3c0.2-3.5,3.4-6.2,7.5-5.7c0,0,2.1-0.1,5,2.3
		c0,0,0.4,0.4,0.9-0.1c0,0,3.1-4,7.6-3.1c0,0,4.4,0.6,5.1,5.3c0,0,0.9,2.8-1.1,6.3c0,0-1.2,2.3-2.6,3.5L176.2,204.1z"/>
	<polygon fill="#515251" points="168.5,208.5 170.7,210 175.6,205 178.2,205.3 170.9,212.9 167.1,210.2 	"/>
	<path fill="#515251" d="M171,214.2l-1.5-1.1l1.9,24.2c0,0.2,0.1,0.3,0.3,0.3l2-0.2c0.1,0,0.2-0.1,0.2-0.3l-1.9-24.1L171,214.2z"/>
	<path fill="#515251" d="M175.3,235l-1.4,0.1c-0.2,0-0.3-0.1-0.3-0.3l0-0.3c0-0.2,0.1-0.3,0.3-0.3l1.4-0.1c0.2,0,0.3,0.1,0.3,0.3
		l0,0.3C175.6,234.9,175.5,235,175.3,235z"/>
	<path fill="#515251" d="M175.8,236.4l0.4,0c0.2,0,0.3-0.2,0.3-0.3l-0.2-3c0-0.2-0.2-0.3-0.3-0.3l-0.4,0c-0.2,0-0.3,0.2-0.3,0.3
		l0.2,3C175.5,236.2,175.6,236.4,175.8,236.4z"/>
	<path fill="#515251" d="M173.2,238.6l-0.8,0.1c-0.5,0-0.9-0.3-1-0.8l-0.4-4.9c0-0.5,0.3-0.9,0.8-1l0.8-0.1c0.5,0,0.9,0.3,1,0.8
		l0.4,4.9C174.1,238.1,173.7,238.5,173.2,238.6z"/>
</g>
<g>
	<path fill="#515251" d="M278.1,225.8l-0.2-1.1l-0.3-1.6c0,0-0.5-2.1-1.3-3.8c0,0-1.6-3.2-4.9-3.2c0,0-4,0.1-4.4,4.8
		c0,0-0.1,1.4,0.3,3.2c0,0,0.2,0.7-0.1,1.1c0,0-0.3,0.5-1.3,0.6c0,0-2.7-0.1-5,1.7c0,0-2.7,2-0.9,5.4c0,0,1.8,3.1,5.4,2.9
		c0,0,2.8,0,6.7-0.7l3.2-0.6l0.3,2.2c0,0-7.4,1.4-9.7,1.5c-2.5,0.1-5.2-0.8-7.2-2.9c-2.5-2.4-2.5-6.7,0.6-9.4c0,0,1.3-1.7,5-2.2
		c0,0,0.6-0.1,0.5-0.8c0,0-1-5,2.7-7.8c0,0,3.3-2.9,7.3-0.4c0,0,2.7,1.2,4,5c0,0,0.9,2.4,0.9,4.2L278.1,225.8z"/>
	<polygon fill="#515251" points="276.4,234.5 278.9,233.8 278.4,226.8 280.3,225 281.2,235.5 276.7,236.6 	"/>
	<path fill="#515251" d="M282.3,236.3l-1.8,0.4l19.5,14.5c0.1,0.1,0.3,0.1,0.4,0l1.2-1.7c0.1-0.1,0.1-0.3-0.1-0.4l-19.4-14.4
		L282.3,236.3z"/>
	<path fill="#515251" d="M300.8,246.8l-0.8,1.1c-0.1,0.1-0.3,0.2-0.4,0.1l-0.2-0.2c-0.1-0.1-0.2-0.3-0.1-0.4l0.8-1.1
		c0.1-0.1,0.3-0.2,0.4-0.1l0.2,0.2C300.9,246.5,300.9,246.7,300.8,246.8z"/>
	<path fill="#515251" d="M302.1,247.3l0.2-0.3c0.1-0.1,0.1-0.3-0.1-0.4l-2.5-1.8c-0.1-0.1-0.3-0.1-0.4,0.1l-0.2,0.3
		c-0.1,0.1-0.1,0.3,0.1,0.4l2.5,1.8C301.8,247.5,302,247.4,302.1,247.3z"/>
	<path fill="#515251" d="M302.1,250.7l-0.4,0.6c-0.3,0.4-0.9,0.5-1.3,0.2l-4-2.9c-0.4-0.3-0.5-0.9-0.2-1.3l0.4-0.6
		c0.3-0.4,0.9-0.5,1.3-0.2l4,2.9C302.3,249.7,302.4,250.3,302.1,250.7z"/>
</g>
<g opacity="0.5">
	<path fill="#515251" d="M184.4,296.5l0.1,0.7l0.2,1.1c0,0,0.3,1.4,0.9,2.5c0,0,1.1,2.1,3.2,2.1c0,0,2.7-0.1,2.8-3.2
		c0,0,0-1-0.2-2.1c0,0-0.1-0.5,0-0.7c0,0,0.2-0.4,0.9-0.4c0,0,1.7,0.1,3.3-1.1c0,0,1.7-1.3,0.6-3.6c0,0-1.2-2.1-3.6-1.9
		c0,0-1.9,0-4.4,0.5l-2.1,0.4l-0.2-1.4c0,0,4.9-0.9,6.4-1c1.7-0.1,3.4,0.5,4.8,1.9c1.7,1.6,1.7,4.4-0.3,6.2c0,0-0.9,1.1-3.3,1.5
		c0,0-0.4,0-0.3,0.5c0,0,0.7,3.3-1.7,5.2c0,0-2.2,2-4.8,0.3c0,0-1.8-0.8-2.7-3.3c0,0-0.6-1.6-0.6-2.8L184.4,296.5z"/>
	<polygon fill="#515251" points="185.5,290.7 183.8,291.2 184.2,295.8 183,296.9 182.3,290 185.3,289.3 	"/>
	<path fill="#515251" d="M181.6,289.5l1.2-0.3l-13-9.4c-0.1-0.1-0.2,0-0.2,0l-0.8,1.1c-0.1,0.1,0,0.2,0,0.2l12.9,9.4L181.6,289.5z"
		/>
	<path fill="#515251" d="M169.3,282.8l0.5-0.7c0.1-0.1,0.2-0.1,0.3,0l0.2,0.1c0.1,0.1,0.1,0.2,0,0.3l-0.5,0.7
		c-0.1,0.1-0.2,0.1-0.3,0l-0.2-0.1C169.3,283,169.3,282.8,169.3,282.8z"/>
	<path fill="#515251" d="M168.5,282.4l-0.1,0.2c-0.1,0.1,0,0.2,0,0.3l1.6,1.2c0.1,0.1,0.2,0,0.3,0l0.1-0.2c0.1-0.1,0-0.2,0-0.3
		l-1.6-1.2C168.7,282.3,168.5,282.3,168.5,282.4z"/>
	<path fill="#515251" d="M168.5,280.2l0.3-0.4c0.2-0.3,0.6-0.3,0.8-0.1l2.6,1.9c0.3,0.2,0.3,0.6,0.1,0.8l-0.3,0.4
		c-0.2,0.3-0.6,0.3-0.8,0.1l-2.6-1.9C168.3,280.8,168.3,280.5,168.5,280.2z"/>
</g>
<g>
	<path fill="#515251" d="M160.6,367.6l-1-0.3l-1.6-0.4c0,0-2.1-0.4-4-0.3c0,0-3.6,0.2-4.9,3.3c0,0-1.4,3.8,2.8,5.9
		c0,0,1.3,0.6,3.1,0.9c0,0,0.7,0.1,1,0.5c0,0,0.4,0.5,0.1,1.5c0,0-1.1,2.4-0.4,5.3c0,0,0.8,3.2,4.7,2.9c0,0,3.6-0.5,4.8-3.9
		c0,0,1.1-2.6,1.9-6.4l0.7-3.2l2.1,0.5c0,0-1.6,7.4-2.3,9.5c-0.9,2.4-2.7,4.5-5.4,5.5c-3.2,1.4-7.1-0.3-8.4-4.1c0,0-1-1.9-0.2-5.5
		c0,0,0.2-0.6-0.5-0.8c0,0-5-1-6.2-5.5c0,0-1.5-4.2,2.4-6.9c0,0,2.1-2,6.2-1.8c0,0,2.6,0.1,4.3,0.8L160.6,367.6z"/>
	<polygon fill="#515251" points="167.9,372.6 168.3,369.9 161.6,367.7 160.7,365.3 170.8,368.5 170.1,373.1 	"/>
	<path fill="#515251" d="M171.9,367.8l-0.4,1.8l20.8-12.5c0.1-0.1,0.2-0.2,0.1-0.4l-1.1-1.8c-0.1-0.1-0.2-0.2-0.4-0.1l-20.7,12.5
		L171.9,367.8z"/>
	<path fill="#515251" d="M188.7,354.7l0.7,1.2c0.1,0.1,0,0.3-0.1,0.4l-0.3,0.2c-0.1,0.1-0.3,0-0.4-0.1l-0.7-1.2
		c-0.1-0.1,0-0.3,0.1-0.4l0.3-0.2C188.4,354.5,188.6,354.5,188.7,354.7z"/>
	<path fill="#515251" d="M189.7,353.6l-0.2-0.3c-0.1-0.1-0.3-0.2-0.4-0.1l-2.6,1.6c-0.1,0.1-0.2,0.3-0.1,0.4l0.2,0.3
		c0.1,0.1,0.3,0.2,0.4,0.1l2.6-1.6C189.7,354,189.7,353.8,189.7,353.6z"/>
	<path fill="#515251" d="M192.8,354.9l0.4,0.6c0.3,0.4,0.1,1-0.3,1.2l-4.2,2.5c-0.4,0.3-1,0.1-1.2-0.3l-0.4-0.6
		c-0.3-0.4-0.1-1,0.3-1.2l4.2-2.5C191.9,354.4,192.5,354.5,192.8,354.9z"/>
</g>
<g opacity="0.6">
	<path fill="#515251" d="M370.3,282.5l2-0.4l3.1-0.7c0,0,4.1-1.1,7.2-2.8c0,0,6.1-3.4,5.8-9.8c0,0-0.6-7.8-9.7-8c0,0-2.8,0-6.2,0.9
		c0,0-1.3,0.5-2.2-0.1c0,0-1.1-0.5-1.3-2.5c0,0-0.1-5.1-3.7-9.6c0,0-4.1-5-10.6-1.3c0,0-5.9,3.8-5.1,10.8c0,0,0.3,5.4,1.9,12.8
		l1.5,6.2l-4.1,0.8c0,0-3.3-14.2-3.8-18.6c-0.3-4.9,1.1-10,5-14.2c4.5-5.1,12.6-5.4,18.2,0.3c0,0,3.3,2.4,4.8,9.4
		c0,0,0.2,1.1,1.5,0.9c0,0,9.5-2.3,15.3,4.5c0,0,6,6.2,1.5,14.1c0,0-2,5.3-9.3,8.3c0,0-4.6,2-8.1,2.2L370.3,282.5z"/>
	<polygon fill="#515251" points="353.3,280 354.8,284.9 368.4,283.2 371.9,286.7 351.7,289.5 349.2,280.8 	"/>
	<path fill="#515251" d="M350.3,291.7l-0.9-3.5l-26.1,39.1c-0.2,0.2-0.1,0.6,0.1,0.7l3.3,2.2c0.2,0.1,0.5,0.1,0.7-0.2l26-38.9
		L350.3,291.7z"/>
	<path fill="#515251" d="M331.8,328.4l-2.3-1.5c-0.3-0.2-0.3-0.5-0.2-0.8l0.3-0.5c0.2-0.3,0.5-0.3,0.8-0.2l2.3,1.5
		c0.3,0.2,0.3,0.5,0.2,0.8l-0.3,0.5C332.5,328.5,332.1,328.6,331.8,328.4z"/>
	<path fill="#515251" d="M330.9,331l0.6,0.4c0.3,0.2,0.6,0.1,0.8-0.2l3.3-4.9c0.2-0.3,0.1-0.6-0.2-0.8l-0.6-0.4
		c-0.3-0.2-0.6-0.1-0.8,0.2l-3.3,4.9C330.6,330.5,330.7,330.8,330.9,331z"/>
	<path fill="#515251" d="M324.5,331.3l-1.2-0.8c-0.8-0.5-1-1.6-0.5-2.4l5.3-7.9c0.5-0.8,1.6-1,2.4-0.5l1.2,0.8
		c0.8,0.5,1,1.6,0.5,2.4l-5.3,7.9C326.3,331.6,325.3,331.8,324.5,331.3z"/>
</g>
<g opacity="0.37">
	<path fill="#515251" d="M295.1,178.1l0.2,1.4l0.4,2.2c0,0,0.7,2.8,1.8,5c0,0,2.2,4.3,6.6,4.2c0,0,5.3-0.2,5.7-6.5
		c0,0,0.1-1.9-0.5-4.3c0,0-0.3-0.9,0.1-1.5c0,0,0.4-0.7,1.8-0.9c0,0,3.5,0.1,6.7-2.3c0,0,3.5-2.7,1.1-7.3c0,0-2.5-4.1-7.3-3.8
		c0,0-3.7,0.1-8.9,1.1l-4.3,0.9l-0.4-2.9c0,0,9.8-2,12.8-2.2c3.4-0.1,6.9,1,9.6,3.7c3.4,3.2,3.4,8.8-0.6,12.5c0,0-1.7,2.2-6.6,3.1
		c0,0-0.8,0.1-0.7,1c0,0,1.4,6.6-3.4,10.4c0,0-4.4,4-9.7,0.7c0,0-3.6-1.5-5.5-6.6c0,0-1.2-3.2-1.3-5.6L295.1,178.1z"/>
	<polygon fill="#515251" points="297.2,166.5 293.8,167.4 294.7,176.8 292.2,179.1 290.7,165.2 296.7,163.7 	"/>
	<path fill="#515251" d="M289.3,164.2l2.4-0.5l-26.3-18.8c-0.2-0.1-0.4-0.1-0.5,0.1l-1.6,2.2c-0.1,0.1-0.1,0.4,0.1,0.5l26.1,18.7
		L289.3,164.2z"/>
	<path fill="#515251" d="M264.4,150.7l1.1-1.5c0.1-0.2,0.4-0.2,0.6-0.1l0.3,0.2c0.2,0.1,0.2,0.4,0.1,0.6l-1.1,1.5
		c-0.1,0.2-0.4,0.2-0.6,0.1l-0.3-0.2C264.3,151.1,264.3,150.9,264.4,150.7z"/>
	<path fill="#515251" d="M262.7,150l-0.3,0.4c-0.1,0.2-0.1,0.4,0.1,0.6l3.3,2.4c0.2,0.1,0.4,0.1,0.6-0.1l0.3-0.4
		c0.1-0.2,0.1-0.4-0.1-0.6l-3.3-2.4C263,149.8,262.8,149.8,262.7,150z"/>
	<path fill="#515251" d="M262.6,145.6l0.6-0.8c0.4-0.5,1.1-0.7,1.7-0.3l5.3,3.8c0.5,0.4,0.7,1.1,0.3,1.7l-0.6,0.8
		c-0.4,0.5-1.1,0.7-1.7,0.3l-5.3-3.8C262.3,146.9,262.2,146.1,262.6,145.6z"/>
</g>
<g>
	<path fill="#515251" d="M327.2,63.2l1.4,0.2l2.2,0.3c0,0,2.9,0.3,5.3-0.2c0,0,4.7-0.8,6-5c0,0,1.4-5.2-4.4-7.4c0,0-1.8-0.7-4.2-0.9
		c0,0-1,0-1.4-0.5c0,0-0.6-0.6-0.3-1.9c0,0,1.2-3.3-0.2-7.1c0,0-1.5-4.2-6.6-3.3c0,0-4.7,1.1-5.8,5.8c0,0-1.1,3.6-1.7,8.7l-0.5,4.4
		l-2.9-0.5c0,0,1.2-10,1.9-12.9c0.9-3.3,3-6.2,6.5-8c4.1-2.3,9.4-0.5,11.7,4.4c0,0,1.6,2.4,0.9,7.2c0,0-0.1,0.8,0.8,1
		c0,0,6.7,0.7,8.9,6.5c0,0,2.4,5.4-2.3,9.5c0,0-2.5,3-7.9,3.2c0,0-3.4,0.2-5.8-0.5L327.2,63.2z"/>
	<polygon fill="#515251" points="316.9,57.6 316.7,61.2 325.8,63.2 327.3,66.3 313.6,63.4 314,57.2 	"/>
	<path fill="#515251" d="M312.1,64.5l0.2-2.4l-26,19.2c-0.2,0.1-0.2,0.3-0.1,0.5l1.6,2.2c0.1,0.1,0.3,0.2,0.5,0.1l25.9-19.1
		L312.1,64.5z"/>
	<path fill="#515251" d="M291.6,83.9l-1.1-1.5c-0.1-0.2-0.1-0.4,0.1-0.6l0.3-0.2c0.2-0.1,0.4-0.1,0.6,0.1l1.1,1.5
		c0.1,0.2,0.1,0.4-0.1,0.6l-0.3,0.2C292,84.1,291.8,84.1,291.6,83.9z"/>
	<path fill="#515251" d="M290.4,85.4l0.3,0.4c0.1,0.2,0.4,0.2,0.6,0.1l3.3-2.4c0.2-0.1,0.2-0.4,0.1-0.6l-0.3-0.4
		c-0.1-0.2-0.4-0.2-0.6-0.1l-3.3,2.4C290.4,84.9,290.3,85.2,290.4,85.4z"/>
	<path fill="#515251" d="M286.2,84.1l-0.6-0.8c-0.4-0.5-0.3-1.3,0.3-1.7l5.3-3.9c0.5-0.4,1.3-0.3,1.7,0.3l0.6,0.8
		c0.4,0.5,0.3,1.3-0.3,1.7l-5.3,3.9C287.3,84.7,286.6,84.6,286.2,84.1z"/>
</g>
<g>
	<path fill="#515251" d="M252.6,289.8l-0.1-0.5l-0.1-0.8c0,0-0.2-1-0.6-1.8c0,0-0.8-1.6-2.4-1.5c0,0-1.9,0.1-2.1,2.3
		c0,0,0,0.7,0.2,1.5c0,0,0.1,0.3,0,0.5c0,0-0.1,0.3-0.6,0.3c0,0-1.3,0-2.4,0.8c0,0-1.3,1-0.4,2.6c0,0,0.9,1.5,2.6,1.4
		c0,0,1.4,0,3.2-0.4l1.6-0.3l0.2,1c0,0-3.6,0.7-4.7,0.8c-1.2,0-2.5-0.4-3.5-1.4c-1.2-1.2-1.2-3.2,0.3-4.5c0,0,0.6-0.8,2.4-1.1
		c0,0,0.3,0,0.3-0.4c0,0-0.5-2.4,1.3-3.8c0,0,1.6-1.4,3.5-0.2c0,0,1.3,0.6,2,2.4c0,0,0.4,1.2,0.5,2.1L252.6,289.8z"/>
	<polygon fill="#515251" points="251.8,294 253.1,293.7 252.8,290.3 253.7,289.4 254.2,294.5 252,295.1 	"/>
	<path fill="#515251" d="M254.7,294.9l-0.9,0.2l9.5,6.9c0.1,0,0.1,0,0.2,0l0.6-0.8c0-0.1,0-0.1,0-0.2l-9.4-6.9L254.7,294.9z"/>
	<path fill="#515251" d="M263.7,299.9l-0.4,0.5c0,0.1-0.1,0.1-0.2,0l-0.1-0.1c-0.1,0-0.1-0.1,0-0.2l0.4-0.5c0-0.1,0.1-0.1,0.2,0
		l0.1,0.1C263.7,299.7,263.8,299.8,263.7,299.9z"/>
	<path fill="#515251" d="M264.4,300.1l0.1-0.1c0-0.1,0-0.2,0-0.2l-1.2-0.9c-0.1,0-0.2,0-0.2,0l-0.1,0.1c0,0.1,0,0.2,0,0.2l1.2,0.9
		C264.2,300.2,264.3,300.2,264.4,300.1z"/>
	<path fill="#515251" d="M264.4,301.8l-0.2,0.3c-0.1,0.2-0.4,0.2-0.6,0.1l-1.9-1.4c-0.2-0.1-0.2-0.4-0.1-0.6l0.2-0.3
		c0.1-0.2,0.4-0.2,0.6-0.1l1.9,1.4C264.5,301.3,264.5,301.6,264.4,301.8z"/>
</g>
<g>
	<path fill="#515251" d="M223.1,245.1l0.7,0.1l1.1,0.1c0,0,1.4,0.1,2.6-0.1c0,0,2.4-0.4,3-2.5c0,0,0.7-2.6-2.2-3.7
		c0,0-0.9-0.3-2.1-0.4c0,0-0.5,0-0.7-0.3c0,0-0.3-0.3-0.1-1c0,0,0.6-1.7-0.1-3.5c0,0-0.7-2.1-3.3-1.6c0,0-2.3,0.5-2.9,2.9
		c0,0-0.5,1.8-0.9,4.3l-0.3,2.2l-1.4-0.2c0,0,0.6-5,0.9-6.4c0.5-1.6,1.5-3.1,3.2-4c2-1.1,4.7-0.3,5.8,2.2c0,0,0.8,1.2,0.4,3.6
		c0,0-0.1,0.4,0.4,0.5c0,0,3.3,0.4,4.4,3.2c0,0,1.2,2.7-1.2,4.7c0,0-1.3,1.5-3.9,1.6c0,0-1.7,0.1-2.9-0.2L223.1,245.1z"/>
	<polygon fill="#515251" points="217.9,242.3 217.9,244 222.4,245.1 223.1,246.6 216.3,245.2 216.5,242.1 	"/>
	<path fill="#515251" d="M215.6,245.7l0.1-1.2l-12.9,9.5c-0.1,0.1-0.1,0.2,0,0.2l0.8,1.1c0.1,0.1,0.2,0.1,0.2,0l12.9-9.5
		L215.6,245.7z"/>
	<path fill="#515251" d="M205.4,255.4l-0.6-0.7c-0.1-0.1,0-0.2,0-0.3l0.2-0.1c0.1-0.1,0.2,0,0.3,0l0.6,0.7c0.1,0.1,0,0.2,0,0.3
		l-0.2,0.1C205.6,255.5,205.5,255.4,205.4,255.4z"/>
	<path fill="#515251" d="M204.8,256.1l0.1,0.2c0.1,0.1,0.2,0.1,0.3,0l1.6-1.2c0.1-0.1,0.1-0.2,0-0.3l-0.1-0.2
		c-0.1-0.1-0.2-0.1-0.3,0l-1.6,1.2C204.8,255.9,204.7,256,204.8,256.1z"/>
	<path fill="#515251" d="M202.7,255.4l-0.3-0.4c-0.2-0.3-0.1-0.6,0.1-0.8l2.6-1.9c0.3-0.2,0.6-0.1,0.8,0.1l0.3,0.4
		c0.2,0.3,0.1,0.6-0.1,0.8l-2.6,1.9C203.3,255.8,202.9,255.7,202.7,255.4z"/>
</g>
<g opacity="0.7">
	<path fill="#515251" d="M238.7,83.3l0.2,1l0.3,1.5c0,0,0.5,2,1.3,3.5c0,0,1.6,3,4.7,3c0,0,3.8-0.2,4-4.6c0,0,0-1.4-0.3-3
		c0,0-0.2-0.7,0.1-1.1c0,0,0.3-0.5,1.2-0.6c0,0,2.5,0.1,4.7-1.7c0,0,2.5-1.9,0.8-5.1c0,0-1.8-2.9-5.2-2.7c0,0-2.7,0-6.3,0.7
		l-3.1,0.6l-0.3-2c0,0,7-1.4,9.1-1.5c2.4-0.1,4.9,0.7,6.8,2.6c2.4,2.3,2.4,6.2-0.4,8.8c0,0-1.2,1.6-4.7,2.2c0,0-0.6,0.1-0.5,0.7
		c0,0,1,4.7-2.4,7.4c0,0-3.1,2.8-6.9,0.5c0,0-2.6-1.1-3.9-4.7c0,0-0.9-2.3-0.9-4L238.7,83.3z"/>
	<polygon fill="#515251" points="240.2,75.1 237.8,75.8 238.4,82.4 236.7,84 235.6,74.2 239.9,73.1 	"/>
	<path fill="#515251" d="M234.6,73.4l1.7-0.4l-18.6-13.3c-0.1-0.1-0.3-0.1-0.3,0l-1.1,1.6c-0.1,0.1,0,0.3,0.1,0.3L234.8,75
		L234.6,73.4z"/>
	<path fill="#515251" d="M217,63.9l0.8-1.1c0.1-0.1,0.3-0.2,0.4-0.1l0.2,0.2c0.1,0.1,0.2,0.3,0.1,0.4l-0.8,1.1
		c-0.1,0.1-0.3,0.2-0.4,0.1l-0.2-0.2C216.9,64.2,216.9,64,217,63.9z"/>
	<path fill="#515251" d="M215.7,63.4l-0.2,0.3c-0.1,0.1-0.1,0.3,0.1,0.4l2.3,1.7c0.1,0.1,0.3,0.1,0.4-0.1l0.2-0.3
		c0.1-0.1,0.1-0.3-0.1-0.4l-2.3-1.7C216,63.3,215.8,63.3,215.7,63.4z"/>
	<path fill="#515251" d="M215.7,60.3l0.4-0.6c0.3-0.4,0.8-0.5,1.2-0.2l3.8,2.7c0.4,0.3,0.5,0.8,0.2,1.2l-0.4,0.6
		c-0.3,0.4-0.8,0.5-1.2,0.2l-3.8-2.7C215.5,61.2,215.4,60.6,215.7,60.3z"/>
</g>
<g>
	<path fill="#515251" d="M393.8,181l-1.1-0.1l-1.7-0.2c0,0-2.3-0.1-4.2,0.3c0,0-3.7,0.8-4.6,4.1c0,0-1,4.1,3.7,5.7
		c0,0,1.5,0.5,3.3,0.5c0,0,0.8,0,1.1,0.4c0,0,0.5,0.4,0.3,1.5c0,0-0.8,2.7,0.4,5.6c0,0,1.3,3.3,5.3,2.4c0,0,3.7-1,4.4-4.7
		c0,0,0.8-2.9,1.1-7l0.3-3.5l2.3,0.3c0,0-0.6,7.9-1.1,10.2c-0.6,2.6-2.2,5-4.9,6.5c-3.2,1.9-7.4,0.7-9.4-3.1c0,0-1.3-1.8-0.9-5.7
		c0,0,0.1-0.6-0.6-0.7c0,0-5.3-0.3-7.2-4.8c0,0-2.1-4.2,1.5-7.6c0,0,1.9-2.4,6.2-2.8c0,0,2.7-0.3,4.6,0.2L393.8,181z"/>
	<polygon fill="#515251" points="402.2,185.1 402.2,182.3 394.9,180.9 393.7,178.5 404.6,180.4 404.5,185.3 	"/>
	<path fill="#515251" d="M405.7,179.5l-0.1,1.9l19.9-16c0.1-0.1,0.1-0.3,0.1-0.4l-1.4-1.7c-0.1-0.1-0.3-0.1-0.4,0L404,179.2
		L405.7,179.5z"/>
	<path fill="#515251" d="M421.2,163.5l0.9,1.2c0.1,0.1,0.1,0.3,0,0.4l-0.2,0.2c-0.1,0.1-0.3,0.1-0.4,0l-0.9-1.2
		c-0.1-0.1-0.1-0.3,0-0.4l0.2-0.2C420.9,163.3,421.1,163.3,421.2,163.5z"/>
	<path fill="#515251" d="M422.1,162.3l-0.2-0.3c-0.1-0.1-0.3-0.2-0.4,0l-2.5,2c-0.1,0.1-0.2,0.3,0,0.4l0.2,0.3
		c0.1,0.1,0.3,0.2,0.4,0l2.5-2C422.2,162.6,422.2,162.4,422.1,162.3z"/>
	<path fill="#515251" d="M425.5,163.2l0.5,0.6c0.3,0.4,0.3,1-0.1,1.3l-4,3.2c-0.4,0.3-1,0.3-1.3-0.1l-0.5-0.6
		c-0.3-0.4-0.3-1,0.1-1.3l4-3.2C424.6,162.7,425.2,162.8,425.5,163.2z"/>
</g>
<g opacity="0.33">
	<path fill="#515251" d="M401.6,30.3l-0.2-1.1l-0.3-1.6c0,0-0.5-2.1-1.3-3.8c0,0-1.6-3.2-4.9-3.2c0,0-4,0.1-4.4,4.8
		c0,0-0.1,1.4,0.3,3.2c0,0,0.2,0.7-0.1,1.1c0,0-0.3,0.5-1.3,0.6c0,0-2.7-0.1-5,1.7c0,0-2.7,2-0.9,5.4c0,0,1.8,3.1,5.4,2.9
		c0,0,2.8,0,6.7-0.7l3.2-0.6l0.3,2.2c0,0-7.4,1.4-9.7,1.5c-2.5,0.1-5.2-0.8-7.2-2.9c-2.5-2.4-2.5-6.7,0.6-9.4c0,0,1.3-1.7,5-2.2
		c0,0,0.6-0.1,0.5-0.8c0,0-1-5,2.7-7.8c0,0,3.3-2.9,7.3-0.4c0,0,2.7,1.2,4,5c0,0,0.9,2.4,0.9,4.2L401.6,30.3z"/>
	<polygon fill="#515251" points="399.8,39 402.4,38.4 401.9,31.3 403.8,29.6 404.7,40.1 400.2,41.2 	"/>
	<path fill="#515251" d="M405.8,40.9l-1.8,0.4l19.5,14.5c0.1,0.1,0.3,0.1,0.4,0l1.2-1.7c0.1-0.1,0.1-0.3-0.1-0.4l-19.4-14.4
		L405.8,40.9z"/>
	<path fill="#515251" d="M424.3,51.4l-0.8,1.1c-0.1,0.1-0.3,0.2-0.4,0.1l-0.2-0.2c-0.1-0.1-0.2-0.3-0.1-0.4l0.8-1.1
		c0.1-0.1,0.3-0.2,0.4-0.1l0.2,0.2C424.4,51,424.4,51.2,424.3,51.4z"/>
	<path fill="#515251" d="M425.6,51.9l0.2-0.3c0.1-0.1,0.1-0.3-0.1-0.4l-2.5-1.8c-0.1-0.1-0.3-0.1-0.4,0.1l-0.2,0.3
		c-0.1,0.1-0.1,0.3,0.1,0.4l2.5,1.8C425.3,52.1,425.5,52,425.6,51.9z"/>
	<path fill="#515251" d="M425.6,55.2l-0.4,0.6c-0.3,0.4-0.9,0.5-1.3,0.2l-4-2.9c-0.4-0.3-0.5-0.9-0.2-1.3l0.4-0.6
		c0.3-0.4,0.9-0.5,1.3-0.2l4,2.9C425.8,54.3,425.9,54.8,425.6,55.2z"/>
</g>
<g opacity="0.6">
	<path fill="#515251" d="M487.6,133.3l-0.3-1.4l-0.5-2.1c0,0-0.7-2.8-2-4.9c0,0-2.3-4.2-6.7-4c0,0-5.3,0.4-5.5,6.7
		c0,0,0,1.9,0.6,4.2c0,0,0.3,0.9,0,1.5c0,0-0.3,0.7-1.7,0.9c0,0-3.5,0-6.6,2.6c0,0-3.4,2.8-0.9,7.3c0,0,2.6,4.1,7.4,3.5
		c0,0,3.7-0.2,8.8-1.3l4.3-1l0.5,2.8c0,0-9.8,2.3-12.7,2.6c-3.4,0.2-6.9-0.7-9.8-3.4c-3.5-3.1-3.7-8.7,0.2-12.5c0,0,1.7-2.3,6.5-3.3
		c0,0,0.8-0.1,0.6-1c0,0-1.6-6.6,3.1-10.5c0,0,4.2-4.1,9.7-1c0,0,3.6,1.4,5.7,6.4c0,0,1.4,3.1,1.5,5.6L487.6,133.3z"/>
	<polygon fill="#515251" points="485.8,145 489.2,143.9 488,134.6 490.4,132.2 492.4,146.1 486.4,147.8 	"/>
	<path fill="#515251" d="M493.9,147.1l-2.4,0.6l26.9,17.9c0.2,0.1,0.4,0.1,0.5-0.1l1.5-2.3c0.1-0.2,0.1-0.4-0.1-0.5l-26.7-17.8
		L493.9,147.1z"/>
	<path fill="#515251" d="M519.1,159.7l-1,1.6c-0.1,0.2-0.4,0.2-0.6,0.1l-0.3-0.2c-0.2-0.1-0.2-0.4-0.1-0.6l1-1.6
		c0.1-0.2,0.4-0.2,0.6-0.1l0.3,0.2C519.2,159.3,519.2,159.5,519.1,159.7z"/>
	<path fill="#515251" d="M520.9,160.3l0.3-0.4c0.1-0.2,0.1-0.4-0.1-0.6l-3.4-2.3c-0.2-0.1-0.4-0.1-0.6,0.1l-0.3,0.4
		c-0.1,0.2-0.1,0.4,0.1,0.6l3.4,2.3C520.5,160.6,520.8,160.5,520.9,160.3z"/>
	<path fill="#515251" d="M521.1,164.8l-0.6,0.8c-0.4,0.6-1.1,0.7-1.7,0.3l-5.4-3.6c-0.6-0.4-0.7-1.1-0.3-1.7l0.6-0.8
		c0.4-0.6,1.1-0.7,1.7-0.3l5.4,3.6C521.3,163.5,521.5,164.2,521.1,164.8z"/>
</g>
<g opacity="0.45">
	<path fill="#515251" d="M548.5,64.9l1.3-1.6l1.9-2.5c0,0,2.4-3.5,3.6-6.8c0,0,2.4-6.5-2-11.2c0,0-5.5-5.5-12.5,0.3
		c0,0-2.1,1.8-4.1,4.7c0,0-0.7,1.2-1.7,1.4c0,0-1.1,0.3-2.7-1c0,0-3.4-3.9-9.1-4.9c0,0-6.4-1.1-8.9,5.9c0,0-2,6.7,3.1,11.5
		c0,0,3.7,4,9.8,8.5l5.2,3.8l-2.6,3.3c0,0-11.8-8.6-14.9-11.6c-3.4-3.5-5.7-8.3-5.5-14c0.1-6.8,6.1-12.3,14-11.6c0,0,4.1-0.3,9.8,4
		c0,0,0.9,0.7,1.8-0.3c0,0,5.7-8,14.6-6.6c0,0,8.6,0.8,10.3,9.8c0,0,1.9,5.3-1.7,12.3c0,0-2.2,4.5-4.7,7L548.5,64.9z"/>
	<polygon fill="#515251" points="534,74.1 538.3,76.8 547.5,66.7 552.4,67.1 538.9,82.3 531.4,77.4 	"/>
	<path fill="#515251" d="M539.2,84.9l-2.9-2.1l5.6,46.7c0,0.3,0.3,0.5,0.6,0.5l3.9-0.5c0.3,0,0.5-0.3,0.4-0.6l-5.5-46.4L539.2,84.9z
		"/>
	<path fill="#515251" d="M549.1,124.8l-2.7,0.3c-0.3,0-0.6-0.2-0.6-0.5l-0.1-0.6c0-0.3,0.2-0.6,0.5-0.6l2.7-0.3
		c0.3,0,0.6,0.2,0.6,0.5l0.1,0.6C549.7,124.5,549.4,124.8,549.1,124.8z"/>
	<path fill="#515251" d="M550.1,127.4l0.7-0.1c0.3,0,0.5-0.3,0.5-0.6l-0.7-5.9c0-0.3-0.3-0.5-0.6-0.5l-0.7,0.1
		c-0.3,0-0.5,0.3-0.5,0.6l0.7,5.9C549.5,127.2,549.8,127.4,550.1,127.4z"/>
	<path fill="#515251" d="M545.4,131.8l-1.5,0.2c-1,0.1-1.8-0.6-1.9-1.5l-1.1-9.5c-0.1-1,0.6-1.8,1.5-1.9l1.5-0.2
		c1-0.1,1.8,0.6,1.9,1.5l1.1,9.5C547,130.8,546.3,131.7,545.4,131.8z"/>
</g>
<g opacity="0.5">
	<path fill="#515251" d="M529.1,236.8l0.7,0.8l1.1,1.2c0,0,1.6,1.5,3.2,2.4c0,0,3.1,1.8,5.9,0c0,0,3.3-2.3,1-6.4c0,0-0.7-1.2-2-2.5
		c0,0-0.6-0.5-0.6-1c0,0-0.1-0.6,0.8-1.3c0,0,2.3-1.4,3.3-4.2c0,0,1.1-3.1-2.2-5.1c0,0-3.3-1.6-6.1,0.6c0,0-2.4,1.6-5.2,4.2
		l-2.4,2.3l-1.4-1.6c0,0,5.4-5.2,7.2-6.6c2.1-1.4,4.7-2.2,7.6-1.5c3.5,0.6,5.7,4.2,4.7,8.1c0,0-0.2,2.1-2.9,4.6c0,0-0.5,0.4,0,0.9
		c0,0,3.6,3.6,2.1,8c0,0-1.1,4.3-5.9,4.4c0,0-2.9,0.5-6.1-1.9c0,0-2.1-1.5-3.1-3L529.1,236.8z"/>
	<polygon fill="#515251" points="525.8,228.5 524,230.5 528.3,236.1 527.7,238.6 521.1,230.3 524.3,226.9 	"/>
	<path fill="#515251" d="M519.8,230.3l1.3-1.3l-24.3-1.3c-0.2,0-0.3,0.1-0.3,0.2l-0.1,2.1c0,0.1,0.1,0.3,0.3,0.3l24.1,1.3
		L519.8,230.3z"/>
	<path fill="#515251" d="M498.6,231.8l0.1-1.4c0-0.2,0.2-0.3,0.3-0.3l0.3,0c0.2,0,0.3,0.2,0.3,0.3l-0.1,1.4c0,0.2-0.2,0.3-0.3,0.3
		l-0.3,0C498.7,232.1,498.6,232,498.6,231.8z"/>
	<path fill="#515251" d="M497.2,232.1l0,0.4c0,0.2,0.1,0.3,0.3,0.3l3,0.2c0.2,0,0.3-0.1,0.3-0.3l0-0.4c0-0.2-0.1-0.3-0.3-0.3l-3-0.2
		C497.3,231.8,497.2,231.9,497.2,232.1z"/>
	<path fill="#515251" d="M495.3,229.3l0-0.8c0-0.5,0.5-0.9,1-0.9l4.9,0.3c0.5,0,0.9,0.5,0.9,1l0,0.8c0,0.5-0.5,0.9-1,0.9l-4.9-0.3
		C495.7,230.2,495.3,229.8,495.3,229.3z"/>
</g>
<g>
	<path fill="#515251" d="M644.1,374c0.1,2.4-1,5.5-1,5.5c-1.5,5-4.9,6.7-4.9,6.7c-5,3.5-9.5-0.1-9.5-0.1c-4.9-3.4-3.9-9.9-3.9-9.9
		c0.1-0.9-0.7-0.9-0.7-0.9c-4.7-0.5-6.6-2.6-6.6-2.6c-4.1-3.3-4.4-8.8-1.3-12.1c2.5-2.8,5.8-4.1,9.1-4.2c2.9,0,12.6,1.3,12.6,1.3
		l-0.3,2.8l-4.2-0.6c-5-0.7-8.6-0.5-8.6-0.5c-4.7-0.1-6.8,4.1-6.8,4.1c-2.1,4.5,1.5,7,1.5,7c3.2,2.2,6.6,1.9,6.6,1.9
		c1.4,0.1,1.8,0.7,1.8,0.7c0.4,0.5,0.2,1.4,0.2,1.4c-0.4,2.3-0.2,4.2-0.2,4.2c0.7,6.1,5.9,5.9,5.9,5.9c4.3-0.2,6.1-4.5,6.1-4.5
		c1-2.2,1.4-4.9,1.4-4.9l0.2-2.1l0.1-1.4L644.1,374z"/>
	<polygon fill="#515251" points="639.2,357.9 645.1,359 644.5,372.6 641.9,370.5 642.2,361.4 638.8,360.7 	"/>
	<path fill="#515251" d="M646.3,360l24.2-19.7c0.2-0.1,0.2-0.3,0.1-0.5l-1.7-2.1c-0.1-0.1-0.3-0.2-0.5,0l-24.4,19.8l2.4,0.4
		L646.3,360z"/>
	<path fill="#515251" d="M669.6,343.9l-0.3,0.2c-0.2,0.1-0.4,0.1-0.5-0.1l-1.1-1.4c-0.1-0.2-0.1-0.4,0.1-0.5l0.3-0.2
		c0.2-0.1,0.4-0.1,0.5,0.1l1.1,1.4C669.8,343.5,669.8,343.8,669.6,343.9z"/>
	<path fill="#515251" d="M670.8,342.5l-3.1,2.5c-0.2,0.1-0.2,0.4-0.1,0.5l0.3,0.4c0.1,0.2,0.4,0.2,0.5,0.1l3.1-2.5
		c0.2-0.1,0.2-0.4,0.1-0.5l-0.3-0.4C671.2,342.4,671,342.4,670.8,342.5z"/>
	<path fill="#515251" d="M671,339.9l-4.9,4c-0.5,0.4-1.2,0.3-1.6-0.2l-0.6-0.8c-0.4-0.5-0.3-1.2,0.2-1.6l4.9-4
		c0.5-0.4,1.2-0.3,1.6,0.2l0.6,0.8C671.6,338.8,671.5,339.5,671,339.9z"/>
</g>
<g opacity="0.55">
	<path fill="#515251" d="M671.5,255.3c-1.7,1.7-4.6,3.2-4.6,3.2c-4.7,2.4-8.2,1.1-8.2,1.1c-6-1.2-6.5-6.9-6.5-6.9
		c-0.9-5.9,4.4-9.7,4.4-9.7c0.7-0.6,0.2-1.2,0.2-1.2c-2.9-3.8-2.7-6.5-2.7-6.5c-0.5-5.3,3.2-9.3,7.8-9.3c3.8-0.2,7,1.3,9.4,3.7
		c2,2.1,7.8,10,7.8,10l-2.2,1.8l-2.5-3.4c-3-4.1-5.7-6.6-5.7-6.6c-3.2-3.4-7.7-2.1-7.7-2.1c-4.7,1.7-4,5.9-4,5.9
		c0.7,3.8,3.2,6,3.2,6c0.9,1,0.7,1.8,0.7,1.8c-0.1,0.7-0.9,1.1-0.9,1.1c-1.9,1.3-3.1,2.7-3.1,2.7c-3.9,4.7-0.2,8.4-0.2,8.4
		c3.1,2.9,7.5,1.3,7.5,1.3c2.2-0.8,4.6-2.4,4.6-2.4l1.7-1.3l1.1-0.9L671.5,255.3z"/>
	<polygon fill="#515251" points="679.6,240.5 682.9,245.5 672.8,254.6 672.5,251.3 679.3,245.1 677.4,242.2 	"/>
	<path fill="#515251" d="M683.1,247.1l31,3.7c0.2,0,0.4-0.1,0.4-0.3l0.3-2.6c0-0.2-0.1-0.3-0.3-0.4l-31.2-3.7l1.4,2L683.1,247.1z"/>
	<path fill="#515251" d="M710.9,252.7l-0.4,0c-0.2,0-0.4-0.2-0.3-0.4l0.2-1.8c0-0.2,0.2-0.4,0.4-0.3l0.4,0c0.2,0,0.4,0.2,0.3,0.4
		l-0.2,1.8C711.3,252.6,711.1,252.7,710.9,252.7z"/>
	<path fill="#515251" d="M712.7,252.6l-3.9-0.5c-0.2,0-0.4,0.1-0.4,0.3l-0.1,0.5c0,0.2,0.1,0.4,0.3,0.4l3.9,0.5
		c0.2,0,0.4-0.1,0.4-0.3l0.1-0.5C713,252.8,712.9,252.6,712.7,252.6z"/>
	<path fill="#515251" d="M714.7,250.9l-6.3-0.8c-0.6-0.1-1.1-0.7-1-1.3l0.1-1c0.1-0.6,0.7-1.1,1.3-1l6.3,0.8c0.6,0.1,1.1,0.7,1,1.3
		l-0.1,1C715.9,250.5,715.3,251,714.7,250.9z"/>
</g>
<g opacity="0.34">
	<path fill="#515251" d="M748.5,342.7c2.6,2.5,4.8,7.1,4.8,7.1c3.7,7.1,1.7,12.6,1.7,12.6c-1.8,9.2-10.5,10-10.5,10
		c-9,1.5-14.9-6.7-14.9-6.7c-0.9-1-1.8-0.3-1.8-0.3c-5.8,4.5-10,4.1-10,4.1c-8.1,0.7-14.2-4.9-14.3-11.9c-0.2-5.8,2.1-10.7,5.6-14.3
		c3.2-3.1,15.3-11.9,15.3-11.9l2.7,3.4l-5.3,3.9c-6.2,4.6-10,8.7-10,8.7c-5.2,4.9-3.2,11.8-3.2,11.8c2.6,7.2,9.1,6.1,9.1,6.1
		c5.8-1,9.3-5,9.3-5c1.5-1.4,2.7-1.1,2.7-1.1c1,0.2,1.7,1.4,1.7,1.4c2,2.9,4.2,4.8,4.2,4.8c7.2,5.9,12.8,0.3,12.8,0.3
		c4.5-4.8,2-11.4,2-11.4c-1.2-3.4-3.7-7-3.7-7l-2-2.6l-1.3-1.7L748.5,342.7z"/>
	<polygon fill="#515251" points="725.9,330.3 733.6,325.3 747.4,340.8 742.4,341.2 733,330.9 728.6,333.7 	"/>
	<path fill="#515251" d="M736,325l5.7-47.4c0-0.3-0.2-0.6-0.4-0.6l-4-0.5c-0.3,0-0.5,0.2-0.6,0.5l-5.7,47.7l3-2.1L736,325z"/>
	<path fill="#515251" d="M744.6,282.5l-0.1,0.6c0,0.3-0.3,0.6-0.7,0.5l-2.8-0.3c-0.3,0-0.6-0.3-0.5-0.7l0.1-0.6
		c0-0.3,0.3-0.6,0.7-0.5l2.8,0.3C744.4,281.9,744.6,282.2,744.6,282.5z"/>
	<path fill="#515251" d="M744.4,279.8l-0.7,6c0,0.3,0.2,0.6,0.5,0.7l0.7,0.1c0.3,0,0.6-0.2,0.7-0.5l0.7-6c0-0.3-0.2-0.6-0.5-0.7
		l-0.7-0.1C744.8,279.2,744.5,279.4,744.4,279.8z"/>
	<path fill="#515251" d="M741.8,276.7l-1.2,9.7c-0.1,1-1,1.7-2,1.6l-1.5-0.2c-1-0.1-1.7-1-1.6-2l1.2-9.7c0.1-1,1-1.7,2-1.6l1.5,0.2
		C741.2,274.8,741.9,275.7,741.8,276.7z"/>
</g>
<g>
	<path fill="#515251" d="M702.3,298.4c0-1.5,0.7-3.5,0.7-3.5c1-3.1,3.2-4.2,3.2-4.2c3.2-2.2,6,0.2,6,0.2c3,2.2,2.4,6.3,2.4,6.3
		c0,0.6,0.4,0.6,0.4,0.6c3,0.4,4.1,1.7,4.1,1.7c2.5,2.1,2.7,5.6,0.7,7.6c-1.6,1.8-3.7,2.5-5.8,2.5c-1.8,0-7.9-1-7.9-1l0.2-1.8
		l2.6,0.4c3.1,0.5,5.4,0.4,5.4,0.4c2.9,0.1,4.3-2.5,4.3-2.5c1.3-2.8-0.9-4.4-0.9-4.4c-2-1.4-4.1-1.2-4.1-1.2c-0.8,0-1.1-0.5-1.1-0.5
		c-0.2-0.3-0.1-0.9-0.1-0.9c0.3-1.4,0.2-2.6,0.2-2.6c-0.4-3.8-3.6-3.8-3.6-3.8c-2.7,0.1-3.9,2.7-3.9,2.7c-0.6,1.4-1,3.1-1,3.1
		L704,299l-0.1,0.9L702.3,298.4z"/>
	<polygon fill="#515251" points="705.2,308.6 701.5,307.8 702.1,299.3 703.6,300.6 703.4,306.4 705.5,306.8 	"/>
	<path fill="#515251" d="M700.8,307.2l-15.4,12.1c-0.1,0.1-0.1,0.2,0,0.3l1,1.3c0.1,0.1,0.2,0.1,0.3,0l15.5-12.2l-1.5-0.3
		L700.8,307.2z"/>
	<path fill="#515251" d="M686,317l0.2-0.2c0.1-0.1,0.3-0.1,0.3,0l0.7,0.9c0.1,0.1,0.1,0.3,0,0.3l-0.2,0.2c-0.1,0.1-0.3,0.1-0.3,0
		l-0.7-0.9C685.8,317.3,685.9,317.1,686,317z"/>
	<path fill="#515251" d="M685.2,317.9l1.9-1.5c0.1-0.1,0.1-0.2,0-0.3l-0.2-0.2c-0.1-0.1-0.2-0.1-0.3,0l-1.9,1.5
		c-0.1,0.1-0.1,0.2,0,0.3l0.2,0.2C684.9,318,685.1,318,685.2,317.9z"/>
	<path fill="#515251" d="M685.1,319.5l3.1-2.5c0.3-0.3,0.8-0.2,1,0.1l0.4,0.5c0.3,0.3,0.2,0.8-0.1,1l-3.1,2.5
		c-0.3,0.3-0.8,0.2-1-0.1l-0.4-0.5C684.7,320.3,684.8,319.8,685.1,319.5z"/>
</g>
<g>
	<path fill="#515251" d="M640.8,322.7c0.9-0.2,2.1,0,2.1,0c2,0.3,2.8,1.4,2.8,1.4c1.6,1.7,0.5,3.6,0.5,3.6c-1,2.1-3.5,2.1-3.5,2.1
		c-0.3,0-0.3,0.3-0.3,0.3c0.1,1.8-0.6,2.6-0.6,2.6c-1,1.8-3,2.2-4.5,1.2c-1.2-0.8-1.9-2-2.1-3.2c-0.2-1.1-0.3-4.8-0.3-4.8l1.1-0.1
		l0,1.6c0.1,1.9,0.3,3.3,0.3,3.3c0.3,1.8,2,2.3,2,2.3c1.8,0.5,2.5-1,2.5-1c0.6-1.3,0.3-2.6,0.3-2.6c-0.1-0.5,0.2-0.7,0.2-0.7
		c0.2-0.2,0.5-0.2,0.5-0.2c0.9,0,1.6-0.2,1.6-0.2c2.2-0.6,1.9-2.6,1.9-2.6c-0.3-1.6-2.1-2-2.1-2c-0.9-0.2-2-0.2-2-0.2l-0.8,0l-0.5,0
		L640.8,322.7z"/>
	<polygon fill="#515251" points="635,325.5 635.1,323.2 640.3,322.6 639.6,323.7 636.2,324.1 636.1,325.5 	"/>
	<path fill="#515251" d="M635.4,322.7l-8.9-7.9c-0.1,0-0.1,0-0.2,0l-0.7,0.8c0,0.1,0,0.1,0,0.2l9,8l0-0.9L635.4,322.7z"/>
	<path fill="#515251" d="M627.9,314.9l0.1,0.1c0.1,0.1,0.1,0.1,0,0.2l-0.5,0.5c-0.1,0.1-0.1,0.1-0.2,0l-0.1-0.1
		c-0.1-0.1-0.1-0.1,0-0.2l0.5-0.5C627.7,314.8,627.8,314.8,627.9,314.9z"/>
	<path fill="#515251" d="M627.3,314.5l1.1,1c0.1,0.1,0.2,0,0.2,0l0.1-0.1c0.1-0.1,0-0.2,0-0.2l-1.1-1c-0.1-0.1-0.2,0-0.2,0l-0.1,0.1
		C627.2,314.3,627.2,314.4,627.3,314.5z"/>
	<path fill="#515251" d="M626.3,314.6l1.8,1.6c0.2,0.2,0.2,0.4,0,0.6l-0.2,0.3c-0.2,0.2-0.4,0.2-0.6,0l-1.8-1.6
		c-0.2-0.2-0.2-0.4,0-0.6l0.2-0.3C625.8,314.4,626.1,314.4,626.3,314.6z"/>
</g>
<g>
	<path fill="#515251" d="M1028.8,183.9c-1.9,0-4.4-0.8-4.4-0.8c-4-1.3-5.2-4-5.2-4c-2.7-4,0.2-7.5,0.2-7.5c2.8-3.8,7.9-3,7.9-3
		c0.7,0.1,0.8-0.6,0.8-0.6c0.5-3.7,2.1-5.2,2.1-5.2c2.7-3.2,7-3.4,9.6-0.9c2.2,2,3.2,4.7,3.2,7.3c-0.1,2.3-1.2,9.9-1.2,9.9l-2.2-0.2
		l0.5-3.3c0.6-4,0.5-6.8,0.5-6.8c0.1-3.7-3.1-5.5-3.1-5.5c-3.6-1.7-5.5,1.1-5.5,1.1c-1.7,2.5-1.6,5.2-1.6,5.2
		c-0.1,1.1-0.6,1.4-0.6,1.4c-0.4,0.3-1.1,0.1-1.1,0.1c-1.8-0.3-3.3-0.2-3.3-0.2c-4.8,0.5-4.8,4.6-4.8,4.6c0.1,3.4,3.4,4.9,3.4,4.9
		c1.7,0.8,3.9,1.2,3.9,1.2l1.7,0.2l1.1,0.1L1028.8,183.9z"/>
	<polygon fill="#515251" points="1041.6,180.2 1040.6,184.9 1029.9,184.2 1031.6,182.2 1038.8,182.6 1039.4,179.9 	"/>
	<path fill="#515251" d="M1039.8,185.8l15.3,19.4c0.1,0.1,0.3,0.1,0.4,0.1l1.6-1.3c0.1-0.1,0.1-0.3,0-0.4l-15.4-19.5l-0.3,1.9
		L1039.8,185.8z"/>
	<path fill="#515251" d="M1052.2,204.5l-0.2-0.2c-0.1-0.1-0.1-0.3,0.1-0.4l1.1-0.9c0.1-0.1,0.3-0.1,0.4,0.1l0.2,0.2
		c0.1,0.1,0.1,0.3-0.1,0.4l-1.1,0.9C1052.5,204.6,1052.3,204.6,1052.2,204.5z"/>
	<path fill="#515251" d="M1053.3,205.4l-1.9-2.5c-0.1-0.1-0.3-0.2-0.4-0.1l-0.3,0.2c-0.1,0.1-0.2,0.3-0.1,0.4l1.9,2.5
		c0.1,0.1,0.3,0.2,0.4,0.1l0.3-0.2C1053.4,205.8,1053.4,205.6,1053.3,205.4z"/>
	<path fill="#515251" d="M1055.4,205.6l-3.1-4c-0.3-0.4-0.2-1,0.2-1.3l0.6-0.5c0.4-0.3,1-0.2,1.3,0.2l3.1,4c0.3,0.4,0.2,1-0.2,1.3
		l-0.6,0.5C1056.3,206.1,1055.7,206,1055.4,205.6z"/>
</g>
<g>
	<path fill="#515251" d="M592,241.7c0-1.5,0.7-3.5,0.7-3.5c1-3.1,3.2-4.2,3.2-4.2c3.2-2.2,6,0.2,6,0.2c3,2.2,2.4,6.3,2.4,6.3
		c0,0.6,0.4,0.6,0.4,0.6c3,0.4,4.1,1.7,4.1,1.7c2.5,2.1,2.7,5.6,0.7,7.6c-1.6,1.8-3.7,2.5-5.8,2.5c-1.8,0-7.9-1-7.9-1l0.2-1.8
		l2.6,0.4c3.1,0.5,5.4,0.4,5.4,0.4c2.9,0.1,4.3-2.5,4.3-2.5c1.3-2.8-0.9-4.4-0.9-4.4c-2-1.4-4.1-1.2-4.1-1.2c-0.8,0-1.1-0.5-1.1-0.5
		c-0.2-0.3-0.1-0.9-0.1-0.9c0.3-1.4,0.2-2.6,0.2-2.6c-0.4-3.8-3.6-3.8-3.6-3.8c-2.7,0.1-3.9,2.7-3.9,2.7c-0.6,1.4-1,3.1-1,3.1
		l-0.2,1.3l-0.1,0.9L592,241.7z"/>
	<polygon fill="#515251" points="594.9,251.8 591.2,251.1 591.7,242.5 593.3,243.9 593.1,249.6 595.2,250.1 	"/>
	<path fill="#515251" d="M590.5,250.4l-15.4,12.1c-0.1,0.1-0.1,0.2,0,0.3l1,1.3c0.1,0.1,0.2,0.1,0.3,0l15.5-12.2l-1.5-0.3
		L590.5,250.4z"/>
	<path fill="#515251" d="M575.7,260.3l0.2-0.2c0.1-0.1,0.3-0.1,0.3,0l0.7,0.9c0.1,0.1,0.1,0.3,0,0.3l-0.2,0.2
		c-0.1,0.1-0.3,0.1-0.3,0l-0.7-0.9C575.5,260.5,575.5,260.4,575.7,260.3z"/>
	<path fill="#515251" d="M574.9,261.2l1.9-1.5c0.1-0.1,0.1-0.2,0-0.3l-0.2-0.2c-0.1-0.1-0.2-0.1-0.3,0l-1.9,1.5
		c-0.1,0.1-0.1,0.2,0,0.3l0.2,0.2C574.6,261.2,574.8,261.2,574.9,261.2z"/>
	<path fill="#515251" d="M574.8,262.8l3.1-2.5c0.3-0.3,0.8-0.2,1,0.1l0.4,0.5c0.3,0.3,0.2,0.8-0.1,1l-3.1,2.5
		c-0.3,0.3-0.8,0.2-1-0.1l-0.4-0.5C574.4,263.5,574.4,263.1,574.8,262.8z"/>
</g>
<g>
	<path fill="#515251" d="M1027.8,107.2c0.9-0.2,2.1,0,2.1,0c2,0.3,2.8,1.4,2.8,1.4c1.6,1.7,0.5,3.6,0.5,3.6c-1,2.1-3.5,2.1-3.5,2.1
		c-0.3,0-0.3,0.3-0.3,0.3c0.1,1.8-0.6,2.6-0.6,2.6c-1,1.8-3,2.2-4.5,1.2c-1.2-0.8-1.9-2-2.1-3.2c-0.2-1.1-0.3-4.8-0.3-4.8l1.1-0.1
		l0,1.6c0.1,1.9,0.3,3.3,0.3,3.3c0.3,1.8,2,2.3,2,2.3c1.8,0.5,2.5-1,2.5-1c0.6-1.3,0.3-2.6,0.3-2.6c-0.1-0.5,0.2-0.7,0.2-0.7
		c0.2-0.2,0.5-0.2,0.5-0.2c0.9,0,1.6-0.2,1.6-0.2c2.2-0.6,1.9-2.6,1.9-2.6c-0.3-1.6-2.1-2-2.1-2c-0.9-0.2-2-0.2-2-0.2l-0.8,0l-0.5,0
		L1027.8,107.2z"/>
	<polygon fill="#515251" points="1022,110 1022.1,107.7 1027.3,107.1 1026.6,108.2 1023.2,108.7 1023.1,110 	"/>
	<path fill="#515251" d="M1022.4,107.2l-8.9-7.9c-0.1,0-0.1,0-0.2,0l-0.7,0.8c0,0.1,0,0.1,0,0.2l9,8l0-0.9L1022.4,107.2z"/>
	<path fill="#515251" d="M1014.9,99.4l0.1,0.1c0.1,0.1,0.1,0.1,0,0.2l-0.5,0.5c-0.1,0.1-0.1,0.1-0.2,0l-0.1-0.1
		c-0.1-0.1-0.1-0.1,0-0.2l0.5-0.5C1014.7,99.3,1014.8,99.3,1014.9,99.4z"/>
	<path fill="#515251" d="M1014.3,99l1.1,1c0.1,0.1,0.2,0,0.2,0l0.1-0.1c0.1-0.1,0-0.2,0-0.2l-1.1-1c-0.1-0.1-0.2,0-0.2,0l-0.1,0.1
		C1014.2,98.9,1014.2,99,1014.3,99z"/>
	<path fill="#515251" d="M1013.3,99.1l1.8,1.6c0.2,0.2,0.2,0.4,0,0.6l-0.2,0.3c-0.2,0.2-0.4,0.2-0.6,0l-1.8-1.6
		c-0.2-0.2-0.2-0.4,0-0.6l0.2-0.3C1012.8,99,1013.1,99,1013.3,99.1z"/>
</g>
<g opacity="0.4">
	<path fill="#515251" d="M692.3,173.2c-1.3,0.6-3.4,0.9-3.4,0.9c-3.3,0.4-5.1-1.1-5.1-1.1c-3.3-2-2.3-5.5-2.3-5.5
		c0.7-3.7,4.7-4.8,4.7-4.8c0.5-0.2,0.4-0.7,0.4-0.7c-0.9-2.9-0.2-4.4-0.2-4.4c0.9-3.2,3.9-4.8,6.6-3.8c2.3,0.7,3.8,2.3,4.7,4.2
		c0.7,1.7,2.4,7.6,2.4,7.6l-1.7,0.6l-0.7-2.6c-0.9-3-1.9-5.1-1.9-5.1c-1.1-2.7-4.1-2.9-4.1-2.9c-3.1,0-3.6,2.6-3.6,2.6
		c-0.4,2.4,0.6,4.3,0.6,4.3c0.3,0.8,0,1.2,0,1.2c-0.2,0.4-0.8,0.5-0.8,0.5c-1.4,0.3-2.4,0.9-2.4,0.9c-3.3,1.9-1.9,4.9-1.9,4.9
		c1.2,2.4,4.1,2.4,4.1,2.4c1.5,0,3.2-0.4,3.2-0.4l1.3-0.4l0.8-0.3L692.3,173.2z"/>
	<polygon fill="#515251" points="700.3,166.3 701.2,169.9 693.2,173 693.8,171 699.1,168.9 698.6,166.8 	"/>
	<path fill="#515251" d="M700.9,170.9l17.5,8.9c0.1,0.1,0.2,0,0.3-0.1l0.8-1.5c0.1-0.1,0-0.2-0.1-0.3l-17.6-9l0.4,1.5L700.9,170.9z"
		/>
	<path fill="#515251" d="M716.1,180.2l-0.2-0.1c-0.1-0.1-0.2-0.2-0.1-0.3l0.5-1c0.1-0.1,0.2-0.2,0.3-0.1l0.2,0.1
		c0.1,0.1,0.2,0.2,0.1,0.3l-0.5,1C716.3,180.2,716.2,180.3,716.1,180.2z"/>
	<path fill="#515251" d="M717.2,180.6l-2.2-1.1c-0.1-0.1-0.3,0-0.3,0.1l-0.1,0.3c-0.1,0.1,0,0.3,0.1,0.3l2.2,1.1
		c0.1,0.1,0.3,0,0.3-0.1l0.1-0.3C717.3,180.8,717.3,180.6,717.2,180.6z"/>
	<path fill="#515251" d="M718.7,180l-3.6-1.8c-0.4-0.2-0.5-0.6-0.3-1l0.3-0.5c0.2-0.4,0.6-0.5,1-0.3l3.6,1.8c0.4,0.2,0.5,0.6,0.3,1
		l-0.3,0.5C719.5,180,719.1,180.2,718.7,180z"/>
</g>
<g opacity="0.4">
	<path fill="#515251" d="M1128.2,69.9c0.1-2.5,1.4-5.7,1.4-5.7c1.9-5.2,5.6-6.7,5.6-6.7c5.5-3.4,10,0.7,10,0.7
		c4.9,3.9,3.5,10.7,3.5,10.7c-0.1,0.9,0.7,1,0.7,1c4.9,0.9,6.7,3.1,6.7,3.1c4.1,3.8,4.1,9.5,0.6,12.8c-2.8,2.8-6.4,3.9-9.9,3.8
		c-3.1-0.2-13.1-2.2-13.1-2.2l0.5-2.9l4.4,0.9c5.2,1,9,1.1,9,1.1c4.9,0.4,7.4-3.8,7.4-3.8c2.5-4.6-1.1-7.4-1.1-7.4
		c-3.2-2.5-6.8-2.4-6.8-2.4c-1.4-0.1-1.8-0.9-1.8-0.9c-0.4-0.6-0.1-1.5-0.1-1.5c0.6-2.4,0.5-4.3,0.5-4.3c-0.3-6.4-5.8-6.6-5.8-6.6
		c-4.5-0.1-6.7,4.3-6.7,4.3c-1.2,2.2-1.8,5.1-1.8,5.1l-0.4,2.2l-0.2,1.4L1128.2,69.9z"/>
	<polygon fill="#515251" points="1132.4,87.1 1126.3,85.5 1127.8,71.3 1130.3,73.7 1129.4,83.2 1132.9,84.2 	"/>
	<path fill="#515251" d="M1125,84.4l-26.7,19.1c-0.2,0.1-0.2,0.3-0.1,0.5l1.6,2.3c0.1,0.2,0.3,0.2,0.5,0.1l26.9-19.2l-2.5-0.5
		L1125,84.4z"/>
	<path fill="#515251" d="M1099.5,99.7l0.3-0.2c0.2-0.1,0.4-0.1,0.6,0.1l1.1,1.6c0.1,0.2,0.1,0.4-0.1,0.6l-0.3,0.2
		c-0.2,0.1-0.4,0.1-0.6-0.1l-1.1-1.6C1099.2,100.1,1099.3,99.9,1099.5,99.7z"/>
	<path fill="#515251" d="M1098.1,101.1l3.4-2.4c0.2-0.1,0.2-0.4,0.1-0.6l-0.3-0.4c-0.1-0.2-0.4-0.2-0.6-0.1l-3.4,2.4
		c-0.2,0.1-0.2,0.4-0.1,0.6l0.3,0.4C1097.7,101.2,1098,101.2,1098.1,101.1z"/>
	<path fill="#515251" d="M1097.8,103.9l5.4-3.9c0.6-0.4,1.3-0.3,1.7,0.3l0.6,0.8c0.4,0.6,0.3,1.3-0.3,1.7l-5.4,3.9
		c-0.6,0.4-1.3,0.3-1.7-0.3l-0.6-0.8C1097.1,105,1097.2,104.2,1097.8,103.9z"/>
</g>
<g opacity="0.5">
	<path fill="#515251" d="M955,291.2c0,1.9-0.8,4.3-0.8,4.3c-1.2,3.9-3.9,5.2-3.9,5.2c-3.9,2.7-7.4-0.1-7.4-0.1
		c-3.8-2.7-3.1-7.8-3.1-7.8c0-0.7-0.6-0.7-0.6-0.7c-3.7-0.4-5.1-2-5.1-2c-3.2-2.6-3.5-6.9-1-9.5c2-2.2,4.6-3.2,7.2-3.3
		c2.3,0,9.9,1.1,9.9,1.1l-0.2,2.2l-3.3-0.5c-3.9-0.5-6.8-0.4-6.8-0.4c-3.7-0.1-5.4,3.2-5.4,3.2c-1.6,3.6,1.2,5.5,1.2,5.5
		c2.5,1.7,5.2,1.5,5.2,1.5c1.1,0,1.4,0.6,1.4,0.6c0.3,0.4,0.1,1.1,0.1,1.1c-0.3,1.8-0.2,3.3-0.2,3.3c0.5,4.7,4.6,4.7,4.6,4.7
		c3.3-0.2,4.8-3.5,4.8-3.5c0.8-1.7,1.1-3.9,1.1-3.9l0.2-1.7l0.1-1.1L955,291.2z"/>
	<polygon fill="#515251" points="951.1,278.6 955.7,279.5 955.2,290.2 953.2,288.5 953.5,281.3 950.8,280.8 	"/>
	<path fill="#515251" d="M956.7,280.3l19-15.5c0.1-0.1,0.1-0.3,0-0.4l-1.3-1.6c-0.1-0.1-0.3-0.1-0.4,0l-19.1,15.5l1.9,0.3
		L956.7,280.3z"/>
	<path fill="#515251" d="M975,267.7l-0.2,0.2c-0.1,0.1-0.3,0.1-0.4,0l-0.9-1.1c-0.1-0.1-0.1-0.3,0-0.4l0.2-0.2
		c0.1-0.1,0.3-0.1,0.4,0l0.9,1.1C975.1,267.4,975.1,267.5,975,267.7z"/>
	<path fill="#515251" d="M975.9,266.6l-2.4,2c-0.1,0.1-0.2,0.3,0,0.4l0.2,0.3c0.1,0.1,0.3,0.2,0.4,0l2.4-2c0.1-0.1,0.2-0.3,0-0.4
		l-0.2-0.3C976.2,266.5,976,266.5,975.9,266.6z"/>
	<path fill="#515251" d="M976,264.5l-3.9,3.1c-0.4,0.3-1,0.3-1.3-0.1l-0.5-0.6c-0.3-0.4-0.3-1,0.1-1.3l3.9-3.1
		c0.4-0.3,1-0.3,1.3,0.1l0.5,0.6C976.5,263.6,976.4,264.2,976,264.5z"/>
</g>
<g>
	<path fill="#515251" d="M675.8,120.4c0.9-0.2,2.1,0,2.1,0c2,0.3,2.8,1.4,2.8,1.4c1.6,1.7,0.5,3.6,0.5,3.6c-1,2.1-3.5,2.1-3.5,2.1
		c-0.3,0-0.3,0.3-0.3,0.3c0.1,1.8-0.6,2.6-0.6,2.6c-1,1.8-3,2.2-4.5,1.2c-1.2-0.8-1.9-2-2.1-3.2c-0.2-1.1-0.3-4.8-0.3-4.8l1.1-0.1
		l0,1.6c0.1,1.9,0.3,3.3,0.3,3.3c0.3,1.8,2,2.3,2,2.3c1.8,0.5,2.5-1,2.5-1c0.6-1.3,0.3-2.6,0.3-2.6c-0.1-0.5,0.2-0.7,0.2-0.7
		c0.2-0.2,0.5-0.2,0.5-0.2c0.9,0,1.6-0.2,1.6-0.2c2.2-0.6,1.9-2.6,1.9-2.6c-0.3-1.6-2.1-2-2.1-2c-0.9-0.2-2-0.2-2-0.2l-0.8,0l-0.5,0
		L675.8,120.4z"/>
	<polygon fill="#515251" points="670,123.2 670.1,120.9 675.3,120.3 674.6,121.4 671.1,121.9 671.1,123.2 	"/>
	<path fill="#515251" d="M670.4,120.4l-8.9-7.9c-0.1,0-0.1,0-0.2,0l-0.7,0.8c0,0.1,0,0.1,0,0.2l9,8l0-0.9L670.4,120.4z"/>
	<path fill="#515251" d="M662.9,112.6l0.1,0.1c0.1,0.1,0.1,0.1,0,0.2l-0.5,0.5c-0.1,0.1-0.1,0.1-0.2,0l-0.1-0.1
		c-0.1-0.1-0.1-0.1,0-0.2l0.5-0.5C662.7,112.5,662.8,112.5,662.9,112.6z"/>
	<path fill="#515251" d="M662.3,112.2l1.1,1c0.1,0.1,0.2,0,0.2,0l0.1-0.1c0.1-0.1,0-0.2,0-0.2l-1.1-1c-0.1-0.1-0.2,0-0.2,0l-0.1,0.1
		C662.2,112.1,662.2,112.2,662.3,112.2z"/>
	<path fill="#515251" d="M661.3,112.3l1.8,1.6c0.2,0.2,0.2,0.4,0,0.6l-0.2,0.3c-0.2,0.2-0.4,0.2-0.6,0l-1.8-1.6
		c-0.2-0.2-0.2-0.4,0-0.6l0.2-0.3C660.8,112.2,661.1,112.2,661.3,112.3z"/>
</g>
<g opacity="0.54">
	<path fill="#515251" d="M593.9,147.3c-1.9,0-4.4-0.8-4.4-0.8c-4-1.3-5.2-4-5.2-4c-2.7-4,0.2-7.5,0.2-7.5c2.8-3.8,7.9-3,7.9-3
		c0.7,0.1,0.8-0.6,0.8-0.6c0.5-3.7,2.1-5.2,2.1-5.2c2.7-3.2,7-3.4,9.6-0.9c2.2,2,3.2,4.7,3.2,7.3c-0.1,2.3-1.2,9.9-1.2,9.9l-2.2-0.2
		l0.5-3.3c0.6-4,0.5-6.8,0.5-6.8c0.1-3.7-3.1-5.5-3.1-5.5c-3.6-1.7-5.5,1.1-5.5,1.1c-1.7,2.5-1.6,5.2-1.6,5.2
		c-0.1,1.1-0.6,1.4-0.6,1.4c-0.4,0.3-1.1,0.1-1.1,0.1c-1.8-0.3-3.3-0.2-3.3-0.2c-4.8,0.5-4.8,4.6-4.8,4.6c0.1,3.4,3.4,4.9,3.4,4.9
		c1.7,0.8,3.9,1.2,3.9,1.2l1.7,0.2l1.1,0.1L593.9,147.3z"/>
	<polygon fill="#515251" points="606.7,143.6 605.7,148.3 595,147.6 596.7,145.6 603.9,146 604.5,143.3 	"/>
	<path fill="#515251" d="M604.9,149.2l15.3,19.4c0.1,0.1,0.3,0.1,0.4,0.1l1.6-1.3c0.1-0.1,0.1-0.3,0-0.4l-15.4-19.5l-0.3,1.9
		L604.9,149.2z"/>
	<path fill="#515251" d="M617.4,167.9l-0.2-0.2c-0.1-0.1-0.1-0.3,0.1-0.4l1.1-0.9c0.1-0.1,0.3-0.1,0.4,0.1l0.2,0.2
		c0.1,0.1,0.1,0.3-0.1,0.4l-1.1,0.9C617.7,168.1,617.5,168,617.4,167.9z"/>
	<path fill="#515251" d="M618.4,168.9l-1.9-2.5c-0.1-0.1-0.3-0.2-0.4-0.1l-0.3,0.2c-0.1,0.1-0.2,0.3-0.1,0.4l1.9,2.5
		c0.1,0.1,0.3,0.2,0.4,0.1l0.3-0.2C618.5,169.2,618.5,169,618.4,168.9z"/>
	<path fill="#515251" d="M620.5,169l-3.1-4c-0.3-0.4-0.2-1,0.2-1.3l0.6-0.5c0.4-0.3,1-0.2,1.3,0.2l3.1,4c0.3,0.4,0.2,1-0.2,1.3
		l-0.6,0.5C621.4,169.5,620.8,169.4,620.5,169z"/>
</g>
<g>
	<path fill="#515251" d="M725.6,77.8c1-0.8,2.6-1.4,2.6-1.4c2.6-1,4.3-0.1,4.3-0.1c3.1,0.9,3,3.9,3,3.9c0.2,3.1-2.8,4.8-2.8,4.8
		c-0.4,0.3-0.2,0.6-0.2,0.6c1.3,2.1,1,3.5,1,3.5c-0.1,2.8-2.2,4.6-4.5,4.4c-2-0.1-3.6-1.1-4.6-2.4c-0.9-1.2-3.5-5.6-3.5-5.6l1.2-0.8
		l1.1,1.9c1.3,2.3,2.6,3.7,2.6,3.7c1.5,1.9,3.9,1.5,3.9,1.5c2.5-0.6,2.4-2.9,2.4-2.9c-0.1-2-1.3-3.3-1.3-3.3c-0.4-0.6-0.3-1-0.3-1
		c0.1-0.3,0.5-0.5,0.5-0.5c1.1-0.6,1.8-1.2,1.8-1.2c2.3-2.2,0.6-4.3,0.6-4.3c-1.4-1.7-3.8-1.1-3.8-1.1c-1.2,0.3-2.5,1-2.5,1
		l-0.9,0.6l-0.6,0.4L725.6,77.8z"/>
	<polygon fill="#515251" points="720.6,85 719.2,82.2 724.9,78.1 724.9,79.8 721.1,82.6 721.9,84.2 	"/>
	<path fill="#515251" d="M719.2,81.3l-15.9-3.6c-0.1,0-0.2,0-0.2,0.1l-0.3,1.3c0,0.1,0,0.2,0.1,0.2l15.9,3.7l-0.6-1.1L719.2,81.3z"
		/>
	<path fill="#515251" d="M705.1,76.9l0.2,0c0.1,0,0.2,0.1,0.2,0.2l-0.2,0.9c0,0.1-0.1,0.2-0.2,0.2l-0.2,0c-0.1,0-0.2-0.1-0.2-0.2
		l0.2-0.9C704.9,77,705,76.9,705.1,76.9z"/>
	<path fill="#515251" d="M704.2,76.9l2,0.5c0.1,0,0.2,0,0.2-0.2l0.1-0.2c0-0.1,0-0.2-0.2-0.2l-2-0.5c-0.1,0-0.2,0-0.2,0.2l-0.1,0.2
		C704,76.7,704,76.8,704.2,76.9z"/>
	<path fill="#515251" d="M703,77.6l3.2,0.7c0.3,0.1,0.5,0.4,0.5,0.7l-0.1,0.5c-0.1,0.3-0.4,0.5-0.7,0.5l-3.2-0.7
		c-0.3-0.1-0.5-0.4-0.5-0.7l0.1-0.5C702.4,77.8,702.7,77.6,703,77.6z"/>
</g>
<g>
	<path fill="#515251" d="M1037.1,308.8c1.7,0.8,3.6,2.6,3.6,2.6c3,2.8,3,5.8,3,5.8c0.7,4.8-3.4,6.7-3.4,6.7
		c-4.1,2.3-8.4-0.7-8.4-0.7c-0.6-0.3-0.9,0.2-0.9,0.2c-2,3.2-4.1,3.7-4.1,3.7c-3.8,1.7-7.8,0.1-9-3.3c-1.1-2.8-0.9-5.6,0.2-7.9
		c1-2.1,5.4-8.4,5.4-8.4l1.9,1.2l-1.9,2.8c-2.2,3.3-3.4,6-3.4,6c-1.7,3.3,0.5,6.3,0.5,6.3c2.5,3.1,5.5,1.4,5.5,1.4
		c2.6-1.5,3.6-4,3.6-4c0.5-0.9,1.1-1,1.1-1c0.5-0.1,1.1,0.4,1.1,0.4c1.5,1.1,2.9,1.6,2.9,1.6c4.5,1.6,6.3-2.1,6.3-2.1
		c1.4-3.1-1-5.9-1-5.9c-1.2-1.5-3-2.8-3-2.8l-1.4-0.9l-0.9-0.6L1037.1,308.8z"/>
	<polygon fill="#515251" points="1024,306.7 1026.8,302.9 1036.3,308.1 1033.9,309.2 1027.5,305.8 1025.9,307.9 	"/>
	<path fill="#515251" d="M1028,302.4l-5.5-24.1c0-0.2-0.2-0.2-0.3-0.2l-2,0.5c-0.1,0-0.2,0.2-0.2,0.3l5.5,24.2l1.1-1.5L1028,302.4z"
		/>
	<path fill="#515251" d="M1024.8,280.2l0.1,0.3c0,0.2-0.1,0.3-0.2,0.4l-1.4,0.3c-0.2,0-0.3-0.1-0.4-0.2l-0.1-0.3
		c0-0.2,0.1-0.3,0.2-0.4l1.4-0.3C1024.5,279.9,1024.7,280,1024.8,280.2z"/>
	<path fill="#515251" d="M1024.2,278.9l0.7,3c0,0.2,0.2,0.3,0.4,0.2l0.4-0.1c0.2,0,0.3-0.2,0.2-0.4l-0.7-3c0-0.2-0.2-0.3-0.4-0.2
		l-0.4,0.1C1024.3,278.6,1024.2,278.7,1024.2,278.9z"/>
	<path fill="#515251" d="M1022.4,277.8l1.1,4.9c0.1,0.5-0.2,1-0.7,1.1l-0.8,0.2c-0.5,0.1-1-0.2-1.1-0.7l-1.1-4.9
		c-0.1-0.5,0.2-1,0.7-1.1l0.8-0.2C1021.8,277,1022.3,277.3,1022.4,277.8z"/>
</g>
<g>
	<path fill="#515251" d="M681.7,42.5c-1.3,0.6-3.4,0.9-3.4,0.9c-3.3,0.4-5.1-1.1-5.1-1.1c-3.3-2-2.3-5.5-2.3-5.5
		c0.7-3.7,4.7-4.8,4.7-4.8c0.5-0.2,0.4-0.7,0.4-0.7c-0.9-2.9-0.2-4.4-0.2-4.4c0.9-3.2,3.9-4.8,6.6-3.8c2.3,0.7,3.8,2.3,4.7,4.2
		c0.7,1.7,2.4,7.6,2.4,7.6l-1.7,0.6l-0.7-2.6c-0.9-3-1.9-5.1-1.9-5.1c-1.1-2.7-4.1-2.9-4.1-2.9c-3.1,0-3.6,2.6-3.6,2.6
		c-0.4,2.4,0.6,4.3,0.6,4.3c0.3,0.8,0,1.2,0,1.2c-0.2,0.4-0.8,0.5-0.8,0.5c-1.4,0.3-2.4,0.9-2.4,0.9c-3.3,1.9-1.9,4.9-1.9,4.9
		c1.2,2.4,4.1,2.4,4.1,2.4c1.5,0,3.2-0.4,3.2-0.4l1.3-0.4l0.8-0.3L681.7,42.5z"/>
	<polygon fill="#515251" points="689.7,35.6 690.6,39.3 682.6,42.4 683.2,40.4 688.5,38.3 688,36.1 	"/>
	<path fill="#515251" d="M690.3,40.3l17.5,8.9c0.1,0.1,0.2,0,0.3-0.1l0.8-1.5c0.1-0.1,0-0.2-0.1-0.3l-17.6-9l0.4,1.5L690.3,40.3z"/>
	<path fill="#515251" d="M705.5,49.6l-0.2-0.1c-0.1-0.1-0.2-0.2-0.1-0.3l0.5-1c0.1-0.1,0.2-0.2,0.3-0.1l0.2,0.1
		c0.1,0.1,0.2,0.2,0.1,0.3l-0.5,1C705.7,49.6,705.6,49.6,705.5,49.6z"/>
	<path fill="#515251" d="M706.6,49.9l-2.2-1.1c-0.1-0.1-0.3,0-0.3,0.1l-0.1,0.3c-0.1,0.1,0,0.3,0.1,0.3l2.2,1.1
		c0.1,0.1,0.3,0,0.3-0.1l0.1-0.3C706.7,50.1,706.7,50,706.6,49.9z"/>
	<path fill="#515251" d="M708.1,49.4l-3.6-1.8c-0.4-0.2-0.5-0.6-0.3-1l0.3-0.5c0.2-0.4,0.6-0.5,1-0.3l3.6,1.8c0.4,0.2,0.5,0.6,0.3,1
		l-0.3,0.5C708.9,49.4,708.5,49.5,708.1,49.4z"/>
</g>
<g>
	<path fill="#515251" d="M1071.5,31.8c0-1.5,0.7-3.5,0.7-3.5c1-3.1,3.2-4.2,3.2-4.2c3.2-2.2,6,0.2,6,0.2c3,2.2,2.4,6.3,2.4,6.3
		c0,0.6,0.4,0.6,0.4,0.6c3,0.4,4.1,1.7,4.1,1.7c2.5,2.1,2.7,5.6,0.7,7.6c-1.6,1.8-3.7,2.5-5.8,2.5c-1.8,0-7.9-1-7.9-1l0.2-1.8
		l2.6,0.4c3.1,0.5,5.4,0.4,5.4,0.4c2.9,0.1,4.3-2.5,4.3-2.5c1.3-2.8-0.9-4.4-0.9-4.4c-2-1.4-4.1-1.2-4.1-1.2c-0.8,0-1.1-0.5-1.1-0.5
		c-0.2-0.3-0.1-0.9-0.1-0.9c0.3-1.4,0.2-2.6,0.2-2.6c-0.4-3.8-3.6-3.8-3.6-3.8c-2.7,0.1-3.9,2.7-3.9,2.7c-0.6,1.4-1,3.1-1,3.1
		l-0.2,1.3l-0.1,0.9L1071.5,31.8z"/>
	<polygon fill="#515251" points="1074.4,42 1070.7,41.2 1071.2,32.7 1072.8,34 1072.5,39.8 1074.6,40.2 	"/>
	<path fill="#515251" d="M1070,40.6l-15.4,12.1c-0.1,0.1-0.1,0.2,0,0.3l1,1.3c0.1,0.1,0.2,0.1,0.3,0l15.5-12.2l-1.5-0.3L1070,40.6z"
		/>
	<path fill="#515251" d="M1055.1,50.4l0.2-0.2c0.1-0.1,0.3-0.1,0.3,0l0.7,0.9c0.1,0.1,0.1,0.3,0,0.3l-0.2,0.2
		c-0.1,0.1-0.3,0.1-0.3,0l-0.7-0.9C1055,50.7,1055,50.5,1055.1,50.4z"/>
	<path fill="#515251" d="M1054.4,51.3l1.9-1.5c0.1-0.1,0.1-0.2,0-0.3l-0.2-0.2c-0.1-0.1-0.2-0.1-0.3,0l-1.9,1.5
		c-0.1,0.1-0.1,0.2,0,0.3l0.2,0.2C1054.1,51.4,1054.3,51.4,1054.4,51.3z"/>
	<path fill="#515251" d="M1054.3,52.9l3.1-2.5c0.3-0.3,0.8-0.2,1,0.1l0.4,0.5c0.3,0.3,0.2,0.8-0.1,1l-3.1,2.5
		c-0.3,0.3-0.8,0.2-1-0.1l-0.4-0.5C1053.9,53.7,1053.9,53.2,1054.3,52.9z"/>
</g>
<g opacity="0.8">
	<path fill="#515251" d="M835.7,41c-2.3,0.4-5.6-0.1-5.6-0.1c-5.2-0.7-7.4-3.8-7.4-3.8c-4.2-4.4-1.3-9.4-1.3-9.4
		c2.6-5.4,9.2-5.4,9.2-5.4c0.9-0.1,0.8-0.9,0.8-0.9c-0.2-4.8,1.6-6.9,1.6-6.9c2.7-4.6,8-5.7,11.7-3.1c3.2,2.1,4.9,5.2,5.5,8.4
		c0.4,2.9,0.6,12.6,0.6,12.6l-2.8,0.2l-0.1-4.3c-0.1-5.1-0.8-8.6-0.8-8.6c-0.6-4.6-5.1-6.1-5.1-6.1c-4.8-1.3-6.7,2.5-6.7,2.5
		c-1.6,3.5-0.8,6.8-0.8,6.8c0.2,1.3-0.5,1.8-0.5,1.8c-0.5,0.5-1.4,0.4-1.4,0.4c-2.3,0-4.1,0.4-4.1,0.4c-5.9,1.6-5,6.7-5,6.7
		c0.8,4.2,5.3,5.4,5.3,5.4c2.3,0.6,5.1,0.7,5.1,0.7l2.1-0.1l1.4-0.1L835.7,41z"/>
	<polygon fill="#515251" points="850.8,33.7 850.6,39.7 837.1,41.2 838.8,38.3 847.9,37.2 848,33.8 	"/>
	<path fill="#515251" d="M849.8,41.1L873,62c0.1,0.1,0.4,0.1,0.5,0l1.8-2c0.1-0.1,0.1-0.4,0-0.5l-23.3-21.1l0,2.4L849.8,41.1z"/>
	<path fill="#515251" d="M869.3,61.7l-0.3-0.3c-0.2-0.1-0.2-0.4,0-0.6l1.2-1.3c0.1-0.2,0.4-0.2,0.6,0l0.3,0.3c0.2,0.1,0.2,0.4,0,0.6
		l-1.2,1.3C869.7,61.8,869.4,61.8,869.3,61.7z"/>
	<path fill="#515251" d="M870.8,62.6l-2.9-2.6c-0.2-0.1-0.4-0.1-0.6,0l-0.3,0.4c-0.1,0.2-0.1,0.4,0,0.6l2.9,2.6
		c0.2,0.1,0.4,0.1,0.6,0l0.3-0.4C871,63,871,62.8,870.8,62.6z"/>
	<path fill="#515251" d="M873.4,62.4l-4.7-4.3c-0.5-0.4-0.5-1.2-0.1-1.7l0.7-0.7c0.4-0.5,1.2-0.5,1.7-0.1l4.7,4.3
		c0.5,0.4,0.5,1.2,0.1,1.7l-0.7,0.7C874.7,62.8,873.9,62.8,873.4,62.4z"/>
</g>
<g opacity="0.2">
	<path fill="#515251" d="M611.6,21.4c-1.1-1.5-1.7-4.1-1.7-4.1c-1.1-4,0.4-6.6,0.4-6.6c1.8-4.5,6.4-4,6.4-4c4.7,0.2,6.9,4.9,6.9,4.9
		c0.3,0.6,0.9,0.3,0.9,0.3c3.4-1.7,5.5-1.1,5.5-1.1c4.2,0.5,6.7,3.9,6,7.5c-0.5,3-2.1,5.2-4.3,6.7c-1.9,1.2-8.9,4.5-8.9,4.5l-1-2
		l3.1-1.4c3.6-1.7,6-3.4,6-3.4c3.1-1.9,2.8-5.6,2.8-5.6c-0.6-3.9-4-4-4-4c-3-0.1-5.2,1.6-5.2,1.6c-0.9,0.5-1.5,0.3-1.5,0.3
		c-0.5-0.2-0.7-0.9-0.7-0.9c-0.7-1.7-1.6-2.9-1.6-2.9c-3-3.7-6.5-1.4-6.5-1.4c-2.8,2-2.2,5.6-2.2,5.6c0.3,1.9,1.2,3.9,1.2,3.9
		l0.7,1.5l0.5,1L611.6,21.4z"/>
	<polygon fill="#515251" points="621.8,30 617.4,31.8 612,22.5 614.6,22.8 618.3,29 620.8,28 	"/>
	<path fill="#515251" d="M616.1,31.6l-7.7,23.5c0,0.1,0,0.3,0.2,0.3l2,0.7c0.1,0,0.3,0,0.3-0.2l7.8-23.6l-1.7,0.8L616.1,31.6z"/>
	<path fill="#515251" d="M607.5,52.3l0.1-0.3c0.1-0.2,0.2-0.2,0.4-0.2l1.4,0.4c0.2,0.1,0.2,0.2,0.2,0.4l-0.1,0.3
		c-0.1,0.2-0.2,0.2-0.4,0.2l-1.4-0.4C607.5,52.7,607.4,52.5,607.5,52.3z"/>
	<path fill="#515251" d="M607.3,53.7l1-3c0.1-0.2,0-0.3-0.2-0.4l-0.4-0.1c-0.2-0.1-0.3,0-0.4,0.2l-1,3c-0.1,0.2,0,0.3,0.2,0.4
		l0.4,0.1C607,54,607.2,53.9,607.3,53.7z"/>
	<path fill="#515251" d="M608.3,55.6l1.6-4.8c0.2-0.5,0.7-0.7,1.2-0.6l0.7,0.2c0.5,0.2,0.7,0.7,0.6,1.2l-1.6,4.8
		c-0.2,0.5-0.7,0.7-1.2,0.6l-0.7-0.2C608.4,56.6,608.1,56,608.3,55.6z"/>
</g>
<g opacity="0.8">
	<path fill="#515251" d="M794.3,258.6c2.1,0.3,4.7,1.6,4.7,1.6c4.2,2,5.2,5.2,5.2,5.2c2.4,4.8-1.3,8.2-1.3,8.2
		c-3.6,3.8-9.1,2.1-9.1,2.1c-0.8-0.2-0.9,0.5-0.9,0.5c-1.1,4-3.1,5.4-3.1,5.4c-3.4,3.1-8.2,2.7-10.7-0.4c-2.1-2.6-2.8-5.6-2.4-8.5
		c0.4-2.5,2.8-10.7,2.8-10.7l2.4,0.6l-1.1,3.6c-1.2,4.3-1.6,7.5-1.6,7.5c-0.7,4,2.7,6.5,2.7,6.5c3.7,2.4,6.3-0.4,6.3-0.4
		c2.3-2.5,2.5-5.5,2.5-5.5c0.2-1.2,0.9-1.4,0.9-1.4c0.5-0.3,1.3,0,1.3,0c1.9,0.6,3.6,0.7,3.6,0.7c5.3,0.2,5.9-4.3,5.9-4.3
		c0.4-3.7-3.1-5.9-3.1-5.9c-1.8-1.1-4.1-1.9-4.1-1.9l-1.8-0.5l-1.2-0.3L794.3,258.6z"/>
	<polygon fill="#515251" points="779.7,260.8 781.5,255.8 793.2,258.1 791,260.1 783.1,258.6 782.1,261.4 	"/>
	<path fill="#515251" d="M782.5,254.9l-13.9-23.6c-0.1-0.1-0.3-0.2-0.4-0.1l-2,1.2c-0.1,0.1-0.2,0.3-0.1,0.4l14,23.8l0.6-2
		L782.5,254.9z"/>
	<path fill="#515251" d="M771.6,232.5l0.2,0.3c0.1,0.2,0,0.4-0.1,0.5l-1.4,0.8c-0.2,0.1-0.4,0-0.5-0.1l-0.2-0.3
		c-0.1-0.2,0-0.4,0.1-0.5l1.4-0.8C771.3,232.3,771.5,232.3,771.6,232.5z"/>
	<path fill="#515251" d="M770.5,231.3l1.8,3c0.1,0.2,0.3,0.2,0.5,0.1l0.4-0.2c0.2-0.1,0.2-0.3,0.1-0.5l-1.8-3
		c-0.1-0.2-0.3-0.2-0.5-0.1l-0.4,0.2C770.5,230.9,770.4,231.1,770.5,231.3z"/>
	<path fill="#515251" d="M768.3,230.8l2.8,4.8c0.3,0.5,0.1,1.1-0.4,1.4l-0.7,0.4c-0.5,0.3-1.1,0.1-1.4-0.4l-2.8-4.8
		c-0.3-0.5-0.1-1.1,0.4-1.4l0.7-0.4C767.4,230.1,768,230.3,768.3,230.8z"/>
</g>
<g>
	<path fill="#515251" d="M931,47.4c-1.1,1.4-3.2,2.6-3.2,2.6c-3.2,2.1-5.9,1.4-5.9,1.4c-4.5-0.4-5.3-4.6-5.3-4.6
		c-1.1-4.2,2.5-7.4,2.5-7.4c0.5-0.5,0-0.9,0-0.9c-2.4-2.6-2.4-4.6-2.4-4.6c-0.7-3.8,1.7-7,5-7.4c2.8-0.4,5.2,0.5,7.1,2
		c1.6,1.4,6.4,6.7,6.4,6.7l-1.5,1.4l-2.1-2.3c-2.5-2.8-4.6-4.4-4.6-4.4c-2.6-2.3-5.8-1-5.8-1c-3.3,1.6-2.5,4.6-2.5,4.6
		c0.8,2.7,2.8,4.2,2.8,4.2c0.7,0.7,0.6,1.2,0.6,1.2c0,0.5-0.6,0.9-0.6,0.9c-1.3,1.1-2.1,2.2-2.1,2.2c-2.5,3.7,0.5,6.1,0.5,6.1
		c2.5,1.9,5.6,0.4,5.6,0.4c1.6-0.8,3.2-2.1,3.2-2.1l1.1-1.1l0.7-0.7L931,47.4z"/>
	<polygon fill="#515251" points="935.9,36 938.7,39.4 931.9,46.8 931.4,44.4 935.9,39.4 934.4,37.4 	"/>
	<path fill="#515251" d="M938.9,40.6l23,0.5c0.1,0,0.3-0.1,0.3-0.2l0-2c0-0.1-0.1-0.2-0.3-0.2l-23.1-0.5l1.1,1.3L938.9,40.6z"/>
	<path fill="#515251" d="M959.7,42.7l-0.3,0c-0.2,0-0.3-0.1-0.3-0.3l0-1.3c0-0.2,0.1-0.3,0.3-0.3l0.3,0c0.2,0,0.3,0.1,0.3,0.3l0,1.3
		C959.9,42.6,959.8,42.7,959.7,42.7z"/>
	<path fill="#515251" d="M961,42.5l-2.9-0.1c-0.2,0-0.3,0.1-0.3,0.3l0,0.4c0,0.2,0.1,0.3,0.3,0.3l2.9,0.1c0.2,0,0.3-0.1,0.3-0.3
		l0-0.4C961.2,42.6,961.1,42.5,961,42.5z"/>
	<path fill="#515251" d="M962.3,41.1l-4.7-0.1c-0.5,0-0.9-0.4-0.8-0.9l0-0.7c0-0.5,0.4-0.9,0.9-0.8l4.7,0.1c0.5,0,0.9,0.4,0.8,0.9
		l0,0.7C963.2,40.7,962.8,41.1,962.3,41.1z"/>
</g>
<g>
	<path fill="#515251" d="M757,201.4c1.4,1.3,2.6,3.6,2.6,3.6c2,3.6,1.1,6.5,1.1,6.5c-0.7,4.8-5.2,5.4-5.2,5.4
		c-4.6,0.9-7.8-3.2-7.8-3.2c-0.5-0.5-0.9-0.1-0.9-0.1c-2.9,2.4-5.1,2.3-5.1,2.3c-4.1,0.5-7.4-2.3-7.6-5.8c-0.2-3,0.8-5.6,2.6-7.5
		c1.6-1.7,7.6-6.5,7.6-6.5l1.5,1.7l-2.6,2.1c-3.1,2.5-5,4.7-5,4.7c-2.6,2.6-1.4,6.1-1.4,6.1c1.5,3.7,4.8,3,4.8,3
		c3-0.6,4.7-2.8,4.7-2.8c0.8-0.7,1.4-0.6,1.4-0.6c0.5,0.1,0.9,0.7,0.9,0.7c1.1,1.5,2.3,2.4,2.3,2.4c3.8,2.9,6.6-0.1,6.6-0.1
		c2.2-2.5,0.8-5.9,0.8-5.9c-0.7-1.7-2-3.5-2-3.5l-1.1-1.3l-0.7-0.8L757,201.4z"/>
	<polygon fill="#515251" points="745.1,195.4 749,192.6 756.4,200.4 753.8,200.7 748.8,195.6 746.5,197.1 	"/>
	<path fill="#515251" d="M750.2,192.5l2-24.6c0-0.2-0.1-0.3-0.2-0.3l-2.1-0.2c-0.1,0-0.3,0.1-0.3,0.3l-2,24.8l1.5-1.1L750.2,192.5z"
		/>
	<path fill="#515251" d="M753.8,170.3l0,0.3c0,0.2-0.2,0.3-0.3,0.3l-1.4-0.1c-0.2,0-0.3-0.2-0.3-0.3l0-0.3c0-0.2,0.2-0.3,0.3-0.3
		l1.4,0.1C753.7,170,753.8,170.2,753.8,170.3z"/>
	<path fill="#515251" d="M753.6,168.9l-0.2,3.1c0,0.2,0.1,0.3,0.3,0.3l0.4,0c0.2,0,0.3-0.1,0.3-0.3l0.2-3.1c0-0.2-0.1-0.3-0.3-0.3
		l-0.4,0C753.8,168.6,753.7,168.7,753.6,168.9z"/>
	<path fill="#515251" d="M752.2,167.4l-0.4,5c0,0.5-0.5,0.9-1,0.8l-0.8-0.1c-0.5,0-0.9-0.5-0.8-1l0.4-5c0-0.5,0.5-0.9,1-0.8l0.8,0.1
		C751.9,166.4,752.3,166.9,752.2,167.4z"/>
</g>
<g opacity="0.7">
	<path fill="#515251" d="M1222.7,49.6c0,1.9-1,4.3-1,4.3c-1.4,3.9-4.1,5.1-4.1,5.1c-4.1,2.6-7.5-0.4-7.5-0.4c-3.7-2.9-2.8-8-2.8-8
		c0.1-0.7-0.5-0.8-0.5-0.8c-3.7-0.6-5.1-2.3-5.1-2.3c-3.1-2.8-3.2-7.1-0.6-9.6c2.1-2.1,4.8-3,7.4-3c2.3,0.1,9.9,1.5,9.9,1.5
		l-0.3,2.2l-3.3-0.6c-3.9-0.7-6.8-0.7-6.8-0.7c-3.7-0.2-5.6,3-5.6,3c-1.8,3.5,0.9,5.6,0.9,5.6c2.4,1.8,5.2,1.7,5.2,1.7
		c1.1,0.1,1.4,0.6,1.4,0.6c0.3,0.4,0.1,1.1,0.1,1.1c-0.4,1.8-0.3,3.3-0.3,3.3c0.3,4.8,4.4,4.9,4.4,4.9c3.4,0,5-3.3,5-3.3
		c0.8-1.7,1.3-3.9,1.3-3.9l0.3-1.7l0.2-1.1L1222.7,49.6z"/>
	<polygon fill="#515251" points="1219.4,36.8 1224,37.9 1223,48.6 1221.1,46.8 1221.6,39.6 1219,39 	"/>
	<path fill="#515251" d="M1224.9,38.7l19.8-14.7c0.1-0.1,0.1-0.3,0.1-0.4l-1.3-1.7c-0.1-0.1-0.3-0.1-0.4,0l-19.9,14.8l1.9,0.4
		L1224.9,38.7z"/>
	<path fill="#515251" d="M1243.9,26.8l-0.2,0.2c-0.1,0.1-0.3,0.1-0.4-0.1l-0.9-1.2c-0.1-0.1-0.1-0.3,0.1-0.4l0.2-0.2
		c0.1-0.1,0.3-0.1,0.4,0.1l0.9,1.2C1244.1,26.5,1244.1,26.7,1243.9,26.8z"/>
	<path fill="#515251" d="M1244.9,25.8l-2.5,1.9c-0.1,0.1-0.2,0.3-0.1,0.4l0.2,0.3c0.1,0.1,0.3,0.2,0.4,0.1l2.5-1.9
		c0.1-0.1,0.2-0.3,0.1-0.4l-0.2-0.3C1245.2,25.7,1245,25.7,1244.9,25.8z"/>
	<path fill="#515251" d="M1245.1,23.7l-4,3c-0.4,0.3-1,0.2-1.3-0.2l-0.5-0.6c-0.3-0.4-0.2-1,0.2-1.3l4-3c0.4-0.3,1-0.2,1.3,0.2
		l0.5,0.6C1245.6,22.8,1245.5,23.4,1245.1,23.7z"/>
</g>
<g>
	<path fill="#515251" d="M761.6,106c0-1.2,0.7-2.9,0.7-2.9c0.9-2.6,2.8-3.3,2.8-3.3c2.7-1.7,4.9,0.3,4.9,0.3
		c2.4,1.9,1.8,5.3,1.8,5.3c-0.1,0.5,0.3,0.5,0.3,0.5c2.4,0.4,3.3,1.5,3.3,1.5c2,1.9,2.1,4.7,0.3,6.3c-1.4,1.4-3.2,2-4.9,1.9
		c-1.5-0.1-6.5-1.1-6.5-1.1l0.2-1.5l2.2,0.4c2.6,0.5,4.5,0.5,4.5,0.5c2.4,0.2,3.7-1.9,3.7-1.9c1.2-2.3-0.6-3.7-0.6-3.7
		c-1.6-1.2-3.4-1.2-3.4-1.2c-0.7-0.1-0.9-0.4-0.9-0.4c-0.2-0.3,0-0.8,0-0.8c0.3-1.2,0.2-2.2,0.2-2.2c-0.2-3.2-2.9-3.3-2.9-3.3
		c-2.2,0-3.3,2.1-3.3,2.1c-0.6,1.1-0.9,2.5-0.9,2.5l-0.2,1.1l-0.1,0.7L761.6,106z"/>
	<polygon fill="#515251" points="763.7,114.5 760.7,113.8 761.3,106.7 762.6,107.9 762.2,112.6 763.9,113.1 	"/>
	<path fill="#515251" d="M760,113.2l-13.2,9.6c-0.1,0.1-0.1,0.2,0,0.2l0.8,1.1c0.1,0.1,0.2,0.1,0.2,0l13.2-9.6l-1.2-0.3L760,113.2z"
		/>
	<path fill="#515251" d="M747.4,120.9l0.2-0.1c0.1-0.1,0.2,0,0.3,0l0.6,0.8c0.1,0.1,0,0.2,0,0.3l-0.2,0.1c-0.1,0.1-0.2,0-0.3,0
		l-0.6-0.8C747.3,121.1,747.3,121,747.4,120.9z"/>
	<path fill="#515251" d="M746.8,121.6l1.7-1.2c0.1-0.1,0.1-0.2,0-0.3l-0.1-0.2c-0.1-0.1-0.2-0.1-0.3,0l-1.7,1.2
		c-0.1,0.1-0.1,0.2,0,0.3l0.1,0.2C746.6,121.7,746.7,121.7,746.8,121.6z"/>
	<path fill="#515251" d="M746.6,123l2.7-1.9c0.3-0.2,0.7-0.1,0.9,0.1l0.3,0.4c0.2,0.3,0.1,0.7-0.1,0.9l-2.7,1.9
		c-0.3,0.2-0.7,0.1-0.9-0.1l-0.3-0.4C746.3,123.6,746.4,123.2,746.6,123z"/>
</g>
<g opacity="0.2">
	<path fill="#515251" d="M737.5,36.9c-1.7,0.7-4.4,0.8-4.4,0.8c-4.2,0.2-6.3-1.9-6.3-1.9c-4-2.8-2.5-7.1-2.5-7.1
		c1.2-4.6,6.3-5.6,6.3-5.6c0.7-0.2,0.5-0.8,0.5-0.8c-0.9-3.7,0.2-5.6,0.2-5.6c1.4-3.9,5.3-5.7,8.6-4.2c2.8,1.1,4.6,3.2,5.6,5.7
		c0.8,2.2,2.4,9.7,2.4,9.7l-2.2,0.6l-0.7-3.3c-0.9-3.9-2-6.6-2-6.6c-1.2-3.5-4.9-4-4.9-4c-3.9-0.3-4.8,3-4.8,3
		c-0.7,3,0.4,5.4,0.4,5.4c0.3,1-0.1,1.5-0.1,1.5c-0.3,0.4-1,0.5-1,0.5c-1.8,0.3-3.1,1-3.1,1c-4.3,2.1-2.8,6-2.8,6
		c1.3,3.1,5,3.4,5,3.4c1.9,0.1,4.1-0.3,4.1-0.3l1.6-0.4l1.1-0.3L737.5,36.9z"/>
	<polygon fill="#515251" points="748.1,28.9 748.9,33.6 738.6,36.9 739.5,34.4 746.3,32.1 746,29.5 	"/>
	<path fill="#515251" d="M748.5,34.8l21.2,12.7c0.1,0.1,0.3,0,0.4-0.1l1.1-1.8c0.1-0.1,0-0.3-0.1-0.4l-21.3-12.8l0.4,1.9L748.5,34.8
		z"/>
	<path fill="#515251" d="M766.7,47.9l-0.3-0.2c-0.1-0.1-0.2-0.3-0.1-0.4l0.7-1.2c0.1-0.1,0.3-0.2,0.4-0.1l0.3,0.2
		c0.1,0.1,0.2,0.3,0.1,0.4l-0.7,1.2C767,47.9,766.9,47.9,766.7,47.9z"/>
	<path fill="#515251" d="M768,48.4l-2.7-1.6c-0.1-0.1-0.3,0-0.4,0.1l-0.2,0.3c-0.1,0.1,0,0.3,0.1,0.4l2.7,1.6c0.1,0.1,0.3,0,0.4-0.1
		l0.2-0.3C768.2,48.6,768.2,48.5,768,48.4z"/>
	<path fill="#515251" d="M770,47.8l-4.3-2.6c-0.4-0.3-0.6-0.8-0.3-1.3l0.4-0.7c0.3-0.4,0.8-0.6,1.3-0.3l4.3,2.6
		c0.4,0.3,0.6,0.8,0.3,1.3l-0.4,0.7C771.1,47.9,770.5,48.1,770,47.8z"/>
</g>
<g opacity="0.3">
	<path fill="#515251" d="M956.4,118c3.6,0.2,8.3,2.3,8.3,2.3c7.4,3,9.5,8.5,9.5,8.5c4.6,8.2-1.5,14.4-1.5,14.4
		c-5.9,7-15.7,4.6-15.7,4.6c-1.4-0.2-1.5,1-1.5,1c-1.5,7.1-4.9,9.6-4.9,9.6c-5.7,5.8-14,5.5-18.6,0.3c-4-4.3-5.4-9.5-5.1-14.5
		c0.4-4.4,3.9-19,3.9-19l4.2,0.8l-1.5,6.4c-1.7,7.5-2,13.1-2,13.1c-0.8,7.1,5.2,11,5.2,11c6.6,3.8,10.8-1.3,10.8-1.3
		c3.7-4.6,3.8-9.8,3.8-9.8c0.3-2.1,1.4-2.6,1.4-2.6c0.9-0.5,2.2-0.1,2.2-0.1c3.4,0.9,6.3,0.9,6.3,0.9c9.3-0.2,9.9-8.1,9.9-8.1
		c0.3-6.5-5.9-10-5.9-10c-3.2-1.8-7.3-2.9-7.3-2.9l-3.2-0.7l-2.1-0.4L956.4,118z"/>
	<polygon fill="#515251" points="931.2,123.2 933.7,114.4 954.4,117.2 950.8,120.8 936.9,119 935.4,124.1 	"/>
	<path fill="#515251" d="M935.4,112.6l-26.6-39.7c-0.2-0.2-0.5-0.3-0.7-0.2l-3.4,2.3c-0.2,0.1-0.3,0.5-0.1,0.7l26.7,39.9l0.9-3.5
		L935.4,112.6z"/>
	<path fill="#515251" d="M914.3,74.7l0.3,0.5c0.2,0.3,0.1,0.6-0.2,0.8l-2.3,1.5c-0.3,0.2-0.6,0.1-0.8-0.2L911,77
		c-0.2-0.3-0.1-0.6,0.2-0.8l2.3-1.5C913.7,74.4,914.1,74.5,914.3,74.7z"/>
	<path fill="#515251" d="M912.4,72.8l3.4,5c0.2,0.3,0.6,0.3,0.8,0.2l0.6-0.4c0.3-0.2,0.3-0.6,0.2-0.8l-3.4-5
		c-0.2-0.3-0.6-0.3-0.8-0.2l-0.6,0.4C912.2,72.1,912.2,72.5,912.4,72.8z"/>
	<path fill="#515251" d="M908.4,72.1l5.4,8.1c0.5,0.8,0.3,1.9-0.5,2.5l-1.2,0.8c-0.8,0.5-1.9,0.3-2.5-0.5l-5.4-8.1
		c-0.5-0.8-0.3-1.9,0.5-2.5l1.2-0.8C906.7,71.1,907.8,71.3,908.4,72.1z"/>
</g>
<g>
	<path fill="#515251" d="M873.4,225.7c0.1-2.5,1.4-5.7,1.4-5.7c1.9-5.2,5.6-6.7,5.6-6.7c5.5-3.4,10,0.7,10,0.7
		c4.9,3.9,3.5,10.7,3.5,10.7c-0.1,0.9,0.7,1,0.7,1c4.9,0.9,6.7,3.1,6.7,3.1c4.1,3.8,4.1,9.5,0.6,12.8c-2.8,2.8-6.4,3.9-9.9,3.8
		c-3.1-0.2-13.1-2.2-13.1-2.2l0.5-2.9l4.4,0.9c5.2,1,9,1.1,9,1.1c4.9,0.4,7.4-3.8,7.4-3.8c2.5-4.6-1.1-7.4-1.1-7.4
		c-3.2-2.5-6.8-2.4-6.8-2.4c-1.4-0.1-1.8-0.9-1.8-0.9c-0.4-0.6-0.1-1.5-0.1-1.5c0.6-2.4,0.5-4.3,0.5-4.3c-0.3-6.4-5.8-6.6-5.8-6.6
		c-4.5-0.1-6.7,4.3-6.7,4.3c-1.2,2.2-1.8,5.1-1.8,5.1l-0.4,2.2l-0.2,1.4L873.4,225.7z"/>
	<polygon fill="#515251" points="877.5,242.9 871.4,241.3 872.9,227.1 875.5,229.5 874.6,239 878.1,240 	"/>
	<path fill="#515251" d="M870.2,240.2l-26.7,19.1c-0.2,0.1-0.2,0.3-0.1,0.5l1.6,2.3c0.1,0.2,0.3,0.2,0.5,0.1l26.9-19.2l-2.5-0.5
		L870.2,240.2z"/>
	<path fill="#515251" d="M844.6,255.6l0.3-0.2c0.2-0.1,0.4-0.1,0.6,0.1l1.1,1.6c0.1,0.2,0.1,0.4-0.1,0.6l-0.3,0.2
		c-0.2,0.1-0.4,0.1-0.6-0.1l-1.1-1.6C844.4,256,844.5,255.7,844.6,255.6z"/>
	<path fill="#515251" d="M843.3,256.9l3.4-2.4c0.2-0.1,0.2-0.4,0.1-0.6l-0.3-0.4c-0.1-0.2-0.4-0.2-0.6-0.1l-3.4,2.4
		c-0.2,0.1-0.2,0.4-0.1,0.6l0.3,0.4C842.9,257,843.1,257.1,843.3,256.9z"/>
	<path fill="#515251" d="M843,259.7l5.4-3.9c0.6-0.4,1.3-0.3,1.7,0.3l0.6,0.8c0.4,0.6,0.3,1.3-0.3,1.7l-5.4,3.9
		c-0.6,0.4-1.3,0.3-1.7-0.3l-0.6-0.8C842.3,260.8,842.4,260.1,843,259.7z"/>
</g>
<g opacity="0.55">
	<path fill="#515251" d="M910.3,342.4c2.4-0.7,5.9-0.5,5.9-0.5c5.5,0.2,8.1,3.2,8.1,3.2c4.9,4.2,2.4,9.7,2.4,9.7
		c-2.2,5.9-9.1,6.6-9.1,6.6c-0.9,0.2-0.8,1-0.8,1c0.7,5-0.9,7.4-0.9,7.4c-2.3,5.1-7.8,6.8-11.9,4.5c-3.6-1.8-5.7-4.9-6.7-8.2
		c-0.7-3-1.9-13.2-1.9-13.2l2.9-0.5l0.5,4.5c0.7,5.3,1.8,8.9,1.8,8.9c1.2,4.8,6,5.9,6,5.9c5.2,0.9,6.7-3.4,6.7-3.4
		c1.4-3.8,0.2-7.2,0.2-7.2c-0.3-1.4,0.3-2,0.3-2c0.4-0.5,1.4-0.6,1.4-0.6c2.4-0.2,4.3-0.9,4.3-0.9c6-2.3,4.5-7.6,4.5-7.6
		c-1.3-4.3-6.2-5.1-6.2-5.1c-2.5-0.4-5.4-0.2-5.4-0.2l-2.2,0.3l-1.4,0.2L910.3,342.4z"/>
	<polygon fill="#515251" points="895.2,351.6 894.8,345.4 908.8,342.4 907.3,345.5 897.9,347.6 898.1,351.2 	"/>
	<path fill="#515251" d="M895.5,343.8L869,324.4c-0.2-0.1-0.4-0.1-0.5,0.1l-1.7,2.2c-0.1,0.1-0.1,0.4,0.1,0.5l26.6,19.6l-0.2-2.5
		L895.5,343.8z"/>
	<path fill="#515251" d="M872.9,324.3l0.3,0.2c0.2,0.1,0.2,0.4,0.1,0.6l-1.1,1.5c-0.1,0.2-0.4,0.2-0.6,0.1l-0.3-0.2
		c-0.2-0.1-0.2-0.4-0.1-0.6l1.1-1.5C872.5,324.2,872.7,324.2,872.9,324.3z"/>
	<path fill="#515251" d="M871.2,323.5l3.3,2.5c0.2,0.1,0.4,0.1,0.6-0.1l0.3-0.4c0.1-0.2,0.1-0.4-0.1-0.6l-3.3-2.5
		c-0.2-0.1-0.4-0.1-0.6,0.1l-0.3,0.4C871,323.1,871,323.3,871.2,323.5z"/>
	<path fill="#515251" d="M868.5,324l5.4,4c0.5,0.4,0.7,1.2,0.3,1.7l-0.6,0.8c-0.4,0.5-1.2,0.7-1.7,0.3l-5.4-4
		c-0.5-0.4-0.7-1.2-0.3-1.7l0.6-0.8C867.2,323.7,868,323.6,868.5,324z"/>
</g>
<g>
	<path fill="#515251" d="M853.7,162.1c0,0.9-0.5,2.1-0.5,2.1c-0.7,1.9-2,2.5-2,2.5c-2,1.2-3.6-0.2-3.6-0.2c-1.8-1.4-1.3-3.9-1.3-3.9
		c0-0.3-0.3-0.4-0.3-0.4c-1.8-0.3-2.5-1.1-2.5-1.1c-1.5-1.4-1.5-3.4-0.3-4.6c1-1,2.3-1.5,3.6-1.4c1.1,0.1,4.8,0.8,4.8,0.8l-0.2,1.1
		l-1.6-0.3c-1.9-0.4-3.3-0.4-3.3-0.4c-1.8-0.1-2.7,1.4-2.7,1.4c-0.9,1.7,0.4,2.7,0.4,2.7c1.2,0.9,2.5,0.8,2.5,0.8
		c0.5,0,0.7,0.3,0.7,0.3c0.1,0.2,0,0.6,0,0.6c-0.2,0.9-0.2,1.6-0.2,1.6c0.1,2.3,2.1,2.4,2.1,2.4c1.6,0,2.4-1.6,2.4-1.6
		c0.4-0.8,0.6-1.9,0.6-1.9l0.1-0.8l0.1-0.5L853.7,162.1z"/>
	<polygon fill="#515251" points="852.2,155.8 854.4,156.4 853.9,161.6 853,160.7 853.3,157.2 852,156.9 	"/>
	<path fill="#515251" d="M854.9,156.8l9.7-7c0.1,0,0.1-0.1,0-0.2l-0.6-0.8c0-0.1-0.1-0.1-0.2,0l-9.7,7.1l0.9,0.2L854.9,156.8z"/>
	<path fill="#515251" d="M864.1,151.1l-0.1,0.1c-0.1,0-0.2,0-0.2,0l-0.4-0.6c0-0.1,0-0.2,0-0.2l0.1-0.1c0.1,0,0.2,0,0.2,0l0.4,0.6
		C864.2,151,864.2,151.1,864.1,151.1z"/>
	<path fill="#515251" d="M864.6,150.6l-1.2,0.9c-0.1,0-0.1,0.1,0,0.2l0.1,0.2c0,0.1,0.1,0.1,0.2,0l1.2-0.9c0.1,0,0.1-0.1,0-0.2
		l-0.1-0.2C864.7,150.6,864.7,150.6,864.6,150.6z"/>
	<path fill="#515251" d="M864.7,149.6l-2,1.4c-0.2,0.1-0.5,0.1-0.6-0.1l-0.2-0.3c-0.1-0.2-0.1-0.5,0.1-0.6l2-1.4
		c0.2-0.1,0.5-0.1,0.6,0.1l0.2,0.3C864.9,149.2,864.9,149.5,864.7,149.6z"/>
</g>
<g opacity="0.4">
	<path fill="#515251" d="M803.1,158.2c1.2-0.3,2.9-0.2,2.9-0.2c2.7,0.1,4,1.6,4,1.6c2.4,2.1,1.2,4.8,1.2,4.8
		c-1.1,2.9-4.5,3.3-4.5,3.3c-0.5,0.1-0.4,0.5-0.4,0.5c0.4,2.5-0.5,3.7-0.5,3.7c-1.2,2.5-3.9,3.4-5.9,2.2c-1.8-0.9-2.8-2.4-3.3-4.1
		c-0.4-1.5-1-6.5-1-6.5l1.5-0.2l0.3,2.2c0.3,2.6,0.9,4.4,0.9,4.4c0.6,2.4,3,2.9,3,2.9c2.6,0.4,3.3-1.7,3.3-1.7
		c0.7-1.9,0.1-3.6,0.1-3.6c-0.1-0.7,0.1-1,0.1-1c0.2-0.3,0.7-0.3,0.7-0.3c1.2-0.1,2.1-0.4,2.1-0.4c3-1.1,2.2-3.8,2.2-3.8
		c-0.7-2.1-3.1-2.5-3.1-2.5c-1.2-0.2-2.7-0.1-2.7-0.1l-1.1,0.2l-0.7,0.1L803.1,158.2z"/>
	<polygon fill="#515251" points="795.6,162.8 795.4,159.6 802.4,158.1 801.6,159.7 797,160.8 797.1,162.6 	"/>
	<path fill="#515251" d="M795.7,158.9l-13.2-9.7c-0.1-0.1-0.2,0-0.3,0l-0.8,1.1c-0.1,0.1,0,0.2,0,0.2l13.2,9.7l-0.1-1.2L795.7,158.9
		z"/>
	<path fill="#515251" d="M784.5,149.2l0.2,0.1c0.1,0.1,0.1,0.2,0,0.3l-0.6,0.8c-0.1,0.1-0.2,0.1-0.3,0l-0.2-0.1
		c-0.1-0.1-0.1-0.2,0-0.3l0.6-0.8C784.3,149.1,784.4,149.1,784.5,149.2z"/>
	<path fill="#515251" d="M783.7,148.7l1.7,1.2c0.1,0.1,0.2,0,0.3,0l0.2-0.2c0.1-0.1,0-0.2,0-0.3l-1.7-1.2c-0.1-0.1-0.2,0-0.3,0
		l-0.2,0.2C783.6,148.6,783.6,148.7,783.7,148.7z"/>
	<path fill="#515251" d="M782.3,149l2.7,2c0.3,0.2,0.3,0.6,0.1,0.9l-0.3,0.4c-0.2,0.3-0.6,0.3-0.9,0.1l-2.7-2
		c-0.3-0.2-0.3-0.6-0.1-0.9l0.3-0.4C781.7,148.9,782,148.8,782.3,149z"/>
</g>
<g>
	<path fill="#515251" d="M816.5,323.3c0.1-1.8,1-4.1,1-4.1c1.4-3.7,4-4.8,4-4.8c3.9-2.4,7.1,0.5,7.1,0.5c3.5,2.8,2.5,7.6,2.5,7.6
		c-0.1,0.7,0.5,0.7,0.5,0.7c3.5,0.6,4.8,2.2,4.8,2.2c2.9,2.7,2.9,6.7,0.4,9c-2,2-4.5,2.8-7,2.7c-2.2-0.2-9.3-1.6-9.3-1.6l0.3-2.1
		l3.1,0.6c3.7,0.7,6.4,0.8,6.4,0.8c3.5,0.3,5.3-2.7,5.3-2.7c1.7-3.3-0.8-5.3-0.8-5.3c-2.3-1.8-4.8-1.7-4.8-1.7
		c-1-0.1-1.3-0.6-1.3-0.6c-0.3-0.4-0.1-1.1-0.1-1.1c0.4-1.7,0.4-3.1,0.4-3.1c-0.2-4.5-4.1-4.7-4.1-4.7c-3.2,0-4.8,3-4.8,3
		c-0.8,1.6-1.3,3.6-1.3,3.6l-0.3,1.6l-0.2,1L816.5,323.3z"/>
	<polygon fill="#515251" points="819.4,335.4 815.1,334.3 816.2,324.2 818,325.9 817.3,332.7 819.8,333.4 	"/>
	<path fill="#515251" d="M814.2,333.5l-18.9,13.5c-0.1,0.1-0.1,0.2-0.1,0.4l1.2,1.6c0.1,0.1,0.2,0.1,0.4,0l19-13.6l-1.7-0.4
		L814.2,333.5z"/>
	<path fill="#515251" d="M796.1,344.4l0.2-0.2c0.1-0.1,0.3-0.1,0.4,0.1l0.8,1.1c0.1,0.1,0.1,0.3-0.1,0.4l-0.2,0.2
		c-0.1,0.1-0.3,0.1-0.4-0.1l-0.8-1.1C796,344.7,796,344.5,796.1,344.4z"/>
	<path fill="#515251" d="M795.2,345.4l2.4-1.7c0.1-0.1,0.2-0.3,0.1-0.4l-0.2-0.3c-0.1-0.1-0.3-0.2-0.4-0.1l-2.4,1.7
		c-0.1,0.1-0.2,0.3-0.1,0.4l0.2,0.3C794.9,345.5,795.1,345.5,795.2,345.4z"/>
	<path fill="#515251" d="M794.9,347.3l3.9-2.8c0.4-0.3,0.9-0.2,1.2,0.2l0.4,0.6c0.3,0.4,0.2,0.9-0.2,1.2l-3.9,2.8
		c-0.4,0.3-0.9,0.2-1.2-0.2l-0.4-0.6C794.5,348.2,794.5,347.6,794.9,347.3z"/>
</g>
<g>
	<path fill="#515251" d="M975.4,227.6c-1.9,0.5-4.7,0.2-4.7,0.2c-4.4-0.4-6.3-2.8-6.3-2.8c-3.7-3.5-1.6-7.7-1.6-7.7
		c1.9-4.6,7.4-4.9,7.4-4.9c0.7-0.1,0.6-0.8,0.6-0.8c-0.4-3.9,1-5.8,1-5.8c2-3.9,6.4-5.1,9.6-3.2c2.7,1.6,4.4,4,5,6.7
		c0.5,2.4,1.1,10.5,1.1,10.5l-2.3,0.3l-0.3-3.5c-0.3-4.2-1.1-7.1-1.1-7.1c-0.8-3.8-4.5-4.8-4.5-4.8c-4.1-0.9-5.4,2.4-5.4,2.4
		c-1.2,3-0.4,5.7-0.4,5.7c0.2,1.1-0.3,1.6-0.3,1.6c-0.4,0.4-1.1,0.4-1.1,0.4c-1.9,0.1-3.4,0.5-3.4,0.5c-4.8,1.6-3.8,5.8-3.8,5.8
		c0.9,3.4,4.7,4.2,4.7,4.2c1.9,0.4,4.3,0.3,4.3,0.3l1.8-0.2l1.1-0.1L975.4,227.6z"/>
	<polygon fill="#515251" points="987.6,220.8 987.8,225.8 976.6,227.7 977.9,225.3 985.3,223.9 985.3,221 	"/>
	<path fill="#515251" d="M987.2,227l20.2,16.3c0.1,0.1,0.3,0.1,0.4,0l1.4-1.7c0.1-0.1,0.1-0.3-0.1-0.4l-20.4-16.3l0.1,2L987.2,227z"
		/>
	<path fill="#515251" d="M1004.3,243.1l-0.3-0.2c-0.1-0.1-0.2-0.3,0-0.5l0.9-1.2c0.1-0.1,0.3-0.2,0.5,0l0.3,0.2
		c0.1,0.1,0.2,0.3,0,0.5l-0.9,1.2C1004.7,243.2,1004.5,243.3,1004.3,243.1z"/>
	<path fill="#515251" d="M1005.6,243.9l-2.6-2.1c-0.1-0.1-0.3-0.1-0.5,0l-0.3,0.3c-0.1,0.1-0.1,0.3,0,0.5l2.6,2.1
		c0.1,0.1,0.3,0.1,0.5,0l0.3-0.3C1005.8,244.2,1005.8,244,1005.6,243.9z"/>
	<path fill="#515251" d="M1007.8,243.5l-4.1-3.3c-0.4-0.3-0.5-1-0.1-1.4l0.5-0.6c0.3-0.4,1-0.5,1.4-0.1l4.1,3.3
		c0.4,0.3,0.5,1,0.1,1.4l-0.5,0.6C1008.8,243.8,1008.2,243.9,1007.8,243.5z"/>
</g>
<g opacity="0.4">
	<path fill="#515251" d="M986.6,380.9c0,1.9-1,4.3-1,4.3c-1.4,3.9-4.1,5.1-4.1,5.1c-4.1,2.6-7.5-0.4-7.5-0.4c-3.7-2.9-2.8-8-2.8-8
		c0.1-0.7-0.5-0.8-0.5-0.8c-3.7-0.6-5.1-2.3-5.1-2.3c-3.1-2.8-3.2-7.1-0.6-9.6c2.1-2.1,4.8-3,7.4-3c2.3,0.1,9.9,1.5,9.9,1.5
		l-0.3,2.2l-3.3-0.6c-3.9-0.7-6.8-0.7-6.8-0.7c-3.7-0.2-5.6,3-5.6,3c-1.8,3.5,0.9,5.6,0.9,5.6c2.4,1.8,5.2,1.7,5.2,1.7
		c1.1,0.1,1.4,0.6,1.4,0.6c0.3,0.4,0.1,1.1,0.1,1.1c-0.4,1.8-0.3,3.3-0.3,3.3c0.3,4.8,4.4,4.9,4.4,4.9c3.4,0,5-3.3,5-3.3
		c0.8-1.7,1.3-3.9,1.3-3.9l0.3-1.7l0.2-1.1L986.6,380.9z"/>
	<polygon fill="#515251" points="983.3,368 987.9,369.1 986.9,379.9 985,378.1 985.5,370.9 982.9,370.2 	"/>
	<path fill="#515251" d="M988.8,370l19.8-14.7c0.1-0.1,0.1-0.3,0.1-0.4l-1.3-1.7c-0.1-0.1-0.3-0.1-0.4,0l-19.9,14.8l1.9,0.4
		L988.8,370z"/>
	<path fill="#515251" d="M1007.8,358.1l-0.2,0.2c-0.1,0.1-0.3,0.1-0.4-0.1l-0.9-1.2c-0.1-0.1-0.1-0.3,0.1-0.4l0.2-0.2
		c0.1-0.1,0.3-0.1,0.4,0.1l0.9,1.2C1008,357.8,1008,358,1007.8,358.1z"/>
	<path fill="#515251" d="M1008.8,357l-2.5,1.9c-0.1,0.1-0.2,0.3-0.1,0.4l0.2,0.3c0.1,0.1,0.3,0.2,0.4,0.1l2.5-1.9
		c0.1-0.1,0.2-0.3,0.1-0.4l-0.2-0.3C1009.2,357,1009,356.9,1008.8,357z"/>
	<path fill="#515251" d="M1009,355l-4,3c-0.4,0.3-1,0.2-1.3-0.2l-0.5-0.6c-0.3-0.4-0.2-1,0.2-1.3l4-3c0.4-0.3,1-0.2,1.3,0.2l0.5,0.6
		C1009.5,354.1,1009.5,354.7,1009,355z"/>
</g>
<g opacity="0.4">
	<path fill="#515251" d="M1075,276.4c-0.2,2.5-1.6,5.7-1.6,5.7c-2.1,5.1-5.8,6.5-5.8,6.5c-5.6,3.2-9.9-1-9.9-1
		c-4.8-4.1-3.1-10.8-3.1-10.8c0.1-0.9-0.7-1.1-0.7-1.1c-4.9-1-6.6-3.4-6.6-3.4c-4-3.9-3.8-9.6-0.2-12.8c2.9-2.7,6.5-3.7,10-3.5
		c3,0.3,13,2.7,13,2.7l-0.6,2.9l-4.4-1c-5.2-1.2-9-1.4-9-1.4c-4.9-0.5-7.6,3.6-7.6,3.6c-2.6,4.6,0.9,7.5,0.9,7.5
		c3.1,2.6,6.7,2.6,6.7,2.6c1.4,0.2,1.8,0.9,1.8,0.9c0.4,0.6,0,1.5,0,1.5c-0.6,2.4-0.6,4.3-0.6,4.3c0.1,6.4,5.6,6.8,5.6,6.8
		c4.5,0.2,6.9-4.1,6.9-4.1c1.2-2.2,2-5,2-5l0.5-2.2l0.3-1.4L1075,276.4z"/>
	<polygon fill="#515251" points="1071.4,259.1 1077.4,260.9 1075.5,275 1073,272.6 1074.2,263.1 1070.8,262 	"/>
	<path fill="#515251" d="M1078.6,262l27.3-18.2c0.2-0.1,0.2-0.3,0.1-0.5l-1.5-2.3c-0.1-0.2-0.3-0.2-0.5-0.1l-27.5,18.3l2.4,0.6
		L1078.6,262z"/>
	<path fill="#515251" d="M1104.7,247.5l-0.3,0.2c-0.2,0.1-0.4,0.1-0.6-0.1l-1.1-1.6c-0.1-0.2-0.1-0.4,0.1-0.6l0.3-0.2
		c0.2-0.1,0.4-0.1,0.6,0.1l1.1,1.6C1104.9,247.1,1104.9,247.4,1104.7,247.5z"/>
	<path fill="#515251" d="M1106,246.2l-3.4,2.3c-0.2,0.1-0.2,0.4-0.1,0.6l0.3,0.4c0.1,0.2,0.4,0.2,0.6,0.1l3.4-2.3
		c0.2-0.1,0.2-0.4,0.1-0.6l-0.3-0.4C1106.5,246.1,1106.2,246.1,1106,246.2z"/>
	<path fill="#515251" d="M1106.5,243.4l-5.6,3.7c-0.6,0.4-1.3,0.2-1.7-0.3l-0.6-0.9c-0.4-0.6-0.2-1.3,0.3-1.7l5.6-3.7
		c0.6-0.4,1.3-0.2,1.7,0.3l0.6,0.9C1107.2,242.3,1107.1,243.1,1106.5,243.4z"/>
</g>
<g opacity="0.4">
	<path fill="#515251" d="M1163.4,309.7c2.6,2.5,4.8,7.1,4.8,7.1c3.7,7.1,1.7,12.6,1.7,12.6c-1.8,9.2-10.5,10-10.5,10
		c-9,1.5-14.9-6.7-14.9-6.7c-0.9-1-1.8-0.3-1.8-0.3c-5.8,4.5-10,4.1-10,4.1c-8.1,0.7-14.2-4.9-14.3-11.9c-0.2-5.8,2.1-10.7,5.6-14.3
		c3.2-3.1,15.3-11.9,15.3-11.9l2.7,3.4l-5.3,3.9c-6.2,4.6-10,8.7-10,8.7c-5.2,4.9-3.2,11.8-3.2,11.8c2.6,7.2,9.1,6.1,9.1,6.1
		c5.8-1,9.3-5,9.3-5c1.5-1.4,2.7-1.1,2.7-1.1c1,0.2,1.7,1.4,1.7,1.4c2,2.9,4.2,4.8,4.2,4.8c7.2,5.9,12.8,0.3,12.8,0.3
		c4.5-4.8,2-11.4,2-11.4c-1.2-3.4-3.7-7-3.7-7l-2-2.6l-1.3-1.7L1163.4,309.7z"/>
	<polygon fill="#515251" points="1140.9,297.2 1148.5,292.2 1162.4,307.8 1157.3,308.2 1147.9,297.8 1143.5,300.7 	"/>
	<path fill="#515251" d="M1151,292l5.7-47.4c0-0.3-0.2-0.6-0.4-0.6l-4-0.5c-0.3,0-0.5,0.2-0.6,0.5l-5.7,47.7l3-2.1L1151,292z"/>
	<path fill="#515251" d="M1159.5,249.5l-0.1,0.6c0,0.3-0.3,0.6-0.7,0.5l-2.8-0.3c-0.3,0-0.6-0.3-0.5-0.7l0.1-0.6
		c0-0.3,0.3-0.6,0.7-0.5l2.8,0.3C1159.3,248.8,1159.5,249.1,1159.5,249.5z"/>
	<path fill="#515251" d="M1159.3,246.7l-0.7,6c0,0.3,0.2,0.6,0.5,0.7l0.7,0.1c0.3,0,0.6-0.2,0.7-0.5l0.7-6c0-0.3-0.2-0.6-0.5-0.7
		l-0.7-0.1C1159.7,246.1,1159.4,246.4,1159.3,246.7z"/>
	<path fill="#515251" d="M1156.7,243.6l-1.2,9.7c-0.1,1-1,1.7-2,1.6l-1.5-0.2c-1-0.1-1.7-1-1.6-2l1.2-9.7c0.1-1,1-1.7,2-1.6l1.5,0.2
		C1156.1,241.7,1156.8,242.6,1156.7,243.6z"/>
</g>
<g>
	<path fill="#515251" d="M1152.8,169.9c1.1-1.5,3.2-3.1,3.2-3.1c3.3-2.5,6.3-2,6.3-2c4.8,0.1,6,4.5,6,4.5c1.5,4.5-2.1,8.2-2.1,8.2
		c-0.5,0.5,0,0.9,0,0.9c2.8,2.5,3,4.7,3,4.7c1.1,4-1.2,7.7-4.8,8.3c-2.9,0.6-5.6-0.1-7.8-1.6c-1.8-1.4-7.4-6.7-7.4-6.7l1.5-1.7
		l2.4,2.3c2.9,2.8,5.3,4.3,5.3,4.3c2.9,2.2,6.3,0.6,6.3,0.6c3.4-1.9,2.3-5.2,2.3-5.2c-1-2.9-3.3-4.3-3.3-4.3
		c-0.8-0.7-0.8-1.3-0.8-1.3c0-0.5,0.6-1,0.6-1c1.3-1.3,2.1-2.6,2.1-2.6c2.4-4.2-1-6.5-1-6.5c-2.8-1.9-6,0-6,0
		c-1.6,0.9-3.2,2.5-3.2,2.5l-1.1,1.2l-0.7,0.8L1152.8,169.9z"/>
	<polygon fill="#515251" points="1148.5,182.5 1145.2,179.1 1151.9,170.6 1152.6,173.2 1148.1,178.9 1150,180.9 	"/>
	<path fill="#515251" d="M1144.9,177.8l-24.7,1.3c-0.2,0-0.3,0.1-0.3,0.3l0.1,2.1c0,0.1,0.1,0.3,0.3,0.2l24.8-1.3l-1.3-1.3
		L1144.9,177.8z"/>
	<path fill="#515251" d="M1122.5,177.2l0.3,0c0.2,0,0.3,0.1,0.3,0.3l0.1,1.4c0,0.2-0.1,0.3-0.3,0.3l-0.3,0c-0.2,0-0.3-0.1-0.3-0.3
		l-0.1-1.4C1122.2,177.4,1122.3,177.3,1122.5,177.2z"/>
	<path fill="#515251" d="M1121.1,177.6l3.1-0.2c0.2,0,0.3-0.2,0.3-0.3l0-0.4c0-0.2-0.2-0.3-0.3-0.3l-3.1,0.2c-0.2,0-0.3,0.2-0.3,0.3
		l0,0.4C1120.8,177.4,1120.9,177.6,1121.1,177.6z"/>
	<path fill="#515251" d="M1119.7,179.2l5-0.3c0.5,0,0.9,0.4,1,0.9l0,0.8c0,0.5-0.4,0.9-0.9,1l-5,0.3c-0.5,0-0.9-0.4-1-0.9l0-0.8
		C1118.8,179.6,1119.2,179.2,1119.7,179.2z"/>
</g>
<g opacity="0.3">
	<path fill="#515251" d="M1201.8,126c-1.9,0-4.4-0.8-4.4-0.8c-4-1.3-5.2-4-5.2-4c-2.7-4,0.2-7.5,0.2-7.5c2.8-3.8,7.9-3,7.9-3
		c0.7,0.1,0.8-0.6,0.8-0.6c0.5-3.7,2.1-5.2,2.1-5.2c2.7-3.2,7-3.4,9.6-0.9c2.2,2,3.2,4.7,3.2,7.3c-0.1,2.3-1.2,9.9-1.2,9.9l-2.2-0.2
		l0.5-3.3c0.6-4,0.5-6.8,0.5-6.8c0.1-3.7-3.1-5.5-3.1-5.5c-3.6-1.7-5.5,1.1-5.5,1.1c-1.7,2.5-1.6,5.2-1.6,5.2
		c-0.1,1.1-0.6,1.4-0.6,1.4c-0.4,0.3-1.1,0.1-1.1,0.1c-1.8-0.3-3.3-0.2-3.3-0.2c-4.8,0.5-4.8,4.6-4.8,4.6c0.1,3.4,3.4,4.9,3.4,4.9
		c1.7,0.8,3.9,1.2,3.9,1.2l1.7,0.2l1.1,0.1L1201.8,126z"/>
	<polygon fill="#515251" points="1214.6,122.3 1213.7,126.9 1202.9,126.3 1204.6,124.3 1211.8,124.6 1212.4,122 	"/>
	<path fill="#515251" d="M1212.8,127.9l15.3,19.4c0.1,0.1,0.3,0.1,0.4,0.1l1.6-1.3c0.1-0.1,0.1-0.3,0-0.4l-15.4-19.5l-0.3,1.9
		L1212.8,127.9z"/>
	<path fill="#515251" d="M1225.3,146.5l-0.2-0.2c-0.1-0.1-0.1-0.3,0.1-0.4l1.1-0.9c0.1-0.1,0.3-0.1,0.4,0.1l0.2,0.2
		c0.1,0.1,0.1,0.3-0.1,0.4l-1.1,0.9C1225.6,146.7,1225.4,146.7,1225.3,146.5z"/>
	<path fill="#515251" d="M1226.3,147.5l-1.9-2.5c-0.1-0.1-0.3-0.2-0.4-0.1l-0.3,0.2c-0.1,0.1-0.2,0.3-0.1,0.4l1.9,2.5
		c0.1,0.1,0.3,0.2,0.4,0.1l0.3-0.2C1226.4,147.8,1226.4,147.6,1226.3,147.5z"/>
	<path fill="#515251" d="M1228.4,147.7l-3.1-4c-0.3-0.4-0.2-1,0.2-1.3l0.6-0.5c0.4-0.3,1-0.2,1.3,0.2l3.1,4c0.3,0.4,0.2,1-0.2,1.3
		l-0.6,0.5C1229.3,148.1,1228.7,148.1,1228.4,147.7z"/>
</g>
<g opacity="0.59">
	<path fill="#515251" d="M1219.8,356.9l-1.1,0.1l-1.6,0.2c0,0-2.1,0.4-3.8,1.2c0,0-3.3,1.5-3.4,4.8c0,0,0,4,4.7,4.5
		c0,0,1.4,0.1,3.2-0.2c0,0,0.7-0.2,1.1,0.1c0,0,0.5,0.3,0.6,1.3c0,0-0.2,2.6,1.5,5.1c0,0,1.9,2.7,5.4,1.1c0,0,3.2-1.7,3.1-5.3
		c0,0,0.1-2.8-0.5-6.7l-0.5-3.3l2.2-0.2c0,0,1.1,7.5,1.2,9.7c0,2.5-1,5.1-3.1,7.1c-2.5,2.5-6.7,2.3-9.4-0.9c0,0-1.6-1.4-2.1-5
		c0,0,0-0.6-0.7-0.5c0,0-5,0.8-7.7-2.9c0,0-2.8-3.4-0.2-7.3c0,0,1.2-2.7,5.1-3.9c0,0,2.4-0.8,4.3-0.8L1219.8,356.9z"/>
	<polygon fill="#515251" points="1228.4,358.8 1227.9,356.2 1220.8,356.6 1219.1,354.6 1229.7,354 1230.6,358.6 	"/>
	<path fill="#515251" d="M1230.5,352.9l0.3,1.8l15-19.1c0.1-0.1,0.1-0.3,0-0.4l-1.6-1.3c-0.1-0.1-0.3-0.1-0.4,0.1l-14.9,19
		L1230.5,352.9z"/>
	<path fill="#515251" d="M1241.5,334.7l1.1,0.9c0.1,0.1,0.2,0.3,0.1,0.4l-0.2,0.2c-0.1,0.1-0.3,0.2-0.4,0.1l-1.1-0.9
		c-0.1-0.1-0.2-0.3-0.1-0.4l0.2-0.2C1241.1,334.7,1241.3,334.6,1241.5,334.7z"/>
	<path fill="#515251" d="M1242,333.4l-0.3-0.2c-0.1-0.1-0.3-0.1-0.4,0.1l-1.9,2.4c-0.1,0.1-0.1,0.3,0.1,0.4l0.3,0.2
		c0.1,0.1,0.3,0.1,0.4-0.1l1.9-2.4C1242.2,333.7,1242.2,333.5,1242,333.4z"/>
	<path fill="#515251" d="M1245.4,333.5l0.6,0.5c0.4,0.3,0.5,0.9,0.2,1.3l-3,3.9c-0.3,0.4-0.9,0.5-1.3,0.2l-0.6-0.5
		c-0.4-0.3-0.5-0.9-0.2-1.3l3-3.9C1244.4,333.3,1245,333.2,1245.4,333.5z"/>
</g>
<g opacity="0.34">
	<path fill="#515251" d="M1219.3,252.9l-1.1-0.1l-1.6-0.1c0,0-2.2,0-3.9,0.4c0,0-3.5,0.8-4.2,4c0,0-0.8,3.9,3.7,5.3
		c0,0,1.4,0.4,3.2,0.4c0,0,0.7,0,1.1,0.3c0,0,0.5,0.4,0.3,1.4c0,0-0.7,2.5,0.5,5.2c0,0,1.4,3,5.1,2.1c0,0,3.4-1.1,4-4.6
		c0,0,0.6-2.7,0.8-6.6l0.1-3.3l2.2,0.2c0,0-0.3,7.5-0.7,9.7c-0.5,2.5-1.9,4.8-4.4,6.3c-2.9,1.9-7,0.9-8.9-2.6c0,0-1.3-1.7-1.1-5.3
		c0,0,0.1-0.6-0.6-0.7c0,0-5-0.1-7-4.3c0,0-2.1-3.9,1.2-7.2c0,0,1.7-2.3,5.7-2.8c0,0,2.5-0.3,4.3,0L1219.3,252.9z"/>
	<polygon fill="#515251" points="1227.3,256.4 1227.2,253.8 1220.3,252.8 1219.1,250.6 1229.4,252 1229.5,256.6 	"/>
	<path fill="#515251" d="M1230.4,251.1l0,1.8l18.3-15.7c0.1-0.1,0.1-0.3,0-0.4l-1.3-1.5c-0.1-0.1-0.3-0.1-0.4,0l-18.1,15.6
		L1230.4,251.1z"/>
	<path fill="#515251" d="M1244.5,235.4l0.9,1.1c0.1,0.1,0.1,0.3,0,0.4l-0.2,0.2c-0.1,0.1-0.3,0.1-0.4,0l-0.9-1.1
		c-0.1-0.1-0.1-0.3,0-0.4l0.2-0.2C1244.2,235.3,1244.4,235.3,1244.5,235.4z"/>
	<path fill="#515251" d="M1245.3,234.3l-0.2-0.3c-0.1-0.1-0.3-0.1-0.4,0l-2.3,2c-0.1,0.1-0.1,0.3,0,0.4l0.2,0.3
		c0.1,0.1,0.3,0.1,0.4,0l2.3-2C1245.4,234.6,1245.5,234.4,1245.3,234.3z"/>
	<path fill="#515251" d="M1248.6,235l0.5,0.6c0.3,0.4,0.3,0.9-0.1,1.3l-3.7,3.2c-0.4,0.3-0.9,0.3-1.3-0.1l-0.5-0.6
		c-0.3-0.4-0.3-0.9,0.1-1.3l3.7-3.2C1247.7,234.6,1248.3,234.7,1248.6,235z"/>
</g>
</svg>
